%TF.GenerationSoftware,KiCad,Pcbnew,8.0.8*%
%TF.CreationDate,2025-02-19T22:11:45+00:00*%
%TF.ProjectId,Gotek,476f7465-6b2e-46b6-9963-61645f706362,rev?*%
%TF.SameCoordinates,Original*%
%TF.FileFunction,Soldermask,Top*%
%TF.FilePolarity,Negative*%
%FSLAX46Y46*%
G04 Gerber Fmt 4.6, Leading zero omitted, Abs format (unit mm)*
G04 Created by KiCad (PCBNEW 8.0.8) date 2025-02-19 22:11:45*
%MOMM*%
%LPD*%
G01*
G04 APERTURE LIST*
G04 Aperture macros list*
%AMRoundRect*
0 Rectangle with rounded corners*
0 $1 Rounding radius*
0 $2 $3 $4 $5 $6 $7 $8 $9 X,Y pos of 4 corners*
0 Add a 4 corners polygon primitive as box body*
4,1,4,$2,$3,$4,$5,$6,$7,$8,$9,$2,$3,0*
0 Add four circle primitives for the rounded corners*
1,1,$1+$1,$2,$3*
1,1,$1+$1,$4,$5*
1,1,$1+$1,$6,$7*
1,1,$1+$1,$8,$9*
0 Add four rect primitives between the rounded corners*
20,1,$1+$1,$2,$3,$4,$5,0*
20,1,$1+$1,$4,$5,$6,$7,0*
20,1,$1+$1,$6,$7,$8,$9,0*
20,1,$1+$1,$8,$9,$2,$3,0*%
G04 Aperture macros list end*
%ADD10C,5.000000*%
%ADD11R,1.700000X1.700000*%
%ADD12O,1.700000X1.700000*%
%ADD13RoundRect,0.250000X-0.350000X-0.450000X0.350000X-0.450000X0.350000X0.450000X-0.350000X0.450000X0*%
%ADD14RoundRect,0.250000X-0.475000X0.337500X-0.475000X-0.337500X0.475000X-0.337500X0.475000X0.337500X0*%
%ADD15R,1.600000X1.600000*%
%ADD16C,1.600000*%
%ADD17C,1.575000*%
%ADD18C,2.025000*%
%ADD19R,0.900000X0.600000*%
%ADD20R,1.800000X1.800000*%
%ADD21C,1.800000*%
%ADD22RoundRect,0.250000X-0.337500X-0.475000X0.337500X-0.475000X0.337500X0.475000X-0.337500X0.475000X0*%
%ADD23R,1.650000X0.700000*%
%ADD24R,1.500000X1.600000*%
%ADD25C,3.000000*%
%ADD26R,0.820000X0.420000*%
%ADD27R,1.475000X0.300000*%
%ADD28R,0.300000X1.475000*%
%ADD29RoundRect,0.250000X0.337500X0.475000X-0.337500X0.475000X-0.337500X-0.475000X0.337500X-0.475000X0*%
%ADD30RoundRect,0.250000X-0.450000X0.350000X-0.450000X-0.350000X0.450000X-0.350000X0.450000X0.350000X0*%
%ADD31C,1.500000*%
%ADD32R,0.950000X1.300000*%
%ADD33R,3.250000X1.300000*%
%ADD34RoundRect,0.250000X0.350000X0.450000X-0.350000X0.450000X-0.350000X-0.450000X0.350000X-0.450000X0*%
%ADD35RoundRect,0.150000X-0.825000X-0.150000X0.825000X-0.150000X0.825000X0.150000X-0.825000X0.150000X0*%
G04 APERTURE END LIST*
D10*
%TO.C,H1*%
X118491000Y-60642500D03*
%TD*%
%TO.C,H2*%
X139573000Y-60642500D03*
%TD*%
%TO.C,H3*%
X118491000Y-110363000D03*
%TD*%
%TO.C,H4*%
X139573000Y-110363000D03*
%TD*%
%TO.C,H5*%
X189357000Y-60642500D03*
%TD*%
D11*
%TO.C,J10*%
X104501950Y-68633500D03*
D12*
X104501950Y-66093500D03*
X104501950Y-63553500D03*
X104501950Y-61013500D03*
%TD*%
D13*
%TO.C,PU5*%
X118000000Y-91398725D03*
X120000000Y-91398725D03*
%TD*%
D14*
%TO.C,C4*%
X147307300Y-72877225D03*
X147307300Y-74952225D03*
%TD*%
D13*
%TO.C,R20*%
X189160275Y-67027425D03*
X191160275Y-67027425D03*
%TD*%
D11*
%TO.C,J7*%
X144360900Y-97291525D03*
D12*
X146900900Y-97291525D03*
X144360900Y-99831525D03*
X146900900Y-99831525D03*
%TD*%
D15*
%TO.C,C1*%
X187587138Y-92313125D03*
D16*
X185087138Y-92313125D03*
%TD*%
D11*
%TO.C,JK1*%
X146888200Y-56991250D03*
D12*
X149428200Y-56991250D03*
%TD*%
D11*
%TO.C,S0*%
X104498775Y-84975700D03*
D12*
X107038775Y-84975700D03*
%TD*%
D11*
%TO.C,JA1*%
X104500000Y-77080000D03*
D12*
X107040000Y-77080000D03*
%TD*%
D17*
%TO.C,S4*%
X202485625Y-70133600D03*
X202485625Y-65633600D03*
D18*
X199985625Y-71383600D03*
X199985625Y-64383600D03*
%TD*%
D19*
%TO.C,Q5*%
X133680025Y-99616300D03*
X133680025Y-97716300D03*
X130880025Y-98666300D03*
%TD*%
D13*
%TO.C,RN4*%
X136500000Y-104171750D03*
X138500000Y-104171750D03*
%TD*%
D19*
%TO.C,Q6*%
X133702250Y-95685650D03*
X133702250Y-93785650D03*
X130902250Y-94735650D03*
%TD*%
D20*
%TO.C,L5*%
X196472175Y-69119750D03*
D21*
X196472175Y-66579750D03*
%TD*%
D22*
%TO.C,C20*%
X140878650Y-78882875D03*
X142953650Y-78882875D03*
%TD*%
D11*
%TO.C,MOR1*%
X104500000Y-90106500D03*
D12*
X107040000Y-90106500D03*
%TD*%
D15*
%TO.C,C17*%
X138863075Y-67862450D03*
D16*
X136363075Y-67862450D03*
%TD*%
D13*
%TO.C,PU12*%
X118000000Y-103397050D03*
X120000000Y-103397050D03*
%TD*%
D22*
%TO.C,C6*%
X159165925Y-64573150D03*
X161240925Y-64573150D03*
%TD*%
D17*
%TO.C,S3*%
X202345925Y-62915800D03*
X202345925Y-58415800D03*
D18*
X199845925Y-64165800D03*
X199845925Y-57165800D03*
%TD*%
D13*
%TO.C,PU13*%
X124000000Y-103431975D03*
X126000000Y-103431975D03*
%TD*%
%TO.C,PU2*%
X118500000Y-78432025D03*
X120500000Y-78432025D03*
%TD*%
%TO.C,PU11*%
X118000000Y-100466525D03*
X120000000Y-100466525D03*
%TD*%
D19*
%TO.C,Q3*%
X128901650Y-86500375D03*
X128901650Y-84600375D03*
X126101650Y-85550375D03*
%TD*%
D11*
%TO.C,P1*%
X98126550Y-72694800D03*
D12*
X100666550Y-72694800D03*
X98126550Y-75234800D03*
X100666550Y-75234800D03*
X98126550Y-77774800D03*
X100666550Y-77774800D03*
X98126550Y-80314800D03*
X100666550Y-80314800D03*
X98126550Y-82854800D03*
X100666550Y-82854800D03*
X98126550Y-85394800D03*
X100666550Y-85394800D03*
X98126550Y-87934800D03*
X100666550Y-87934800D03*
X98126550Y-90474800D03*
X100666550Y-90474800D03*
X98126550Y-93014800D03*
X100666550Y-93014800D03*
X98126550Y-95554800D03*
X100666550Y-95554800D03*
X98126550Y-98094800D03*
X100666550Y-98094800D03*
X98126550Y-100634800D03*
X100666550Y-100634800D03*
X98126550Y-103174800D03*
X100666550Y-103174800D03*
X98126550Y-105714800D03*
X100666550Y-105714800D03*
X98126550Y-108254800D03*
X100666550Y-108254800D03*
X98126550Y-110794800D03*
X100666550Y-110794800D03*
X98126550Y-113334800D03*
X100666550Y-113334800D03*
%TD*%
D11*
%TO.C,J5*%
X104500000Y-74400000D03*
D12*
X107040000Y-74400000D03*
%TD*%
D11*
%TO.C,JKA1*%
X144460675Y-94351475D03*
D12*
X147000675Y-94351475D03*
%TD*%
D13*
%TO.C,PU9*%
X118000000Y-97326450D03*
X120000000Y-97326450D03*
%TD*%
D19*
%TO.C,Q4*%
X133616525Y-103286600D03*
X133616525Y-101386600D03*
X130816525Y-102336600D03*
%TD*%
D13*
%TO.C,RN2*%
X132000000Y-81600675D03*
X134000000Y-81600675D03*
%TD*%
%TO.C,PU8*%
X124000000Y-97221675D03*
X126000000Y-97221675D03*
%TD*%
D22*
%TO.C,C18*%
X136468575Y-73745725D03*
X138543575Y-73745725D03*
%TD*%
D14*
%TO.C,C5*%
X150152100Y-73022550D03*
X150152100Y-75097550D03*
%TD*%
D23*
%TO.C,U8*%
X172063225Y-88788875D03*
X172063225Y-90058875D03*
X172063225Y-91328875D03*
X172063225Y-92598875D03*
X179263225Y-92598875D03*
X179263225Y-91328875D03*
X179263225Y-90058875D03*
X179263225Y-88788875D03*
%TD*%
D11*
%TO.C,J3*%
X107362625Y-58394600D03*
D12*
X107362625Y-60934600D03*
X107362625Y-63474600D03*
%TD*%
D11*
%TO.C,J8*%
X146900000Y-59329400D03*
D12*
X149440000Y-59329400D03*
X146900000Y-61869400D03*
X149440000Y-61869400D03*
%TD*%
D13*
%TO.C,RN1*%
X132000000Y-78705075D03*
X134000000Y-78705075D03*
%TD*%
D24*
%TO.C,P3*%
X196706525Y-88456650D03*
D16*
X196706525Y-85956650D03*
X196706525Y-83956650D03*
X196706525Y-81456650D03*
D25*
X199416525Y-91526650D03*
X199416525Y-78386650D03*
%TD*%
D19*
%TO.C,Q2*%
X128901650Y-82938025D03*
X128901650Y-81038025D03*
X126101650Y-81988025D03*
%TD*%
D26*
%TO.C,DID1*%
X138650000Y-100933250D03*
X136350000Y-100933250D03*
%TD*%
D13*
%TO.C,RN3*%
X132000000Y-84461350D03*
X134000000Y-84461350D03*
%TD*%
%TO.C,RN5*%
X136500000Y-98142425D03*
X138500000Y-98142425D03*
%TD*%
D20*
%TO.C,L3*%
X196484875Y-64039750D03*
D21*
X196484875Y-66579750D03*
%TD*%
D14*
%TO.C,C3*%
X150040975Y-67494875D03*
X150040975Y-69569875D03*
%TD*%
D27*
%TO.C,U3*%
X160606600Y-74250225D03*
X160606600Y-74750225D03*
X160606600Y-75250225D03*
X160606600Y-75750225D03*
X160606600Y-76250225D03*
X160606600Y-76750225D03*
X160606600Y-77250225D03*
X160606600Y-77750225D03*
X160606600Y-78250225D03*
X160606600Y-78750225D03*
X160606600Y-79250225D03*
X160606600Y-79750225D03*
X160606600Y-80250225D03*
X160606600Y-80750225D03*
X160606600Y-81250225D03*
X160606600Y-81750225D03*
D28*
X162594600Y-83738225D03*
X163094600Y-83738225D03*
X163594600Y-83738225D03*
X164094600Y-83738225D03*
X164594600Y-83738225D03*
X165094600Y-83738225D03*
X165594600Y-83738225D03*
X166094600Y-83738225D03*
X166594600Y-83738225D03*
X167094600Y-83738225D03*
X167594600Y-83738225D03*
X168094600Y-83738225D03*
X168594600Y-83738225D03*
X169094600Y-83738225D03*
X169594600Y-83738225D03*
X170094600Y-83738225D03*
D27*
X172082600Y-81750225D03*
X172082600Y-81250225D03*
X172082600Y-80750225D03*
X172082600Y-80250225D03*
X172082600Y-79750225D03*
X172082600Y-79250225D03*
X172082600Y-78750225D03*
X172082600Y-78250225D03*
X172082600Y-77750225D03*
X172082600Y-77250225D03*
X172082600Y-76750225D03*
X172082600Y-76250225D03*
X172082600Y-75750225D03*
X172082600Y-75250225D03*
X172082600Y-74750225D03*
X172082600Y-74250225D03*
D28*
X170094600Y-72262225D03*
X169594600Y-72262225D03*
X169094600Y-72262225D03*
X168594600Y-72262225D03*
X168094600Y-72262225D03*
X167594600Y-72262225D03*
X167094600Y-72262225D03*
X166594600Y-72262225D03*
X166094600Y-72262225D03*
X165594600Y-72262225D03*
X165094600Y-72262225D03*
X164594600Y-72262225D03*
X164094600Y-72262225D03*
X163594600Y-72262225D03*
X163094600Y-72262225D03*
X162594600Y-72262225D03*
%TD*%
D11*
%TO.C,S1*%
X104498775Y-87550625D03*
D12*
X107038775Y-87550625D03*
%TD*%
D11*
%TO.C,JC1*%
X104500000Y-79629000D03*
D12*
X107040000Y-79629000D03*
%TD*%
D13*
%TO.C,PU1*%
X118500000Y-75638025D03*
X120500000Y-75638025D03*
%TD*%
D14*
%TO.C,C23*%
X125409325Y-58862050D03*
X125409325Y-60937050D03*
%TD*%
D13*
%TO.C,PU6*%
X124000000Y-94322900D03*
X126000000Y-94322900D03*
%TD*%
%TO.C,RN6*%
X136500000Y-95294450D03*
X138500000Y-95294450D03*
%TD*%
D11*
%TO.C,JB1*%
X104496950Y-82397600D03*
D12*
X107036950Y-82397600D03*
%TD*%
D13*
%TO.C,R2*%
X188061725Y-86620350D03*
X190061725Y-86620350D03*
%TD*%
D29*
%TO.C,C8*%
X162797400Y-88576150D03*
X160722400Y-88576150D03*
%TD*%
D30*
%TO.C,R10*%
X147250150Y-67532375D03*
X147250150Y-69532375D03*
%TD*%
D31*
%TO.C,Y1*%
X153838275Y-73662075D03*
X153838275Y-68762075D03*
%TD*%
D11*
%TO.C,J4*%
X107362625Y-66209625D03*
D12*
X107362625Y-68749625D03*
%TD*%
D32*
%TO.C,U4*%
X128939925Y-64617600D03*
X131229925Y-64617600D03*
X133519925Y-64617600D03*
D33*
X131229925Y-57917600D03*
%TD*%
D13*
%TO.C,PU10*%
X124000000Y-100396675D03*
X126000000Y-100396675D03*
%TD*%
D34*
%TO.C,R13*%
X120500000Y-73091675D03*
X118500000Y-73091675D03*
%TD*%
D20*
%TO.C,P2*%
X98872900Y-64990975D03*
D21*
X98872900Y-62490975D03*
X98872900Y-59990975D03*
X98872900Y-57490975D03*
%TD*%
D19*
%TO.C,Q1*%
X128920700Y-79137550D03*
X128920700Y-77237550D03*
X126120700Y-78187550D03*
%TD*%
D20*
%TO.C,L4*%
X196399150Y-61409500D03*
D21*
X196399150Y-58869500D03*
%TD*%
D13*
%TO.C,PU14*%
X118500000Y-83734275D03*
X120500000Y-83734275D03*
%TD*%
D35*
%TO.C,U1*%
X139984075Y-83127850D03*
X139984075Y-84397850D03*
X139984075Y-85667850D03*
X139984075Y-86937850D03*
X139984075Y-88207850D03*
X139984075Y-89477850D03*
X139984075Y-90747850D03*
X144934075Y-90747850D03*
X144934075Y-89477850D03*
X144934075Y-88207850D03*
X144934075Y-86937850D03*
X144934075Y-85667850D03*
X144934075Y-84397850D03*
X144934075Y-83127850D03*
%TD*%
D13*
%TO.C,R1*%
X188169550Y-83883500D03*
X190169550Y-83883500D03*
%TD*%
%TO.C,R21*%
X189477775Y-69757925D03*
X191477775Y-69757925D03*
%TD*%
D14*
%TO.C,C9*%
X154774900Y-79794825D03*
X154774900Y-81869825D03*
%TD*%
D13*
%TO.C,PU4*%
X124000000Y-91287600D03*
X126000000Y-91287600D03*
%TD*%
D15*
%TO.C,C19*%
X125871488Y-67687825D03*
D16*
X123371488Y-67687825D03*
%TD*%
D13*
%TO.C,PU3*%
X118500000Y-80978375D03*
X120500000Y-80978375D03*
%TD*%
%TO.C,PU7*%
X118000000Y-94246700D03*
X120000000Y-94246700D03*
%TD*%
D22*
%TO.C,C16*%
X175463925Y-85613875D03*
X177538925Y-85613875D03*
%TD*%
M02*
