%TF.GenerationSoftware,KiCad,Pcbnew,8.0.8*%
%TF.CreationDate,2025-02-19T22:11:45+00:00*%
%TF.ProjectId,Gotek,476f7465-6b2e-46b6-9963-61645f706362,rev?*%
%TF.SameCoordinates,Original*%
%TF.FileFunction,Legend,Top*%
%TF.FilePolarity,Positive*%
%FSLAX46Y46*%
G04 Gerber Fmt 4.6, Leading zero omitted, Abs format (unit mm)*
G04 Created by KiCad (PCBNEW 8.0.8) date 2025-02-19 22:11:45*
%MOMM*%
%LPD*%
G01*
G04 APERTURE LIST*
%ADD10C,0.100000*%
%ADD11C,0.150000*%
%ADD12C,0.120000*%
%ADD13C,0.200000*%
%ADD14C,0.250000*%
G04 APERTURE END LIST*
D10*
X107816650Y-93345000D02*
X109715300Y-91446350D01*
X107816650Y-93345000D02*
X104133650Y-93345000D01*
X107816650Y-96694625D02*
X104133650Y-96694625D01*
X107302300Y-96158050D02*
X108331000Y-96158050D01*
X108331000Y-97186750D01*
X107302300Y-97186750D01*
X107302300Y-96158050D01*
G36*
X107302300Y-96158050D02*
G01*
X108331000Y-96158050D01*
X108331000Y-97186750D01*
X107302300Y-97186750D01*
X107302300Y-96158050D01*
G37*
X103673275Y-92849700D02*
X104682925Y-92849700D01*
X104682925Y-93859350D01*
X103673275Y-93859350D01*
X103673275Y-92849700D01*
G36*
X103673275Y-92849700D02*
G01*
X104682925Y-92849700D01*
X104682925Y-93859350D01*
X103673275Y-93859350D01*
X103673275Y-92849700D01*
G37*
X109715300Y-91503500D02*
X109715300Y-88917625D01*
X109715300Y-88917625D02*
X109715300Y-91503500D01*
X104133650Y-93345000D02*
X107762675Y-93345000D01*
X107762675Y-93345000D02*
X107816650Y-93345000D01*
X107816650Y-93345000D02*
X107816650Y-96694625D01*
X107343575Y-92827475D02*
X108353225Y-92827475D01*
X108353225Y-93837125D01*
X107343575Y-93837125D01*
X107343575Y-92827475D01*
G36*
X107343575Y-92827475D02*
G01*
X108353225Y-92827475D01*
X108353225Y-93837125D01*
X107343575Y-93837125D01*
X107343575Y-92827475D01*
G37*
X109664500Y-90166825D02*
X108751687Y-90166825D01*
X108369612Y-87569675D02*
X109714787Y-87569675D01*
X109715300Y-87547450D02*
X109715300Y-91503500D01*
X107816650Y-93345000D02*
X109715300Y-91446350D01*
X103609775Y-96050100D02*
X104724200Y-96050100D01*
X104724200Y-97164525D01*
X103609775Y-97164525D01*
X103609775Y-96050100D01*
G36*
X103609775Y-96050100D02*
G01*
X104724200Y-96050100D01*
X104724200Y-97164525D01*
X103609775Y-97164525D01*
X103609775Y-96050100D01*
G37*
D11*
X207127588Y-67982936D02*
X207079969Y-68078174D01*
X207079969Y-68078174D02*
X207079969Y-68221031D01*
X207079969Y-68221031D02*
X207127588Y-68363888D01*
X207127588Y-68363888D02*
X207222826Y-68459126D01*
X207222826Y-68459126D02*
X207318064Y-68506745D01*
X207318064Y-68506745D02*
X207508540Y-68554364D01*
X207508540Y-68554364D02*
X207651397Y-68554364D01*
X207651397Y-68554364D02*
X207841873Y-68506745D01*
X207841873Y-68506745D02*
X207937111Y-68459126D01*
X207937111Y-68459126D02*
X208032350Y-68363888D01*
X208032350Y-68363888D02*
X208079969Y-68221031D01*
X208079969Y-68221031D02*
X208079969Y-68125793D01*
X208079969Y-68125793D02*
X208032350Y-67982936D01*
X208032350Y-67982936D02*
X207984730Y-67935317D01*
X207984730Y-67935317D02*
X207651397Y-67935317D01*
X207651397Y-67935317D02*
X207651397Y-68125793D01*
X208079969Y-66935317D02*
X207603778Y-67268650D01*
X208079969Y-67506745D02*
X207079969Y-67506745D01*
X207079969Y-67506745D02*
X207079969Y-67125793D01*
X207079969Y-67125793D02*
X207127588Y-67030555D01*
X207127588Y-67030555D02*
X207175207Y-66982936D01*
X207175207Y-66982936D02*
X207270445Y-66935317D01*
X207270445Y-66935317D02*
X207413302Y-66935317D01*
X207413302Y-66935317D02*
X207508540Y-66982936D01*
X207508540Y-66982936D02*
X207556159Y-67030555D01*
X207556159Y-67030555D02*
X207603778Y-67125793D01*
X207603778Y-67125793D02*
X207603778Y-67506745D01*
X207556159Y-66506745D02*
X207556159Y-66173412D01*
X208079969Y-66030555D02*
X208079969Y-66506745D01*
X208079969Y-66506745D02*
X207079969Y-66506745D01*
X207079969Y-66506745D02*
X207079969Y-66030555D01*
X207556159Y-65601983D02*
X207556159Y-65268650D01*
X208079969Y-65125793D02*
X208079969Y-65601983D01*
X208079969Y-65601983D02*
X207079969Y-65601983D01*
X207079969Y-65601983D02*
X207079969Y-65125793D01*
X208079969Y-64697221D02*
X207079969Y-64697221D01*
X207079969Y-64697221D02*
X208079969Y-64125793D01*
X208079969Y-64125793D02*
X207079969Y-64125793D01*
X109632943Y-76412844D02*
X109632943Y-77127129D01*
X109632943Y-77127129D02*
X109585324Y-77269986D01*
X109585324Y-77269986D02*
X109490086Y-77365225D01*
X109490086Y-77365225D02*
X109347229Y-77412844D01*
X109347229Y-77412844D02*
X109251991Y-77412844D01*
X110061515Y-77127129D02*
X110537705Y-77127129D01*
X109966277Y-77412844D02*
X110299610Y-76412844D01*
X110299610Y-76412844D02*
X110632943Y-77412844D01*
X110226632Y-69170544D02*
X109893299Y-68694353D01*
X109655204Y-69170544D02*
X109655204Y-68170544D01*
X109655204Y-68170544D02*
X110036156Y-68170544D01*
X110036156Y-68170544D02*
X110131394Y-68218163D01*
X110131394Y-68218163D02*
X110179013Y-68265782D01*
X110179013Y-68265782D02*
X110226632Y-68361020D01*
X110226632Y-68361020D02*
X110226632Y-68503877D01*
X110226632Y-68503877D02*
X110179013Y-68599115D01*
X110179013Y-68599115D02*
X110131394Y-68646734D01*
X110131394Y-68646734D02*
X110036156Y-68694353D01*
X110036156Y-68694353D02*
X109655204Y-68694353D01*
X110607585Y-69122925D02*
X110750442Y-69170544D01*
X110750442Y-69170544D02*
X110988537Y-69170544D01*
X110988537Y-69170544D02*
X111083775Y-69122925D01*
X111083775Y-69122925D02*
X111131394Y-69075305D01*
X111131394Y-69075305D02*
X111179013Y-68980067D01*
X111179013Y-68980067D02*
X111179013Y-68884829D01*
X111179013Y-68884829D02*
X111131394Y-68789591D01*
X111131394Y-68789591D02*
X111083775Y-68741972D01*
X111083775Y-68741972D02*
X110988537Y-68694353D01*
X110988537Y-68694353D02*
X110798061Y-68646734D01*
X110798061Y-68646734D02*
X110702823Y-68599115D01*
X110702823Y-68599115D02*
X110655204Y-68551496D01*
X110655204Y-68551496D02*
X110607585Y-68456258D01*
X110607585Y-68456258D02*
X110607585Y-68361020D01*
X110607585Y-68361020D02*
X110655204Y-68265782D01*
X110655204Y-68265782D02*
X110702823Y-68218163D01*
X110702823Y-68218163D02*
X110798061Y-68170544D01*
X110798061Y-68170544D02*
X111036156Y-68170544D01*
X111036156Y-68170544D02*
X111179013Y-68218163D01*
X111464728Y-68170544D02*
X112036156Y-68170544D01*
X111750442Y-69170544D02*
X111750442Y-68170544D01*
D10*
X108377709Y-95487544D02*
X108377709Y-94487544D01*
X108377709Y-94487544D02*
X108711042Y-95201829D01*
X108711042Y-95201829D02*
X109044375Y-94487544D01*
X109044375Y-94487544D02*
X109044375Y-95487544D01*
X109711042Y-94487544D02*
X109901518Y-94487544D01*
X109901518Y-94487544D02*
X109996756Y-94535163D01*
X109996756Y-94535163D02*
X110091994Y-94630401D01*
X110091994Y-94630401D02*
X110139613Y-94820877D01*
X110139613Y-94820877D02*
X110139613Y-95154210D01*
X110139613Y-95154210D02*
X110091994Y-95344686D01*
X110091994Y-95344686D02*
X109996756Y-95439925D01*
X109996756Y-95439925D02*
X109901518Y-95487544D01*
X109901518Y-95487544D02*
X109711042Y-95487544D01*
X109711042Y-95487544D02*
X109615804Y-95439925D01*
X109615804Y-95439925D02*
X109520566Y-95344686D01*
X109520566Y-95344686D02*
X109472947Y-95154210D01*
X109472947Y-95154210D02*
X109472947Y-94820877D01*
X109472947Y-94820877D02*
X109520566Y-94630401D01*
X109520566Y-94630401D02*
X109615804Y-94535163D01*
X109615804Y-94535163D02*
X109711042Y-94487544D01*
D11*
X104854604Y-98224969D02*
X104854604Y-97224969D01*
X104854604Y-97224969D02*
X105187937Y-97939254D01*
X105187937Y-97939254D02*
X105521270Y-97224969D01*
X105521270Y-97224969D02*
X105521270Y-98224969D01*
X106187937Y-97224969D02*
X106378413Y-97224969D01*
X106378413Y-97224969D02*
X106473651Y-97272588D01*
X106473651Y-97272588D02*
X106568889Y-97367826D01*
X106568889Y-97367826D02*
X106616508Y-97558302D01*
X106616508Y-97558302D02*
X106616508Y-97891635D01*
X106616508Y-97891635D02*
X106568889Y-98082111D01*
X106568889Y-98082111D02*
X106473651Y-98177350D01*
X106473651Y-98177350D02*
X106378413Y-98224969D01*
X106378413Y-98224969D02*
X106187937Y-98224969D01*
X106187937Y-98224969D02*
X106092699Y-98177350D01*
X106092699Y-98177350D02*
X105997461Y-98082111D01*
X105997461Y-98082111D02*
X105949842Y-97891635D01*
X105949842Y-97891635D02*
X105949842Y-97558302D01*
X105949842Y-97558302D02*
X105997461Y-97367826D01*
X105997461Y-97367826D02*
X106092699Y-97272588D01*
X106092699Y-97272588D02*
X106187937Y-97224969D01*
X107616508Y-98224969D02*
X107283175Y-97748778D01*
X107045080Y-98224969D02*
X107045080Y-97224969D01*
X107045080Y-97224969D02*
X107426032Y-97224969D01*
X107426032Y-97224969D02*
X107521270Y-97272588D01*
X107521270Y-97272588D02*
X107568889Y-97320207D01*
X107568889Y-97320207D02*
X107616508Y-97415445D01*
X107616508Y-97415445D02*
X107616508Y-97558302D01*
X107616508Y-97558302D02*
X107568889Y-97653540D01*
X107568889Y-97653540D02*
X107521270Y-97701159D01*
X107521270Y-97701159D02*
X107426032Y-97748778D01*
X107426032Y-97748778D02*
X107045080Y-97748778D01*
X205463769Y-67935317D02*
X204987578Y-68268650D01*
X205463769Y-68506745D02*
X204463769Y-68506745D01*
X204463769Y-68506745D02*
X204463769Y-68125793D01*
X204463769Y-68125793D02*
X204511388Y-68030555D01*
X204511388Y-68030555D02*
X204559007Y-67982936D01*
X204559007Y-67982936D02*
X204654245Y-67935317D01*
X204654245Y-67935317D02*
X204797102Y-67935317D01*
X204797102Y-67935317D02*
X204892340Y-67982936D01*
X204892340Y-67982936D02*
X204939959Y-68030555D01*
X204939959Y-68030555D02*
X204987578Y-68125793D01*
X204987578Y-68125793D02*
X204987578Y-68506745D01*
X204939959Y-67506745D02*
X204939959Y-67173412D01*
X205463769Y-67030555D02*
X205463769Y-67506745D01*
X205463769Y-67506745D02*
X204463769Y-67506745D01*
X204463769Y-67506745D02*
X204463769Y-67030555D01*
X205463769Y-66601983D02*
X204463769Y-66601983D01*
X204463769Y-66601983D02*
X204463769Y-66363888D01*
X204463769Y-66363888D02*
X204511388Y-66221031D01*
X204511388Y-66221031D02*
X204606626Y-66125793D01*
X204606626Y-66125793D02*
X204701864Y-66078174D01*
X204701864Y-66078174D02*
X204892340Y-66030555D01*
X204892340Y-66030555D02*
X205035197Y-66030555D01*
X205035197Y-66030555D02*
X205225673Y-66078174D01*
X205225673Y-66078174D02*
X205320911Y-66125793D01*
X205320911Y-66125793D02*
X205416150Y-66221031D01*
X205416150Y-66221031D02*
X205463769Y-66363888D01*
X205463769Y-66363888D02*
X205463769Y-66601983D01*
X102108041Y-66554120D02*
X102108041Y-65792216D01*
X102488994Y-66173168D02*
X101727089Y-66173168D01*
X101488994Y-64839835D02*
X101488994Y-65316025D01*
X101488994Y-65316025D02*
X101965184Y-65363644D01*
X101965184Y-65363644D02*
X101917565Y-65316025D01*
X101917565Y-65316025D02*
X101869946Y-65220787D01*
X101869946Y-65220787D02*
X101869946Y-64982692D01*
X101869946Y-64982692D02*
X101917565Y-64887454D01*
X101917565Y-64887454D02*
X101965184Y-64839835D01*
X101965184Y-64839835D02*
X102060422Y-64792216D01*
X102060422Y-64792216D02*
X102298517Y-64792216D01*
X102298517Y-64792216D02*
X102393755Y-64839835D01*
X102393755Y-64839835D02*
X102441375Y-64887454D01*
X102441375Y-64887454D02*
X102488994Y-64982692D01*
X102488994Y-64982692D02*
X102488994Y-65220787D01*
X102488994Y-65220787D02*
X102441375Y-65316025D01*
X102441375Y-65316025D02*
X102393755Y-65363644D01*
X101488994Y-64506501D02*
X102488994Y-64173168D01*
X102488994Y-64173168D02*
X101488994Y-63839835D01*
X109667868Y-81750019D02*
X109667868Y-82464304D01*
X109667868Y-82464304D02*
X109620249Y-82607161D01*
X109620249Y-82607161D02*
X109525011Y-82702400D01*
X109525011Y-82702400D02*
X109382154Y-82750019D01*
X109382154Y-82750019D02*
X109286916Y-82750019D01*
X110477392Y-82226209D02*
X110620249Y-82273828D01*
X110620249Y-82273828D02*
X110667868Y-82321447D01*
X110667868Y-82321447D02*
X110715487Y-82416685D01*
X110715487Y-82416685D02*
X110715487Y-82559542D01*
X110715487Y-82559542D02*
X110667868Y-82654780D01*
X110667868Y-82654780D02*
X110620249Y-82702400D01*
X110620249Y-82702400D02*
X110525011Y-82750019D01*
X110525011Y-82750019D02*
X110144059Y-82750019D01*
X110144059Y-82750019D02*
X110144059Y-81750019D01*
X110144059Y-81750019D02*
X110477392Y-81750019D01*
X110477392Y-81750019D02*
X110572630Y-81797638D01*
X110572630Y-81797638D02*
X110620249Y-81845257D01*
X110620249Y-81845257D02*
X110667868Y-81940495D01*
X110667868Y-81940495D02*
X110667868Y-82035733D01*
X110667868Y-82035733D02*
X110620249Y-82130971D01*
X110620249Y-82130971D02*
X110572630Y-82178590D01*
X110572630Y-82178590D02*
X110477392Y-82226209D01*
X110477392Y-82226209D02*
X110144059Y-82226209D01*
X109667868Y-79029044D02*
X109667868Y-79743329D01*
X109667868Y-79743329D02*
X109620249Y-79886186D01*
X109620249Y-79886186D02*
X109525011Y-79981425D01*
X109525011Y-79981425D02*
X109382154Y-80029044D01*
X109382154Y-80029044D02*
X109286916Y-80029044D01*
X110715487Y-79933805D02*
X110667868Y-79981425D01*
X110667868Y-79981425D02*
X110525011Y-80029044D01*
X110525011Y-80029044D02*
X110429773Y-80029044D01*
X110429773Y-80029044D02*
X110286916Y-79981425D01*
X110286916Y-79981425D02*
X110191678Y-79886186D01*
X110191678Y-79886186D02*
X110144059Y-79790948D01*
X110144059Y-79790948D02*
X110096440Y-79600472D01*
X110096440Y-79600472D02*
X110096440Y-79457615D01*
X110096440Y-79457615D02*
X110144059Y-79267139D01*
X110144059Y-79267139D02*
X110191678Y-79171901D01*
X110191678Y-79171901D02*
X110286916Y-79076663D01*
X110286916Y-79076663D02*
X110429773Y-79029044D01*
X110429773Y-79029044D02*
X110525011Y-79029044D01*
X110525011Y-79029044D02*
X110667868Y-79076663D01*
X110667868Y-79076663D02*
X110715487Y-79124282D01*
X101225242Y-69691485D02*
X101272861Y-69739104D01*
X101272861Y-69739104D02*
X101320480Y-69834342D01*
X101320480Y-69834342D02*
X101320480Y-70072437D01*
X101320480Y-70072437D02*
X101272861Y-70167675D01*
X101272861Y-70167675D02*
X101225242Y-70215294D01*
X101225242Y-70215294D02*
X101130004Y-70262913D01*
X101130004Y-70262913D02*
X101034766Y-70262913D01*
X101034766Y-70262913D02*
X100891909Y-70215294D01*
X100891909Y-70215294D02*
X100320480Y-69643866D01*
X100320480Y-69643866D02*
X100320480Y-70262913D01*
X101571538Y-61740886D02*
X101523919Y-61836124D01*
X101523919Y-61836124D02*
X101523919Y-61978981D01*
X101523919Y-61978981D02*
X101571538Y-62121838D01*
X101571538Y-62121838D02*
X101666776Y-62217076D01*
X101666776Y-62217076D02*
X101762014Y-62264695D01*
X101762014Y-62264695D02*
X101952490Y-62312314D01*
X101952490Y-62312314D02*
X102095347Y-62312314D01*
X102095347Y-62312314D02*
X102285823Y-62264695D01*
X102285823Y-62264695D02*
X102381061Y-62217076D01*
X102381061Y-62217076D02*
X102476300Y-62121838D01*
X102476300Y-62121838D02*
X102523919Y-61978981D01*
X102523919Y-61978981D02*
X102523919Y-61883743D01*
X102523919Y-61883743D02*
X102476300Y-61740886D01*
X102476300Y-61740886D02*
X102428680Y-61693267D01*
X102428680Y-61693267D02*
X102095347Y-61693267D01*
X102095347Y-61693267D02*
X102095347Y-61883743D01*
X102523919Y-61264695D02*
X101523919Y-61264695D01*
X101523919Y-61264695D02*
X102523919Y-60693267D01*
X102523919Y-60693267D02*
X101523919Y-60693267D01*
X102523919Y-60217076D02*
X101523919Y-60217076D01*
X101523919Y-60217076D02*
X101523919Y-59978981D01*
X101523919Y-59978981D02*
X101571538Y-59836124D01*
X101571538Y-59836124D02*
X101666776Y-59740886D01*
X101666776Y-59740886D02*
X101762014Y-59693267D01*
X101762014Y-59693267D02*
X101952490Y-59645648D01*
X101952490Y-59645648D02*
X102095347Y-59645648D01*
X102095347Y-59645648D02*
X102285823Y-59693267D01*
X102285823Y-59693267D02*
X102381061Y-59740886D01*
X102381061Y-59740886D02*
X102476300Y-59836124D01*
X102476300Y-59836124D02*
X102523919Y-59978981D01*
X102523919Y-59978981D02*
X102523919Y-60217076D01*
X103711476Y-70221919D02*
X103711476Y-70936204D01*
X103711476Y-70936204D02*
X103663857Y-71079061D01*
X103663857Y-71079061D02*
X103568619Y-71174300D01*
X103568619Y-71174300D02*
X103425762Y-71221919D01*
X103425762Y-71221919D02*
X103330524Y-71221919D01*
X104711476Y-71221919D02*
X104140048Y-71221919D01*
X104425762Y-71221919D02*
X104425762Y-70221919D01*
X104425762Y-70221919D02*
X104330524Y-70364776D01*
X104330524Y-70364776D02*
X104235286Y-70460014D01*
X104235286Y-70460014D02*
X104140048Y-70507633D01*
X105330524Y-70221919D02*
X105425762Y-70221919D01*
X105425762Y-70221919D02*
X105521000Y-70269538D01*
X105521000Y-70269538D02*
X105568619Y-70317157D01*
X105568619Y-70317157D02*
X105616238Y-70412395D01*
X105616238Y-70412395D02*
X105663857Y-70602871D01*
X105663857Y-70602871D02*
X105663857Y-70840966D01*
X105663857Y-70840966D02*
X105616238Y-71031442D01*
X105616238Y-71031442D02*
X105568619Y-71126680D01*
X105568619Y-71126680D02*
X105521000Y-71174300D01*
X105521000Y-71174300D02*
X105425762Y-71221919D01*
X105425762Y-71221919D02*
X105330524Y-71221919D01*
X105330524Y-71221919D02*
X105235286Y-71174300D01*
X105235286Y-71174300D02*
X105187667Y-71126680D01*
X105187667Y-71126680D02*
X105140048Y-71031442D01*
X105140048Y-71031442D02*
X105092429Y-70840966D01*
X105092429Y-70840966D02*
X105092429Y-70602871D01*
X105092429Y-70602871D02*
X105140048Y-70412395D01*
X105140048Y-70412395D02*
X105187667Y-70317157D01*
X105187667Y-70317157D02*
X105235286Y-70269538D01*
X105235286Y-70269538D02*
X105330524Y-70221919D01*
X114055095Y-91675744D02*
X114055095Y-90675744D01*
X114055095Y-90675744D02*
X114436047Y-90675744D01*
X114436047Y-90675744D02*
X114531285Y-90723363D01*
X114531285Y-90723363D02*
X114578904Y-90770982D01*
X114578904Y-90770982D02*
X114626523Y-90866220D01*
X114626523Y-90866220D02*
X114626523Y-91009077D01*
X114626523Y-91009077D02*
X114578904Y-91104315D01*
X114578904Y-91104315D02*
X114531285Y-91151934D01*
X114531285Y-91151934D02*
X114436047Y-91199553D01*
X114436047Y-91199553D02*
X114055095Y-91199553D01*
X115055095Y-90675744D02*
X115055095Y-91485267D01*
X115055095Y-91485267D02*
X115102714Y-91580505D01*
X115102714Y-91580505D02*
X115150333Y-91628125D01*
X115150333Y-91628125D02*
X115245571Y-91675744D01*
X115245571Y-91675744D02*
X115436047Y-91675744D01*
X115436047Y-91675744D02*
X115531285Y-91628125D01*
X115531285Y-91628125D02*
X115578904Y-91580505D01*
X115578904Y-91580505D02*
X115626523Y-91485267D01*
X115626523Y-91485267D02*
X115626523Y-90675744D01*
X116578904Y-90675744D02*
X116102714Y-90675744D01*
X116102714Y-90675744D02*
X116055095Y-91151934D01*
X116055095Y-91151934D02*
X116102714Y-91104315D01*
X116102714Y-91104315D02*
X116197952Y-91056696D01*
X116197952Y-91056696D02*
X116436047Y-91056696D01*
X116436047Y-91056696D02*
X116531285Y-91104315D01*
X116531285Y-91104315D02*
X116578904Y-91151934D01*
X116578904Y-91151934D02*
X116626523Y-91247172D01*
X116626523Y-91247172D02*
X116626523Y-91485267D01*
X116626523Y-91485267D02*
X116578904Y-91580505D01*
X116578904Y-91580505D02*
X116531285Y-91628125D01*
X116531285Y-91628125D02*
X116436047Y-91675744D01*
X116436047Y-91675744D02*
X116197952Y-91675744D01*
X116197952Y-91675744D02*
X116102714Y-91628125D01*
X116102714Y-91628125D02*
X116055095Y-91580505D01*
X146899333Y-77563605D02*
X146851714Y-77611225D01*
X146851714Y-77611225D02*
X146708857Y-77658844D01*
X146708857Y-77658844D02*
X146613619Y-77658844D01*
X146613619Y-77658844D02*
X146470762Y-77611225D01*
X146470762Y-77611225D02*
X146375524Y-77515986D01*
X146375524Y-77515986D02*
X146327905Y-77420748D01*
X146327905Y-77420748D02*
X146280286Y-77230272D01*
X146280286Y-77230272D02*
X146280286Y-77087415D01*
X146280286Y-77087415D02*
X146327905Y-76896939D01*
X146327905Y-76896939D02*
X146375524Y-76801701D01*
X146375524Y-76801701D02*
X146470762Y-76706463D01*
X146470762Y-76706463D02*
X146613619Y-76658844D01*
X146613619Y-76658844D02*
X146708857Y-76658844D01*
X146708857Y-76658844D02*
X146851714Y-76706463D01*
X146851714Y-76706463D02*
X146899333Y-76754082D01*
X147756476Y-76992177D02*
X147756476Y-77658844D01*
X147518381Y-76611225D02*
X147280286Y-77325510D01*
X147280286Y-77325510D02*
X147899333Y-77325510D01*
X185294667Y-67869594D02*
X184961334Y-67393403D01*
X184723239Y-67869594D02*
X184723239Y-66869594D01*
X184723239Y-66869594D02*
X185104191Y-66869594D01*
X185104191Y-66869594D02*
X185199429Y-66917213D01*
X185199429Y-66917213D02*
X185247048Y-66964832D01*
X185247048Y-66964832D02*
X185294667Y-67060070D01*
X185294667Y-67060070D02*
X185294667Y-67202927D01*
X185294667Y-67202927D02*
X185247048Y-67298165D01*
X185247048Y-67298165D02*
X185199429Y-67345784D01*
X185199429Y-67345784D02*
X185104191Y-67393403D01*
X185104191Y-67393403D02*
X184723239Y-67393403D01*
X185675620Y-66964832D02*
X185723239Y-66917213D01*
X185723239Y-66917213D02*
X185818477Y-66869594D01*
X185818477Y-66869594D02*
X186056572Y-66869594D01*
X186056572Y-66869594D02*
X186151810Y-66917213D01*
X186151810Y-66917213D02*
X186199429Y-66964832D01*
X186199429Y-66964832D02*
X186247048Y-67060070D01*
X186247048Y-67060070D02*
X186247048Y-67155308D01*
X186247048Y-67155308D02*
X186199429Y-67298165D01*
X186199429Y-67298165D02*
X185628001Y-67869594D01*
X185628001Y-67869594D02*
X186247048Y-67869594D01*
X186866096Y-66869594D02*
X186961334Y-66869594D01*
X186961334Y-66869594D02*
X187056572Y-66917213D01*
X187056572Y-66917213D02*
X187104191Y-66964832D01*
X187104191Y-66964832D02*
X187151810Y-67060070D01*
X187151810Y-67060070D02*
X187199429Y-67250546D01*
X187199429Y-67250546D02*
X187199429Y-67488641D01*
X187199429Y-67488641D02*
X187151810Y-67679117D01*
X187151810Y-67679117D02*
X187104191Y-67774355D01*
X187104191Y-67774355D02*
X187056572Y-67821975D01*
X187056572Y-67821975D02*
X186961334Y-67869594D01*
X186961334Y-67869594D02*
X186866096Y-67869594D01*
X186866096Y-67869594D02*
X186770858Y-67821975D01*
X186770858Y-67821975D02*
X186723239Y-67774355D01*
X186723239Y-67774355D02*
X186675620Y-67679117D01*
X186675620Y-67679117D02*
X186628001Y-67488641D01*
X186628001Y-67488641D02*
X186628001Y-67250546D01*
X186628001Y-67250546D02*
X186675620Y-67060070D01*
X186675620Y-67060070D02*
X186723239Y-66964832D01*
X186723239Y-66964832D02*
X186770858Y-66917213D01*
X186770858Y-66917213D02*
X186866096Y-66869594D01*
X146612016Y-102112094D02*
X146612016Y-102826379D01*
X146612016Y-102826379D02*
X146564397Y-102969236D01*
X146564397Y-102969236D02*
X146469159Y-103064475D01*
X146469159Y-103064475D02*
X146326302Y-103112094D01*
X146326302Y-103112094D02*
X146231064Y-103112094D01*
X146992969Y-102112094D02*
X147659635Y-102112094D01*
X147659635Y-102112094D02*
X147231064Y-103112094D01*
X182306933Y-92990205D02*
X182259314Y-93037825D01*
X182259314Y-93037825D02*
X182116457Y-93085444D01*
X182116457Y-93085444D02*
X182021219Y-93085444D01*
X182021219Y-93085444D02*
X181878362Y-93037825D01*
X181878362Y-93037825D02*
X181783124Y-92942586D01*
X181783124Y-92942586D02*
X181735505Y-92847348D01*
X181735505Y-92847348D02*
X181687886Y-92656872D01*
X181687886Y-92656872D02*
X181687886Y-92514015D01*
X181687886Y-92514015D02*
X181735505Y-92323539D01*
X181735505Y-92323539D02*
X181783124Y-92228301D01*
X181783124Y-92228301D02*
X181878362Y-92133063D01*
X181878362Y-92133063D02*
X182021219Y-92085444D01*
X182021219Y-92085444D02*
X182116457Y-92085444D01*
X182116457Y-92085444D02*
X182259314Y-92133063D01*
X182259314Y-92133063D02*
X182306933Y-92180682D01*
X183259314Y-93085444D02*
X182687886Y-93085444D01*
X182973600Y-93085444D02*
X182973600Y-92085444D01*
X182973600Y-92085444D02*
X182878362Y-92228301D01*
X182878362Y-92228301D02*
X182783124Y-92323539D01*
X182783124Y-92323539D02*
X182687886Y-92371158D01*
X151709866Y-54176069D02*
X151709866Y-54890354D01*
X151709866Y-54890354D02*
X151662247Y-55033211D01*
X151662247Y-55033211D02*
X151567009Y-55128450D01*
X151567009Y-55128450D02*
X151424152Y-55176069D01*
X151424152Y-55176069D02*
X151328914Y-55176069D01*
X152186057Y-55176069D02*
X152186057Y-54176069D01*
X152757485Y-55176069D02*
X152328914Y-54604640D01*
X152757485Y-54176069D02*
X152186057Y-54747497D01*
X153709866Y-55176069D02*
X153138438Y-55176069D01*
X153424152Y-55176069D02*
X153424152Y-54176069D01*
X153424152Y-54176069D02*
X153328914Y-54318926D01*
X153328914Y-54318926D02*
X153233676Y-54414164D01*
X153233676Y-54414164D02*
X153138438Y-54461783D01*
X109280420Y-85360675D02*
X109423277Y-85408294D01*
X109423277Y-85408294D02*
X109661372Y-85408294D01*
X109661372Y-85408294D02*
X109756610Y-85360675D01*
X109756610Y-85360675D02*
X109804229Y-85313055D01*
X109804229Y-85313055D02*
X109851848Y-85217817D01*
X109851848Y-85217817D02*
X109851848Y-85122579D01*
X109851848Y-85122579D02*
X109804229Y-85027341D01*
X109804229Y-85027341D02*
X109756610Y-84979722D01*
X109756610Y-84979722D02*
X109661372Y-84932103D01*
X109661372Y-84932103D02*
X109470896Y-84884484D01*
X109470896Y-84884484D02*
X109375658Y-84836865D01*
X109375658Y-84836865D02*
X109328039Y-84789246D01*
X109328039Y-84789246D02*
X109280420Y-84694008D01*
X109280420Y-84694008D02*
X109280420Y-84598770D01*
X109280420Y-84598770D02*
X109328039Y-84503532D01*
X109328039Y-84503532D02*
X109375658Y-84455913D01*
X109375658Y-84455913D02*
X109470896Y-84408294D01*
X109470896Y-84408294D02*
X109708991Y-84408294D01*
X109708991Y-84408294D02*
X109851848Y-84455913D01*
X110470896Y-84408294D02*
X110566134Y-84408294D01*
X110566134Y-84408294D02*
X110661372Y-84455913D01*
X110661372Y-84455913D02*
X110708991Y-84503532D01*
X110708991Y-84503532D02*
X110756610Y-84598770D01*
X110756610Y-84598770D02*
X110804229Y-84789246D01*
X110804229Y-84789246D02*
X110804229Y-85027341D01*
X110804229Y-85027341D02*
X110756610Y-85217817D01*
X110756610Y-85217817D02*
X110708991Y-85313055D01*
X110708991Y-85313055D02*
X110661372Y-85360675D01*
X110661372Y-85360675D02*
X110566134Y-85408294D01*
X110566134Y-85408294D02*
X110470896Y-85408294D01*
X110470896Y-85408294D02*
X110375658Y-85360675D01*
X110375658Y-85360675D02*
X110328039Y-85313055D01*
X110328039Y-85313055D02*
X110280420Y-85217817D01*
X110280420Y-85217817D02*
X110232801Y-85027341D01*
X110232801Y-85027341D02*
X110232801Y-84789246D01*
X110232801Y-84789246D02*
X110280420Y-84598770D01*
X110280420Y-84598770D02*
X110328039Y-84503532D01*
X110328039Y-84503532D02*
X110375658Y-84455913D01*
X110375658Y-84455913D02*
X110470896Y-84408294D01*
X132657861Y-106556957D02*
X132562623Y-106509338D01*
X132562623Y-106509338D02*
X132467385Y-106414100D01*
X132467385Y-106414100D02*
X132324528Y-106271242D01*
X132324528Y-106271242D02*
X132229290Y-106223623D01*
X132229290Y-106223623D02*
X132134052Y-106223623D01*
X132181671Y-106461719D02*
X132086433Y-106414100D01*
X132086433Y-106414100D02*
X131991195Y-106318861D01*
X131991195Y-106318861D02*
X131943576Y-106128385D01*
X131943576Y-106128385D02*
X131943576Y-105795052D01*
X131943576Y-105795052D02*
X131991195Y-105604576D01*
X131991195Y-105604576D02*
X132086433Y-105509338D01*
X132086433Y-105509338D02*
X132181671Y-105461719D01*
X132181671Y-105461719D02*
X132372147Y-105461719D01*
X132372147Y-105461719D02*
X132467385Y-105509338D01*
X132467385Y-105509338D02*
X132562623Y-105604576D01*
X132562623Y-105604576D02*
X132610242Y-105795052D01*
X132610242Y-105795052D02*
X132610242Y-106128385D01*
X132610242Y-106128385D02*
X132562623Y-106318861D01*
X132562623Y-106318861D02*
X132467385Y-106414100D01*
X132467385Y-106414100D02*
X132372147Y-106461719D01*
X132372147Y-106461719D02*
X132181671Y-106461719D01*
X133515004Y-105461719D02*
X133038814Y-105461719D01*
X133038814Y-105461719D02*
X132991195Y-105937909D01*
X132991195Y-105937909D02*
X133038814Y-105890290D01*
X133038814Y-105890290D02*
X133134052Y-105842671D01*
X133134052Y-105842671D02*
X133372147Y-105842671D01*
X133372147Y-105842671D02*
X133467385Y-105890290D01*
X133467385Y-105890290D02*
X133515004Y-105937909D01*
X133515004Y-105937909D02*
X133562623Y-106033147D01*
X133562623Y-106033147D02*
X133562623Y-106271242D01*
X133562623Y-106271242D02*
X133515004Y-106366480D01*
X133515004Y-106366480D02*
X133467385Y-106414100D01*
X133467385Y-106414100D02*
X133372147Y-106461719D01*
X133372147Y-106461719D02*
X133134052Y-106461719D01*
X133134052Y-106461719D02*
X133038814Y-106414100D01*
X133038814Y-106414100D02*
X132991195Y-106366480D01*
X140908173Y-107471369D02*
X140574840Y-106995178D01*
X140336745Y-107471369D02*
X140336745Y-106471369D01*
X140336745Y-106471369D02*
X140717697Y-106471369D01*
X140717697Y-106471369D02*
X140812935Y-106518988D01*
X140812935Y-106518988D02*
X140860554Y-106566607D01*
X140860554Y-106566607D02*
X140908173Y-106661845D01*
X140908173Y-106661845D02*
X140908173Y-106804702D01*
X140908173Y-106804702D02*
X140860554Y-106899940D01*
X140860554Y-106899940D02*
X140812935Y-106947559D01*
X140812935Y-106947559D02*
X140717697Y-106995178D01*
X140717697Y-106995178D02*
X140336745Y-106995178D01*
X141336745Y-107471369D02*
X141336745Y-106471369D01*
X141336745Y-106471369D02*
X141908173Y-107471369D01*
X141908173Y-107471369D02*
X141908173Y-106471369D01*
X142812935Y-106804702D02*
X142812935Y-107471369D01*
X142574840Y-106423750D02*
X142336745Y-107138035D01*
X142336745Y-107138035D02*
X142955792Y-107138035D01*
X132648336Y-105258382D02*
X132553098Y-105210763D01*
X132553098Y-105210763D02*
X132457860Y-105115525D01*
X132457860Y-105115525D02*
X132315003Y-104972667D01*
X132315003Y-104972667D02*
X132219765Y-104925048D01*
X132219765Y-104925048D02*
X132124527Y-104925048D01*
X132172146Y-105163144D02*
X132076908Y-105115525D01*
X132076908Y-105115525D02*
X131981670Y-105020286D01*
X131981670Y-105020286D02*
X131934051Y-104829810D01*
X131934051Y-104829810D02*
X131934051Y-104496477D01*
X131934051Y-104496477D02*
X131981670Y-104306001D01*
X131981670Y-104306001D02*
X132076908Y-104210763D01*
X132076908Y-104210763D02*
X132172146Y-104163144D01*
X132172146Y-104163144D02*
X132362622Y-104163144D01*
X132362622Y-104163144D02*
X132457860Y-104210763D01*
X132457860Y-104210763D02*
X132553098Y-104306001D01*
X132553098Y-104306001D02*
X132600717Y-104496477D01*
X132600717Y-104496477D02*
X132600717Y-104829810D01*
X132600717Y-104829810D02*
X132553098Y-105020286D01*
X132553098Y-105020286D02*
X132457860Y-105115525D01*
X132457860Y-105115525D02*
X132362622Y-105163144D01*
X132362622Y-105163144D02*
X132172146Y-105163144D01*
X133457860Y-104163144D02*
X133267384Y-104163144D01*
X133267384Y-104163144D02*
X133172146Y-104210763D01*
X133172146Y-104210763D02*
X133124527Y-104258382D01*
X133124527Y-104258382D02*
X133029289Y-104401239D01*
X133029289Y-104401239D02*
X132981670Y-104591715D01*
X132981670Y-104591715D02*
X132981670Y-104972667D01*
X132981670Y-104972667D02*
X133029289Y-105067905D01*
X133029289Y-105067905D02*
X133076908Y-105115525D01*
X133076908Y-105115525D02*
X133172146Y-105163144D01*
X133172146Y-105163144D02*
X133362622Y-105163144D01*
X133362622Y-105163144D02*
X133457860Y-105115525D01*
X133457860Y-105115525D02*
X133505479Y-105067905D01*
X133505479Y-105067905D02*
X133553098Y-104972667D01*
X133553098Y-104972667D02*
X133553098Y-104734572D01*
X133553098Y-104734572D02*
X133505479Y-104639334D01*
X133505479Y-104639334D02*
X133457860Y-104591715D01*
X133457860Y-104591715D02*
X133362622Y-104544096D01*
X133362622Y-104544096D02*
X133172146Y-104544096D01*
X133172146Y-104544096D02*
X133076908Y-104591715D01*
X133076908Y-104591715D02*
X133029289Y-104639334D01*
X133029289Y-104639334D02*
X132981670Y-104734572D01*
X193466994Y-68016416D02*
X193466994Y-68492606D01*
X193466994Y-68492606D02*
X192466994Y-68492606D01*
X192466994Y-67206892D02*
X192466994Y-67683082D01*
X192466994Y-67683082D02*
X192943184Y-67730701D01*
X192943184Y-67730701D02*
X192895565Y-67683082D01*
X192895565Y-67683082D02*
X192847946Y-67587844D01*
X192847946Y-67587844D02*
X192847946Y-67349749D01*
X192847946Y-67349749D02*
X192895565Y-67254511D01*
X192895565Y-67254511D02*
X192943184Y-67206892D01*
X192943184Y-67206892D02*
X193038422Y-67159273D01*
X193038422Y-67159273D02*
X193276517Y-67159273D01*
X193276517Y-67159273D02*
X193371755Y-67206892D01*
X193371755Y-67206892D02*
X193419375Y-67254511D01*
X193419375Y-67254511D02*
X193466994Y-67349749D01*
X193466994Y-67349749D02*
X193466994Y-67587844D01*
X193466994Y-67587844D02*
X193419375Y-67683082D01*
X193419375Y-67683082D02*
X193371755Y-67730701D01*
X140015267Y-77375555D02*
X139967648Y-77423175D01*
X139967648Y-77423175D02*
X139824791Y-77470794D01*
X139824791Y-77470794D02*
X139729553Y-77470794D01*
X139729553Y-77470794D02*
X139586696Y-77423175D01*
X139586696Y-77423175D02*
X139491458Y-77327936D01*
X139491458Y-77327936D02*
X139443839Y-77232698D01*
X139443839Y-77232698D02*
X139396220Y-77042222D01*
X139396220Y-77042222D02*
X139396220Y-76899365D01*
X139396220Y-76899365D02*
X139443839Y-76708889D01*
X139443839Y-76708889D02*
X139491458Y-76613651D01*
X139491458Y-76613651D02*
X139586696Y-76518413D01*
X139586696Y-76518413D02*
X139729553Y-76470794D01*
X139729553Y-76470794D02*
X139824791Y-76470794D01*
X139824791Y-76470794D02*
X139967648Y-76518413D01*
X139967648Y-76518413D02*
X140015267Y-76566032D01*
X140396220Y-76566032D02*
X140443839Y-76518413D01*
X140443839Y-76518413D02*
X140539077Y-76470794D01*
X140539077Y-76470794D02*
X140777172Y-76470794D01*
X140777172Y-76470794D02*
X140872410Y-76518413D01*
X140872410Y-76518413D02*
X140920029Y-76566032D01*
X140920029Y-76566032D02*
X140967648Y-76661270D01*
X140967648Y-76661270D02*
X140967648Y-76756508D01*
X140967648Y-76756508D02*
X140920029Y-76899365D01*
X140920029Y-76899365D02*
X140348601Y-77470794D01*
X140348601Y-77470794D02*
X140967648Y-77470794D01*
X141586696Y-76470794D02*
X141681934Y-76470794D01*
X141681934Y-76470794D02*
X141777172Y-76518413D01*
X141777172Y-76518413D02*
X141824791Y-76566032D01*
X141824791Y-76566032D02*
X141872410Y-76661270D01*
X141872410Y-76661270D02*
X141920029Y-76851746D01*
X141920029Y-76851746D02*
X141920029Y-77089841D01*
X141920029Y-77089841D02*
X141872410Y-77280317D01*
X141872410Y-77280317D02*
X141824791Y-77375555D01*
X141824791Y-77375555D02*
X141777172Y-77423175D01*
X141777172Y-77423175D02*
X141681934Y-77470794D01*
X141681934Y-77470794D02*
X141586696Y-77470794D01*
X141586696Y-77470794D02*
X141491458Y-77423175D01*
X141491458Y-77423175D02*
X141443839Y-77375555D01*
X141443839Y-77375555D02*
X141396220Y-77280317D01*
X141396220Y-77280317D02*
X141348601Y-77089841D01*
X141348601Y-77089841D02*
X141348601Y-76851746D01*
X141348601Y-76851746D02*
X141396220Y-76661270D01*
X141396220Y-76661270D02*
X141443839Y-76566032D01*
X141443839Y-76566032D02*
X141491458Y-76518413D01*
X141491458Y-76518413D02*
X141586696Y-76470794D01*
X136249929Y-64681905D02*
X136202310Y-64729525D01*
X136202310Y-64729525D02*
X136059453Y-64777144D01*
X136059453Y-64777144D02*
X135964215Y-64777144D01*
X135964215Y-64777144D02*
X135821358Y-64729525D01*
X135821358Y-64729525D02*
X135726120Y-64634286D01*
X135726120Y-64634286D02*
X135678501Y-64539048D01*
X135678501Y-64539048D02*
X135630882Y-64348572D01*
X135630882Y-64348572D02*
X135630882Y-64205715D01*
X135630882Y-64205715D02*
X135678501Y-64015239D01*
X135678501Y-64015239D02*
X135726120Y-63920001D01*
X135726120Y-63920001D02*
X135821358Y-63824763D01*
X135821358Y-63824763D02*
X135964215Y-63777144D01*
X135964215Y-63777144D02*
X136059453Y-63777144D01*
X136059453Y-63777144D02*
X136202310Y-63824763D01*
X136202310Y-63824763D02*
X136249929Y-63872382D01*
X137202310Y-64777144D02*
X136630882Y-64777144D01*
X136916596Y-64777144D02*
X136916596Y-63777144D01*
X136916596Y-63777144D02*
X136821358Y-63920001D01*
X136821358Y-63920001D02*
X136726120Y-64015239D01*
X136726120Y-64015239D02*
X136630882Y-64062858D01*
X137535644Y-63777144D02*
X138202310Y-63777144D01*
X138202310Y-63777144D02*
X137773739Y-64777144D01*
X112918505Y-103975694D02*
X112918505Y-102975694D01*
X112918505Y-102975694D02*
X113299457Y-102975694D01*
X113299457Y-102975694D02*
X113394695Y-103023313D01*
X113394695Y-103023313D02*
X113442314Y-103070932D01*
X113442314Y-103070932D02*
X113489933Y-103166170D01*
X113489933Y-103166170D02*
X113489933Y-103309027D01*
X113489933Y-103309027D02*
X113442314Y-103404265D01*
X113442314Y-103404265D02*
X113394695Y-103451884D01*
X113394695Y-103451884D02*
X113299457Y-103499503D01*
X113299457Y-103499503D02*
X112918505Y-103499503D01*
X113918505Y-102975694D02*
X113918505Y-103785217D01*
X113918505Y-103785217D02*
X113966124Y-103880455D01*
X113966124Y-103880455D02*
X114013743Y-103928075D01*
X114013743Y-103928075D02*
X114108981Y-103975694D01*
X114108981Y-103975694D02*
X114299457Y-103975694D01*
X114299457Y-103975694D02*
X114394695Y-103928075D01*
X114394695Y-103928075D02*
X114442314Y-103880455D01*
X114442314Y-103880455D02*
X114489933Y-103785217D01*
X114489933Y-103785217D02*
X114489933Y-102975694D01*
X115489933Y-103975694D02*
X114918505Y-103975694D01*
X115204219Y-103975694D02*
X115204219Y-102975694D01*
X115204219Y-102975694D02*
X115108981Y-103118551D01*
X115108981Y-103118551D02*
X115013743Y-103213789D01*
X115013743Y-103213789D02*
X114918505Y-103261408D01*
X115870886Y-103070932D02*
X115918505Y-103023313D01*
X115918505Y-103023313D02*
X116013743Y-102975694D01*
X116013743Y-102975694D02*
X116251838Y-102975694D01*
X116251838Y-102975694D02*
X116347076Y-103023313D01*
X116347076Y-103023313D02*
X116394695Y-103070932D01*
X116394695Y-103070932D02*
X116442314Y-103166170D01*
X116442314Y-103166170D02*
X116442314Y-103261408D01*
X116442314Y-103261408D02*
X116394695Y-103404265D01*
X116394695Y-103404265D02*
X115823267Y-103975694D01*
X115823267Y-103975694D02*
X116442314Y-103975694D01*
X161544883Y-62678480D02*
X161497264Y-62726100D01*
X161497264Y-62726100D02*
X161354407Y-62773719D01*
X161354407Y-62773719D02*
X161259169Y-62773719D01*
X161259169Y-62773719D02*
X161116312Y-62726100D01*
X161116312Y-62726100D02*
X161021074Y-62630861D01*
X161021074Y-62630861D02*
X160973455Y-62535623D01*
X160973455Y-62535623D02*
X160925836Y-62345147D01*
X160925836Y-62345147D02*
X160925836Y-62202290D01*
X160925836Y-62202290D02*
X160973455Y-62011814D01*
X160973455Y-62011814D02*
X161021074Y-61916576D01*
X161021074Y-61916576D02*
X161116312Y-61821338D01*
X161116312Y-61821338D02*
X161259169Y-61773719D01*
X161259169Y-61773719D02*
X161354407Y-61773719D01*
X161354407Y-61773719D02*
X161497264Y-61821338D01*
X161497264Y-61821338D02*
X161544883Y-61868957D01*
X162402026Y-61773719D02*
X162211550Y-61773719D01*
X162211550Y-61773719D02*
X162116312Y-61821338D01*
X162116312Y-61821338D02*
X162068693Y-61868957D01*
X162068693Y-61868957D02*
X161973455Y-62011814D01*
X161973455Y-62011814D02*
X161925836Y-62202290D01*
X161925836Y-62202290D02*
X161925836Y-62583242D01*
X161925836Y-62583242D02*
X161973455Y-62678480D01*
X161973455Y-62678480D02*
X162021074Y-62726100D01*
X162021074Y-62726100D02*
X162116312Y-62773719D01*
X162116312Y-62773719D02*
X162306788Y-62773719D01*
X162306788Y-62773719D02*
X162402026Y-62726100D01*
X162402026Y-62726100D02*
X162449645Y-62678480D01*
X162449645Y-62678480D02*
X162497264Y-62583242D01*
X162497264Y-62583242D02*
X162497264Y-62345147D01*
X162497264Y-62345147D02*
X162449645Y-62249909D01*
X162449645Y-62249909D02*
X162402026Y-62202290D01*
X162402026Y-62202290D02*
X162306788Y-62154671D01*
X162306788Y-62154671D02*
X162116312Y-62154671D01*
X162116312Y-62154671D02*
X162021074Y-62202290D01*
X162021074Y-62202290D02*
X161973455Y-62249909D01*
X161973455Y-62249909D02*
X161925836Y-62345147D01*
X127427255Y-105217119D02*
X127427255Y-104217119D01*
X127427255Y-104217119D02*
X127808207Y-104217119D01*
X127808207Y-104217119D02*
X127903445Y-104264738D01*
X127903445Y-104264738D02*
X127951064Y-104312357D01*
X127951064Y-104312357D02*
X127998683Y-104407595D01*
X127998683Y-104407595D02*
X127998683Y-104550452D01*
X127998683Y-104550452D02*
X127951064Y-104645690D01*
X127951064Y-104645690D02*
X127903445Y-104693309D01*
X127903445Y-104693309D02*
X127808207Y-104740928D01*
X127808207Y-104740928D02*
X127427255Y-104740928D01*
X128427255Y-104217119D02*
X128427255Y-105026642D01*
X128427255Y-105026642D02*
X128474874Y-105121880D01*
X128474874Y-105121880D02*
X128522493Y-105169500D01*
X128522493Y-105169500D02*
X128617731Y-105217119D01*
X128617731Y-105217119D02*
X128808207Y-105217119D01*
X128808207Y-105217119D02*
X128903445Y-105169500D01*
X128903445Y-105169500D02*
X128951064Y-105121880D01*
X128951064Y-105121880D02*
X128998683Y-105026642D01*
X128998683Y-105026642D02*
X128998683Y-104217119D01*
X129998683Y-105217119D02*
X129427255Y-105217119D01*
X129712969Y-105217119D02*
X129712969Y-104217119D01*
X129712969Y-104217119D02*
X129617731Y-104359976D01*
X129617731Y-104359976D02*
X129522493Y-104455214D01*
X129522493Y-104455214D02*
X129427255Y-104502833D01*
X130332017Y-104217119D02*
X130951064Y-104217119D01*
X130951064Y-104217119D02*
X130617731Y-104598071D01*
X130617731Y-104598071D02*
X130760588Y-104598071D01*
X130760588Y-104598071D02*
X130855826Y-104645690D01*
X130855826Y-104645690D02*
X130903445Y-104693309D01*
X130903445Y-104693309D02*
X130951064Y-104788547D01*
X130951064Y-104788547D02*
X130951064Y-105026642D01*
X130951064Y-105026642D02*
X130903445Y-105121880D01*
X130903445Y-105121880D02*
X130855826Y-105169500D01*
X130855826Y-105169500D02*
X130760588Y-105217119D01*
X130760588Y-105217119D02*
X130474874Y-105217119D01*
X130474874Y-105217119D02*
X130379636Y-105169500D01*
X130379636Y-105169500D02*
X130332017Y-105121880D01*
X113751820Y-79166244D02*
X113751820Y-78166244D01*
X113751820Y-78166244D02*
X114132772Y-78166244D01*
X114132772Y-78166244D02*
X114228010Y-78213863D01*
X114228010Y-78213863D02*
X114275629Y-78261482D01*
X114275629Y-78261482D02*
X114323248Y-78356720D01*
X114323248Y-78356720D02*
X114323248Y-78499577D01*
X114323248Y-78499577D02*
X114275629Y-78594815D01*
X114275629Y-78594815D02*
X114228010Y-78642434D01*
X114228010Y-78642434D02*
X114132772Y-78690053D01*
X114132772Y-78690053D02*
X113751820Y-78690053D01*
X114751820Y-78166244D02*
X114751820Y-78975767D01*
X114751820Y-78975767D02*
X114799439Y-79071005D01*
X114799439Y-79071005D02*
X114847058Y-79118625D01*
X114847058Y-79118625D02*
X114942296Y-79166244D01*
X114942296Y-79166244D02*
X115132772Y-79166244D01*
X115132772Y-79166244D02*
X115228010Y-79118625D01*
X115228010Y-79118625D02*
X115275629Y-79071005D01*
X115275629Y-79071005D02*
X115323248Y-78975767D01*
X115323248Y-78975767D02*
X115323248Y-78166244D01*
X115751820Y-78261482D02*
X115799439Y-78213863D01*
X115799439Y-78213863D02*
X115894677Y-78166244D01*
X115894677Y-78166244D02*
X116132772Y-78166244D01*
X116132772Y-78166244D02*
X116228010Y-78213863D01*
X116228010Y-78213863D02*
X116275629Y-78261482D01*
X116275629Y-78261482D02*
X116323248Y-78356720D01*
X116323248Y-78356720D02*
X116323248Y-78451958D01*
X116323248Y-78451958D02*
X116275629Y-78594815D01*
X116275629Y-78594815D02*
X115704201Y-79166244D01*
X115704201Y-79166244D02*
X116323248Y-79166244D01*
X113191555Y-100921344D02*
X113191555Y-99921344D01*
X113191555Y-99921344D02*
X113572507Y-99921344D01*
X113572507Y-99921344D02*
X113667745Y-99968963D01*
X113667745Y-99968963D02*
X113715364Y-100016582D01*
X113715364Y-100016582D02*
X113762983Y-100111820D01*
X113762983Y-100111820D02*
X113762983Y-100254677D01*
X113762983Y-100254677D02*
X113715364Y-100349915D01*
X113715364Y-100349915D02*
X113667745Y-100397534D01*
X113667745Y-100397534D02*
X113572507Y-100445153D01*
X113572507Y-100445153D02*
X113191555Y-100445153D01*
X114191555Y-99921344D02*
X114191555Y-100730867D01*
X114191555Y-100730867D02*
X114239174Y-100826105D01*
X114239174Y-100826105D02*
X114286793Y-100873725D01*
X114286793Y-100873725D02*
X114382031Y-100921344D01*
X114382031Y-100921344D02*
X114572507Y-100921344D01*
X114572507Y-100921344D02*
X114667745Y-100873725D01*
X114667745Y-100873725D02*
X114715364Y-100826105D01*
X114715364Y-100826105D02*
X114762983Y-100730867D01*
X114762983Y-100730867D02*
X114762983Y-99921344D01*
X115762983Y-100921344D02*
X115191555Y-100921344D01*
X115477269Y-100921344D02*
X115477269Y-99921344D01*
X115477269Y-99921344D02*
X115382031Y-100064201D01*
X115382031Y-100064201D02*
X115286793Y-100159439D01*
X115286793Y-100159439D02*
X115191555Y-100207058D01*
X116715364Y-100921344D02*
X116143936Y-100921344D01*
X116429650Y-100921344D02*
X116429650Y-99921344D01*
X116429650Y-99921344D02*
X116334412Y-100064201D01*
X116334412Y-100064201D02*
X116239174Y-100159439D01*
X116239174Y-100159439D02*
X116143936Y-100207058D01*
X124377461Y-85284457D02*
X124282223Y-85236838D01*
X124282223Y-85236838D02*
X124186985Y-85141600D01*
X124186985Y-85141600D02*
X124044128Y-84998742D01*
X124044128Y-84998742D02*
X123948890Y-84951123D01*
X123948890Y-84951123D02*
X123853652Y-84951123D01*
X123901271Y-85189219D02*
X123806033Y-85141600D01*
X123806033Y-85141600D02*
X123710795Y-85046361D01*
X123710795Y-85046361D02*
X123663176Y-84855885D01*
X123663176Y-84855885D02*
X123663176Y-84522552D01*
X123663176Y-84522552D02*
X123710795Y-84332076D01*
X123710795Y-84332076D02*
X123806033Y-84236838D01*
X123806033Y-84236838D02*
X123901271Y-84189219D01*
X123901271Y-84189219D02*
X124091747Y-84189219D01*
X124091747Y-84189219D02*
X124186985Y-84236838D01*
X124186985Y-84236838D02*
X124282223Y-84332076D01*
X124282223Y-84332076D02*
X124329842Y-84522552D01*
X124329842Y-84522552D02*
X124329842Y-84855885D01*
X124329842Y-84855885D02*
X124282223Y-85046361D01*
X124282223Y-85046361D02*
X124186985Y-85141600D01*
X124186985Y-85141600D02*
X124091747Y-85189219D01*
X124091747Y-85189219D02*
X123901271Y-85189219D01*
X124663176Y-84189219D02*
X125282223Y-84189219D01*
X125282223Y-84189219D02*
X124948890Y-84570171D01*
X124948890Y-84570171D02*
X125091747Y-84570171D01*
X125091747Y-84570171D02*
X125186985Y-84617790D01*
X125186985Y-84617790D02*
X125234604Y-84665409D01*
X125234604Y-84665409D02*
X125282223Y-84760647D01*
X125282223Y-84760647D02*
X125282223Y-84998742D01*
X125282223Y-84998742D02*
X125234604Y-85093980D01*
X125234604Y-85093980D02*
X125186985Y-85141600D01*
X125186985Y-85141600D02*
X125091747Y-85189219D01*
X125091747Y-85189219D02*
X124806033Y-85189219D01*
X124806033Y-85189219D02*
X124710795Y-85141600D01*
X124710795Y-85141600D02*
X124663176Y-85093980D01*
X97261455Y-70415944D02*
X97261455Y-69415944D01*
X97261455Y-69415944D02*
X97642407Y-69415944D01*
X97642407Y-69415944D02*
X97737645Y-69463563D01*
X97737645Y-69463563D02*
X97785264Y-69511182D01*
X97785264Y-69511182D02*
X97832883Y-69606420D01*
X97832883Y-69606420D02*
X97832883Y-69749277D01*
X97832883Y-69749277D02*
X97785264Y-69844515D01*
X97785264Y-69844515D02*
X97737645Y-69892134D01*
X97737645Y-69892134D02*
X97642407Y-69939753D01*
X97642407Y-69939753D02*
X97261455Y-69939753D01*
X98785264Y-70415944D02*
X98213836Y-70415944D01*
X98499550Y-70415944D02*
X98499550Y-69415944D01*
X98499550Y-69415944D02*
X98404312Y-69558801D01*
X98404312Y-69558801D02*
X98309074Y-69654039D01*
X98309074Y-69654039D02*
X98213836Y-69701658D01*
X109388316Y-73562494D02*
X109388316Y-74276779D01*
X109388316Y-74276779D02*
X109340697Y-74419636D01*
X109340697Y-74419636D02*
X109245459Y-74514875D01*
X109245459Y-74514875D02*
X109102602Y-74562494D01*
X109102602Y-74562494D02*
X109007364Y-74562494D01*
X110340697Y-73562494D02*
X109864507Y-73562494D01*
X109864507Y-73562494D02*
X109816888Y-74038684D01*
X109816888Y-74038684D02*
X109864507Y-73991065D01*
X109864507Y-73991065D02*
X109959745Y-73943446D01*
X109959745Y-73943446D02*
X110197840Y-73943446D01*
X110197840Y-73943446D02*
X110293078Y-73991065D01*
X110293078Y-73991065D02*
X110340697Y-74038684D01*
X110340697Y-74038684D02*
X110388316Y-74133922D01*
X110388316Y-74133922D02*
X110388316Y-74372017D01*
X110388316Y-74372017D02*
X110340697Y-74467255D01*
X110340697Y-74467255D02*
X110293078Y-74514875D01*
X110293078Y-74514875D02*
X110197840Y-74562494D01*
X110197840Y-74562494D02*
X109959745Y-74562494D01*
X109959745Y-74562494D02*
X109864507Y-74514875D01*
X109864507Y-74514875D02*
X109816888Y-74467255D01*
X148853770Y-91536294D02*
X148853770Y-92250579D01*
X148853770Y-92250579D02*
X148806151Y-92393436D01*
X148806151Y-92393436D02*
X148710913Y-92488675D01*
X148710913Y-92488675D02*
X148568056Y-92536294D01*
X148568056Y-92536294D02*
X148472818Y-92536294D01*
X149329961Y-92536294D02*
X149329961Y-91536294D01*
X149901389Y-92536294D02*
X149472818Y-91964865D01*
X149901389Y-91536294D02*
X149329961Y-92107722D01*
X150282342Y-92250579D02*
X150758532Y-92250579D01*
X150187104Y-92536294D02*
X150520437Y-91536294D01*
X150520437Y-91536294D02*
X150853770Y-92536294D01*
X151710913Y-92536294D02*
X151139485Y-92536294D01*
X151425199Y-92536294D02*
X151425199Y-91536294D01*
X151425199Y-91536294D02*
X151329961Y-91679151D01*
X151329961Y-91679151D02*
X151234723Y-91774389D01*
X151234723Y-91774389D02*
X151139485Y-91822008D01*
X113772520Y-97889219D02*
X113772520Y-96889219D01*
X113772520Y-96889219D02*
X114153472Y-96889219D01*
X114153472Y-96889219D02*
X114248710Y-96936838D01*
X114248710Y-96936838D02*
X114296329Y-96984457D01*
X114296329Y-96984457D02*
X114343948Y-97079695D01*
X114343948Y-97079695D02*
X114343948Y-97222552D01*
X114343948Y-97222552D02*
X114296329Y-97317790D01*
X114296329Y-97317790D02*
X114248710Y-97365409D01*
X114248710Y-97365409D02*
X114153472Y-97413028D01*
X114153472Y-97413028D02*
X113772520Y-97413028D01*
X114772520Y-96889219D02*
X114772520Y-97698742D01*
X114772520Y-97698742D02*
X114820139Y-97793980D01*
X114820139Y-97793980D02*
X114867758Y-97841600D01*
X114867758Y-97841600D02*
X114962996Y-97889219D01*
X114962996Y-97889219D02*
X115153472Y-97889219D01*
X115153472Y-97889219D02*
X115248710Y-97841600D01*
X115248710Y-97841600D02*
X115296329Y-97793980D01*
X115296329Y-97793980D02*
X115343948Y-97698742D01*
X115343948Y-97698742D02*
X115343948Y-96889219D01*
X115867758Y-97889219D02*
X116058234Y-97889219D01*
X116058234Y-97889219D02*
X116153472Y-97841600D01*
X116153472Y-97841600D02*
X116201091Y-97793980D01*
X116201091Y-97793980D02*
X116296329Y-97651123D01*
X116296329Y-97651123D02*
X116343948Y-97460647D01*
X116343948Y-97460647D02*
X116343948Y-97079695D01*
X116343948Y-97079695D02*
X116296329Y-96984457D01*
X116296329Y-96984457D02*
X116248710Y-96936838D01*
X116248710Y-96936838D02*
X116153472Y-96889219D01*
X116153472Y-96889219D02*
X115962996Y-96889219D01*
X115962996Y-96889219D02*
X115867758Y-96936838D01*
X115867758Y-96936838D02*
X115820139Y-96984457D01*
X115820139Y-96984457D02*
X115772520Y-97079695D01*
X115772520Y-97079695D02*
X115772520Y-97317790D01*
X115772520Y-97317790D02*
X115820139Y-97413028D01*
X115820139Y-97413028D02*
X115867758Y-97460647D01*
X115867758Y-97460647D02*
X115962996Y-97508266D01*
X115962996Y-97508266D02*
X116153472Y-97508266D01*
X116153472Y-97508266D02*
X116248710Y-97460647D01*
X116248710Y-97460647D02*
X116296329Y-97413028D01*
X116296329Y-97413028D02*
X116343948Y-97317790D01*
X132680086Y-107823782D02*
X132584848Y-107776163D01*
X132584848Y-107776163D02*
X132489610Y-107680925D01*
X132489610Y-107680925D02*
X132346753Y-107538067D01*
X132346753Y-107538067D02*
X132251515Y-107490448D01*
X132251515Y-107490448D02*
X132156277Y-107490448D01*
X132203896Y-107728544D02*
X132108658Y-107680925D01*
X132108658Y-107680925D02*
X132013420Y-107585686D01*
X132013420Y-107585686D02*
X131965801Y-107395210D01*
X131965801Y-107395210D02*
X131965801Y-107061877D01*
X131965801Y-107061877D02*
X132013420Y-106871401D01*
X132013420Y-106871401D02*
X132108658Y-106776163D01*
X132108658Y-106776163D02*
X132203896Y-106728544D01*
X132203896Y-106728544D02*
X132394372Y-106728544D01*
X132394372Y-106728544D02*
X132489610Y-106776163D01*
X132489610Y-106776163D02*
X132584848Y-106871401D01*
X132584848Y-106871401D02*
X132632467Y-107061877D01*
X132632467Y-107061877D02*
X132632467Y-107395210D01*
X132632467Y-107395210D02*
X132584848Y-107585686D01*
X132584848Y-107585686D02*
X132489610Y-107680925D01*
X132489610Y-107680925D02*
X132394372Y-107728544D01*
X132394372Y-107728544D02*
X132203896Y-107728544D01*
X133489610Y-107061877D02*
X133489610Y-107728544D01*
X133251515Y-106680925D02*
X133013420Y-107395210D01*
X133013420Y-107395210D02*
X133632467Y-107395210D01*
X131338723Y-76064269D02*
X131005390Y-75588078D01*
X130767295Y-76064269D02*
X130767295Y-75064269D01*
X130767295Y-75064269D02*
X131148247Y-75064269D01*
X131148247Y-75064269D02*
X131243485Y-75111888D01*
X131243485Y-75111888D02*
X131291104Y-75159507D01*
X131291104Y-75159507D02*
X131338723Y-75254745D01*
X131338723Y-75254745D02*
X131338723Y-75397602D01*
X131338723Y-75397602D02*
X131291104Y-75492840D01*
X131291104Y-75492840D02*
X131243485Y-75540459D01*
X131243485Y-75540459D02*
X131148247Y-75588078D01*
X131148247Y-75588078D02*
X130767295Y-75588078D01*
X131767295Y-76064269D02*
X131767295Y-75064269D01*
X131767295Y-75064269D02*
X132338723Y-76064269D01*
X132338723Y-76064269D02*
X132338723Y-75064269D01*
X132767295Y-75159507D02*
X132814914Y-75111888D01*
X132814914Y-75111888D02*
X132910152Y-75064269D01*
X132910152Y-75064269D02*
X133148247Y-75064269D01*
X133148247Y-75064269D02*
X133243485Y-75111888D01*
X133243485Y-75111888D02*
X133291104Y-75159507D01*
X133291104Y-75159507D02*
X133338723Y-75254745D01*
X133338723Y-75254745D02*
X133338723Y-75349983D01*
X133338723Y-75349983D02*
X133291104Y-75492840D01*
X133291104Y-75492840D02*
X132719676Y-76064269D01*
X132719676Y-76064269D02*
X133338723Y-76064269D01*
X127474820Y-99206844D02*
X127474820Y-98206844D01*
X127474820Y-98206844D02*
X127855772Y-98206844D01*
X127855772Y-98206844D02*
X127951010Y-98254463D01*
X127951010Y-98254463D02*
X127998629Y-98302082D01*
X127998629Y-98302082D02*
X128046248Y-98397320D01*
X128046248Y-98397320D02*
X128046248Y-98540177D01*
X128046248Y-98540177D02*
X127998629Y-98635415D01*
X127998629Y-98635415D02*
X127951010Y-98683034D01*
X127951010Y-98683034D02*
X127855772Y-98730653D01*
X127855772Y-98730653D02*
X127474820Y-98730653D01*
X128474820Y-98206844D02*
X128474820Y-99016367D01*
X128474820Y-99016367D02*
X128522439Y-99111605D01*
X128522439Y-99111605D02*
X128570058Y-99159225D01*
X128570058Y-99159225D02*
X128665296Y-99206844D01*
X128665296Y-99206844D02*
X128855772Y-99206844D01*
X128855772Y-99206844D02*
X128951010Y-99159225D01*
X128951010Y-99159225D02*
X128998629Y-99111605D01*
X128998629Y-99111605D02*
X129046248Y-99016367D01*
X129046248Y-99016367D02*
X129046248Y-98206844D01*
X129665296Y-98635415D02*
X129570058Y-98587796D01*
X129570058Y-98587796D02*
X129522439Y-98540177D01*
X129522439Y-98540177D02*
X129474820Y-98444939D01*
X129474820Y-98444939D02*
X129474820Y-98397320D01*
X129474820Y-98397320D02*
X129522439Y-98302082D01*
X129522439Y-98302082D02*
X129570058Y-98254463D01*
X129570058Y-98254463D02*
X129665296Y-98206844D01*
X129665296Y-98206844D02*
X129855772Y-98206844D01*
X129855772Y-98206844D02*
X129951010Y-98254463D01*
X129951010Y-98254463D02*
X129998629Y-98302082D01*
X129998629Y-98302082D02*
X130046248Y-98397320D01*
X130046248Y-98397320D02*
X130046248Y-98444939D01*
X130046248Y-98444939D02*
X129998629Y-98540177D01*
X129998629Y-98540177D02*
X129951010Y-98587796D01*
X129951010Y-98587796D02*
X129855772Y-98635415D01*
X129855772Y-98635415D02*
X129665296Y-98635415D01*
X129665296Y-98635415D02*
X129570058Y-98683034D01*
X129570058Y-98683034D02*
X129522439Y-98730653D01*
X129522439Y-98730653D02*
X129474820Y-98825891D01*
X129474820Y-98825891D02*
X129474820Y-99016367D01*
X129474820Y-99016367D02*
X129522439Y-99111605D01*
X129522439Y-99111605D02*
X129570058Y-99159225D01*
X129570058Y-99159225D02*
X129665296Y-99206844D01*
X129665296Y-99206844D02*
X129855772Y-99206844D01*
X129855772Y-99206844D02*
X129951010Y-99159225D01*
X129951010Y-99159225D02*
X129998629Y-99111605D01*
X129998629Y-99111605D02*
X130046248Y-99016367D01*
X130046248Y-99016367D02*
X130046248Y-98825891D01*
X130046248Y-98825891D02*
X129998629Y-98730653D01*
X129998629Y-98730653D02*
X129951010Y-98683034D01*
X129951010Y-98683034D02*
X129855772Y-98635415D01*
X137012442Y-75969030D02*
X136964823Y-76016650D01*
X136964823Y-76016650D02*
X136821966Y-76064269D01*
X136821966Y-76064269D02*
X136726728Y-76064269D01*
X136726728Y-76064269D02*
X136583871Y-76016650D01*
X136583871Y-76016650D02*
X136488633Y-75921411D01*
X136488633Y-75921411D02*
X136441014Y-75826173D01*
X136441014Y-75826173D02*
X136393395Y-75635697D01*
X136393395Y-75635697D02*
X136393395Y-75492840D01*
X136393395Y-75492840D02*
X136441014Y-75302364D01*
X136441014Y-75302364D02*
X136488633Y-75207126D01*
X136488633Y-75207126D02*
X136583871Y-75111888D01*
X136583871Y-75111888D02*
X136726728Y-75064269D01*
X136726728Y-75064269D02*
X136821966Y-75064269D01*
X136821966Y-75064269D02*
X136964823Y-75111888D01*
X136964823Y-75111888D02*
X137012442Y-75159507D01*
X137964823Y-76064269D02*
X137393395Y-76064269D01*
X137679109Y-76064269D02*
X137679109Y-75064269D01*
X137679109Y-75064269D02*
X137583871Y-75207126D01*
X137583871Y-75207126D02*
X137488633Y-75302364D01*
X137488633Y-75302364D02*
X137393395Y-75349983D01*
X138536252Y-75492840D02*
X138441014Y-75445221D01*
X138441014Y-75445221D02*
X138393395Y-75397602D01*
X138393395Y-75397602D02*
X138345776Y-75302364D01*
X138345776Y-75302364D02*
X138345776Y-75254745D01*
X138345776Y-75254745D02*
X138393395Y-75159507D01*
X138393395Y-75159507D02*
X138441014Y-75111888D01*
X138441014Y-75111888D02*
X138536252Y-75064269D01*
X138536252Y-75064269D02*
X138726728Y-75064269D01*
X138726728Y-75064269D02*
X138821966Y-75111888D01*
X138821966Y-75111888D02*
X138869585Y-75159507D01*
X138869585Y-75159507D02*
X138917204Y-75254745D01*
X138917204Y-75254745D02*
X138917204Y-75302364D01*
X138917204Y-75302364D02*
X138869585Y-75397602D01*
X138869585Y-75397602D02*
X138821966Y-75445221D01*
X138821966Y-75445221D02*
X138726728Y-75492840D01*
X138726728Y-75492840D02*
X138536252Y-75492840D01*
X138536252Y-75492840D02*
X138441014Y-75540459D01*
X138441014Y-75540459D02*
X138393395Y-75588078D01*
X138393395Y-75588078D02*
X138345776Y-75683316D01*
X138345776Y-75683316D02*
X138345776Y-75873792D01*
X138345776Y-75873792D02*
X138393395Y-75969030D01*
X138393395Y-75969030D02*
X138441014Y-76016650D01*
X138441014Y-76016650D02*
X138536252Y-76064269D01*
X138536252Y-76064269D02*
X138726728Y-76064269D01*
X138726728Y-76064269D02*
X138821966Y-76016650D01*
X138821966Y-76016650D02*
X138869585Y-75969030D01*
X138869585Y-75969030D02*
X138917204Y-75873792D01*
X138917204Y-75873792D02*
X138917204Y-75683316D01*
X138917204Y-75683316D02*
X138869585Y-75588078D01*
X138869585Y-75588078D02*
X138821966Y-75540459D01*
X138821966Y-75540459D02*
X138726728Y-75492840D01*
X149763183Y-77883555D02*
X149715564Y-77931175D01*
X149715564Y-77931175D02*
X149572707Y-77978794D01*
X149572707Y-77978794D02*
X149477469Y-77978794D01*
X149477469Y-77978794D02*
X149334612Y-77931175D01*
X149334612Y-77931175D02*
X149239374Y-77835936D01*
X149239374Y-77835936D02*
X149191755Y-77740698D01*
X149191755Y-77740698D02*
X149144136Y-77550222D01*
X149144136Y-77550222D02*
X149144136Y-77407365D01*
X149144136Y-77407365D02*
X149191755Y-77216889D01*
X149191755Y-77216889D02*
X149239374Y-77121651D01*
X149239374Y-77121651D02*
X149334612Y-77026413D01*
X149334612Y-77026413D02*
X149477469Y-76978794D01*
X149477469Y-76978794D02*
X149572707Y-76978794D01*
X149572707Y-76978794D02*
X149715564Y-77026413D01*
X149715564Y-77026413D02*
X149763183Y-77074032D01*
X150667945Y-76978794D02*
X150191755Y-76978794D01*
X150191755Y-76978794D02*
X150144136Y-77454984D01*
X150144136Y-77454984D02*
X150191755Y-77407365D01*
X150191755Y-77407365D02*
X150286993Y-77359746D01*
X150286993Y-77359746D02*
X150525088Y-77359746D01*
X150525088Y-77359746D02*
X150620326Y-77407365D01*
X150620326Y-77407365D02*
X150667945Y-77454984D01*
X150667945Y-77454984D02*
X150715564Y-77550222D01*
X150715564Y-77550222D02*
X150715564Y-77788317D01*
X150715564Y-77788317D02*
X150667945Y-77883555D01*
X150667945Y-77883555D02*
X150620326Y-77931175D01*
X150620326Y-77931175D02*
X150525088Y-77978794D01*
X150525088Y-77978794D02*
X150286993Y-77978794D01*
X150286993Y-77978794D02*
X150191755Y-77931175D01*
X150191755Y-77931175D02*
X150144136Y-77883555D01*
X172151770Y-86583169D02*
X172151770Y-87392692D01*
X172151770Y-87392692D02*
X172199389Y-87487930D01*
X172199389Y-87487930D02*
X172247008Y-87535550D01*
X172247008Y-87535550D02*
X172342246Y-87583169D01*
X172342246Y-87583169D02*
X172532722Y-87583169D01*
X172532722Y-87583169D02*
X172627960Y-87535550D01*
X172627960Y-87535550D02*
X172675579Y-87487930D01*
X172675579Y-87487930D02*
X172723198Y-87392692D01*
X172723198Y-87392692D02*
X172723198Y-86583169D01*
X173342246Y-87011740D02*
X173247008Y-86964121D01*
X173247008Y-86964121D02*
X173199389Y-86916502D01*
X173199389Y-86916502D02*
X173151770Y-86821264D01*
X173151770Y-86821264D02*
X173151770Y-86773645D01*
X173151770Y-86773645D02*
X173199389Y-86678407D01*
X173199389Y-86678407D02*
X173247008Y-86630788D01*
X173247008Y-86630788D02*
X173342246Y-86583169D01*
X173342246Y-86583169D02*
X173532722Y-86583169D01*
X173532722Y-86583169D02*
X173627960Y-86630788D01*
X173627960Y-86630788D02*
X173675579Y-86678407D01*
X173675579Y-86678407D02*
X173723198Y-86773645D01*
X173723198Y-86773645D02*
X173723198Y-86821264D01*
X173723198Y-86821264D02*
X173675579Y-86916502D01*
X173675579Y-86916502D02*
X173627960Y-86964121D01*
X173627960Y-86964121D02*
X173532722Y-87011740D01*
X173532722Y-87011740D02*
X173342246Y-87011740D01*
X173342246Y-87011740D02*
X173247008Y-87059359D01*
X173247008Y-87059359D02*
X173199389Y-87106978D01*
X173199389Y-87106978D02*
X173151770Y-87202216D01*
X173151770Y-87202216D02*
X173151770Y-87392692D01*
X173151770Y-87392692D02*
X173199389Y-87487930D01*
X173199389Y-87487930D02*
X173247008Y-87535550D01*
X173247008Y-87535550D02*
X173342246Y-87583169D01*
X173342246Y-87583169D02*
X173532722Y-87583169D01*
X173532722Y-87583169D02*
X173627960Y-87535550D01*
X173627960Y-87535550D02*
X173675579Y-87487930D01*
X173675579Y-87487930D02*
X173723198Y-87392692D01*
X173723198Y-87392692D02*
X173723198Y-87202216D01*
X173723198Y-87202216D02*
X173675579Y-87106978D01*
X173675579Y-87106978D02*
X173627960Y-87059359D01*
X173627960Y-87059359D02*
X173532722Y-87011740D01*
X110064591Y-58112944D02*
X110064591Y-58827229D01*
X110064591Y-58827229D02*
X110016972Y-58970086D01*
X110016972Y-58970086D02*
X109921734Y-59065325D01*
X109921734Y-59065325D02*
X109778877Y-59112944D01*
X109778877Y-59112944D02*
X109683639Y-59112944D01*
X110445544Y-58112944D02*
X111064591Y-58112944D01*
X111064591Y-58112944D02*
X110731258Y-58493896D01*
X110731258Y-58493896D02*
X110874115Y-58493896D01*
X110874115Y-58493896D02*
X110969353Y-58541515D01*
X110969353Y-58541515D02*
X111016972Y-58589134D01*
X111016972Y-58589134D02*
X111064591Y-58684372D01*
X111064591Y-58684372D02*
X111064591Y-58922467D01*
X111064591Y-58922467D02*
X111016972Y-59017705D01*
X111016972Y-59017705D02*
X110969353Y-59065325D01*
X110969353Y-59065325D02*
X110874115Y-59112944D01*
X110874115Y-59112944D02*
X110588401Y-59112944D01*
X110588401Y-59112944D02*
X110493163Y-59065325D01*
X110493163Y-59065325D02*
X110445544Y-59017705D01*
X143702816Y-58612769D02*
X143702816Y-59327054D01*
X143702816Y-59327054D02*
X143655197Y-59469911D01*
X143655197Y-59469911D02*
X143559959Y-59565150D01*
X143559959Y-59565150D02*
X143417102Y-59612769D01*
X143417102Y-59612769D02*
X143321864Y-59612769D01*
X144321864Y-59041340D02*
X144226626Y-58993721D01*
X144226626Y-58993721D02*
X144179007Y-58946102D01*
X144179007Y-58946102D02*
X144131388Y-58850864D01*
X144131388Y-58850864D02*
X144131388Y-58803245D01*
X144131388Y-58803245D02*
X144179007Y-58708007D01*
X144179007Y-58708007D02*
X144226626Y-58660388D01*
X144226626Y-58660388D02*
X144321864Y-58612769D01*
X144321864Y-58612769D02*
X144512340Y-58612769D01*
X144512340Y-58612769D02*
X144607578Y-58660388D01*
X144607578Y-58660388D02*
X144655197Y-58708007D01*
X144655197Y-58708007D02*
X144702816Y-58803245D01*
X144702816Y-58803245D02*
X144702816Y-58850864D01*
X144702816Y-58850864D02*
X144655197Y-58946102D01*
X144655197Y-58946102D02*
X144607578Y-58993721D01*
X144607578Y-58993721D02*
X144512340Y-59041340D01*
X144512340Y-59041340D02*
X144321864Y-59041340D01*
X144321864Y-59041340D02*
X144226626Y-59088959D01*
X144226626Y-59088959D02*
X144179007Y-59136578D01*
X144179007Y-59136578D02*
X144131388Y-59231816D01*
X144131388Y-59231816D02*
X144131388Y-59422292D01*
X144131388Y-59422292D02*
X144179007Y-59517530D01*
X144179007Y-59517530D02*
X144226626Y-59565150D01*
X144226626Y-59565150D02*
X144321864Y-59612769D01*
X144321864Y-59612769D02*
X144512340Y-59612769D01*
X144512340Y-59612769D02*
X144607578Y-59565150D01*
X144607578Y-59565150D02*
X144655197Y-59517530D01*
X144655197Y-59517530D02*
X144702816Y-59422292D01*
X144702816Y-59422292D02*
X144702816Y-59231816D01*
X144702816Y-59231816D02*
X144655197Y-59136578D01*
X144655197Y-59136578D02*
X144607578Y-59088959D01*
X144607578Y-59088959D02*
X144512340Y-59041340D01*
X131383173Y-74819669D02*
X131049840Y-74343478D01*
X130811745Y-74819669D02*
X130811745Y-73819669D01*
X130811745Y-73819669D02*
X131192697Y-73819669D01*
X131192697Y-73819669D02*
X131287935Y-73867288D01*
X131287935Y-73867288D02*
X131335554Y-73914907D01*
X131335554Y-73914907D02*
X131383173Y-74010145D01*
X131383173Y-74010145D02*
X131383173Y-74153002D01*
X131383173Y-74153002D02*
X131335554Y-74248240D01*
X131335554Y-74248240D02*
X131287935Y-74295859D01*
X131287935Y-74295859D02*
X131192697Y-74343478D01*
X131192697Y-74343478D02*
X130811745Y-74343478D01*
X131811745Y-74819669D02*
X131811745Y-73819669D01*
X131811745Y-73819669D02*
X132383173Y-74819669D01*
X132383173Y-74819669D02*
X132383173Y-73819669D01*
X133383173Y-74819669D02*
X132811745Y-74819669D01*
X133097459Y-74819669D02*
X133097459Y-73819669D01*
X133097459Y-73819669D02*
X133002221Y-73962526D01*
X133002221Y-73962526D02*
X132906983Y-74057764D01*
X132906983Y-74057764D02*
X132811745Y-74105383D01*
X193971344Y-85694744D02*
X192971344Y-85694744D01*
X192971344Y-85694744D02*
X192971344Y-85313792D01*
X192971344Y-85313792D02*
X193018963Y-85218554D01*
X193018963Y-85218554D02*
X193066582Y-85170935D01*
X193066582Y-85170935D02*
X193161820Y-85123316D01*
X193161820Y-85123316D02*
X193304677Y-85123316D01*
X193304677Y-85123316D02*
X193399915Y-85170935D01*
X193399915Y-85170935D02*
X193447534Y-85218554D01*
X193447534Y-85218554D02*
X193495153Y-85313792D01*
X193495153Y-85313792D02*
X193495153Y-85694744D01*
X192971344Y-84789982D02*
X192971344Y-84170935D01*
X192971344Y-84170935D02*
X193352296Y-84504268D01*
X193352296Y-84504268D02*
X193352296Y-84361411D01*
X193352296Y-84361411D02*
X193399915Y-84266173D01*
X193399915Y-84266173D02*
X193447534Y-84218554D01*
X193447534Y-84218554D02*
X193542772Y-84170935D01*
X193542772Y-84170935D02*
X193780867Y-84170935D01*
X193780867Y-84170935D02*
X193876105Y-84218554D01*
X193876105Y-84218554D02*
X193923725Y-84266173D01*
X193923725Y-84266173D02*
X193971344Y-84361411D01*
X193971344Y-84361411D02*
X193971344Y-84647125D01*
X193971344Y-84647125D02*
X193923725Y-84742363D01*
X193923725Y-84742363D02*
X193876105Y-84789982D01*
X124355236Y-84103357D02*
X124259998Y-84055738D01*
X124259998Y-84055738D02*
X124164760Y-83960500D01*
X124164760Y-83960500D02*
X124021903Y-83817642D01*
X124021903Y-83817642D02*
X123926665Y-83770023D01*
X123926665Y-83770023D02*
X123831427Y-83770023D01*
X123879046Y-84008119D02*
X123783808Y-83960500D01*
X123783808Y-83960500D02*
X123688570Y-83865261D01*
X123688570Y-83865261D02*
X123640951Y-83674785D01*
X123640951Y-83674785D02*
X123640951Y-83341452D01*
X123640951Y-83341452D02*
X123688570Y-83150976D01*
X123688570Y-83150976D02*
X123783808Y-83055738D01*
X123783808Y-83055738D02*
X123879046Y-83008119D01*
X123879046Y-83008119D02*
X124069522Y-83008119D01*
X124069522Y-83008119D02*
X124164760Y-83055738D01*
X124164760Y-83055738D02*
X124259998Y-83150976D01*
X124259998Y-83150976D02*
X124307617Y-83341452D01*
X124307617Y-83341452D02*
X124307617Y-83674785D01*
X124307617Y-83674785D02*
X124259998Y-83865261D01*
X124259998Y-83865261D02*
X124164760Y-83960500D01*
X124164760Y-83960500D02*
X124069522Y-84008119D01*
X124069522Y-84008119D02*
X123879046Y-84008119D01*
X124688570Y-83103357D02*
X124736189Y-83055738D01*
X124736189Y-83055738D02*
X124831427Y-83008119D01*
X124831427Y-83008119D02*
X125069522Y-83008119D01*
X125069522Y-83008119D02*
X125164760Y-83055738D01*
X125164760Y-83055738D02*
X125212379Y-83103357D01*
X125212379Y-83103357D02*
X125259998Y-83198595D01*
X125259998Y-83198595D02*
X125259998Y-83293833D01*
X125259998Y-83293833D02*
X125212379Y-83436690D01*
X125212379Y-83436690D02*
X124640951Y-84008119D01*
X124640951Y-84008119D02*
X125259998Y-84008119D01*
X140357410Y-106290269D02*
X140357410Y-105290269D01*
X140357410Y-105290269D02*
X140595505Y-105290269D01*
X140595505Y-105290269D02*
X140738362Y-105337888D01*
X140738362Y-105337888D02*
X140833600Y-105433126D01*
X140833600Y-105433126D02*
X140881219Y-105528364D01*
X140881219Y-105528364D02*
X140928838Y-105718840D01*
X140928838Y-105718840D02*
X140928838Y-105861697D01*
X140928838Y-105861697D02*
X140881219Y-106052173D01*
X140881219Y-106052173D02*
X140833600Y-106147411D01*
X140833600Y-106147411D02*
X140738362Y-106242650D01*
X140738362Y-106242650D02*
X140595505Y-106290269D01*
X140595505Y-106290269D02*
X140357410Y-106290269D01*
X141357410Y-106290269D02*
X141357410Y-105290269D01*
X141833600Y-106290269D02*
X141833600Y-105290269D01*
X141833600Y-105290269D02*
X142071695Y-105290269D01*
X142071695Y-105290269D02*
X142214552Y-105337888D01*
X142214552Y-105337888D02*
X142309790Y-105433126D01*
X142309790Y-105433126D02*
X142357409Y-105528364D01*
X142357409Y-105528364D02*
X142405028Y-105718840D01*
X142405028Y-105718840D02*
X142405028Y-105861697D01*
X142405028Y-105861697D02*
X142357409Y-106052173D01*
X142357409Y-106052173D02*
X142309790Y-106147411D01*
X142309790Y-106147411D02*
X142214552Y-106242650D01*
X142214552Y-106242650D02*
X142071695Y-106290269D01*
X142071695Y-106290269D02*
X141833600Y-106290269D01*
X143357409Y-106290269D02*
X142785981Y-106290269D01*
X143071695Y-106290269D02*
X143071695Y-105290269D01*
X143071695Y-105290269D02*
X142976457Y-105433126D01*
X142976457Y-105433126D02*
X142881219Y-105528364D01*
X142881219Y-105528364D02*
X142785981Y-105575983D01*
X131338723Y-77308869D02*
X131005390Y-76832678D01*
X130767295Y-77308869D02*
X130767295Y-76308869D01*
X130767295Y-76308869D02*
X131148247Y-76308869D01*
X131148247Y-76308869D02*
X131243485Y-76356488D01*
X131243485Y-76356488D02*
X131291104Y-76404107D01*
X131291104Y-76404107D02*
X131338723Y-76499345D01*
X131338723Y-76499345D02*
X131338723Y-76642202D01*
X131338723Y-76642202D02*
X131291104Y-76737440D01*
X131291104Y-76737440D02*
X131243485Y-76785059D01*
X131243485Y-76785059D02*
X131148247Y-76832678D01*
X131148247Y-76832678D02*
X130767295Y-76832678D01*
X131767295Y-77308869D02*
X131767295Y-76308869D01*
X131767295Y-76308869D02*
X132338723Y-77308869D01*
X132338723Y-77308869D02*
X132338723Y-76308869D01*
X132719676Y-76308869D02*
X133338723Y-76308869D01*
X133338723Y-76308869D02*
X133005390Y-76689821D01*
X133005390Y-76689821D02*
X133148247Y-76689821D01*
X133148247Y-76689821D02*
X133243485Y-76737440D01*
X133243485Y-76737440D02*
X133291104Y-76785059D01*
X133291104Y-76785059D02*
X133338723Y-76880297D01*
X133338723Y-76880297D02*
X133338723Y-77118392D01*
X133338723Y-77118392D02*
X133291104Y-77213630D01*
X133291104Y-77213630D02*
X133243485Y-77261250D01*
X133243485Y-77261250D02*
X133148247Y-77308869D01*
X133148247Y-77308869D02*
X132862533Y-77308869D01*
X132862533Y-77308869D02*
X132767295Y-77261250D01*
X132767295Y-77261250D02*
X132719676Y-77213630D01*
X140971673Y-105045669D02*
X140638340Y-104569478D01*
X140400245Y-105045669D02*
X140400245Y-104045669D01*
X140400245Y-104045669D02*
X140781197Y-104045669D01*
X140781197Y-104045669D02*
X140876435Y-104093288D01*
X140876435Y-104093288D02*
X140924054Y-104140907D01*
X140924054Y-104140907D02*
X140971673Y-104236145D01*
X140971673Y-104236145D02*
X140971673Y-104379002D01*
X140971673Y-104379002D02*
X140924054Y-104474240D01*
X140924054Y-104474240D02*
X140876435Y-104521859D01*
X140876435Y-104521859D02*
X140781197Y-104569478D01*
X140781197Y-104569478D02*
X140400245Y-104569478D01*
X141400245Y-105045669D02*
X141400245Y-104045669D01*
X141400245Y-104045669D02*
X141971673Y-105045669D01*
X141971673Y-105045669D02*
X141971673Y-104045669D01*
X142924054Y-104045669D02*
X142447864Y-104045669D01*
X142447864Y-104045669D02*
X142400245Y-104521859D01*
X142400245Y-104521859D02*
X142447864Y-104474240D01*
X142447864Y-104474240D02*
X142543102Y-104426621D01*
X142543102Y-104426621D02*
X142781197Y-104426621D01*
X142781197Y-104426621D02*
X142876435Y-104474240D01*
X142876435Y-104474240D02*
X142924054Y-104521859D01*
X142924054Y-104521859D02*
X142971673Y-104617097D01*
X142971673Y-104617097D02*
X142971673Y-104855192D01*
X142971673Y-104855192D02*
X142924054Y-104950430D01*
X142924054Y-104950430D02*
X142876435Y-104998050D01*
X142876435Y-104998050D02*
X142781197Y-105045669D01*
X142781197Y-105045669D02*
X142543102Y-105045669D01*
X142543102Y-105045669D02*
X142447864Y-104998050D01*
X142447864Y-104998050D02*
X142400245Y-104950430D01*
X200399694Y-65476416D02*
X200399694Y-65952606D01*
X200399694Y-65952606D02*
X199399694Y-65952606D01*
X199399694Y-65238320D02*
X199399694Y-64619273D01*
X199399694Y-64619273D02*
X199780646Y-64952606D01*
X199780646Y-64952606D02*
X199780646Y-64809749D01*
X199780646Y-64809749D02*
X199828265Y-64714511D01*
X199828265Y-64714511D02*
X199875884Y-64666892D01*
X199875884Y-64666892D02*
X199971122Y-64619273D01*
X199971122Y-64619273D02*
X200209217Y-64619273D01*
X200209217Y-64619273D02*
X200304455Y-64666892D01*
X200304455Y-64666892D02*
X200352075Y-64714511D01*
X200352075Y-64714511D02*
X200399694Y-64809749D01*
X200399694Y-64809749D02*
X200399694Y-65095463D01*
X200399694Y-65095463D02*
X200352075Y-65190701D01*
X200352075Y-65190701D02*
X200304455Y-65238320D01*
X149871133Y-65425580D02*
X149823514Y-65473200D01*
X149823514Y-65473200D02*
X149680657Y-65520819D01*
X149680657Y-65520819D02*
X149585419Y-65520819D01*
X149585419Y-65520819D02*
X149442562Y-65473200D01*
X149442562Y-65473200D02*
X149347324Y-65377961D01*
X149347324Y-65377961D02*
X149299705Y-65282723D01*
X149299705Y-65282723D02*
X149252086Y-65092247D01*
X149252086Y-65092247D02*
X149252086Y-64949390D01*
X149252086Y-64949390D02*
X149299705Y-64758914D01*
X149299705Y-64758914D02*
X149347324Y-64663676D01*
X149347324Y-64663676D02*
X149442562Y-64568438D01*
X149442562Y-64568438D02*
X149585419Y-64520819D01*
X149585419Y-64520819D02*
X149680657Y-64520819D01*
X149680657Y-64520819D02*
X149823514Y-64568438D01*
X149823514Y-64568438D02*
X149871133Y-64616057D01*
X150204467Y-64520819D02*
X150823514Y-64520819D01*
X150823514Y-64520819D02*
X150490181Y-64901771D01*
X150490181Y-64901771D02*
X150633038Y-64901771D01*
X150633038Y-64901771D02*
X150728276Y-64949390D01*
X150728276Y-64949390D02*
X150775895Y-64997009D01*
X150775895Y-64997009D02*
X150823514Y-65092247D01*
X150823514Y-65092247D02*
X150823514Y-65330342D01*
X150823514Y-65330342D02*
X150775895Y-65425580D01*
X150775895Y-65425580D02*
X150728276Y-65473200D01*
X150728276Y-65473200D02*
X150633038Y-65520819D01*
X150633038Y-65520819D02*
X150347324Y-65520819D01*
X150347324Y-65520819D02*
X150252086Y-65473200D01*
X150252086Y-65473200D02*
X150204467Y-65425580D01*
X158099220Y-71559069D02*
X158099220Y-72368592D01*
X158099220Y-72368592D02*
X158146839Y-72463830D01*
X158146839Y-72463830D02*
X158194458Y-72511450D01*
X158194458Y-72511450D02*
X158289696Y-72559069D01*
X158289696Y-72559069D02*
X158480172Y-72559069D01*
X158480172Y-72559069D02*
X158575410Y-72511450D01*
X158575410Y-72511450D02*
X158623029Y-72463830D01*
X158623029Y-72463830D02*
X158670648Y-72368592D01*
X158670648Y-72368592D02*
X158670648Y-71559069D01*
X159051601Y-71559069D02*
X159670648Y-71559069D01*
X159670648Y-71559069D02*
X159337315Y-71940021D01*
X159337315Y-71940021D02*
X159480172Y-71940021D01*
X159480172Y-71940021D02*
X159575410Y-71987640D01*
X159575410Y-71987640D02*
X159623029Y-72035259D01*
X159623029Y-72035259D02*
X159670648Y-72130497D01*
X159670648Y-72130497D02*
X159670648Y-72368592D01*
X159670648Y-72368592D02*
X159623029Y-72463830D01*
X159623029Y-72463830D02*
X159575410Y-72511450D01*
X159575410Y-72511450D02*
X159480172Y-72559069D01*
X159480172Y-72559069D02*
X159194458Y-72559069D01*
X159194458Y-72559069D02*
X159099220Y-72511450D01*
X159099220Y-72511450D02*
X159051601Y-72463830D01*
X105681795Y-92869550D02*
X105824652Y-92917169D01*
X105824652Y-92917169D02*
X106062747Y-92917169D01*
X106062747Y-92917169D02*
X106157985Y-92869550D01*
X106157985Y-92869550D02*
X106205604Y-92821930D01*
X106205604Y-92821930D02*
X106253223Y-92726692D01*
X106253223Y-92726692D02*
X106253223Y-92631454D01*
X106253223Y-92631454D02*
X106205604Y-92536216D01*
X106205604Y-92536216D02*
X106157985Y-92488597D01*
X106157985Y-92488597D02*
X106062747Y-92440978D01*
X106062747Y-92440978D02*
X105872271Y-92393359D01*
X105872271Y-92393359D02*
X105777033Y-92345740D01*
X105777033Y-92345740D02*
X105729414Y-92298121D01*
X105729414Y-92298121D02*
X105681795Y-92202883D01*
X105681795Y-92202883D02*
X105681795Y-92107645D01*
X105681795Y-92107645D02*
X105729414Y-92012407D01*
X105729414Y-92012407D02*
X105777033Y-91964788D01*
X105777033Y-91964788D02*
X105872271Y-91917169D01*
X105872271Y-91917169D02*
X106110366Y-91917169D01*
X106110366Y-91917169D02*
X106253223Y-91964788D01*
X107205604Y-92917169D02*
X106634176Y-92917169D01*
X106919890Y-92917169D02*
X106919890Y-91917169D01*
X106919890Y-91917169D02*
X106824652Y-92060026D01*
X106824652Y-92060026D02*
X106729414Y-92155264D01*
X106729414Y-92155264D02*
X106634176Y-92202883D01*
X113707370Y-76216669D02*
X113707370Y-75216669D01*
X113707370Y-75216669D02*
X114088322Y-75216669D01*
X114088322Y-75216669D02*
X114183560Y-75264288D01*
X114183560Y-75264288D02*
X114231179Y-75311907D01*
X114231179Y-75311907D02*
X114278798Y-75407145D01*
X114278798Y-75407145D02*
X114278798Y-75550002D01*
X114278798Y-75550002D02*
X114231179Y-75645240D01*
X114231179Y-75645240D02*
X114183560Y-75692859D01*
X114183560Y-75692859D02*
X114088322Y-75740478D01*
X114088322Y-75740478D02*
X113707370Y-75740478D01*
X114707370Y-75216669D02*
X114707370Y-76026192D01*
X114707370Y-76026192D02*
X114754989Y-76121430D01*
X114754989Y-76121430D02*
X114802608Y-76169050D01*
X114802608Y-76169050D02*
X114897846Y-76216669D01*
X114897846Y-76216669D02*
X115088322Y-76216669D01*
X115088322Y-76216669D02*
X115183560Y-76169050D01*
X115183560Y-76169050D02*
X115231179Y-76121430D01*
X115231179Y-76121430D02*
X115278798Y-76026192D01*
X115278798Y-76026192D02*
X115278798Y-75216669D01*
X116278798Y-76216669D02*
X115707370Y-76216669D01*
X115993084Y-76216669D02*
X115993084Y-75216669D01*
X115993084Y-75216669D02*
X115897846Y-75359526D01*
X115897846Y-75359526D02*
X115802608Y-75454764D01*
X115802608Y-75454764D02*
X115707370Y-75502383D01*
X124614067Y-63852505D02*
X124566448Y-63900125D01*
X124566448Y-63900125D02*
X124423591Y-63947744D01*
X124423591Y-63947744D02*
X124328353Y-63947744D01*
X124328353Y-63947744D02*
X124185496Y-63900125D01*
X124185496Y-63900125D02*
X124090258Y-63804886D01*
X124090258Y-63804886D02*
X124042639Y-63709648D01*
X124042639Y-63709648D02*
X123995020Y-63519172D01*
X123995020Y-63519172D02*
X123995020Y-63376315D01*
X123995020Y-63376315D02*
X124042639Y-63185839D01*
X124042639Y-63185839D02*
X124090258Y-63090601D01*
X124090258Y-63090601D02*
X124185496Y-62995363D01*
X124185496Y-62995363D02*
X124328353Y-62947744D01*
X124328353Y-62947744D02*
X124423591Y-62947744D01*
X124423591Y-62947744D02*
X124566448Y-62995363D01*
X124566448Y-62995363D02*
X124614067Y-63042982D01*
X124995020Y-63042982D02*
X125042639Y-62995363D01*
X125042639Y-62995363D02*
X125137877Y-62947744D01*
X125137877Y-62947744D02*
X125375972Y-62947744D01*
X125375972Y-62947744D02*
X125471210Y-62995363D01*
X125471210Y-62995363D02*
X125518829Y-63042982D01*
X125518829Y-63042982D02*
X125566448Y-63138220D01*
X125566448Y-63138220D02*
X125566448Y-63233458D01*
X125566448Y-63233458D02*
X125518829Y-63376315D01*
X125518829Y-63376315D02*
X124947401Y-63947744D01*
X124947401Y-63947744D02*
X125566448Y-63947744D01*
X125899782Y-62947744D02*
X126518829Y-62947744D01*
X126518829Y-62947744D02*
X126185496Y-63328696D01*
X126185496Y-63328696D02*
X126328353Y-63328696D01*
X126328353Y-63328696D02*
X126423591Y-63376315D01*
X126423591Y-63376315D02*
X126471210Y-63423934D01*
X126471210Y-63423934D02*
X126518829Y-63519172D01*
X126518829Y-63519172D02*
X126518829Y-63757267D01*
X126518829Y-63757267D02*
X126471210Y-63852505D01*
X126471210Y-63852505D02*
X126423591Y-63900125D01*
X126423591Y-63900125D02*
X126328353Y-63947744D01*
X126328353Y-63947744D02*
X126042639Y-63947744D01*
X126042639Y-63947744D02*
X125947401Y-63900125D01*
X125947401Y-63900125D02*
X125899782Y-63852505D01*
X127519270Y-95361919D02*
X127519270Y-94361919D01*
X127519270Y-94361919D02*
X127900222Y-94361919D01*
X127900222Y-94361919D02*
X127995460Y-94409538D01*
X127995460Y-94409538D02*
X128043079Y-94457157D01*
X128043079Y-94457157D02*
X128090698Y-94552395D01*
X128090698Y-94552395D02*
X128090698Y-94695252D01*
X128090698Y-94695252D02*
X128043079Y-94790490D01*
X128043079Y-94790490D02*
X127995460Y-94838109D01*
X127995460Y-94838109D02*
X127900222Y-94885728D01*
X127900222Y-94885728D02*
X127519270Y-94885728D01*
X128519270Y-94361919D02*
X128519270Y-95171442D01*
X128519270Y-95171442D02*
X128566889Y-95266680D01*
X128566889Y-95266680D02*
X128614508Y-95314300D01*
X128614508Y-95314300D02*
X128709746Y-95361919D01*
X128709746Y-95361919D02*
X128900222Y-95361919D01*
X128900222Y-95361919D02*
X128995460Y-95314300D01*
X128995460Y-95314300D02*
X129043079Y-95266680D01*
X129043079Y-95266680D02*
X129090698Y-95171442D01*
X129090698Y-95171442D02*
X129090698Y-94361919D01*
X129995460Y-94361919D02*
X129804984Y-94361919D01*
X129804984Y-94361919D02*
X129709746Y-94409538D01*
X129709746Y-94409538D02*
X129662127Y-94457157D01*
X129662127Y-94457157D02*
X129566889Y-94600014D01*
X129566889Y-94600014D02*
X129519270Y-94790490D01*
X129519270Y-94790490D02*
X129519270Y-95171442D01*
X129519270Y-95171442D02*
X129566889Y-95266680D01*
X129566889Y-95266680D02*
X129614508Y-95314300D01*
X129614508Y-95314300D02*
X129709746Y-95361919D01*
X129709746Y-95361919D02*
X129900222Y-95361919D01*
X129900222Y-95361919D02*
X129995460Y-95314300D01*
X129995460Y-95314300D02*
X130043079Y-95266680D01*
X130043079Y-95266680D02*
X130090698Y-95171442D01*
X130090698Y-95171442D02*
X130090698Y-94933347D01*
X130090698Y-94933347D02*
X130043079Y-94838109D01*
X130043079Y-94838109D02*
X129995460Y-94790490D01*
X129995460Y-94790490D02*
X129900222Y-94742871D01*
X129900222Y-94742871D02*
X129709746Y-94742871D01*
X129709746Y-94742871D02*
X129614508Y-94790490D01*
X129614508Y-94790490D02*
X129566889Y-94838109D01*
X129566889Y-94838109D02*
X129519270Y-94933347D01*
X140971673Y-103823294D02*
X140638340Y-103347103D01*
X140400245Y-103823294D02*
X140400245Y-102823294D01*
X140400245Y-102823294D02*
X140781197Y-102823294D01*
X140781197Y-102823294D02*
X140876435Y-102870913D01*
X140876435Y-102870913D02*
X140924054Y-102918532D01*
X140924054Y-102918532D02*
X140971673Y-103013770D01*
X140971673Y-103013770D02*
X140971673Y-103156627D01*
X140971673Y-103156627D02*
X140924054Y-103251865D01*
X140924054Y-103251865D02*
X140876435Y-103299484D01*
X140876435Y-103299484D02*
X140781197Y-103347103D01*
X140781197Y-103347103D02*
X140400245Y-103347103D01*
X141400245Y-103823294D02*
X141400245Y-102823294D01*
X141400245Y-102823294D02*
X141971673Y-103823294D01*
X141971673Y-103823294D02*
X141971673Y-102823294D01*
X142876435Y-102823294D02*
X142685959Y-102823294D01*
X142685959Y-102823294D02*
X142590721Y-102870913D01*
X142590721Y-102870913D02*
X142543102Y-102918532D01*
X142543102Y-102918532D02*
X142447864Y-103061389D01*
X142447864Y-103061389D02*
X142400245Y-103251865D01*
X142400245Y-103251865D02*
X142400245Y-103632817D01*
X142400245Y-103632817D02*
X142447864Y-103728055D01*
X142447864Y-103728055D02*
X142495483Y-103775675D01*
X142495483Y-103775675D02*
X142590721Y-103823294D01*
X142590721Y-103823294D02*
X142781197Y-103823294D01*
X142781197Y-103823294D02*
X142876435Y-103775675D01*
X142876435Y-103775675D02*
X142924054Y-103728055D01*
X142924054Y-103728055D02*
X142971673Y-103632817D01*
X142971673Y-103632817D02*
X142971673Y-103394722D01*
X142971673Y-103394722D02*
X142924054Y-103299484D01*
X142924054Y-103299484D02*
X142876435Y-103251865D01*
X142876435Y-103251865D02*
X142781197Y-103204246D01*
X142781197Y-103204246D02*
X142590721Y-103204246D01*
X142590721Y-103204246D02*
X142495483Y-103251865D01*
X142495483Y-103251865D02*
X142447864Y-103299484D01*
X142447864Y-103299484D02*
X142400245Y-103394722D01*
X185491458Y-86960869D02*
X185158125Y-86484678D01*
X184920030Y-86960869D02*
X184920030Y-85960869D01*
X184920030Y-85960869D02*
X185300982Y-85960869D01*
X185300982Y-85960869D02*
X185396220Y-86008488D01*
X185396220Y-86008488D02*
X185443839Y-86056107D01*
X185443839Y-86056107D02*
X185491458Y-86151345D01*
X185491458Y-86151345D02*
X185491458Y-86294202D01*
X185491458Y-86294202D02*
X185443839Y-86389440D01*
X185443839Y-86389440D02*
X185396220Y-86437059D01*
X185396220Y-86437059D02*
X185300982Y-86484678D01*
X185300982Y-86484678D02*
X184920030Y-86484678D01*
X185872411Y-86056107D02*
X185920030Y-86008488D01*
X185920030Y-86008488D02*
X186015268Y-85960869D01*
X186015268Y-85960869D02*
X186253363Y-85960869D01*
X186253363Y-85960869D02*
X186348601Y-86008488D01*
X186348601Y-86008488D02*
X186396220Y-86056107D01*
X186396220Y-86056107D02*
X186443839Y-86151345D01*
X186443839Y-86151345D02*
X186443839Y-86246583D01*
X186443839Y-86246583D02*
X186396220Y-86389440D01*
X186396220Y-86389440D02*
X185824792Y-86960869D01*
X185824792Y-86960869D02*
X186443839Y-86960869D01*
X157783233Y-88319780D02*
X157735614Y-88367400D01*
X157735614Y-88367400D02*
X157592757Y-88415019D01*
X157592757Y-88415019D02*
X157497519Y-88415019D01*
X157497519Y-88415019D02*
X157354662Y-88367400D01*
X157354662Y-88367400D02*
X157259424Y-88272161D01*
X157259424Y-88272161D02*
X157211805Y-88176923D01*
X157211805Y-88176923D02*
X157164186Y-87986447D01*
X157164186Y-87986447D02*
X157164186Y-87843590D01*
X157164186Y-87843590D02*
X157211805Y-87653114D01*
X157211805Y-87653114D02*
X157259424Y-87557876D01*
X157259424Y-87557876D02*
X157354662Y-87462638D01*
X157354662Y-87462638D02*
X157497519Y-87415019D01*
X157497519Y-87415019D02*
X157592757Y-87415019D01*
X157592757Y-87415019D02*
X157735614Y-87462638D01*
X157735614Y-87462638D02*
X157783233Y-87510257D01*
X158354662Y-87843590D02*
X158259424Y-87795971D01*
X158259424Y-87795971D02*
X158211805Y-87748352D01*
X158211805Y-87748352D02*
X158164186Y-87653114D01*
X158164186Y-87653114D02*
X158164186Y-87605495D01*
X158164186Y-87605495D02*
X158211805Y-87510257D01*
X158211805Y-87510257D02*
X158259424Y-87462638D01*
X158259424Y-87462638D02*
X158354662Y-87415019D01*
X158354662Y-87415019D02*
X158545138Y-87415019D01*
X158545138Y-87415019D02*
X158640376Y-87462638D01*
X158640376Y-87462638D02*
X158687995Y-87510257D01*
X158687995Y-87510257D02*
X158735614Y-87605495D01*
X158735614Y-87605495D02*
X158735614Y-87653114D01*
X158735614Y-87653114D02*
X158687995Y-87748352D01*
X158687995Y-87748352D02*
X158640376Y-87795971D01*
X158640376Y-87795971D02*
X158545138Y-87843590D01*
X158545138Y-87843590D02*
X158354662Y-87843590D01*
X158354662Y-87843590D02*
X158259424Y-87891209D01*
X158259424Y-87891209D02*
X158211805Y-87938828D01*
X158211805Y-87938828D02*
X158164186Y-88034066D01*
X158164186Y-88034066D02*
X158164186Y-88224542D01*
X158164186Y-88224542D02*
X158211805Y-88319780D01*
X158211805Y-88319780D02*
X158259424Y-88367400D01*
X158259424Y-88367400D02*
X158354662Y-88415019D01*
X158354662Y-88415019D02*
X158545138Y-88415019D01*
X158545138Y-88415019D02*
X158640376Y-88367400D01*
X158640376Y-88367400D02*
X158687995Y-88319780D01*
X158687995Y-88319780D02*
X158735614Y-88224542D01*
X158735614Y-88224542D02*
X158735614Y-88034066D01*
X158735614Y-88034066D02*
X158687995Y-87938828D01*
X158687995Y-87938828D02*
X158640376Y-87891209D01*
X158640376Y-87891209D02*
X158545138Y-87843590D01*
X146715242Y-65809019D02*
X146381909Y-65332828D01*
X146143814Y-65809019D02*
X146143814Y-64809019D01*
X146143814Y-64809019D02*
X146524766Y-64809019D01*
X146524766Y-64809019D02*
X146620004Y-64856638D01*
X146620004Y-64856638D02*
X146667623Y-64904257D01*
X146667623Y-64904257D02*
X146715242Y-64999495D01*
X146715242Y-64999495D02*
X146715242Y-65142352D01*
X146715242Y-65142352D02*
X146667623Y-65237590D01*
X146667623Y-65237590D02*
X146620004Y-65285209D01*
X146620004Y-65285209D02*
X146524766Y-65332828D01*
X146524766Y-65332828D02*
X146143814Y-65332828D01*
X147667623Y-65809019D02*
X147096195Y-65809019D01*
X147381909Y-65809019D02*
X147381909Y-64809019D01*
X147381909Y-64809019D02*
X147286671Y-64951876D01*
X147286671Y-64951876D02*
X147191433Y-65047114D01*
X147191433Y-65047114D02*
X147096195Y-65094733D01*
X148286671Y-64809019D02*
X148381909Y-64809019D01*
X148381909Y-64809019D02*
X148477147Y-64856638D01*
X148477147Y-64856638D02*
X148524766Y-64904257D01*
X148524766Y-64904257D02*
X148572385Y-64999495D01*
X148572385Y-64999495D02*
X148620004Y-65189971D01*
X148620004Y-65189971D02*
X148620004Y-65428066D01*
X148620004Y-65428066D02*
X148572385Y-65618542D01*
X148572385Y-65618542D02*
X148524766Y-65713780D01*
X148524766Y-65713780D02*
X148477147Y-65761400D01*
X148477147Y-65761400D02*
X148381909Y-65809019D01*
X148381909Y-65809019D02*
X148286671Y-65809019D01*
X148286671Y-65809019D02*
X148191433Y-65761400D01*
X148191433Y-65761400D02*
X148143814Y-65713780D01*
X148143814Y-65713780D02*
X148096195Y-65618542D01*
X148096195Y-65618542D02*
X148048576Y-65428066D01*
X148048576Y-65428066D02*
X148048576Y-65189971D01*
X148048576Y-65189971D02*
X148096195Y-64999495D01*
X148096195Y-64999495D02*
X148143814Y-64904257D01*
X148143814Y-64904257D02*
X148191433Y-64856638D01*
X148191433Y-64856638D02*
X148286671Y-64809019D01*
X153174759Y-64737028D02*
X153174759Y-65213219D01*
X152841426Y-64213219D02*
X153174759Y-64737028D01*
X153174759Y-64737028D02*
X153508092Y-64213219D01*
X154365235Y-65213219D02*
X153793807Y-65213219D01*
X154079521Y-65213219D02*
X154079521Y-64213219D01*
X154079521Y-64213219D02*
X153984283Y-64356076D01*
X153984283Y-64356076D02*
X153889045Y-64451314D01*
X153889045Y-64451314D02*
X153793807Y-64498933D01*
X110099516Y-65790094D02*
X110099516Y-66504379D01*
X110099516Y-66504379D02*
X110051897Y-66647236D01*
X110051897Y-66647236D02*
X109956659Y-66742475D01*
X109956659Y-66742475D02*
X109813802Y-66790094D01*
X109813802Y-66790094D02*
X109718564Y-66790094D01*
X111004278Y-66123427D02*
X111004278Y-66790094D01*
X110766183Y-65742475D02*
X110528088Y-66456760D01*
X110528088Y-66456760D02*
X111147135Y-66456760D01*
X135128920Y-57242619D02*
X135128920Y-58052142D01*
X135128920Y-58052142D02*
X135176539Y-58147380D01*
X135176539Y-58147380D02*
X135224158Y-58195000D01*
X135224158Y-58195000D02*
X135319396Y-58242619D01*
X135319396Y-58242619D02*
X135509872Y-58242619D01*
X135509872Y-58242619D02*
X135605110Y-58195000D01*
X135605110Y-58195000D02*
X135652729Y-58147380D01*
X135652729Y-58147380D02*
X135700348Y-58052142D01*
X135700348Y-58052142D02*
X135700348Y-57242619D01*
X136605110Y-57575952D02*
X136605110Y-58242619D01*
X136367015Y-57195000D02*
X136128920Y-57909285D01*
X136128920Y-57909285D02*
X136747967Y-57909285D01*
X127236755Y-101461094D02*
X127236755Y-100461094D01*
X127236755Y-100461094D02*
X127617707Y-100461094D01*
X127617707Y-100461094D02*
X127712945Y-100508713D01*
X127712945Y-100508713D02*
X127760564Y-100556332D01*
X127760564Y-100556332D02*
X127808183Y-100651570D01*
X127808183Y-100651570D02*
X127808183Y-100794427D01*
X127808183Y-100794427D02*
X127760564Y-100889665D01*
X127760564Y-100889665D02*
X127712945Y-100937284D01*
X127712945Y-100937284D02*
X127617707Y-100984903D01*
X127617707Y-100984903D02*
X127236755Y-100984903D01*
X128236755Y-100461094D02*
X128236755Y-101270617D01*
X128236755Y-101270617D02*
X128284374Y-101365855D01*
X128284374Y-101365855D02*
X128331993Y-101413475D01*
X128331993Y-101413475D02*
X128427231Y-101461094D01*
X128427231Y-101461094D02*
X128617707Y-101461094D01*
X128617707Y-101461094D02*
X128712945Y-101413475D01*
X128712945Y-101413475D02*
X128760564Y-101365855D01*
X128760564Y-101365855D02*
X128808183Y-101270617D01*
X128808183Y-101270617D02*
X128808183Y-100461094D01*
X129808183Y-101461094D02*
X129236755Y-101461094D01*
X129522469Y-101461094D02*
X129522469Y-100461094D01*
X129522469Y-100461094D02*
X129427231Y-100603951D01*
X129427231Y-100603951D02*
X129331993Y-100699189D01*
X129331993Y-100699189D02*
X129236755Y-100746808D01*
X130427231Y-100461094D02*
X130522469Y-100461094D01*
X130522469Y-100461094D02*
X130617707Y-100508713D01*
X130617707Y-100508713D02*
X130665326Y-100556332D01*
X130665326Y-100556332D02*
X130712945Y-100651570D01*
X130712945Y-100651570D02*
X130760564Y-100842046D01*
X130760564Y-100842046D02*
X130760564Y-101080141D01*
X130760564Y-101080141D02*
X130712945Y-101270617D01*
X130712945Y-101270617D02*
X130665326Y-101365855D01*
X130665326Y-101365855D02*
X130617707Y-101413475D01*
X130617707Y-101413475D02*
X130522469Y-101461094D01*
X130522469Y-101461094D02*
X130427231Y-101461094D01*
X130427231Y-101461094D02*
X130331993Y-101413475D01*
X130331993Y-101413475D02*
X130284374Y-101365855D01*
X130284374Y-101365855D02*
X130236755Y-101270617D01*
X130236755Y-101270617D02*
X130189136Y-101080141D01*
X130189136Y-101080141D02*
X130189136Y-100842046D01*
X130189136Y-100842046D02*
X130236755Y-100651570D01*
X130236755Y-100651570D02*
X130284374Y-100556332D01*
X130284374Y-100556332D02*
X130331993Y-100508713D01*
X130331993Y-100508713D02*
X130427231Y-100461094D01*
X114555017Y-73505219D02*
X114221684Y-73029028D01*
X113983589Y-73505219D02*
X113983589Y-72505219D01*
X113983589Y-72505219D02*
X114364541Y-72505219D01*
X114364541Y-72505219D02*
X114459779Y-72552838D01*
X114459779Y-72552838D02*
X114507398Y-72600457D01*
X114507398Y-72600457D02*
X114555017Y-72695695D01*
X114555017Y-72695695D02*
X114555017Y-72838552D01*
X114555017Y-72838552D02*
X114507398Y-72933790D01*
X114507398Y-72933790D02*
X114459779Y-72981409D01*
X114459779Y-72981409D02*
X114364541Y-73029028D01*
X114364541Y-73029028D02*
X113983589Y-73029028D01*
X115507398Y-73505219D02*
X114935970Y-73505219D01*
X115221684Y-73505219D02*
X115221684Y-72505219D01*
X115221684Y-72505219D02*
X115126446Y-72648076D01*
X115126446Y-72648076D02*
X115031208Y-72743314D01*
X115031208Y-72743314D02*
X114935970Y-72790933D01*
X115840732Y-72505219D02*
X116459779Y-72505219D01*
X116459779Y-72505219D02*
X116126446Y-72886171D01*
X116126446Y-72886171D02*
X116269303Y-72886171D01*
X116269303Y-72886171D02*
X116364541Y-72933790D01*
X116364541Y-72933790D02*
X116412160Y-72981409D01*
X116412160Y-72981409D02*
X116459779Y-73076647D01*
X116459779Y-73076647D02*
X116459779Y-73314742D01*
X116459779Y-73314742D02*
X116412160Y-73409980D01*
X116412160Y-73409980D02*
X116364541Y-73457600D01*
X116364541Y-73457600D02*
X116269303Y-73505219D01*
X116269303Y-73505219D02*
X115983589Y-73505219D01*
X115983589Y-73505219D02*
X115888351Y-73457600D01*
X115888351Y-73457600D02*
X115840732Y-73409980D01*
X98220305Y-68025169D02*
X98220305Y-67025169D01*
X98220305Y-67025169D02*
X98601257Y-67025169D01*
X98601257Y-67025169D02*
X98696495Y-67072788D01*
X98696495Y-67072788D02*
X98744114Y-67120407D01*
X98744114Y-67120407D02*
X98791733Y-67215645D01*
X98791733Y-67215645D02*
X98791733Y-67358502D01*
X98791733Y-67358502D02*
X98744114Y-67453740D01*
X98744114Y-67453740D02*
X98696495Y-67501359D01*
X98696495Y-67501359D02*
X98601257Y-67548978D01*
X98601257Y-67548978D02*
X98220305Y-67548978D01*
X99172686Y-67120407D02*
X99220305Y-67072788D01*
X99220305Y-67072788D02*
X99315543Y-67025169D01*
X99315543Y-67025169D02*
X99553638Y-67025169D01*
X99553638Y-67025169D02*
X99648876Y-67072788D01*
X99648876Y-67072788D02*
X99696495Y-67120407D01*
X99696495Y-67120407D02*
X99744114Y-67215645D01*
X99744114Y-67215645D02*
X99744114Y-67310883D01*
X99744114Y-67310883D02*
X99696495Y-67453740D01*
X99696495Y-67453740D02*
X99125067Y-68025169D01*
X99125067Y-68025169D02*
X99744114Y-68025169D01*
X124377461Y-82836532D02*
X124282223Y-82788913D01*
X124282223Y-82788913D02*
X124186985Y-82693675D01*
X124186985Y-82693675D02*
X124044128Y-82550817D01*
X124044128Y-82550817D02*
X123948890Y-82503198D01*
X123948890Y-82503198D02*
X123853652Y-82503198D01*
X123901271Y-82741294D02*
X123806033Y-82693675D01*
X123806033Y-82693675D02*
X123710795Y-82598436D01*
X123710795Y-82598436D02*
X123663176Y-82407960D01*
X123663176Y-82407960D02*
X123663176Y-82074627D01*
X123663176Y-82074627D02*
X123710795Y-81884151D01*
X123710795Y-81884151D02*
X123806033Y-81788913D01*
X123806033Y-81788913D02*
X123901271Y-81741294D01*
X123901271Y-81741294D02*
X124091747Y-81741294D01*
X124091747Y-81741294D02*
X124186985Y-81788913D01*
X124186985Y-81788913D02*
X124282223Y-81884151D01*
X124282223Y-81884151D02*
X124329842Y-82074627D01*
X124329842Y-82074627D02*
X124329842Y-82407960D01*
X124329842Y-82407960D02*
X124282223Y-82598436D01*
X124282223Y-82598436D02*
X124186985Y-82693675D01*
X124186985Y-82693675D02*
X124091747Y-82741294D01*
X124091747Y-82741294D02*
X123901271Y-82741294D01*
X125282223Y-82741294D02*
X124710795Y-82741294D01*
X124996509Y-82741294D02*
X124996509Y-81741294D01*
X124996509Y-81741294D02*
X124901271Y-81884151D01*
X124901271Y-81884151D02*
X124806033Y-81979389D01*
X124806033Y-81979389D02*
X124710795Y-82027008D01*
X193393969Y-60306166D02*
X193393969Y-60782356D01*
X193393969Y-60782356D02*
X192393969Y-60782356D01*
X192727302Y-59544261D02*
X193393969Y-59544261D01*
X192346350Y-59782356D02*
X193060635Y-60020451D01*
X193060635Y-60020451D02*
X193060635Y-59401404D01*
X116041055Y-86662419D02*
X116041055Y-85662419D01*
X116041055Y-85662419D02*
X116422007Y-85662419D01*
X116422007Y-85662419D02*
X116517245Y-85710038D01*
X116517245Y-85710038D02*
X116564864Y-85757657D01*
X116564864Y-85757657D02*
X116612483Y-85852895D01*
X116612483Y-85852895D02*
X116612483Y-85995752D01*
X116612483Y-85995752D02*
X116564864Y-86090990D01*
X116564864Y-86090990D02*
X116517245Y-86138609D01*
X116517245Y-86138609D02*
X116422007Y-86186228D01*
X116422007Y-86186228D02*
X116041055Y-86186228D01*
X117041055Y-85662419D02*
X117041055Y-86471942D01*
X117041055Y-86471942D02*
X117088674Y-86567180D01*
X117088674Y-86567180D02*
X117136293Y-86614800D01*
X117136293Y-86614800D02*
X117231531Y-86662419D01*
X117231531Y-86662419D02*
X117422007Y-86662419D01*
X117422007Y-86662419D02*
X117517245Y-86614800D01*
X117517245Y-86614800D02*
X117564864Y-86567180D01*
X117564864Y-86567180D02*
X117612483Y-86471942D01*
X117612483Y-86471942D02*
X117612483Y-85662419D01*
X118612483Y-86662419D02*
X118041055Y-86662419D01*
X118326769Y-86662419D02*
X118326769Y-85662419D01*
X118326769Y-85662419D02*
X118231531Y-85805276D01*
X118231531Y-85805276D02*
X118136293Y-85900514D01*
X118136293Y-85900514D02*
X118041055Y-85948133D01*
X119469626Y-85995752D02*
X119469626Y-86662419D01*
X119231531Y-85614800D02*
X118993436Y-86329085D01*
X118993436Y-86329085D02*
X119612483Y-86329085D01*
X141408245Y-80715769D02*
X141408245Y-81525292D01*
X141408245Y-81525292D02*
X141455864Y-81620530D01*
X141455864Y-81620530D02*
X141503483Y-81668150D01*
X141503483Y-81668150D02*
X141598721Y-81715769D01*
X141598721Y-81715769D02*
X141789197Y-81715769D01*
X141789197Y-81715769D02*
X141884435Y-81668150D01*
X141884435Y-81668150D02*
X141932054Y-81620530D01*
X141932054Y-81620530D02*
X141979673Y-81525292D01*
X141979673Y-81525292D02*
X141979673Y-80715769D01*
X142979673Y-81715769D02*
X142408245Y-81715769D01*
X142693959Y-81715769D02*
X142693959Y-80715769D01*
X142693959Y-80715769D02*
X142598721Y-80858626D01*
X142598721Y-80858626D02*
X142503483Y-80953864D01*
X142503483Y-80953864D02*
X142408245Y-81001483D01*
X185380333Y-84617719D02*
X185047000Y-84141528D01*
X184808905Y-84617719D02*
X184808905Y-83617719D01*
X184808905Y-83617719D02*
X185189857Y-83617719D01*
X185189857Y-83617719D02*
X185285095Y-83665338D01*
X185285095Y-83665338D02*
X185332714Y-83712957D01*
X185332714Y-83712957D02*
X185380333Y-83808195D01*
X185380333Y-83808195D02*
X185380333Y-83951052D01*
X185380333Y-83951052D02*
X185332714Y-84046290D01*
X185332714Y-84046290D02*
X185285095Y-84093909D01*
X185285095Y-84093909D02*
X185189857Y-84141528D01*
X185189857Y-84141528D02*
X184808905Y-84141528D01*
X186332714Y-84617719D02*
X185761286Y-84617719D01*
X186047000Y-84617719D02*
X186047000Y-83617719D01*
X186047000Y-83617719D02*
X185951762Y-83760576D01*
X185951762Y-83760576D02*
X185856524Y-83855814D01*
X185856524Y-83855814D02*
X185761286Y-83903433D01*
X185459767Y-70660419D02*
X185126434Y-70184228D01*
X184888339Y-70660419D02*
X184888339Y-69660419D01*
X184888339Y-69660419D02*
X185269291Y-69660419D01*
X185269291Y-69660419D02*
X185364529Y-69708038D01*
X185364529Y-69708038D02*
X185412148Y-69755657D01*
X185412148Y-69755657D02*
X185459767Y-69850895D01*
X185459767Y-69850895D02*
X185459767Y-69993752D01*
X185459767Y-69993752D02*
X185412148Y-70088990D01*
X185412148Y-70088990D02*
X185364529Y-70136609D01*
X185364529Y-70136609D02*
X185269291Y-70184228D01*
X185269291Y-70184228D02*
X184888339Y-70184228D01*
X185840720Y-69755657D02*
X185888339Y-69708038D01*
X185888339Y-69708038D02*
X185983577Y-69660419D01*
X185983577Y-69660419D02*
X186221672Y-69660419D01*
X186221672Y-69660419D02*
X186316910Y-69708038D01*
X186316910Y-69708038D02*
X186364529Y-69755657D01*
X186364529Y-69755657D02*
X186412148Y-69850895D01*
X186412148Y-69850895D02*
X186412148Y-69946133D01*
X186412148Y-69946133D02*
X186364529Y-70088990D01*
X186364529Y-70088990D02*
X185793101Y-70660419D01*
X185793101Y-70660419D02*
X186412148Y-70660419D01*
X187364529Y-70660419D02*
X186793101Y-70660419D01*
X187078815Y-70660419D02*
X187078815Y-69660419D01*
X187078815Y-69660419D02*
X186983577Y-69803276D01*
X186983577Y-69803276D02*
X186888339Y-69898514D01*
X186888339Y-69898514D02*
X186793101Y-69946133D01*
X154062133Y-84633605D02*
X154014514Y-84681225D01*
X154014514Y-84681225D02*
X153871657Y-84728844D01*
X153871657Y-84728844D02*
X153776419Y-84728844D01*
X153776419Y-84728844D02*
X153633562Y-84681225D01*
X153633562Y-84681225D02*
X153538324Y-84585986D01*
X153538324Y-84585986D02*
X153490705Y-84490748D01*
X153490705Y-84490748D02*
X153443086Y-84300272D01*
X153443086Y-84300272D02*
X153443086Y-84157415D01*
X153443086Y-84157415D02*
X153490705Y-83966939D01*
X153490705Y-83966939D02*
X153538324Y-83871701D01*
X153538324Y-83871701D02*
X153633562Y-83776463D01*
X153633562Y-83776463D02*
X153776419Y-83728844D01*
X153776419Y-83728844D02*
X153871657Y-83728844D01*
X153871657Y-83728844D02*
X154014514Y-83776463D01*
X154014514Y-83776463D02*
X154062133Y-83824082D01*
X154538324Y-84728844D02*
X154728800Y-84728844D01*
X154728800Y-84728844D02*
X154824038Y-84681225D01*
X154824038Y-84681225D02*
X154871657Y-84633605D01*
X154871657Y-84633605D02*
X154966895Y-84490748D01*
X154966895Y-84490748D02*
X155014514Y-84300272D01*
X155014514Y-84300272D02*
X155014514Y-83919320D01*
X155014514Y-83919320D02*
X154966895Y-83824082D01*
X154966895Y-83824082D02*
X154919276Y-83776463D01*
X154919276Y-83776463D02*
X154824038Y-83728844D01*
X154824038Y-83728844D02*
X154633562Y-83728844D01*
X154633562Y-83728844D02*
X154538324Y-83776463D01*
X154538324Y-83776463D02*
X154490705Y-83824082D01*
X154490705Y-83824082D02*
X154443086Y-83919320D01*
X154443086Y-83919320D02*
X154443086Y-84157415D01*
X154443086Y-84157415D02*
X154490705Y-84252653D01*
X154490705Y-84252653D02*
X154538324Y-84300272D01*
X154538324Y-84300272D02*
X154633562Y-84347891D01*
X154633562Y-84347891D02*
X154824038Y-84347891D01*
X154824038Y-84347891D02*
X154919276Y-84300272D01*
X154919276Y-84300272D02*
X154966895Y-84252653D01*
X154966895Y-84252653D02*
X155014514Y-84157415D01*
X119915645Y-91342369D02*
X119915645Y-90342369D01*
X119915645Y-90342369D02*
X120296597Y-90342369D01*
X120296597Y-90342369D02*
X120391835Y-90389988D01*
X120391835Y-90389988D02*
X120439454Y-90437607D01*
X120439454Y-90437607D02*
X120487073Y-90532845D01*
X120487073Y-90532845D02*
X120487073Y-90675702D01*
X120487073Y-90675702D02*
X120439454Y-90770940D01*
X120439454Y-90770940D02*
X120391835Y-90818559D01*
X120391835Y-90818559D02*
X120296597Y-90866178D01*
X120296597Y-90866178D02*
X119915645Y-90866178D01*
X120915645Y-90342369D02*
X120915645Y-91151892D01*
X120915645Y-91151892D02*
X120963264Y-91247130D01*
X120963264Y-91247130D02*
X121010883Y-91294750D01*
X121010883Y-91294750D02*
X121106121Y-91342369D01*
X121106121Y-91342369D02*
X121296597Y-91342369D01*
X121296597Y-91342369D02*
X121391835Y-91294750D01*
X121391835Y-91294750D02*
X121439454Y-91247130D01*
X121439454Y-91247130D02*
X121487073Y-91151892D01*
X121487073Y-91151892D02*
X121487073Y-90342369D01*
X122391835Y-90675702D02*
X122391835Y-91342369D01*
X122153740Y-90294750D02*
X121915645Y-91009035D01*
X121915645Y-91009035D02*
X122534692Y-91009035D01*
X128284367Y-70009555D02*
X128236748Y-70057175D01*
X128236748Y-70057175D02*
X128093891Y-70104794D01*
X128093891Y-70104794D02*
X127998653Y-70104794D01*
X127998653Y-70104794D02*
X127855796Y-70057175D01*
X127855796Y-70057175D02*
X127760558Y-69961936D01*
X127760558Y-69961936D02*
X127712939Y-69866698D01*
X127712939Y-69866698D02*
X127665320Y-69676222D01*
X127665320Y-69676222D02*
X127665320Y-69533365D01*
X127665320Y-69533365D02*
X127712939Y-69342889D01*
X127712939Y-69342889D02*
X127760558Y-69247651D01*
X127760558Y-69247651D02*
X127855796Y-69152413D01*
X127855796Y-69152413D02*
X127998653Y-69104794D01*
X127998653Y-69104794D02*
X128093891Y-69104794D01*
X128093891Y-69104794D02*
X128236748Y-69152413D01*
X128236748Y-69152413D02*
X128284367Y-69200032D01*
X129236748Y-70104794D02*
X128665320Y-70104794D01*
X128951034Y-70104794D02*
X128951034Y-69104794D01*
X128951034Y-69104794D02*
X128855796Y-69247651D01*
X128855796Y-69247651D02*
X128760558Y-69342889D01*
X128760558Y-69342889D02*
X128665320Y-69390508D01*
X129712939Y-70104794D02*
X129903415Y-70104794D01*
X129903415Y-70104794D02*
X129998653Y-70057175D01*
X129998653Y-70057175D02*
X130046272Y-70009555D01*
X130046272Y-70009555D02*
X130141510Y-69866698D01*
X130141510Y-69866698D02*
X130189129Y-69676222D01*
X130189129Y-69676222D02*
X130189129Y-69295270D01*
X130189129Y-69295270D02*
X130141510Y-69200032D01*
X130141510Y-69200032D02*
X130093891Y-69152413D01*
X130093891Y-69152413D02*
X129998653Y-69104794D01*
X129998653Y-69104794D02*
X129808177Y-69104794D01*
X129808177Y-69104794D02*
X129712939Y-69152413D01*
X129712939Y-69152413D02*
X129665320Y-69200032D01*
X129665320Y-69200032D02*
X129617701Y-69295270D01*
X129617701Y-69295270D02*
X129617701Y-69533365D01*
X129617701Y-69533365D02*
X129665320Y-69628603D01*
X129665320Y-69628603D02*
X129712939Y-69676222D01*
X129712939Y-69676222D02*
X129808177Y-69723841D01*
X129808177Y-69723841D02*
X129998653Y-69723841D01*
X129998653Y-69723841D02*
X130093891Y-69676222D01*
X130093891Y-69676222D02*
X130141510Y-69628603D01*
X130141510Y-69628603D02*
X130189129Y-69533365D01*
X113567670Y-81477644D02*
X113567670Y-80477644D01*
X113567670Y-80477644D02*
X113948622Y-80477644D01*
X113948622Y-80477644D02*
X114043860Y-80525263D01*
X114043860Y-80525263D02*
X114091479Y-80572882D01*
X114091479Y-80572882D02*
X114139098Y-80668120D01*
X114139098Y-80668120D02*
X114139098Y-80810977D01*
X114139098Y-80810977D02*
X114091479Y-80906215D01*
X114091479Y-80906215D02*
X114043860Y-80953834D01*
X114043860Y-80953834D02*
X113948622Y-81001453D01*
X113948622Y-81001453D02*
X113567670Y-81001453D01*
X114567670Y-80477644D02*
X114567670Y-81287167D01*
X114567670Y-81287167D02*
X114615289Y-81382405D01*
X114615289Y-81382405D02*
X114662908Y-81430025D01*
X114662908Y-81430025D02*
X114758146Y-81477644D01*
X114758146Y-81477644D02*
X114948622Y-81477644D01*
X114948622Y-81477644D02*
X115043860Y-81430025D01*
X115043860Y-81430025D02*
X115091479Y-81382405D01*
X115091479Y-81382405D02*
X115139098Y-81287167D01*
X115139098Y-81287167D02*
X115139098Y-80477644D01*
X115520051Y-80477644D02*
X116139098Y-80477644D01*
X116139098Y-80477644D02*
X115805765Y-80858596D01*
X115805765Y-80858596D02*
X115948622Y-80858596D01*
X115948622Y-80858596D02*
X116043860Y-80906215D01*
X116043860Y-80906215D02*
X116091479Y-80953834D01*
X116091479Y-80953834D02*
X116139098Y-81049072D01*
X116139098Y-81049072D02*
X116139098Y-81287167D01*
X116139098Y-81287167D02*
X116091479Y-81382405D01*
X116091479Y-81382405D02*
X116043860Y-81430025D01*
X116043860Y-81430025D02*
X115948622Y-81477644D01*
X115948622Y-81477644D02*
X115662908Y-81477644D01*
X115662908Y-81477644D02*
X115567670Y-81430025D01*
X115567670Y-81430025D02*
X115520051Y-81382405D01*
X114112245Y-94631669D02*
X114112245Y-93631669D01*
X114112245Y-93631669D02*
X114493197Y-93631669D01*
X114493197Y-93631669D02*
X114588435Y-93679288D01*
X114588435Y-93679288D02*
X114636054Y-93726907D01*
X114636054Y-93726907D02*
X114683673Y-93822145D01*
X114683673Y-93822145D02*
X114683673Y-93965002D01*
X114683673Y-93965002D02*
X114636054Y-94060240D01*
X114636054Y-94060240D02*
X114588435Y-94107859D01*
X114588435Y-94107859D02*
X114493197Y-94155478D01*
X114493197Y-94155478D02*
X114112245Y-94155478D01*
X115112245Y-93631669D02*
X115112245Y-94441192D01*
X115112245Y-94441192D02*
X115159864Y-94536430D01*
X115159864Y-94536430D02*
X115207483Y-94584050D01*
X115207483Y-94584050D02*
X115302721Y-94631669D01*
X115302721Y-94631669D02*
X115493197Y-94631669D01*
X115493197Y-94631669D02*
X115588435Y-94584050D01*
X115588435Y-94584050D02*
X115636054Y-94536430D01*
X115636054Y-94536430D02*
X115683673Y-94441192D01*
X115683673Y-94441192D02*
X115683673Y-93631669D01*
X116064626Y-93631669D02*
X116731292Y-93631669D01*
X116731292Y-93631669D02*
X116302721Y-94631669D01*
X180198792Y-86033780D02*
X180151173Y-86081400D01*
X180151173Y-86081400D02*
X180008316Y-86129019D01*
X180008316Y-86129019D02*
X179913078Y-86129019D01*
X179913078Y-86129019D02*
X179770221Y-86081400D01*
X179770221Y-86081400D02*
X179674983Y-85986161D01*
X179674983Y-85986161D02*
X179627364Y-85890923D01*
X179627364Y-85890923D02*
X179579745Y-85700447D01*
X179579745Y-85700447D02*
X179579745Y-85557590D01*
X179579745Y-85557590D02*
X179627364Y-85367114D01*
X179627364Y-85367114D02*
X179674983Y-85271876D01*
X179674983Y-85271876D02*
X179770221Y-85176638D01*
X179770221Y-85176638D02*
X179913078Y-85129019D01*
X179913078Y-85129019D02*
X180008316Y-85129019D01*
X180008316Y-85129019D02*
X180151173Y-85176638D01*
X180151173Y-85176638D02*
X180198792Y-85224257D01*
X181151173Y-86129019D02*
X180579745Y-86129019D01*
X180865459Y-86129019D02*
X180865459Y-85129019D01*
X180865459Y-85129019D02*
X180770221Y-85271876D01*
X180770221Y-85271876D02*
X180674983Y-85367114D01*
X180674983Y-85367114D02*
X180579745Y-85414733D01*
X182008316Y-85129019D02*
X181817840Y-85129019D01*
X181817840Y-85129019D02*
X181722602Y-85176638D01*
X181722602Y-85176638D02*
X181674983Y-85224257D01*
X181674983Y-85224257D02*
X181579745Y-85367114D01*
X181579745Y-85367114D02*
X181532126Y-85557590D01*
X181532126Y-85557590D02*
X181532126Y-85938542D01*
X181532126Y-85938542D02*
X181579745Y-86033780D01*
X181579745Y-86033780D02*
X181627364Y-86081400D01*
X181627364Y-86081400D02*
X181722602Y-86129019D01*
X181722602Y-86129019D02*
X181913078Y-86129019D01*
X181913078Y-86129019D02*
X182008316Y-86081400D01*
X182008316Y-86081400D02*
X182055935Y-86033780D01*
X182055935Y-86033780D02*
X182103554Y-85938542D01*
X182103554Y-85938542D02*
X182103554Y-85700447D01*
X182103554Y-85700447D02*
X182055935Y-85605209D01*
X182055935Y-85605209D02*
X182008316Y-85557590D01*
X182008316Y-85557590D02*
X181913078Y-85509971D01*
X181913078Y-85509971D02*
X181722602Y-85509971D01*
X181722602Y-85509971D02*
X181627364Y-85557590D01*
X181627364Y-85557590D02*
X181579745Y-85605209D01*
X181579745Y-85605209D02*
X181532126Y-85700447D01*
D12*
%TO.C,J10*%
X103171950Y-67363500D02*
X103171950Y-59683500D01*
X105831950Y-59683500D02*
X103171950Y-59683500D01*
X105831950Y-67363500D02*
X103171950Y-67363500D01*
X105831950Y-67363500D02*
X105831950Y-59683500D01*
X105831950Y-68633500D02*
X105831950Y-69963500D01*
X105831950Y-69963500D02*
X104501950Y-69963500D01*
%TO.C,PU5*%
X118772936Y-90663725D02*
X119227064Y-90663725D01*
X118772936Y-92133725D02*
X119227064Y-92133725D01*
%TO.C,C4*%
X146572300Y-73653473D02*
X146572300Y-74175977D01*
X148042300Y-73653473D02*
X148042300Y-74175977D01*
%TO.C,R20*%
X189933211Y-66292425D02*
X190387339Y-66292425D01*
X189933211Y-67762425D02*
X190387339Y-67762425D01*
%TO.C,J7*%
X143090900Y-96021525D02*
X144360900Y-96021525D01*
X143090900Y-97291525D02*
X143090900Y-96021525D01*
X145403829Y-99451525D02*
X145857971Y-99451525D01*
X145403829Y-100211525D02*
X145857971Y-100211525D01*
X145470900Y-96911525D02*
X145857971Y-96911525D01*
X145470900Y-97671525D02*
X145857971Y-97671525D01*
X147943829Y-96911525D02*
X148340900Y-96911525D01*
X147943829Y-97671525D02*
X148340900Y-97671525D01*
X147943829Y-99451525D02*
X148340900Y-99451525D01*
X147943829Y-100211525D02*
X148340900Y-100211525D01*
X148340900Y-95961525D02*
X148340900Y-101161525D01*
X148340900Y-98561525D02*
X151000900Y-98561525D01*
X148340900Y-101161525D02*
X151000900Y-101161525D01*
X151000900Y-95961525D02*
X148340900Y-95961525D01*
X151000900Y-96911525D02*
X157000900Y-96911525D01*
X151000900Y-96971525D02*
X157000900Y-96971525D01*
X151000900Y-97091525D02*
X157000900Y-97091525D01*
X151000900Y-97211525D02*
X157000900Y-97211525D01*
X151000900Y-97331525D02*
X157000900Y-97331525D01*
X151000900Y-97451525D02*
X157000900Y-97451525D01*
X151000900Y-97571525D02*
X157000900Y-97571525D01*
X151000900Y-99451525D02*
X157000900Y-99451525D01*
X151000900Y-101161525D02*
X151000900Y-95961525D01*
X157000900Y-96911525D02*
X157000900Y-97671525D01*
X157000900Y-97671525D02*
X151000900Y-97671525D01*
X157000900Y-99451525D02*
X157000900Y-100211525D01*
X157000900Y-100211525D02*
X151000900Y-100211525D01*
%TO.C,C1*%
X183736138Y-92597125D02*
X183736138Y-92029125D01*
X183776138Y-92831125D02*
X183776138Y-91795125D01*
X183816138Y-92990125D02*
X183816138Y-91636125D01*
X183856138Y-93118125D02*
X183856138Y-91508125D01*
X183896138Y-93228125D02*
X183896138Y-91398125D01*
X183936138Y-93324125D02*
X183936138Y-91302125D01*
X183976138Y-93411125D02*
X183976138Y-91215125D01*
X184016138Y-93491125D02*
X184016138Y-91135125D01*
X184056138Y-91273125D02*
X184056138Y-91062125D01*
X184056138Y-93564125D02*
X184056138Y-93353125D01*
X184096138Y-91273125D02*
X184096138Y-90994125D01*
X184096138Y-93632125D02*
X184096138Y-93353125D01*
X184136138Y-91273125D02*
X184136138Y-90930125D01*
X184136138Y-93696125D02*
X184136138Y-93353125D01*
X184176138Y-91273125D02*
X184176138Y-90870125D01*
X184176138Y-93756125D02*
X184176138Y-93353125D01*
X184216138Y-91273125D02*
X184216138Y-90813125D01*
X184216138Y-93813125D02*
X184216138Y-93353125D01*
X184256138Y-91273125D02*
X184256138Y-90759125D01*
X184256138Y-93867125D02*
X184256138Y-93353125D01*
X184296138Y-91273125D02*
X184296138Y-90708125D01*
X184296138Y-93918125D02*
X184296138Y-93353125D01*
X184336138Y-91273125D02*
X184336138Y-90660125D01*
X184336138Y-93966125D02*
X184336138Y-93353125D01*
X184376138Y-91273125D02*
X184376138Y-90614125D01*
X184376138Y-94012125D02*
X184376138Y-93353125D01*
X184416138Y-91273125D02*
X184416138Y-90570125D01*
X184416138Y-94056125D02*
X184416138Y-93353125D01*
X184456138Y-91273125D02*
X184456138Y-90528125D01*
X184456138Y-94098125D02*
X184456138Y-93353125D01*
X184496138Y-91273125D02*
X184496138Y-90487125D01*
X184496138Y-94139125D02*
X184496138Y-93353125D01*
X184536138Y-91273125D02*
X184536138Y-90449125D01*
X184536138Y-94177125D02*
X184536138Y-93353125D01*
X184576138Y-91273125D02*
X184576138Y-90412125D01*
X184576138Y-94214125D02*
X184576138Y-93353125D01*
X184616138Y-91273125D02*
X184616138Y-90376125D01*
X184616138Y-94250125D02*
X184616138Y-93353125D01*
X184656138Y-91273125D02*
X184656138Y-90342125D01*
X184656138Y-94284125D02*
X184656138Y-93353125D01*
X184696138Y-91273125D02*
X184696138Y-90309125D01*
X184696138Y-94317125D02*
X184696138Y-93353125D01*
X184736138Y-91273125D02*
X184736138Y-90278125D01*
X184736138Y-94348125D02*
X184736138Y-93353125D01*
X184776138Y-91273125D02*
X184776138Y-90248125D01*
X184776138Y-94378125D02*
X184776138Y-93353125D01*
X184816138Y-91273125D02*
X184816138Y-90218125D01*
X184816138Y-94408125D02*
X184816138Y-93353125D01*
X184856138Y-91273125D02*
X184856138Y-90191125D01*
X184856138Y-94435125D02*
X184856138Y-93353125D01*
X184896138Y-91273125D02*
X184896138Y-90164125D01*
X184896138Y-94462125D02*
X184896138Y-93353125D01*
X184936138Y-91273125D02*
X184936138Y-90138125D01*
X184936138Y-94488125D02*
X184936138Y-93353125D01*
X184976138Y-91273125D02*
X184976138Y-90113125D01*
X184976138Y-94513125D02*
X184976138Y-93353125D01*
X185016138Y-91273125D02*
X185016138Y-90089125D01*
X185016138Y-94537125D02*
X185016138Y-93353125D01*
X185056138Y-91273125D02*
X185056138Y-90066125D01*
X185056138Y-94560125D02*
X185056138Y-93353125D01*
X185096138Y-91273125D02*
X185096138Y-90045125D01*
X185096138Y-94581125D02*
X185096138Y-93353125D01*
X185136138Y-91273125D02*
X185136138Y-90023125D01*
X185136138Y-94603125D02*
X185136138Y-93353125D01*
X185176138Y-91273125D02*
X185176138Y-90003125D01*
X185176138Y-94623125D02*
X185176138Y-93353125D01*
X185216138Y-91273125D02*
X185216138Y-89984125D01*
X185216138Y-94642125D02*
X185216138Y-93353125D01*
X185256138Y-91273125D02*
X185256138Y-89965125D01*
X185256138Y-94661125D02*
X185256138Y-93353125D01*
X185296138Y-91273125D02*
X185296138Y-89948125D01*
X185296138Y-94678125D02*
X185296138Y-93353125D01*
X185336138Y-91273125D02*
X185336138Y-89931125D01*
X185336138Y-94695125D02*
X185336138Y-93353125D01*
X185376138Y-91273125D02*
X185376138Y-89915125D01*
X185376138Y-94711125D02*
X185376138Y-93353125D01*
X185416138Y-91273125D02*
X185416138Y-89899125D01*
X185416138Y-94727125D02*
X185416138Y-93353125D01*
X185456138Y-91273125D02*
X185456138Y-89885125D01*
X185456138Y-94741125D02*
X185456138Y-93353125D01*
X185496138Y-91273125D02*
X185496138Y-89871125D01*
X185496138Y-94755125D02*
X185496138Y-93353125D01*
X185536138Y-91273125D02*
X185536138Y-89858125D01*
X185536138Y-94768125D02*
X185536138Y-93353125D01*
X185576138Y-91273125D02*
X185576138Y-89845125D01*
X185576138Y-94781125D02*
X185576138Y-93353125D01*
X185616138Y-91273125D02*
X185616138Y-89833125D01*
X185616138Y-94793125D02*
X185616138Y-93353125D01*
X185657138Y-91273125D02*
X185657138Y-89822125D01*
X185657138Y-94804125D02*
X185657138Y-93353125D01*
X185697138Y-91273125D02*
X185697138Y-89812125D01*
X185697138Y-94814125D02*
X185697138Y-93353125D01*
X185737138Y-91273125D02*
X185737138Y-89802125D01*
X185737138Y-94824125D02*
X185737138Y-93353125D01*
X185777138Y-91273125D02*
X185777138Y-89793125D01*
X185777138Y-94833125D02*
X185777138Y-93353125D01*
X185817138Y-91273125D02*
X185817138Y-89785125D01*
X185817138Y-94841125D02*
X185817138Y-93353125D01*
X185857138Y-91273125D02*
X185857138Y-89777125D01*
X185857138Y-94849125D02*
X185857138Y-93353125D01*
X185897138Y-91273125D02*
X185897138Y-89770125D01*
X185897138Y-94856125D02*
X185897138Y-93353125D01*
X185937138Y-91273125D02*
X185937138Y-89763125D01*
X185937138Y-94863125D02*
X185937138Y-93353125D01*
X185977138Y-91273125D02*
X185977138Y-89757125D01*
X185977138Y-94869125D02*
X185977138Y-93353125D01*
X186017138Y-91273125D02*
X186017138Y-89752125D01*
X186017138Y-94874125D02*
X186017138Y-93353125D01*
X186057138Y-91273125D02*
X186057138Y-89748125D01*
X186057138Y-94878125D02*
X186057138Y-93353125D01*
X186097138Y-91273125D02*
X186097138Y-89744125D01*
X186097138Y-94882125D02*
X186097138Y-93353125D01*
X186137138Y-94886125D02*
X186137138Y-89740125D01*
X186177138Y-94889125D02*
X186177138Y-89737125D01*
X186217138Y-94891125D02*
X186217138Y-89735125D01*
X186257138Y-94892125D02*
X186257138Y-89734125D01*
X186297138Y-94893125D02*
X186297138Y-89733125D01*
X186337138Y-94893125D02*
X186337138Y-89733125D01*
X188891913Y-94038125D02*
X188891913Y-93538125D01*
X189141913Y-93788125D02*
X188641913Y-93788125D01*
X188957138Y-92313125D02*
G75*
G02*
X183717138Y-92313125I-2620000J0D01*
G01*
X183717138Y-92313125D02*
G75*
G02*
X188957138Y-92313125I2620000J0D01*
G01*
%TO.C,JK1*%
X145618200Y-55721250D02*
X146888200Y-55721250D01*
X145618200Y-56991250D02*
X145618200Y-55721250D01*
X147998200Y-56611250D02*
X148385271Y-56611250D01*
X147998200Y-57371250D02*
X148385271Y-57371250D01*
X150471129Y-56611250D02*
X150868200Y-56611250D01*
X150471129Y-57371250D02*
X150868200Y-57371250D01*
X150868200Y-55661250D02*
X150868200Y-58321250D01*
X150868200Y-58321250D02*
X153528200Y-58321250D01*
X153528200Y-55661250D02*
X150868200Y-55661250D01*
X153528200Y-56611250D02*
X159528200Y-56611250D01*
X153528200Y-56671250D02*
X159528200Y-56671250D01*
X153528200Y-56791250D02*
X159528200Y-56791250D01*
X153528200Y-56911250D02*
X159528200Y-56911250D01*
X153528200Y-57031250D02*
X159528200Y-57031250D01*
X153528200Y-57151250D02*
X159528200Y-57151250D01*
X153528200Y-57271250D02*
X159528200Y-57271250D01*
X153528200Y-58321250D02*
X153528200Y-55661250D01*
X159528200Y-56611250D02*
X159528200Y-57371250D01*
X159528200Y-57371250D02*
X153528200Y-57371250D01*
%TO.C,S0*%
X103168775Y-86305700D02*
X103168775Y-84975700D01*
X104498775Y-86305700D02*
X103168775Y-86305700D01*
X105768775Y-83645700D02*
X108368775Y-83645700D01*
X105768775Y-86305700D02*
X105768775Y-83645700D01*
X105768775Y-86305700D02*
X108368775Y-86305700D01*
X108368775Y-86305700D02*
X108368775Y-83645700D01*
%TO.C,JA1*%
X103170000Y-78410000D02*
X103170000Y-77080000D01*
X104500000Y-78410000D02*
X103170000Y-78410000D01*
X105770000Y-75750000D02*
X108370000Y-75750000D01*
X105770000Y-78410000D02*
X105770000Y-75750000D01*
X105770000Y-78410000D02*
X108370000Y-78410000D01*
X108370000Y-78410000D02*
X108370000Y-75750000D01*
D10*
%TO.C,S4*%
X198485625Y-64783600D02*
X198485625Y-64783600D01*
X198485625Y-64783600D02*
X198485625Y-70983600D01*
X198485625Y-70983600D02*
X198485625Y-64783600D01*
X198485625Y-70983600D02*
X198485625Y-70983600D01*
D13*
X202285625Y-72233600D02*
X202285625Y-72233600D01*
X202385625Y-72233600D02*
X202385625Y-72233600D01*
X202385625Y-72233600D02*
X202385625Y-72233600D01*
D10*
X203785625Y-70983600D02*
X203785625Y-70983600D01*
X203785625Y-70983600D02*
X205035625Y-70983600D01*
X204035625Y-64783600D02*
X204035625Y-64783600D01*
X204035625Y-64783600D02*
X205035625Y-64783600D01*
X205035625Y-64783600D02*
X204035625Y-64783600D01*
X205035625Y-64783600D02*
X205035625Y-64783600D01*
X205035625Y-64783600D02*
X205035625Y-64783600D01*
X205035625Y-64783600D02*
X205035625Y-70983600D01*
X205035625Y-66383600D02*
X210835625Y-66383600D01*
X205035625Y-69383600D02*
X205035625Y-66383600D01*
X205035625Y-70983600D02*
X203785625Y-70983600D01*
X205035625Y-70983600D02*
X205035625Y-64783600D01*
X205035625Y-70983600D02*
X205035625Y-70983600D01*
X205035625Y-70983600D02*
X205035625Y-70983600D01*
X210835625Y-66383600D02*
X210835625Y-69383600D01*
X210835625Y-69383600D02*
X205035625Y-69383600D01*
D13*
X202285625Y-72233600D02*
G75*
G02*
X202385625Y-72233600I50000J0D01*
G01*
X202285625Y-72233600D02*
G75*
G02*
X202385625Y-72233600I50000J0D01*
G01*
X202385625Y-72233600D02*
G75*
G02*
X202285625Y-72233600I-50000J0D01*
G01*
%TO.C,Q5*%
X131680025Y-97216300D02*
X132880025Y-97216300D01*
X131680025Y-100116300D02*
X131680025Y-97216300D01*
X132880025Y-97216300D02*
X132880025Y-100116300D01*
X132880025Y-100116300D02*
X131680025Y-100116300D01*
X134130025Y-100166300D02*
X133230025Y-100166300D01*
D12*
%TO.C,RN4*%
X137272936Y-103436750D02*
X137727064Y-103436750D01*
X137272936Y-104906750D02*
X137727064Y-104906750D01*
D13*
%TO.C,Q6*%
X131702250Y-93285650D02*
X132902250Y-93285650D01*
X131702250Y-96185650D02*
X131702250Y-93285650D01*
X132902250Y-93285650D02*
X132902250Y-96185650D01*
X132902250Y-96185650D02*
X131702250Y-96185650D01*
X134152250Y-96235650D02*
X133252250Y-96235650D01*
D12*
%TO.C,L5*%
X195073175Y-69909750D02*
X195392175Y-69909750D01*
X197552175Y-69909750D02*
X197871175Y-69909750D01*
X195073426Y-69909750D02*
G75*
G02*
X195391451Y-65606508I1398749J2060000D01*
G01*
X195392175Y-69533080D02*
G75*
G02*
X195391214Y-66167037I1080000J1683330D01*
G01*
X197552899Y-65606508D02*
G75*
G02*
X197870924Y-69909750I-1080724J-2243242D01*
G01*
X197553136Y-66167037D02*
G75*
G02*
X197552175Y-69533080I-1080961J-1682713D01*
G01*
%TO.C,C20*%
X141654898Y-78147875D02*
X142177402Y-78147875D01*
X141654898Y-79617875D02*
X142177402Y-79617875D01*
%TO.C,MOR1*%
X103170000Y-91436500D02*
X103170000Y-90106500D01*
X104500000Y-91436500D02*
X103170000Y-91436500D01*
X105770000Y-88776500D02*
X108370000Y-88776500D01*
X105770000Y-91436500D02*
X105770000Y-88776500D01*
X105770000Y-91436500D02*
X108370000Y-91436500D01*
X108370000Y-91436500D02*
X108370000Y-88776500D01*
%TO.C,C17*%
X135012075Y-68146450D02*
X135012075Y-67578450D01*
X135052075Y-68380450D02*
X135052075Y-67344450D01*
X135092075Y-68539450D02*
X135092075Y-67185450D01*
X135132075Y-68667450D02*
X135132075Y-67057450D01*
X135172075Y-68777450D02*
X135172075Y-66947450D01*
X135212075Y-68873450D02*
X135212075Y-66851450D01*
X135252075Y-68960450D02*
X135252075Y-66764450D01*
X135292075Y-69040450D02*
X135292075Y-66684450D01*
X135332075Y-66822450D02*
X135332075Y-66611450D01*
X135332075Y-69113450D02*
X135332075Y-68902450D01*
X135372075Y-66822450D02*
X135372075Y-66543450D01*
X135372075Y-69181450D02*
X135372075Y-68902450D01*
X135412075Y-66822450D02*
X135412075Y-66479450D01*
X135412075Y-69245450D02*
X135412075Y-68902450D01*
X135452075Y-66822450D02*
X135452075Y-66419450D01*
X135452075Y-69305450D02*
X135452075Y-68902450D01*
X135492075Y-66822450D02*
X135492075Y-66362450D01*
X135492075Y-69362450D02*
X135492075Y-68902450D01*
X135532075Y-66822450D02*
X135532075Y-66308450D01*
X135532075Y-69416450D02*
X135532075Y-68902450D01*
X135572075Y-66822450D02*
X135572075Y-66257450D01*
X135572075Y-69467450D02*
X135572075Y-68902450D01*
X135612075Y-66822450D02*
X135612075Y-66209450D01*
X135612075Y-69515450D02*
X135612075Y-68902450D01*
X135652075Y-66822450D02*
X135652075Y-66163450D01*
X135652075Y-69561450D02*
X135652075Y-68902450D01*
X135692075Y-66822450D02*
X135692075Y-66119450D01*
X135692075Y-69605450D02*
X135692075Y-68902450D01*
X135732075Y-66822450D02*
X135732075Y-66077450D01*
X135732075Y-69647450D02*
X135732075Y-68902450D01*
X135772075Y-66822450D02*
X135772075Y-66036450D01*
X135772075Y-69688450D02*
X135772075Y-68902450D01*
X135812075Y-66822450D02*
X135812075Y-65998450D01*
X135812075Y-69726450D02*
X135812075Y-68902450D01*
X135852075Y-66822450D02*
X135852075Y-65961450D01*
X135852075Y-69763450D02*
X135852075Y-68902450D01*
X135892075Y-66822450D02*
X135892075Y-65925450D01*
X135892075Y-69799450D02*
X135892075Y-68902450D01*
X135932075Y-66822450D02*
X135932075Y-65891450D01*
X135932075Y-69833450D02*
X135932075Y-68902450D01*
X135972075Y-66822450D02*
X135972075Y-65858450D01*
X135972075Y-69866450D02*
X135972075Y-68902450D01*
X136012075Y-66822450D02*
X136012075Y-65827450D01*
X136012075Y-69897450D02*
X136012075Y-68902450D01*
X136052075Y-66822450D02*
X136052075Y-65797450D01*
X136052075Y-69927450D02*
X136052075Y-68902450D01*
X136092075Y-66822450D02*
X136092075Y-65767450D01*
X136092075Y-69957450D02*
X136092075Y-68902450D01*
X136132075Y-66822450D02*
X136132075Y-65740450D01*
X136132075Y-69984450D02*
X136132075Y-68902450D01*
X136172075Y-66822450D02*
X136172075Y-65713450D01*
X136172075Y-70011450D02*
X136172075Y-68902450D01*
X136212075Y-66822450D02*
X136212075Y-65687450D01*
X136212075Y-70037450D02*
X136212075Y-68902450D01*
X136252075Y-66822450D02*
X136252075Y-65662450D01*
X136252075Y-70062450D02*
X136252075Y-68902450D01*
X136292075Y-66822450D02*
X136292075Y-65638450D01*
X136292075Y-70086450D02*
X136292075Y-68902450D01*
X136332075Y-66822450D02*
X136332075Y-65615450D01*
X136332075Y-70109450D02*
X136332075Y-68902450D01*
X136372075Y-66822450D02*
X136372075Y-65594450D01*
X136372075Y-70130450D02*
X136372075Y-68902450D01*
X136412075Y-66822450D02*
X136412075Y-65572450D01*
X136412075Y-70152450D02*
X136412075Y-68902450D01*
X136452075Y-66822450D02*
X136452075Y-65552450D01*
X136452075Y-70172450D02*
X136452075Y-68902450D01*
X136492075Y-66822450D02*
X136492075Y-65533450D01*
X136492075Y-70191450D02*
X136492075Y-68902450D01*
X136532075Y-66822450D02*
X136532075Y-65514450D01*
X136532075Y-70210450D02*
X136532075Y-68902450D01*
X136572075Y-66822450D02*
X136572075Y-65497450D01*
X136572075Y-70227450D02*
X136572075Y-68902450D01*
X136612075Y-66822450D02*
X136612075Y-65480450D01*
X136612075Y-70244450D02*
X136612075Y-68902450D01*
X136652075Y-66822450D02*
X136652075Y-65464450D01*
X136652075Y-70260450D02*
X136652075Y-68902450D01*
X136692075Y-66822450D02*
X136692075Y-65448450D01*
X136692075Y-70276450D02*
X136692075Y-68902450D01*
X136732075Y-66822450D02*
X136732075Y-65434450D01*
X136732075Y-70290450D02*
X136732075Y-68902450D01*
X136772075Y-66822450D02*
X136772075Y-65420450D01*
X136772075Y-70304450D02*
X136772075Y-68902450D01*
X136812075Y-66822450D02*
X136812075Y-65407450D01*
X136812075Y-70317450D02*
X136812075Y-68902450D01*
X136852075Y-66822450D02*
X136852075Y-65394450D01*
X136852075Y-70330450D02*
X136852075Y-68902450D01*
X136892075Y-66822450D02*
X136892075Y-65382450D01*
X136892075Y-70342450D02*
X136892075Y-68902450D01*
X136933075Y-66822450D02*
X136933075Y-65371450D01*
X136933075Y-70353450D02*
X136933075Y-68902450D01*
X136973075Y-66822450D02*
X136973075Y-65361450D01*
X136973075Y-70363450D02*
X136973075Y-68902450D01*
X137013075Y-66822450D02*
X137013075Y-65351450D01*
X137013075Y-70373450D02*
X137013075Y-68902450D01*
X137053075Y-66822450D02*
X137053075Y-65342450D01*
X137053075Y-70382450D02*
X137053075Y-68902450D01*
X137093075Y-66822450D02*
X137093075Y-65334450D01*
X137093075Y-70390450D02*
X137093075Y-68902450D01*
X137133075Y-66822450D02*
X137133075Y-65326450D01*
X137133075Y-70398450D02*
X137133075Y-68902450D01*
X137173075Y-66822450D02*
X137173075Y-65319450D01*
X137173075Y-70405450D02*
X137173075Y-68902450D01*
X137213075Y-66822450D02*
X137213075Y-65312450D01*
X137213075Y-70412450D02*
X137213075Y-68902450D01*
X137253075Y-66822450D02*
X137253075Y-65306450D01*
X137253075Y-70418450D02*
X137253075Y-68902450D01*
X137293075Y-66822450D02*
X137293075Y-65301450D01*
X137293075Y-70423450D02*
X137293075Y-68902450D01*
X137333075Y-66822450D02*
X137333075Y-65297450D01*
X137333075Y-70427450D02*
X137333075Y-68902450D01*
X137373075Y-66822450D02*
X137373075Y-65293450D01*
X137373075Y-70431450D02*
X137373075Y-68902450D01*
X137413075Y-70435450D02*
X137413075Y-65289450D01*
X137453075Y-70438450D02*
X137453075Y-65286450D01*
X137493075Y-70440450D02*
X137493075Y-65284450D01*
X137533075Y-70441450D02*
X137533075Y-65283450D01*
X137573075Y-70442450D02*
X137573075Y-65282450D01*
X137613075Y-70442450D02*
X137613075Y-65282450D01*
X140167850Y-69587450D02*
X140167850Y-69087450D01*
X140417850Y-69337450D02*
X139917850Y-69337450D01*
X140233075Y-67862450D02*
G75*
G02*
X134993075Y-67862450I-2620000J0D01*
G01*
X134993075Y-67862450D02*
G75*
G02*
X140233075Y-67862450I2620000J0D01*
G01*
%TO.C,PU12*%
X118772936Y-102662050D02*
X119227064Y-102662050D01*
X118772936Y-104132050D02*
X119227064Y-104132050D01*
%TO.C,C6*%
X159942173Y-63838150D02*
X160464677Y-63838150D01*
X159942173Y-65308150D02*
X160464677Y-65308150D01*
D10*
%TO.C,S3*%
X198345925Y-57565800D02*
X198345925Y-57565800D01*
X198345925Y-57565800D02*
X198345925Y-63765800D01*
X198345925Y-63765800D02*
X198345925Y-57565800D01*
X198345925Y-63765800D02*
X198345925Y-63765800D01*
D13*
X202145925Y-65015800D02*
X202145925Y-65015800D01*
X202245925Y-65015800D02*
X202245925Y-65015800D01*
X202245925Y-65015800D02*
X202245925Y-65015800D01*
D10*
X203645925Y-63765800D02*
X203645925Y-63765800D01*
X203645925Y-63765800D02*
X204895925Y-63765800D01*
X203895925Y-57565800D02*
X203895925Y-57565800D01*
X203895925Y-57565800D02*
X204895925Y-57565800D01*
X204895925Y-57565800D02*
X203895925Y-57565800D01*
X204895925Y-57565800D02*
X204895925Y-57565800D01*
X204895925Y-57565800D02*
X204895925Y-57565800D01*
X204895925Y-57565800D02*
X204895925Y-63765800D01*
X204895925Y-59165800D02*
X210695925Y-59165800D01*
X204895925Y-62165800D02*
X204895925Y-59165800D01*
X204895925Y-63765800D02*
X203645925Y-63765800D01*
X204895925Y-63765800D02*
X204895925Y-57565800D01*
X204895925Y-63765800D02*
X204895925Y-63765800D01*
X204895925Y-63765800D02*
X204895925Y-63765800D01*
X210695925Y-59165800D02*
X210695925Y-62165800D01*
X210695925Y-62165800D02*
X204895925Y-62165800D01*
D13*
X202145925Y-65015800D02*
G75*
G02*
X202245925Y-65015800I50000J0D01*
G01*
X202145925Y-65015800D02*
G75*
G02*
X202245925Y-65015800I50000J0D01*
G01*
X202245925Y-65015800D02*
G75*
G02*
X202145925Y-65015800I-50000J0D01*
G01*
D12*
%TO.C,PU13*%
X124772936Y-102696975D02*
X125227064Y-102696975D01*
X124772936Y-104166975D02*
X125227064Y-104166975D01*
%TO.C,PU2*%
X119272936Y-77697025D02*
X119727064Y-77697025D01*
X119272936Y-79167025D02*
X119727064Y-79167025D01*
%TO.C,PU11*%
X118772936Y-99731525D02*
X119227064Y-99731525D01*
X118772936Y-101201525D02*
X119227064Y-101201525D01*
D13*
%TO.C,Q3*%
X126901650Y-84100375D02*
X128101650Y-84100375D01*
X126901650Y-87000375D02*
X126901650Y-84100375D01*
X128101650Y-84100375D02*
X128101650Y-87000375D01*
X128101650Y-87000375D02*
X126901650Y-87000375D01*
X129351650Y-87050375D02*
X128451650Y-87050375D01*
D12*
%TO.C,P1*%
X88026550Y-72314800D02*
X94026550Y-72314800D01*
X88026550Y-73074800D02*
X88026550Y-72314800D01*
X88026550Y-74854800D02*
X94026550Y-74854800D01*
X88026550Y-75614800D02*
X88026550Y-74854800D01*
X88026550Y-77394800D02*
X94026550Y-77394800D01*
X88026550Y-78154800D02*
X88026550Y-77394800D01*
X88026550Y-79934800D02*
X94026550Y-79934800D01*
X88026550Y-80694800D02*
X88026550Y-79934800D01*
X88026550Y-82474800D02*
X94026550Y-82474800D01*
X88026550Y-83234800D02*
X88026550Y-82474800D01*
X88026550Y-85014800D02*
X94026550Y-85014800D01*
X88026550Y-85774800D02*
X88026550Y-85014800D01*
X88026550Y-87554800D02*
X94026550Y-87554800D01*
X88026550Y-88314800D02*
X88026550Y-87554800D01*
X88026550Y-90094800D02*
X94026550Y-90094800D01*
X88026550Y-90854800D02*
X88026550Y-90094800D01*
X88026550Y-92634800D02*
X94026550Y-92634800D01*
X88026550Y-93394800D02*
X88026550Y-92634800D01*
X88026550Y-95174800D02*
X94026550Y-95174800D01*
X88026550Y-95934800D02*
X88026550Y-95174800D01*
X88026550Y-97714800D02*
X94026550Y-97714800D01*
X88026550Y-98474800D02*
X88026550Y-97714800D01*
X88026550Y-100254800D02*
X94026550Y-100254800D01*
X88026550Y-101014800D02*
X88026550Y-100254800D01*
X88026550Y-102794800D02*
X94026550Y-102794800D01*
X88026550Y-103554800D02*
X88026550Y-102794800D01*
X88026550Y-105334800D02*
X94026550Y-105334800D01*
X88026550Y-106094800D02*
X88026550Y-105334800D01*
X88026550Y-107874800D02*
X94026550Y-107874800D01*
X88026550Y-108634800D02*
X88026550Y-107874800D01*
X88026550Y-110414800D02*
X94026550Y-110414800D01*
X88026550Y-111174800D02*
X88026550Y-110414800D01*
X88026550Y-112954800D02*
X94026550Y-112954800D01*
X88026550Y-113714800D02*
X88026550Y-112954800D01*
X94026550Y-71364800D02*
X94026550Y-114664800D01*
X94026550Y-73074800D02*
X88026550Y-73074800D01*
X94026550Y-75614800D02*
X88026550Y-75614800D01*
X94026550Y-78154800D02*
X88026550Y-78154800D01*
X94026550Y-80694800D02*
X88026550Y-80694800D01*
X94026550Y-83234800D02*
X88026550Y-83234800D01*
X94026550Y-85774800D02*
X88026550Y-85774800D01*
X94026550Y-88314800D02*
X88026550Y-88314800D01*
X94026550Y-90854800D02*
X88026550Y-90854800D01*
X94026550Y-93394800D02*
X88026550Y-93394800D01*
X94026550Y-95934800D02*
X88026550Y-95934800D01*
X94026550Y-98474800D02*
X88026550Y-98474800D01*
X94026550Y-101014800D02*
X88026550Y-101014800D01*
X94026550Y-103554800D02*
X88026550Y-103554800D01*
X94026550Y-106094800D02*
X88026550Y-106094800D01*
X94026550Y-108634800D02*
X88026550Y-108634800D01*
X94026550Y-111174800D02*
X88026550Y-111174800D01*
X94026550Y-113054800D02*
X88026550Y-113054800D01*
X94026550Y-113174800D02*
X88026550Y-113174800D01*
X94026550Y-113294800D02*
X88026550Y-113294800D01*
X94026550Y-113414800D02*
X88026550Y-113414800D01*
X94026550Y-113534800D02*
X88026550Y-113534800D01*
X94026550Y-113654800D02*
X88026550Y-113654800D01*
X94026550Y-113714800D02*
X88026550Y-113714800D01*
X94026550Y-114664800D02*
X96686550Y-114664800D01*
X96686550Y-71364800D02*
X94026550Y-71364800D01*
X96686550Y-73964800D02*
X94026550Y-73964800D01*
X96686550Y-76504800D02*
X94026550Y-76504800D01*
X96686550Y-79044800D02*
X94026550Y-79044800D01*
X96686550Y-81584800D02*
X94026550Y-81584800D01*
X96686550Y-84124800D02*
X94026550Y-84124800D01*
X96686550Y-86664800D02*
X94026550Y-86664800D01*
X96686550Y-89204800D02*
X94026550Y-89204800D01*
X96686550Y-91744800D02*
X94026550Y-91744800D01*
X96686550Y-94284800D02*
X94026550Y-94284800D01*
X96686550Y-96824800D02*
X94026550Y-96824800D01*
X96686550Y-99364800D02*
X94026550Y-99364800D01*
X96686550Y-101904800D02*
X94026550Y-101904800D01*
X96686550Y-104444800D02*
X94026550Y-104444800D01*
X96686550Y-106984800D02*
X94026550Y-106984800D01*
X96686550Y-109524800D02*
X94026550Y-109524800D01*
X96686550Y-112064800D02*
X94026550Y-112064800D01*
X96686550Y-114664800D02*
X96686550Y-71364800D01*
X97083621Y-72314800D02*
X96686550Y-72314800D01*
X97083621Y-73074800D02*
X96686550Y-73074800D01*
X97083621Y-74854800D02*
X96686550Y-74854800D01*
X97083621Y-75614800D02*
X96686550Y-75614800D01*
X97083621Y-77394800D02*
X96686550Y-77394800D01*
X97083621Y-78154800D02*
X96686550Y-78154800D01*
X97083621Y-79934800D02*
X96686550Y-79934800D01*
X97083621Y-80694800D02*
X96686550Y-80694800D01*
X97083621Y-82474800D02*
X96686550Y-82474800D01*
X97083621Y-83234800D02*
X96686550Y-83234800D01*
X97083621Y-85014800D02*
X96686550Y-85014800D01*
X97083621Y-85774800D02*
X96686550Y-85774800D01*
X97083621Y-87554800D02*
X96686550Y-87554800D01*
X97083621Y-88314800D02*
X96686550Y-88314800D01*
X97083621Y-90094800D02*
X96686550Y-90094800D01*
X97083621Y-90854800D02*
X96686550Y-90854800D01*
X97083621Y-92634800D02*
X96686550Y-92634800D01*
X97083621Y-93394800D02*
X96686550Y-93394800D01*
X97083621Y-95174800D02*
X96686550Y-95174800D01*
X97083621Y-95934800D02*
X96686550Y-95934800D01*
X97083621Y-97714800D02*
X96686550Y-97714800D01*
X97083621Y-98474800D02*
X96686550Y-98474800D01*
X97083621Y-100254800D02*
X96686550Y-100254800D01*
X97083621Y-101014800D02*
X96686550Y-101014800D01*
X97083621Y-102794800D02*
X96686550Y-102794800D01*
X97083621Y-103554800D02*
X96686550Y-103554800D01*
X97083621Y-105334800D02*
X96686550Y-105334800D01*
X97083621Y-106094800D02*
X96686550Y-106094800D01*
X97083621Y-107874800D02*
X96686550Y-107874800D01*
X97083621Y-108634800D02*
X96686550Y-108634800D01*
X97083621Y-110414800D02*
X96686550Y-110414800D01*
X97083621Y-111174800D02*
X96686550Y-111174800D01*
X97083621Y-112954800D02*
X96686550Y-112954800D01*
X97083621Y-113714800D02*
X96686550Y-113714800D01*
X99556550Y-112954800D02*
X99169479Y-112954800D01*
X99556550Y-113714800D02*
X99169479Y-113714800D01*
X99623621Y-72314800D02*
X99169479Y-72314800D01*
X99623621Y-73074800D02*
X99169479Y-73074800D01*
X99623621Y-74854800D02*
X99169479Y-74854800D01*
X99623621Y-75614800D02*
X99169479Y-75614800D01*
X99623621Y-77394800D02*
X99169479Y-77394800D01*
X99623621Y-78154800D02*
X99169479Y-78154800D01*
X99623621Y-79934800D02*
X99169479Y-79934800D01*
X99623621Y-80694800D02*
X99169479Y-80694800D01*
X99623621Y-82474800D02*
X99169479Y-82474800D01*
X99623621Y-83234800D02*
X99169479Y-83234800D01*
X99623621Y-85014800D02*
X99169479Y-85014800D01*
X99623621Y-85774800D02*
X99169479Y-85774800D01*
X99623621Y-87554800D02*
X99169479Y-87554800D01*
X99623621Y-88314800D02*
X99169479Y-88314800D01*
X99623621Y-90094800D02*
X99169479Y-90094800D01*
X99623621Y-90854800D02*
X99169479Y-90854800D01*
X99623621Y-92634800D02*
X99169479Y-92634800D01*
X99623621Y-93394800D02*
X99169479Y-93394800D01*
X99623621Y-95174800D02*
X99169479Y-95174800D01*
X99623621Y-95934800D02*
X99169479Y-95934800D01*
X99623621Y-97714800D02*
X99169479Y-97714800D01*
X99623621Y-98474800D02*
X99169479Y-98474800D01*
X99623621Y-100254800D02*
X99169479Y-100254800D01*
X99623621Y-101014800D02*
X99169479Y-101014800D01*
X99623621Y-102794800D02*
X99169479Y-102794800D01*
X99623621Y-103554800D02*
X99169479Y-103554800D01*
X99623621Y-105334800D02*
X99169479Y-105334800D01*
X99623621Y-106094800D02*
X99169479Y-106094800D01*
X99623621Y-107874800D02*
X99169479Y-107874800D01*
X99623621Y-108634800D02*
X99169479Y-108634800D01*
X99623621Y-110414800D02*
X99169479Y-110414800D01*
X99623621Y-111174800D02*
X99169479Y-111174800D01*
X101936550Y-113334800D02*
X101936550Y-114604800D01*
X101936550Y-114604800D02*
X100666550Y-114604800D01*
%TO.C,J5*%
X103170000Y-75730000D02*
X103170000Y-74400000D01*
X104500000Y-75730000D02*
X103170000Y-75730000D01*
X105770000Y-73070000D02*
X108370000Y-73070000D01*
X105770000Y-75730000D02*
X105770000Y-73070000D01*
X105770000Y-75730000D02*
X108370000Y-75730000D01*
X108370000Y-75730000D02*
X108370000Y-73070000D01*
%TO.C,JKA1*%
X143190675Y-93081475D02*
X144460675Y-93081475D01*
X143190675Y-94351475D02*
X143190675Y-93081475D01*
X145570675Y-93971475D02*
X145957746Y-93971475D01*
X145570675Y-94731475D02*
X145957746Y-94731475D01*
X148043604Y-93971475D02*
X148440675Y-93971475D01*
X148043604Y-94731475D02*
X148440675Y-94731475D01*
X148440675Y-93021475D02*
X148440675Y-95681475D01*
X148440675Y-95681475D02*
X151100675Y-95681475D01*
X151100675Y-93021475D02*
X148440675Y-93021475D01*
X151100675Y-93971475D02*
X157100675Y-93971475D01*
X151100675Y-94031475D02*
X157100675Y-94031475D01*
X151100675Y-94151475D02*
X157100675Y-94151475D01*
X151100675Y-94271475D02*
X157100675Y-94271475D01*
X151100675Y-94391475D02*
X157100675Y-94391475D01*
X151100675Y-94511475D02*
X157100675Y-94511475D01*
X151100675Y-94631475D02*
X157100675Y-94631475D01*
X151100675Y-95681475D02*
X151100675Y-93021475D01*
X157100675Y-93971475D02*
X157100675Y-94731475D01*
X157100675Y-94731475D02*
X151100675Y-94731475D01*
%TO.C,PU9*%
X118772936Y-96591450D02*
X119227064Y-96591450D01*
X118772936Y-98061450D02*
X119227064Y-98061450D01*
D13*
%TO.C,Q4*%
X131616525Y-100886600D02*
X132816525Y-100886600D01*
X131616525Y-103786600D02*
X131616525Y-100886600D01*
X132816525Y-100886600D02*
X132816525Y-103786600D01*
X132816525Y-103786600D02*
X131616525Y-103786600D01*
X134066525Y-103836600D02*
X133166525Y-103836600D01*
D12*
%TO.C,RN2*%
X132772936Y-80865675D02*
X133227064Y-80865675D01*
X132772936Y-82335675D02*
X133227064Y-82335675D01*
%TO.C,PU8*%
X124772936Y-96486675D02*
X125227064Y-96486675D01*
X124772936Y-97956675D02*
X125227064Y-97956675D01*
%TO.C,C18*%
X137244823Y-73010725D02*
X137767327Y-73010725D01*
X137244823Y-74480725D02*
X137767327Y-74480725D01*
%TO.C,C5*%
X149417100Y-73798798D02*
X149417100Y-74321302D01*
X150887100Y-73798798D02*
X150887100Y-74321302D01*
D13*
%TO.C,U8*%
X171238225Y-88088875D02*
X172888225Y-88088875D01*
X173238225Y-88055875D02*
X178088225Y-88055875D01*
X173238225Y-93331875D02*
X173238225Y-88055875D01*
X178088225Y-88055875D02*
X178088225Y-93331875D01*
X178088225Y-93331875D02*
X173238225Y-93331875D01*
D12*
%TO.C,J3*%
X106032625Y-57064600D02*
X107362625Y-57064600D01*
X106032625Y-58394600D02*
X106032625Y-57064600D01*
X106032625Y-59664600D02*
X106032625Y-64804600D01*
X106032625Y-59664600D02*
X108692625Y-59664600D01*
X106032625Y-64804600D02*
X108692625Y-64804600D01*
X108692625Y-59664600D02*
X108692625Y-64804600D01*
%TO.C,J8*%
X145630000Y-58059400D02*
X146900000Y-58059400D01*
X145630000Y-59329400D02*
X145630000Y-58059400D01*
X147942929Y-61489400D02*
X148397071Y-61489400D01*
X147942929Y-62249400D02*
X148397071Y-62249400D01*
X148010000Y-58949400D02*
X148397071Y-58949400D01*
X148010000Y-59709400D02*
X148397071Y-59709400D01*
X150482929Y-58949400D02*
X150880000Y-58949400D01*
X150482929Y-59709400D02*
X150880000Y-59709400D01*
X150482929Y-61489400D02*
X150880000Y-61489400D01*
X150482929Y-62249400D02*
X150880000Y-62249400D01*
X150880000Y-57999400D02*
X150880000Y-63199400D01*
X150880000Y-60599400D02*
X153540000Y-60599400D01*
X150880000Y-63199400D02*
X153540000Y-63199400D01*
X153540000Y-57999400D02*
X150880000Y-57999400D01*
X153540000Y-58949400D02*
X159540000Y-58949400D01*
X153540000Y-59009400D02*
X159540000Y-59009400D01*
X153540000Y-59129400D02*
X159540000Y-59129400D01*
X153540000Y-59249400D02*
X159540000Y-59249400D01*
X153540000Y-59369400D02*
X159540000Y-59369400D01*
X153540000Y-59489400D02*
X159540000Y-59489400D01*
X153540000Y-59609400D02*
X159540000Y-59609400D01*
X153540000Y-61489400D02*
X159540000Y-61489400D01*
X153540000Y-63199400D02*
X153540000Y-57999400D01*
X159540000Y-58949400D02*
X159540000Y-59709400D01*
X159540000Y-59709400D02*
X153540000Y-59709400D01*
X159540000Y-61489400D02*
X159540000Y-62249400D01*
X159540000Y-62249400D02*
X153540000Y-62249400D01*
%TO.C,RN1*%
X132772936Y-77970075D02*
X133227064Y-77970075D01*
X132772936Y-79440075D02*
X133227064Y-79440075D01*
%TO.C,P3*%
X194106525Y-89356650D02*
X194106525Y-87556650D01*
X194326525Y-78296650D02*
X197656525Y-78296650D01*
X194326525Y-91616650D02*
X194326525Y-78296650D01*
X194326525Y-91616650D02*
X197656525Y-91616650D01*
X201176525Y-78296650D02*
X209286525Y-78296650D01*
X209286525Y-77646650D02*
X209286525Y-78296650D01*
X209286525Y-91616650D02*
X201176525Y-91616650D01*
X209286525Y-91616650D02*
X209286525Y-92266650D01*
X209286525Y-92266650D02*
X209806525Y-92266650D01*
X209806525Y-77646650D02*
X209286525Y-77646650D01*
X209806525Y-92266650D02*
X209806525Y-77646650D01*
D13*
%TO.C,Q2*%
X126901650Y-80538025D02*
X128101650Y-80538025D01*
X126901650Y-83438025D02*
X126901650Y-80538025D01*
X128101650Y-80538025D02*
X128101650Y-83438025D01*
X128101650Y-83438025D02*
X126901650Y-83438025D01*
X129351650Y-83488025D02*
X128451650Y-83488025D01*
%TO.C,DID1*%
X138350000Y-100308250D02*
X136650000Y-100308250D01*
X139060000Y-101558250D02*
X136650000Y-101558250D01*
D12*
%TO.C,RN3*%
X132772936Y-83726350D02*
X133227064Y-83726350D01*
X132772936Y-85196350D02*
X133227064Y-85196350D01*
%TO.C,RN5*%
X137272936Y-97407425D02*
X137727064Y-97407425D01*
X137272936Y-98877425D02*
X137727064Y-98877425D01*
%TO.C,L3*%
X195404875Y-63249750D02*
X195085875Y-63249750D01*
X197883875Y-63249750D02*
X197564875Y-63249750D01*
X195403914Y-66992463D02*
G75*
G02*
X195404875Y-63626420I1080961J1682713D01*
G01*
X195404151Y-67552992D02*
G75*
G02*
X195086126Y-63249750I1080724J2243242D01*
G01*
X197564875Y-63626420D02*
G75*
G02*
X197565836Y-66992463I-1080000J-1683330D01*
G01*
X197883624Y-63249750D02*
G75*
G02*
X197565599Y-67552992I-1398749J-2060000D01*
G01*
%TO.C,C3*%
X149305975Y-68271123D02*
X149305975Y-68793627D01*
X150775975Y-68271123D02*
X150775975Y-68793627D01*
D13*
%TO.C,U3*%
X161694600Y-73350225D02*
X170994600Y-73350225D01*
X161694600Y-82650225D02*
X161694600Y-73350225D01*
X170994600Y-73350225D02*
X170994600Y-82650225D01*
X170994600Y-82650225D02*
X161694600Y-82650225D01*
D14*
X160244600Y-73500225D02*
G75*
G02*
X159994600Y-73500225I-125000J0D01*
G01*
X159994600Y-73500225D02*
G75*
G02*
X160244600Y-73500225I125000J0D01*
G01*
D12*
%TO.C,S1*%
X103168775Y-88880625D02*
X103168775Y-87550625D01*
X104498775Y-88880625D02*
X103168775Y-88880625D01*
X105768775Y-86220625D02*
X108368775Y-86220625D01*
X105768775Y-88880625D02*
X105768775Y-86220625D01*
X105768775Y-88880625D02*
X108368775Y-88880625D01*
X108368775Y-88880625D02*
X108368775Y-86220625D01*
%TO.C,JC1*%
X103170000Y-80959000D02*
X103170000Y-79629000D01*
X104500000Y-80959000D02*
X103170000Y-80959000D01*
X105770000Y-78299000D02*
X108370000Y-78299000D01*
X105770000Y-80959000D02*
X105770000Y-78299000D01*
X105770000Y-80959000D02*
X108370000Y-80959000D01*
X108370000Y-80959000D02*
X108370000Y-78299000D01*
%TO.C,PU1*%
X119272936Y-74903025D02*
X119727064Y-74903025D01*
X119272936Y-76373025D02*
X119727064Y-76373025D01*
%TO.C,C23*%
X124674325Y-59638298D02*
X124674325Y-60160802D01*
X126144325Y-59638298D02*
X126144325Y-60160802D01*
%TO.C,PU6*%
X124772936Y-93587900D02*
X125227064Y-93587900D01*
X124772936Y-95057900D02*
X125227064Y-95057900D01*
%TO.C,RN6*%
X137272936Y-94559450D02*
X137727064Y-94559450D01*
X137272936Y-96029450D02*
X137727064Y-96029450D01*
%TO.C,JB1*%
X103166950Y-83727600D02*
X103166950Y-82397600D01*
X104496950Y-83727600D02*
X103166950Y-83727600D01*
X105766950Y-81067600D02*
X108366950Y-81067600D01*
X105766950Y-83727600D02*
X105766950Y-81067600D01*
X105766950Y-83727600D02*
X108366950Y-83727600D01*
X108366950Y-83727600D02*
X108366950Y-81067600D01*
%TO.C,R2*%
X188834661Y-85885350D02*
X189288789Y-85885350D01*
X188834661Y-87355350D02*
X189288789Y-87355350D01*
%TO.C,C8*%
X162021152Y-87841150D02*
X161498648Y-87841150D01*
X162021152Y-89311150D02*
X161498648Y-89311150D01*
%TO.C,R10*%
X146515150Y-68305311D02*
X146515150Y-68759439D01*
X147985150Y-68305311D02*
X147985150Y-68759439D01*
%TO.C,Y1*%
X151313275Y-74337075D02*
X151313275Y-68087075D01*
X156363275Y-74337075D02*
X156363275Y-68087075D01*
X151313275Y-68087075D02*
G75*
G02*
X156363275Y-68087075I2525000J0D01*
G01*
X156363275Y-74337075D02*
G75*
G02*
X151313275Y-74337075I-2525000J0D01*
G01*
%TO.C,J4*%
X106032625Y-64879625D02*
X107362625Y-64879625D01*
X106032625Y-66209625D02*
X106032625Y-64879625D01*
X106032625Y-67479625D02*
X106032625Y-70079625D01*
X106032625Y-67479625D02*
X108692625Y-67479625D01*
X106032625Y-70079625D02*
X108692625Y-70079625D01*
X108692625Y-67479625D02*
X108692625Y-70079625D01*
D13*
%TO.C,U4*%
X127977925Y-59515600D02*
X134481925Y-59515600D01*
X127977925Y-63019600D02*
X127977925Y-59515600D01*
X128114925Y-65267600D02*
X128114925Y-63967600D01*
X134481925Y-59515600D02*
X134481925Y-63019600D01*
X134481925Y-63019600D02*
X127977925Y-63019600D01*
D12*
%TO.C,PU10*%
X124772936Y-99661675D02*
X125227064Y-99661675D01*
X124772936Y-101131675D02*
X125227064Y-101131675D01*
%TO.C,R13*%
X119727064Y-72356675D02*
X119272936Y-72356675D01*
X119727064Y-73826675D02*
X119272936Y-73826675D01*
D13*
%TO.C,P2*%
X87572900Y-56040975D02*
X101072900Y-56040975D01*
X87572900Y-66240975D02*
X87572900Y-56040975D01*
X98872900Y-66240975D02*
X87572900Y-66240975D01*
%TO.C,Q1*%
X126920700Y-76737550D02*
X128120700Y-76737550D01*
X126920700Y-79637550D02*
X126920700Y-76737550D01*
X128120700Y-76737550D02*
X128120700Y-79637550D01*
X128120700Y-79637550D02*
X126920700Y-79637550D01*
X129370700Y-79687550D02*
X128470700Y-79687550D01*
D12*
%TO.C,L4*%
X195000150Y-62199500D02*
X195319150Y-62199500D01*
X197479150Y-62199500D02*
X197798150Y-62199500D01*
X195000401Y-62199500D02*
G75*
G02*
X195318426Y-57896258I1398749J2060000D01*
G01*
X195319150Y-61822830D02*
G75*
G02*
X195318189Y-58456787I1080000J1683330D01*
G01*
X197479874Y-57896258D02*
G75*
G02*
X197797899Y-62199500I-1080724J-2243242D01*
G01*
X197480111Y-58456787D02*
G75*
G02*
X197479150Y-61822830I-1080961J-1682713D01*
G01*
%TO.C,PU14*%
X119272936Y-82999275D02*
X119727064Y-82999275D01*
X119272936Y-84469275D02*
X119727064Y-84469275D01*
%TO.C,U1*%
X142459075Y-82502850D02*
X140509075Y-82502850D01*
X142459075Y-82502850D02*
X144409075Y-82502850D01*
X142459075Y-91372850D02*
X140509075Y-91372850D01*
X142459075Y-91372850D02*
X144409075Y-91372850D01*
X139759075Y-82567850D02*
X139519075Y-82237850D01*
X139999075Y-82237850D01*
X139759075Y-82567850D01*
G36*
X139759075Y-82567850D02*
G01*
X139519075Y-82237850D01*
X139999075Y-82237850D01*
X139759075Y-82567850D01*
G37*
%TO.C,R1*%
X188942486Y-83148500D02*
X189396614Y-83148500D01*
X188942486Y-84618500D02*
X189396614Y-84618500D01*
%TO.C,R21*%
X190250711Y-69022925D02*
X190704839Y-69022925D01*
X190250711Y-70492925D02*
X190704839Y-70492925D01*
%TO.C,C9*%
X154039900Y-80571073D02*
X154039900Y-81093577D01*
X155509900Y-80571073D02*
X155509900Y-81093577D01*
%TO.C,PU4*%
X124772936Y-90552600D02*
X125227064Y-90552600D01*
X124772936Y-92022600D02*
X125227064Y-92022600D01*
%TO.C,C19*%
X122020488Y-67971825D02*
X122020488Y-67403825D01*
X122060488Y-68205825D02*
X122060488Y-67169825D01*
X122100488Y-68364825D02*
X122100488Y-67010825D01*
X122140488Y-68492825D02*
X122140488Y-66882825D01*
X122180488Y-68602825D02*
X122180488Y-66772825D01*
X122220488Y-68698825D02*
X122220488Y-66676825D01*
X122260488Y-68785825D02*
X122260488Y-66589825D01*
X122300488Y-68865825D02*
X122300488Y-66509825D01*
X122340488Y-66647825D02*
X122340488Y-66436825D01*
X122340488Y-68938825D02*
X122340488Y-68727825D01*
X122380488Y-66647825D02*
X122380488Y-66368825D01*
X122380488Y-69006825D02*
X122380488Y-68727825D01*
X122420488Y-66647825D02*
X122420488Y-66304825D01*
X122420488Y-69070825D02*
X122420488Y-68727825D01*
X122460488Y-66647825D02*
X122460488Y-66244825D01*
X122460488Y-69130825D02*
X122460488Y-68727825D01*
X122500488Y-66647825D02*
X122500488Y-66187825D01*
X122500488Y-69187825D02*
X122500488Y-68727825D01*
X122540488Y-66647825D02*
X122540488Y-66133825D01*
X122540488Y-69241825D02*
X122540488Y-68727825D01*
X122580488Y-66647825D02*
X122580488Y-66082825D01*
X122580488Y-69292825D02*
X122580488Y-68727825D01*
X122620488Y-66647825D02*
X122620488Y-66034825D01*
X122620488Y-69340825D02*
X122620488Y-68727825D01*
X122660488Y-66647825D02*
X122660488Y-65988825D01*
X122660488Y-69386825D02*
X122660488Y-68727825D01*
X122700488Y-66647825D02*
X122700488Y-65944825D01*
X122700488Y-69430825D02*
X122700488Y-68727825D01*
X122740488Y-66647825D02*
X122740488Y-65902825D01*
X122740488Y-69472825D02*
X122740488Y-68727825D01*
X122780488Y-66647825D02*
X122780488Y-65861825D01*
X122780488Y-69513825D02*
X122780488Y-68727825D01*
X122820488Y-66647825D02*
X122820488Y-65823825D01*
X122820488Y-69551825D02*
X122820488Y-68727825D01*
X122860488Y-66647825D02*
X122860488Y-65786825D01*
X122860488Y-69588825D02*
X122860488Y-68727825D01*
X122900488Y-66647825D02*
X122900488Y-65750825D01*
X122900488Y-69624825D02*
X122900488Y-68727825D01*
X122940488Y-66647825D02*
X122940488Y-65716825D01*
X122940488Y-69658825D02*
X122940488Y-68727825D01*
X122980488Y-66647825D02*
X122980488Y-65683825D01*
X122980488Y-69691825D02*
X122980488Y-68727825D01*
X123020488Y-66647825D02*
X123020488Y-65652825D01*
X123020488Y-69722825D02*
X123020488Y-68727825D01*
X123060488Y-66647825D02*
X123060488Y-65622825D01*
X123060488Y-69752825D02*
X123060488Y-68727825D01*
X123100488Y-66647825D02*
X123100488Y-65592825D01*
X123100488Y-69782825D02*
X123100488Y-68727825D01*
X123140488Y-66647825D02*
X123140488Y-65565825D01*
X123140488Y-69809825D02*
X123140488Y-68727825D01*
X123180488Y-66647825D02*
X123180488Y-65538825D01*
X123180488Y-69836825D02*
X123180488Y-68727825D01*
X123220488Y-66647825D02*
X123220488Y-65512825D01*
X123220488Y-69862825D02*
X123220488Y-68727825D01*
X123260488Y-66647825D02*
X123260488Y-65487825D01*
X123260488Y-69887825D02*
X123260488Y-68727825D01*
X123300488Y-66647825D02*
X123300488Y-65463825D01*
X123300488Y-69911825D02*
X123300488Y-68727825D01*
X123340488Y-66647825D02*
X123340488Y-65440825D01*
X123340488Y-69934825D02*
X123340488Y-68727825D01*
X123380488Y-66647825D02*
X123380488Y-65419825D01*
X123380488Y-69955825D02*
X123380488Y-68727825D01*
X123420488Y-66647825D02*
X123420488Y-65397825D01*
X123420488Y-69977825D02*
X123420488Y-68727825D01*
X123460488Y-66647825D02*
X123460488Y-65377825D01*
X123460488Y-69997825D02*
X123460488Y-68727825D01*
X123500488Y-66647825D02*
X123500488Y-65358825D01*
X123500488Y-70016825D02*
X123500488Y-68727825D01*
X123540488Y-66647825D02*
X123540488Y-65339825D01*
X123540488Y-70035825D02*
X123540488Y-68727825D01*
X123580488Y-66647825D02*
X123580488Y-65322825D01*
X123580488Y-70052825D02*
X123580488Y-68727825D01*
X123620488Y-66647825D02*
X123620488Y-65305825D01*
X123620488Y-70069825D02*
X123620488Y-68727825D01*
X123660488Y-66647825D02*
X123660488Y-65289825D01*
X123660488Y-70085825D02*
X123660488Y-68727825D01*
X123700488Y-66647825D02*
X123700488Y-65273825D01*
X123700488Y-70101825D02*
X123700488Y-68727825D01*
X123740488Y-66647825D02*
X123740488Y-65259825D01*
X123740488Y-70115825D02*
X123740488Y-68727825D01*
X123780488Y-66647825D02*
X123780488Y-65245825D01*
X123780488Y-70129825D02*
X123780488Y-68727825D01*
X123820488Y-66647825D02*
X123820488Y-65232825D01*
X123820488Y-70142825D02*
X123820488Y-68727825D01*
X123860488Y-66647825D02*
X123860488Y-65219825D01*
X123860488Y-70155825D02*
X123860488Y-68727825D01*
X123900488Y-66647825D02*
X123900488Y-65207825D01*
X123900488Y-70167825D02*
X123900488Y-68727825D01*
X123941488Y-66647825D02*
X123941488Y-65196825D01*
X123941488Y-70178825D02*
X123941488Y-68727825D01*
X123981488Y-66647825D02*
X123981488Y-65186825D01*
X123981488Y-70188825D02*
X123981488Y-68727825D01*
X124021488Y-66647825D02*
X124021488Y-65176825D01*
X124021488Y-70198825D02*
X124021488Y-68727825D01*
X124061488Y-66647825D02*
X124061488Y-65167825D01*
X124061488Y-70207825D02*
X124061488Y-68727825D01*
X124101488Y-66647825D02*
X124101488Y-65159825D01*
X124101488Y-70215825D02*
X124101488Y-68727825D01*
X124141488Y-66647825D02*
X124141488Y-65151825D01*
X124141488Y-70223825D02*
X124141488Y-68727825D01*
X124181488Y-66647825D02*
X124181488Y-65144825D01*
X124181488Y-70230825D02*
X124181488Y-68727825D01*
X124221488Y-66647825D02*
X124221488Y-65137825D01*
X124221488Y-70237825D02*
X124221488Y-68727825D01*
X124261488Y-66647825D02*
X124261488Y-65131825D01*
X124261488Y-70243825D02*
X124261488Y-68727825D01*
X124301488Y-66647825D02*
X124301488Y-65126825D01*
X124301488Y-70248825D02*
X124301488Y-68727825D01*
X124341488Y-66647825D02*
X124341488Y-65122825D01*
X124341488Y-70252825D02*
X124341488Y-68727825D01*
X124381488Y-66647825D02*
X124381488Y-65118825D01*
X124381488Y-70256825D02*
X124381488Y-68727825D01*
X124421488Y-70260825D02*
X124421488Y-65114825D01*
X124461488Y-70263825D02*
X124461488Y-65111825D01*
X124501488Y-70265825D02*
X124501488Y-65109825D01*
X124541488Y-70266825D02*
X124541488Y-65108825D01*
X124581488Y-70267825D02*
X124581488Y-65107825D01*
X124621488Y-70267825D02*
X124621488Y-65107825D01*
X127176263Y-69412825D02*
X127176263Y-68912825D01*
X127426263Y-69162825D02*
X126926263Y-69162825D01*
X127241488Y-67687825D02*
G75*
G02*
X122001488Y-67687825I-2620000J0D01*
G01*
X122001488Y-67687825D02*
G75*
G02*
X127241488Y-67687825I2620000J0D01*
G01*
%TO.C,PU3*%
X119272936Y-80243375D02*
X119727064Y-80243375D01*
X119272936Y-81713375D02*
X119727064Y-81713375D01*
%TO.C,PU7*%
X118772936Y-93511700D02*
X119227064Y-93511700D01*
X118772936Y-94981700D02*
X119227064Y-94981700D01*
%TO.C,C16*%
X176240173Y-84878875D02*
X176762677Y-84878875D01*
X176240173Y-86348875D02*
X176762677Y-86348875D01*
%TD*%
M02*
