M48
METRIC
T1C0.300
T2C0.800
T3C0.900
T4C0.950
T5C1.000
T6C1.050
T7C1.200
T8C1.350
T9C2.300
T10C3.200
%
G90
G05
T1
X103.248Y-92.904
X105.537Y-102.003
X106.15Y-106.023
X109.325Y-102.003
X110.169Y-66.611
X110.338Y-62.255
X110.392Y-64.265
X110.392Y-95.329
X112.265Y-94.913
X112.414Y-66.64
X112.627Y-73.977
X112.697Y-76.816
X113.706Y-78.188
X113.741Y-59.353
X114.259Y-69.475
X114.476Y-80.593
X114.892Y-95.35
X114.906Y-88.843
X116.113Y-71.434
X116.615Y-82.407
X116.808Y-85.407
X118.427Y-69.964
X119.545Y-68.675
X120.094Y-88.614
X120.726Y-67.494
X121.834Y-88.871
X122.45Y-83.693
X122.736Y-76.638
X122.796Y-82.321
X123.514Y-74.292
X124.876Y-89.046
X128.375Y-97.606
X128.724Y-92.707
X128.762Y-75.905
X130.899Y-86.411
X134.347Y-91.405
X134.645Y-75.67
X137.02Y-85.312
X138.125Y-78.654
X138.967Y-65.881
X140.941Y-68.821
X141.049Y-70.066
X141.694Y-86.296
X142.072Y-83.404
X142.488Y-68.628
X142.808Y-66.094
X144.158Y-74.079
X144.158Y-81.397
X146.066Y-72.247
X147.491Y-78.184
X148.13Y-88.973
X148.879Y-83.004
X149.203Y-80.972
X150.339Y-84.744
X152.121Y-84.75
X152.552Y-91.056
X154.226Y-89.081
X156.696Y-85.858
X157.328Y-68.301
X158.112Y-82.617
X160.249Y-68.123
X160.645Y-86.912
X161.236Y-66.18
X161.442Y-82.677
X162.931Y-68.339
X163.525Y-78.003
X163.805Y-79.502
X163.887Y-86.931
X164.649Y-82.264
X164.732Y-75.271
X164.941Y-88.284
X165.095Y-67.008
X165.332Y-74.498
X166.776Y-80.518
X166.827Y-76.962
X167.078Y-68.726
X167.221Y-90.576
X167.484Y-66.621
X167.665Y-87.62
X168.251Y-70.287
X168.481Y-67.84
X168.634Y-90.862
X168.961Y-77.673
X169.113Y-75.921
X169.545Y-88.392
X169.802Y-69.329
X171.136Y-87.122
X171.256Y-85.601
X173.104Y-85.754
X173.463Y-64.005
X174.454Y-65.148
X174.777Y-82.372
X175.349Y-87.23
X175.793Y-66.475
X176.447Y-77.356
X177.022Y-90.986
X177.155Y-79.61
X178.102Y-78.13
X179.13Y-72.958
X179.638Y-76.26
X180.975Y-88.376
X182.804Y-90.624
X184.849Y-77.019
X188.204Y-78.496
X191.795Y-74.549
T2
X123.371Y-67.688
X125.871Y-67.688
X136.363Y-67.862
X138.863Y-67.862
X153.838Y-68.762
X153.838Y-73.662
X185.087Y-92.313
X187.587Y-92.313
T3
X196.399Y-58.869
X196.399Y-61.409
X196.472Y-66.58
X196.472Y-69.12
X196.485Y-64.04
X196.485Y-66.58
T4
X196.707Y-81.457
X196.707Y-83.957
X196.707Y-85.957
X196.707Y-88.457
T5
X98.127Y-72.695
X98.127Y-75.235
X98.127Y-77.775
X98.127Y-80.315
X98.127Y-82.855
X98.127Y-85.395
X98.127Y-87.935
X98.127Y-90.475
X98.127Y-93.015
X98.127Y-95.555
X98.127Y-98.095
X98.127Y-100.635
X98.127Y-103.175
X98.127Y-105.715
X98.127Y-108.255
X98.127Y-110.795
X98.127Y-113.335
X100.667Y-72.695
X100.667Y-75.235
X100.667Y-77.775
X100.667Y-80.315
X100.667Y-82.855
X100.667Y-85.395
X100.667Y-87.935
X100.667Y-90.475
X100.667Y-93.015
X100.667Y-95.555
X100.667Y-98.095
X100.667Y-100.635
X100.667Y-103.175
X100.667Y-105.715
X100.667Y-108.255
X100.667Y-110.795
X100.667Y-113.335
X104.497Y-82.398
X104.499Y-84.976
X104.499Y-87.551
X104.5Y-74.4
X104.5Y-77.08
X104.5Y-79.629
X104.5Y-90.106
X104.502Y-61.014
X104.502Y-63.553
X104.502Y-66.093
X104.502Y-68.633
X107.037Y-82.398
X107.039Y-84.976
X107.039Y-87.551
X107.04Y-74.4
X107.04Y-77.08
X107.04Y-79.629
X107.04Y-90.106
X107.363Y-58.395
X107.363Y-60.935
X107.363Y-63.475
X107.363Y-66.21
X107.363Y-68.75
X144.361Y-97.292
X144.361Y-99.832
X144.461Y-94.351
X146.888Y-56.991
X146.9Y-59.329
X146.9Y-61.869
X146.901Y-97.292
X146.901Y-99.832
X147.001Y-94.351
X149.428Y-56.991
X149.44Y-59.329
X149.44Y-61.869
T6
X202.346Y-58.416
X202.346Y-62.916
X202.486Y-65.634
X202.486Y-70.134
T7
X98.873Y-57.491
X98.873Y-59.991
X98.873Y-62.491
X98.873Y-64.991
T8
X199.846Y-57.166
X199.846Y-64.166
X199.986Y-64.384
X199.986Y-71.384
T9
X199.417Y-78.387
X199.417Y-91.527
T10
X118.491Y-60.642
X118.491Y-110.363
X139.573Y-60.642
X139.573Y-110.363
X189.357Y-60.642
M30
