%TF.GenerationSoftware,KiCad,Pcbnew,8.0.8*%
%TF.CreationDate,2025-02-19T22:11:45+00:00*%
%TF.ProjectId,Gotek,476f7465-6b2e-46b6-9963-61645f706362,rev?*%
%TF.SameCoordinates,Original*%
%TF.FileFunction,Copper,L2,Bot*%
%TF.FilePolarity,Positive*%
%FSLAX46Y46*%
G04 Gerber Fmt 4.6, Leading zero omitted, Abs format (unit mm)*
G04 Created by KiCad (PCBNEW 8.0.8) date 2025-02-19 22:11:45*
%MOMM*%
%LPD*%
G01*
G04 APERTURE LIST*
%TA.AperFunction,ComponentPad*%
%ADD10C,5.000000*%
%TD*%
%TA.AperFunction,ComponentPad*%
%ADD11R,1.700000X1.700000*%
%TD*%
%TA.AperFunction,ComponentPad*%
%ADD12O,1.700000X1.700000*%
%TD*%
%TA.AperFunction,ComponentPad*%
%ADD13R,1.600000X1.600000*%
%TD*%
%TA.AperFunction,ComponentPad*%
%ADD14C,1.600000*%
%TD*%
%TA.AperFunction,ComponentPad*%
%ADD15C,1.575000*%
%TD*%
%TA.AperFunction,ComponentPad*%
%ADD16C,2.025000*%
%TD*%
%TA.AperFunction,ComponentPad*%
%ADD17R,1.800000X1.800000*%
%TD*%
%TA.AperFunction,ComponentPad*%
%ADD18C,1.800000*%
%TD*%
%TA.AperFunction,ComponentPad*%
%ADD19R,1.500000X1.600000*%
%TD*%
%TA.AperFunction,ComponentPad*%
%ADD20C,3.000000*%
%TD*%
%TA.AperFunction,ComponentPad*%
%ADD21C,1.500000*%
%TD*%
%TA.AperFunction,ViaPad*%
%ADD22C,0.600000*%
%TD*%
%TA.AperFunction,Conductor*%
%ADD23C,0.200000*%
%TD*%
%TA.AperFunction,Conductor*%
%ADD24C,1.000000*%
%TD*%
%TA.AperFunction,Conductor*%
%ADD25C,0.500000*%
%TD*%
G04 APERTURE END LIST*
D10*
%TO.P,H1,1,1*%
%TO.N,GND*%
X118491000Y-60642500D03*
%TD*%
%TO.P,H2,1,1*%
%TO.N,GND*%
X139573000Y-60642500D03*
%TD*%
%TO.P,H3,1,1*%
%TO.N,GND*%
X118491000Y-110363000D03*
%TD*%
%TO.P,H4,1,1*%
%TO.N,GND*%
X139573000Y-110363000D03*
%TD*%
%TO.P,H5,1,1*%
%TO.N,GND*%
X189357000Y-60642500D03*
%TD*%
D11*
%TO.P,J10,1,Pin_1*%
%TO.N,GND*%
X104501950Y-68633500D03*
D12*
%TO.P,J10,2,Pin_2*%
%TO.N,+5V*%
X104501950Y-66093500D03*
%TO.P,J10,3,Pin_3*%
%TO.N,SWCLK*%
X104501950Y-63553500D03*
%TO.P,J10,4,Pin_4*%
%TO.N,SWDIO*%
X104501950Y-61013500D03*
%TD*%
D11*
%TO.P,J7,1,Pin_1*%
%TO.N,/I2C2_CLK*%
X144360900Y-97291525D03*
D12*
%TO.P,J7,2,Pin_2*%
%TO.N,/I2C2_DTA*%
X146900900Y-97291525D03*
%TO.P,J7,3,Pin_3*%
%TO.N,GND*%
X144360900Y-99831525D03*
%TO.P,J7,4,Pin_4*%
%TO.N,+3.3V*%
X146900900Y-99831525D03*
%TD*%
D13*
%TO.P,C1,1*%
%TO.N,+5V*%
X187587138Y-92313125D03*
D14*
%TO.P,C1,2*%
%TO.N,GND*%
X185087138Y-92313125D03*
%TD*%
D11*
%TO.P,JK1,1,Pin_1*%
%TO.N,SWITCH1*%
X146888200Y-56991250D03*
D12*
%TO.P,JK1,2,Pin_2*%
%TO.N,U3-40-PC9*%
X149428200Y-56991250D03*
%TD*%
D11*
%TO.P,S0,1,Pin_1*%
%TO.N,SEL0*%
X104498775Y-84975700D03*
D12*
%TO.P,S0,2,Pin_2*%
%TO.N,SEL*%
X107038775Y-84975700D03*
%TD*%
D11*
%TO.P,JA1,1,Pin_1*%
%TO.N,JA*%
X104500000Y-77080000D03*
D12*
%TO.P,JA1,2,Pin_2*%
%TO.N,GND*%
X107040000Y-77080000D03*
%TD*%
D15*
%TO.P,S4,1,1*%
%TO.N,GND*%
X202485625Y-70133600D03*
%TO.P,S4,2,2*%
%TO.N,BUT_L*%
X202485625Y-65633600D03*
D16*
%TO.P,S4,3,3*%
%TO.N,GND*%
X199985625Y-71383600D03*
%TO.P,S4,4,4*%
X199985625Y-64383600D03*
%TD*%
D17*
%TO.P,L5,1,K*%
%TO.N,/I2C2_DTA*%
X196472175Y-69119750D03*
D18*
%TO.P,L5,2,A*%
%TO.N,Net-(L3-A)*%
X196472175Y-66579750D03*
%TD*%
D11*
%TO.P,MOR1,1,Pin_1*%
%TO.N,MOR1*%
X104500000Y-90106500D03*
D12*
%TO.P,MOR1,2,Pin_2*%
%TO.N,MOR*%
X107040000Y-90106500D03*
%TD*%
D13*
%TO.P,C17,1*%
%TO.N,+3.3V*%
X138863075Y-67862450D03*
D14*
%TO.P,C17,2*%
%TO.N,GND*%
X136363075Y-67862450D03*
%TD*%
D15*
%TO.P,S3,1,1*%
%TO.N,GND*%
X202345925Y-62915800D03*
%TO.P,S3,2,2*%
%TO.N,BUT_R*%
X202345925Y-58415800D03*
D16*
%TO.P,S3,3,3*%
%TO.N,GND*%
X199845925Y-64165800D03*
%TO.P,S3,4,4*%
X199845925Y-57165800D03*
%TD*%
D11*
%TO.P,P1,1,Pin_1*%
%TO.N,GND*%
X98126550Y-72694800D03*
D12*
%TO.P,P1,2,Pin_2*%
%TO.N,CHNG*%
X100666550Y-72694800D03*
%TO.P,P1,3,Pin_3*%
%TO.N,GND*%
X98126550Y-75234800D03*
%TO.P,P1,4,Pin_4*%
%TO.N,MTRON*%
X100666550Y-75234800D03*
%TO.P,P1,5,Pin_5*%
%TO.N,GND*%
X98126550Y-77774800D03*
%TO.P,P1,6,Pin_6*%
%TO.N,NC*%
X100666550Y-77774800D03*
%TO.P,P1,7,Pin_7*%
%TO.N,GND*%
X98126550Y-80314800D03*
%TO.P,P1,8,Pin_8*%
%TO.N,INDEX*%
X100666550Y-80314800D03*
%TO.P,P1,9,Pin_9*%
%TO.N,GND*%
X98126550Y-82854800D03*
%TO.P,P1,10,Pin_10*%
%TO.N,SEL0*%
X100666550Y-82854800D03*
%TO.P,P1,11,Pin_11*%
%TO.N,GND*%
X98126550Y-85394800D03*
%TO.P,P1,12,Pin_12*%
%TO.N,SEL1*%
X100666550Y-85394800D03*
%TO.P,P1,13,Pin_13*%
%TO.N,GND*%
X98126550Y-87934800D03*
%TO.P,P1,14,Pin_14*%
%TO.N,SEL2*%
X100666550Y-87934800D03*
%TO.P,P1,15,Pin_15*%
%TO.N,GND*%
X98126550Y-90474800D03*
%TO.P,P1,16,Pin_16*%
%TO.N,MOR*%
X100666550Y-90474800D03*
%TO.P,P1,17,Pin_17*%
%TO.N,GND*%
X98126550Y-93014800D03*
%TO.P,P1,18,Pin_18*%
%TO.N,DIR*%
X100666550Y-93014800D03*
%TO.P,P1,19,Pin_19*%
%TO.N,GND*%
X98126550Y-95554800D03*
%TO.P,P1,20,Pin_20*%
%TO.N,STEP*%
X100666550Y-95554800D03*
%TO.P,P1,21,Pin_21*%
%TO.N,GND*%
X98126550Y-98094800D03*
%TO.P,P1,22,Pin_22*%
%TO.N,WDATA*%
X100666550Y-98094800D03*
%TO.P,P1,23,Pin_23*%
%TO.N,GND*%
X98126550Y-100634800D03*
%TO.P,P1,24,Pin_24*%
%TO.N,WGATE*%
X100666550Y-100634800D03*
%TO.P,P1,25,Pin_25*%
%TO.N,GND*%
X98126550Y-103174800D03*
%TO.P,P1,26,Pin_26*%
%TO.N,TRK0*%
X100666550Y-103174800D03*
%TO.P,P1,27,Pin_27*%
%TO.N,GND*%
X98126550Y-105714800D03*
%TO.P,P1,28,Pin_28*%
%TO.N,WPROT*%
X100666550Y-105714800D03*
%TO.P,P1,29,Pin_29*%
%TO.N,GND*%
X98126550Y-108254800D03*
%TO.P,P1,30,Pin_30*%
%TO.N,RDATA*%
X100666550Y-108254800D03*
%TO.P,P1,31,Pin_31*%
%TO.N,GND*%
X98126550Y-110794800D03*
%TO.P,P1,32,Pin_32*%
%TO.N,SIDE1*%
X100666550Y-110794800D03*
%TO.P,P1,33,Pin_33*%
%TO.N,GND*%
X98126550Y-113334800D03*
%TO.P,P1,34,Pin_34*%
%TO.N,READY*%
X100666550Y-113334800D03*
%TD*%
D11*
%TO.P,J5,1,Pin_1*%
%TO.N,MTRON*%
X104500000Y-74400000D03*
D12*
%TO.P,J5,2,Pin_2*%
%TO.N,GND*%
X107040000Y-74400000D03*
%TD*%
D11*
%TO.P,JKA1,1,Pin_1*%
%TO.N,JKA1-1*%
X144460675Y-94351475D03*
D12*
%TO.P,JKA1,2,Pin_2*%
%TO.N,JKA1-2*%
X147000675Y-94351475D03*
%TD*%
D11*
%TO.P,J3,1,Pin_1*%
%TO.N,J3_BOOT0*%
X107362625Y-58394600D03*
D12*
%TO.P,J3,2,Pin_2*%
%TO.N,+3.3V*%
X107362625Y-60934600D03*
%TO.P,J3,3,Pin_3*%
%TO.N,USART1_TX*%
X107362625Y-63474600D03*
%TD*%
D11*
%TO.P,J8,1,Pin_1*%
%TO.N,ENC1*%
X146900000Y-59329400D03*
D12*
%TO.P,J8,2,Pin_2*%
%TO.N,ENC2*%
X149440000Y-59329400D03*
%TO.P,J8,3,Pin_3*%
%TO.N,GND*%
X146900000Y-61869400D03*
%TO.P,J8,4,Pin_4*%
%TO.N,+5V*%
X149440000Y-61869400D03*
%TD*%
D19*
%TO.P,P3,1,VBUS*%
%TO.N,+5V*%
X196706525Y-88456650D03*
D14*
%TO.P,P3,2,D-*%
%TO.N,Net-(P3-D-)*%
X196706525Y-85956650D03*
%TO.P,P3,3,D+*%
%TO.N,Net-(P3-D+)*%
X196706525Y-83956650D03*
%TO.P,P3,4,GND*%
%TO.N,GND*%
X196706525Y-81456650D03*
D20*
%TO.P,P3,5,Shield*%
X199416525Y-91526650D03*
X199416525Y-78386650D03*
%TD*%
D17*
%TO.P,L3,1,K*%
%TO.N,/I2C2_CLK*%
X196484875Y-64039750D03*
D18*
%TO.P,L3,2,A*%
%TO.N,Net-(L3-A)*%
X196484875Y-66579750D03*
%TD*%
D11*
%TO.P,S1,1,Pin_1*%
%TO.N,SEL1*%
X104498775Y-87550625D03*
D12*
%TO.P,S1,2,Pin_2*%
%TO.N,SEL*%
X107038775Y-87550625D03*
%TD*%
D11*
%TO.P,JC1,1,Pin_1*%
%TO.N,JC*%
X104500000Y-79629000D03*
D12*
%TO.P,JC1,2,Pin_2*%
%TO.N,GND*%
X107040000Y-79629000D03*
%TD*%
D11*
%TO.P,JB1,1,Pin_1*%
%TO.N,JB*%
X104496950Y-82397600D03*
D12*
%TO.P,JB1,2,Pin_2*%
%TO.N,GND*%
X107036950Y-82397600D03*
%TD*%
D21*
%TO.P,Y1,1,1*%
%TO.N,Net-(U3-PH1)*%
X153838275Y-73662075D03*
%TO.P,Y1,2,2*%
%TO.N,Net-(U3-PH0)*%
X153838275Y-68762075D03*
%TD*%
D11*
%TO.P,J4,1,Pin_1*%
%TO.N,USART1_RX*%
X107362625Y-66209625D03*
D12*
%TO.P,J4,2,Pin_2*%
%TO.N,NRST*%
X107362625Y-68749625D03*
%TD*%
D17*
%TO.P,P2,1,1*%
%TO.N,+5V*%
X98872900Y-64990975D03*
D18*
%TO.P,P2,2,2*%
%TO.N,GND*%
X98872900Y-62490975D03*
%TO.P,P2,3,3*%
X98872900Y-59990975D03*
%TO.P,P2,4,4*%
%TO.N,unconnected-(P2-Pad4)*%
X98872900Y-57490975D03*
%TD*%
D17*
%TO.P,L4,1,K*%
%TO.N,SEL*%
X196399150Y-61409500D03*
D18*
%TO.P,L4,2,A*%
%TO.N,Net-(L4-A)*%
X196399150Y-58869500D03*
%TD*%
D13*
%TO.P,C19,1*%
%TO.N,+5V*%
X125871488Y-67687825D03*
D14*
%TO.P,C19,2*%
%TO.N,GND*%
X123371488Y-67687825D03*
%TD*%
D22*
%TO.N,GND*%
X103247825Y-92903675D03*
X113741200Y-59353450D03*
X138966575Y-65881250D03*
X134346950Y-91405075D03*
X116112925Y-71434325D03*
X163525200Y-78003400D03*
X112626775Y-73977500D03*
X174777400Y-82372200D03*
X147491450Y-78184375D03*
X142808325Y-66093975D03*
X105537000Y-102003225D03*
X146065875Y-72247125D03*
X137020300Y-85312250D03*
X157327600Y-68300600D03*
X114906425Y-88842850D03*
X109324775Y-102003225D03*
X169544600Y-88392000D03*
X140941425Y-68821300D03*
X110391575Y-64265175D03*
X175348900Y-87229950D03*
X160248675Y-68122800D03*
X166827200Y-76962000D03*
X124875925Y-89046050D03*
X161442400Y-82677000D03*
X138125200Y-78654275D03*
X110169325Y-66611500D03*
X128762125Y-75904725D03*
X167665400Y-87620475D03*
X144157700Y-74079100D03*
X106149775Y-106022775D03*
X122450225Y-83693000D03*
X142487650Y-68627625D03*
X134645400Y-75669775D03*
X110337600Y-62255400D03*
%TO.N,NRST*%
X141049375Y-70065900D03*
%TO.N,+3.3V*%
X148129625Y-88973025D03*
X180975000Y-88376125D03*
X191795400Y-74549000D03*
X154225625Y-89080975D03*
X120726200Y-67494150D03*
X171256325Y-85601175D03*
X188204475Y-78495525D03*
%TO.N,J3_BOOT0*%
X114258725Y-69475350D03*
X112414050Y-66640075D03*
X161236025Y-66179700D03*
X123513850Y-74291825D03*
%TO.N,USART1_TX*%
X119545100Y-68675250D03*
X178101625Y-78130400D03*
%TO.N,USART1_RX*%
X176447450Y-77355700D03*
X118427500Y-69964300D03*
%TO.N,/I2C2_CLK*%
X168633775Y-90862150D03*
%TO.N,/I2C2_DTA*%
X167220900Y-90576400D03*
%TO.N,SWDIO*%
X179638325Y-76260325D03*
%TO.N,SWCLK*%
X175793400Y-66474975D03*
%TO.N,ENC1*%
X173462950Y-64004825D03*
X164941250Y-88284050D03*
X184848500Y-77019150D03*
%TO.N,DIR*%
X152552400Y-91055825D03*
X110391575Y-95329375D03*
%TO.N,SWITCH1*%
X179130325Y-72958325D03*
%TO.N,JA*%
X164649150Y-82264250D03*
X112696625Y-76815950D03*
%TO.N,JB*%
X114476212Y-80592612D03*
X163804600Y-79502000D03*
%TO.N,JC*%
X166776400Y-80518000D03*
X113706275Y-78187550D03*
%TO.N,MOR1*%
X168960800Y-77673200D03*
X173104175Y-85753575D03*
X116808250Y-85407500D03*
X171135675Y-87122000D03*
%TO.N,SPI2_MISO*%
X182803800Y-90624025D03*
X177022125Y-90985975D03*
%TO.N,ENC2*%
X174453550Y-65147825D03*
%TO.N,U3-40-PC9*%
X177155475Y-79609950D03*
%TO.N,JKA1-1*%
X169802175Y-69329300D03*
X150339425Y-84743925D03*
%TO.N,JKA1-2*%
X168251187Y-70286563D03*
X152120600Y-84750275D03*
%TO.N,WPROT_3V3*%
X167078025Y-68726050D03*
X141693900Y-86296500D03*
%TO.N,SEL*%
X128374775Y-97605850D03*
X112264825Y-94913450D03*
X158111825Y-82616675D03*
%TO.N,STEP*%
X156695775Y-85858350D03*
X114892137Y-95350012D03*
%TO.N,WGATE*%
X164731775Y-75271260D03*
%TO.N,INDEX*%
X116614575Y-82407125D03*
X122796300Y-82321400D03*
%TO.N,WPROT*%
X121834275Y-88871425D03*
%TO.N,RDATA*%
X128724025Y-92706825D03*
%TO.N,TRK0*%
X120094375Y-88614250D03*
%TO.N,SIDE1*%
X165331775Y-74498200D03*
%TO.N,WDATA*%
X169113200Y-75920600D03*
%TO.N,BUT_L*%
X160645475Y-86912450D03*
%TO.N,BUT_R*%
X163887150Y-86931500D03*
%TO.N,INDEX_3V3*%
X142071725Y-83404075D03*
X162931475Y-68338700D03*
%TO.N,TRK0_3V3*%
X144157700Y-81397400D03*
X167484425Y-66621025D03*
%TO.N,READY_3V3*%
X168481375Y-67840225D03*
X148878925Y-83004025D03*
%TO.N,CHNG*%
X122735975Y-76638025D03*
X130898900Y-86410800D03*
%TO.N,CHNG_3V3*%
X149202775Y-80971900D03*
X165094600Y-67008375D03*
%TD*%
D23*
%TO.N,GND*%
X144157700Y-74850625D02*
X147491450Y-78184375D01*
X128323975Y-65957450D02*
X130228975Y-67862450D01*
X143094075Y-75088750D02*
X144103725Y-74079100D01*
X186187138Y-93413125D02*
X185087138Y-92313125D01*
X137845800Y-78654275D02*
X134861300Y-75669775D01*
X134346950Y-91405075D02*
X134312025Y-91440000D01*
X167941625Y-88090375D02*
X167941625Y-87896700D01*
X199985625Y-71383600D02*
X199985625Y-77817550D01*
X199416525Y-91526650D02*
X197530050Y-93413125D01*
X123371488Y-67687825D02*
X125101863Y-65957450D01*
X167941625Y-87896700D02*
X167665400Y-87620475D01*
X116112925Y-71434325D02*
X116112925Y-69532500D01*
X104501950Y-71861950D02*
X107040000Y-74400000D01*
X141690725Y-75088750D02*
X143094075Y-75088750D01*
X130228975Y-67862450D02*
X136363075Y-67862450D01*
X196706525Y-81456650D02*
X199416525Y-84166650D01*
X104501950Y-68633500D02*
X102187850Y-68633500D01*
X104501950Y-68633500D02*
X104501950Y-71861950D01*
X138125200Y-78654275D02*
X137845800Y-78654275D01*
X134861300Y-75669775D02*
X134645400Y-75669775D01*
X98126550Y-72694800D02*
X98126550Y-113334800D01*
X197530050Y-93413125D02*
X186187138Y-93413125D01*
X129114550Y-75552300D02*
X134527925Y-75552300D01*
X146900000Y-61869400D02*
X140799900Y-61869400D01*
X119294275Y-66351150D02*
X122034813Y-66351150D01*
X138125200Y-78654275D02*
X138106150Y-78673325D01*
X138106150Y-78673325D02*
X138001375Y-78673325D01*
X118491000Y-110363000D02*
X139573000Y-110363000D01*
X144360900Y-99831525D02*
X144360900Y-105575100D01*
X161442400Y-80977827D02*
X163525200Y-78895027D01*
X138125200Y-78654275D02*
X141690725Y-75088750D01*
X134312025Y-91440000D02*
X127000000Y-91440000D01*
X199416525Y-84166650D02*
X199416525Y-91526650D01*
X107040000Y-82394550D02*
X107036950Y-82397600D01*
X122034813Y-66351150D02*
X123371488Y-67687825D01*
X139573000Y-60642500D02*
X118491000Y-60642500D01*
X102187850Y-68633500D02*
X98126550Y-72694800D01*
X127000000Y-91440000D02*
X124875925Y-89315925D01*
X124875925Y-89046050D02*
X124606050Y-89046050D01*
X124875925Y-89315925D02*
X124875925Y-89046050D01*
X144360900Y-99831525D02*
X143075025Y-99831525D01*
X128762125Y-75904725D02*
X129114550Y-75552300D01*
X199985625Y-77817550D02*
X199416525Y-78386650D01*
X168392475Y-88541225D02*
X167941625Y-88090375D01*
X175348900Y-87229950D02*
X174037625Y-88541225D01*
X134527925Y-75552300D02*
X134645400Y-75669775D01*
X107040000Y-74400000D02*
X107040000Y-82394550D01*
X161442400Y-82677000D02*
X161442400Y-80977827D01*
X116112925Y-69532500D02*
X119294275Y-66351150D01*
X144103725Y-74079100D02*
X144157700Y-74079100D01*
X174037625Y-88541225D02*
X168392475Y-88541225D01*
X144157700Y-74079100D02*
X144157700Y-74850625D01*
X143075025Y-99831525D02*
X143068675Y-99825175D01*
X163525200Y-78895027D02*
X163525200Y-78003400D01*
X125101863Y-65957450D02*
X128323975Y-65957450D01*
X144360900Y-105575100D02*
X139573000Y-110363000D01*
X140799900Y-61869400D02*
X139573000Y-60642500D01*
%TO.N,NRST*%
X116268500Y-64611250D02*
X112334675Y-68545075D01*
X112334675Y-68545075D02*
X112334675Y-68554600D01*
X112334675Y-68554600D02*
X112139650Y-68749625D01*
X141706600Y-67487800D02*
X138830050Y-64611250D01*
X138830050Y-64611250D02*
X116268500Y-64611250D01*
X112139650Y-68749625D02*
X107362625Y-68749625D01*
X141706600Y-69408675D02*
X141706600Y-67487800D01*
X141049375Y-70065900D02*
X141706600Y-69408675D01*
D24*
%TO.N,+3.3V*%
X180975000Y-86680675D02*
X188337825Y-79317850D01*
D25*
X120726200Y-67494150D02*
X123367800Y-70135750D01*
D24*
X188204475Y-78495525D02*
X191795400Y-74904600D01*
D25*
X136589775Y-70135750D02*
X138863075Y-67862450D01*
X154117675Y-88973025D02*
X154225625Y-89080975D01*
D24*
X188337825Y-79317850D02*
X188337825Y-78628875D01*
D25*
X123367800Y-70135750D02*
X136589775Y-70135750D01*
X154225625Y-89080975D02*
X156330650Y-89080975D01*
X170732450Y-86125050D02*
X171256325Y-85601175D01*
D23*
X180975000Y-87991950D02*
X180975000Y-88376125D01*
X188204475Y-78495525D02*
X188337825Y-78628875D01*
D24*
X191795400Y-74904600D02*
X191795400Y-74549000D01*
D23*
X156444950Y-89080975D02*
X154225625Y-89080975D01*
D25*
X148129625Y-88973025D02*
X154117675Y-88973025D01*
D24*
X180975000Y-87991950D02*
X180975000Y-86680675D01*
D25*
X159286575Y-86125050D02*
X170732450Y-86125050D01*
X156330650Y-89080975D02*
X159286575Y-86125050D01*
D23*
%TO.N,J3_BOOT0*%
X112560100Y-82213450D02*
X115036600Y-82213450D01*
X153562050Y-66157475D02*
X149512855Y-70206670D01*
X114096800Y-69475350D02*
X110534450Y-73037700D01*
X141601825Y-74295000D02*
X141452600Y-74295000D01*
X114258725Y-69475350D02*
X114096800Y-69475350D01*
X145690155Y-70206670D02*
X141601825Y-74295000D01*
X110534450Y-80187800D02*
X112560100Y-82213450D01*
X107965875Y-58394600D02*
X107362625Y-58394600D01*
X112414050Y-66640075D02*
X112423575Y-66630550D01*
X123167775Y-74291825D02*
X123513850Y-74291825D01*
X141452600Y-74295000D02*
X141449425Y-74291825D01*
X112423575Y-62852300D02*
X107965875Y-58394600D01*
X161236025Y-66179700D02*
X161213800Y-66157475D01*
X110534450Y-73037700D02*
X110534450Y-80187800D01*
X112423575Y-66630550D02*
X112423575Y-62852300D01*
X115036600Y-82213450D02*
X115141375Y-82318225D01*
X161213800Y-66157475D02*
X153562050Y-66157475D01*
X115141375Y-82318225D02*
X123167775Y-74291825D01*
X149512855Y-70206670D02*
X145690155Y-70206670D01*
X141449425Y-74291825D02*
X123513850Y-74291825D01*
%TO.N,USART1_TX*%
X140931900Y-71078725D02*
X121948575Y-71078725D01*
X145611850Y-66398775D02*
X140931900Y-71078725D01*
X153682700Y-62664975D02*
X149948900Y-66398775D01*
X177301525Y-74942700D02*
X177276125Y-74942700D01*
X149948900Y-66398775D02*
X145611850Y-66398775D01*
X177323750Y-77908150D02*
X177301525Y-77885925D01*
X178101625Y-78130400D02*
X177879375Y-77908150D01*
X177879375Y-77908150D02*
X177323750Y-77908150D01*
X153682700Y-62598300D02*
X153682700Y-62664975D01*
X177276125Y-74942700D02*
X176441100Y-74107675D01*
X177301525Y-77885925D02*
X177301525Y-74942700D01*
X176441100Y-70284975D02*
X168754425Y-62598300D01*
X176441100Y-74107675D02*
X176441100Y-70284975D01*
X121948575Y-71078725D02*
X119545100Y-68675250D01*
X168754425Y-62598300D02*
X153682700Y-62598300D01*
%TO.N,USART1_RX*%
X141170025Y-71529575D02*
X119992775Y-71529575D01*
X168598314Y-63007875D02*
X153905486Y-63007875D01*
X175818800Y-70228361D02*
X168598314Y-63007875D01*
X153905486Y-63007875D02*
X150063736Y-66849625D01*
X119992775Y-71529575D02*
X118427500Y-69964300D01*
X175818800Y-76727050D02*
X175818800Y-70228361D01*
X150063736Y-66849625D02*
X145849975Y-66849625D01*
X176447450Y-77355700D02*
X175818800Y-76727050D01*
X145849975Y-66849625D02*
X141170025Y-71529575D01*
%TO.N,/I2C2_CLK*%
X185429525Y-73790175D02*
X195179950Y-64039750D01*
X177387250Y-87960200D02*
X177387250Y-85328929D01*
X185448500Y-73809150D02*
X185429525Y-73790175D01*
X195179950Y-64039750D02*
X196484875Y-64039750D01*
X185448500Y-77267679D02*
X185448500Y-73809150D01*
X177387250Y-85328929D02*
X185448500Y-77267679D01*
X174580550Y-90766900D02*
X177387250Y-87960200D01*
X168729025Y-90766900D02*
X174580550Y-90766900D01*
X168633775Y-90862150D02*
X168729025Y-90766900D01*
%TO.N,/I2C2_DTA*%
X177933350Y-87979786D02*
X177933350Y-85699600D01*
X191985900Y-69103875D02*
X192001775Y-69119750D01*
X167220900Y-90576400D02*
X167220900Y-90728800D01*
X191985900Y-69148325D02*
X191985900Y-69103875D01*
X174200086Y-91713050D02*
X177933350Y-87979786D01*
X186432825Y-74701400D02*
X191985900Y-69148325D01*
X168205150Y-91713050D02*
X174200086Y-91713050D01*
X177933350Y-85699600D02*
X186432825Y-77200125D01*
X192001775Y-69119750D02*
X196472175Y-69119750D01*
X167220900Y-90728800D02*
X168205150Y-91713050D01*
X186432825Y-77200125D02*
X186432825Y-74701400D01*
%TO.N,SWDIO*%
X142411450Y-63973075D02*
X143614775Y-65176400D01*
X104079675Y-58023125D02*
X104886125Y-57216675D01*
X177209450Y-73218675D02*
X179638325Y-75647550D01*
X111448850Y-60455175D02*
X114966750Y-63973075D01*
X104501950Y-61013500D02*
X104079675Y-60591225D01*
X104886125Y-57216675D02*
X108991400Y-57216675D01*
X143789400Y-65176400D02*
X143811625Y-65198625D01*
X104079675Y-60591225D02*
X104079675Y-58023125D01*
X111448850Y-59674125D02*
X111448850Y-60455175D01*
X143811625Y-65198625D02*
X150136225Y-65198625D01*
X143614775Y-65176400D02*
X143789400Y-65176400D01*
X179638325Y-75647550D02*
X179638325Y-76260325D01*
X177209450Y-69999225D02*
X177209450Y-73218675D01*
X169284650Y-62074425D02*
X177209450Y-69999225D01*
X114966750Y-63973075D02*
X142411450Y-63973075D01*
X108991400Y-57216675D02*
X111448850Y-59674125D01*
X150136225Y-65198625D02*
X153260425Y-62074425D01*
X153260425Y-62074425D02*
X169284650Y-62074425D01*
%TO.N,SWCLK*%
X173628586Y-65852675D02*
X168815286Y-61039375D01*
X115408075Y-63471425D02*
X115103275Y-63166625D01*
X109486700Y-56502300D02*
X109451775Y-56537225D01*
X115033425Y-63166625D02*
X112277525Y-60410725D01*
X112277525Y-59293125D02*
X109486700Y-56502300D01*
X109451775Y-56537225D02*
X104394000Y-56537225D01*
X104394000Y-56537225D02*
X102717600Y-58213625D01*
X102717600Y-58318400D02*
X102647750Y-58388250D01*
X150031450Y-64525525D02*
X143795750Y-64525525D01*
X153381075Y-61175900D02*
X150031450Y-64525525D01*
X143795750Y-64525525D02*
X142741650Y-63471425D01*
X142741650Y-63471425D02*
X115408075Y-63471425D01*
X102647750Y-61699300D02*
X104501950Y-63553500D01*
X168815286Y-61039375D02*
X168694100Y-61039375D01*
X102647750Y-58388250D02*
X102647750Y-61699300D01*
X115103275Y-63166625D02*
X115033425Y-63166625D01*
X168694100Y-61039375D02*
X168557575Y-61175900D01*
X112277525Y-60410725D02*
X112277525Y-59293125D01*
X102717600Y-58213625D02*
X102717600Y-58318400D01*
X175171100Y-65852675D02*
X173628586Y-65852675D01*
X175793400Y-66474975D02*
X175171100Y-65852675D01*
X168557575Y-61175900D02*
X153381075Y-61175900D01*
%TO.N,ENC1*%
X153514325Y-60464750D02*
X153499675Y-60479400D01*
X164941250Y-88687275D02*
X164941250Y-88284050D01*
X184848500Y-77019150D02*
X184813575Y-77054075D01*
X184499250Y-77054075D02*
X176476025Y-85077300D01*
X173462950Y-64004825D02*
X173056550Y-64004825D01*
X176476025Y-85077300D02*
X176476025Y-87903050D01*
X173056550Y-64004825D02*
X169516475Y-60464750D01*
X184813575Y-77054075D02*
X184499250Y-77054075D01*
X175044100Y-89474675D02*
X165728650Y-89474675D01*
X176476025Y-87903050D02*
X175044100Y-89334975D01*
X175044100Y-89334975D02*
X175044100Y-89474675D01*
X165728650Y-89474675D02*
X164941250Y-88687275D01*
X153499675Y-60479400D02*
X148050000Y-60479400D01*
X169516475Y-60464750D02*
X153514325Y-60464750D01*
X148050000Y-60479400D02*
X146900000Y-59329400D01*
%TO.N,DIR*%
X142798800Y-91055825D02*
X134947025Y-98907600D01*
X134947025Y-98907600D02*
X113312575Y-98907600D01*
X110391575Y-95986600D02*
X110391575Y-95329375D01*
X113312575Y-98907600D02*
X110391575Y-95986600D01*
X152552400Y-91055825D02*
X142798800Y-91055825D01*
%TO.N,SWITCH1*%
X177660300Y-65497075D02*
X171561125Y-59397900D01*
X179130325Y-72958325D02*
X177660300Y-71488300D01*
X177660300Y-71488300D02*
X177660300Y-65497075D01*
X150514050Y-58073925D02*
X150446725Y-58141250D01*
X171561125Y-59397900D02*
X151806275Y-59397900D01*
X151806275Y-59366150D02*
X150514050Y-58073925D01*
X148038200Y-58141250D02*
X146888200Y-56991250D01*
X150446725Y-58141250D02*
X148038200Y-58141250D01*
X151806275Y-59397900D02*
X151806275Y-59366150D01*
%TO.N,JA*%
X141570610Y-72075675D02*
X146348985Y-67297300D01*
X112696625Y-76438125D02*
X117059075Y-72075675D01*
X168437976Y-63413223D02*
X172151675Y-67126922D01*
X117059075Y-72075675D02*
X141570610Y-72075675D01*
X112696625Y-76815950D02*
X112696625Y-76438125D01*
X154065823Y-63413223D02*
X168437976Y-63413223D01*
X172151675Y-77520800D02*
X167373300Y-82299175D01*
X167373300Y-82299175D02*
X164684075Y-82299175D01*
X172151675Y-67126922D02*
X172151675Y-67224276D01*
X146348985Y-67297300D02*
X150181746Y-67297300D01*
X164684075Y-82299175D02*
X164649150Y-82264250D01*
X172151675Y-67224276D02*
X172151675Y-77520800D01*
X150181746Y-67297300D02*
X154065823Y-63413223D01*
%TO.N,JB*%
X114512725Y-76301600D02*
X114512725Y-79769503D01*
X154482800Y-64438181D02*
X150601331Y-68319650D01*
X146609335Y-68319650D02*
X141529335Y-73399650D01*
X171297650Y-67686256D02*
X168049575Y-64438181D01*
X168395700Y-79873475D02*
X171297650Y-76971525D01*
X114512725Y-79769503D02*
X114476212Y-79806016D01*
X164176075Y-79873475D02*
X168395700Y-79873475D01*
X163804600Y-79502000D02*
X164176075Y-79873475D01*
X117414675Y-73399650D02*
X114512725Y-76301600D01*
X141529335Y-73399650D02*
X117414675Y-73399650D01*
X114476212Y-79806016D02*
X114476212Y-80592612D01*
X168049575Y-64438181D02*
X154482800Y-64438181D01*
X171297650Y-76971525D02*
X171297650Y-67686256D01*
X150601331Y-68319650D02*
X146609335Y-68319650D01*
%TO.N,JC*%
X150293406Y-67751325D02*
X146611975Y-67751325D01*
X141658975Y-72704325D02*
X117094000Y-72704325D01*
X166776400Y-80518000D02*
X168459150Y-80518000D01*
X146611975Y-67751325D02*
X141658975Y-72704325D01*
X171697650Y-77279500D02*
X171697650Y-67238582D01*
X154006550Y-64038181D02*
X150293406Y-67751325D01*
X117094000Y-72704325D02*
X113706275Y-76092050D01*
X168459150Y-80518000D02*
X171697650Y-77279500D01*
X168447234Y-63988166D02*
X168397219Y-64038181D01*
X113706275Y-76092050D02*
X113706275Y-78187550D01*
X168397219Y-64038181D02*
X154006550Y-64038181D01*
X171697650Y-67238582D02*
X168447234Y-63988166D01*
%TO.N,MOR1*%
X173104175Y-85753575D02*
X171567475Y-87290275D01*
X162248775Y-65998800D02*
X162248775Y-66021025D01*
X171567475Y-87290275D02*
X171135675Y-87290275D01*
X168960800Y-77673200D02*
X170421300Y-76212700D01*
X162248775Y-66021025D02*
X160975675Y-67294125D01*
X167782875Y-65319275D02*
X162928300Y-65319275D01*
X116808250Y-85407500D02*
X116711217Y-85504533D01*
X160975675Y-69075300D02*
X150863300Y-79187675D01*
X162928300Y-65319275D02*
X162248775Y-65998800D01*
X147964525Y-79187675D02*
X146354800Y-80797400D01*
X104500000Y-89670300D02*
X105413175Y-88757125D01*
X104500000Y-90106500D02*
X104500000Y-89670300D01*
X124894975Y-85407500D02*
X116808250Y-85407500D01*
X146354800Y-80797400D02*
X142468600Y-80797400D01*
X128552575Y-89065100D02*
X124894975Y-85407500D01*
X170421300Y-76212700D02*
X170421300Y-67957700D01*
X105413175Y-88757125D02*
X109061250Y-88757125D01*
X136432925Y-89065100D02*
X128552575Y-89065100D01*
X139547600Y-85950425D02*
X136432925Y-89065100D01*
X150863300Y-79187675D02*
X147964525Y-79187675D01*
X112480725Y-85337650D02*
X116738400Y-85337650D01*
X142468600Y-80797400D02*
X139547600Y-83718400D01*
X116738400Y-85337650D02*
X116808250Y-85407500D01*
X139547600Y-83718400D02*
X139547600Y-85950425D01*
X160975675Y-67294125D02*
X160975675Y-69075300D01*
X170421300Y-67957700D02*
X167782875Y-65319275D01*
X109061250Y-88757125D02*
X112480725Y-85337650D01*
%TO.N,SPI2_MISO*%
X182441850Y-90985975D02*
X176676050Y-90985975D01*
X182803800Y-90624025D02*
X182441850Y-90985975D01*
%TO.N,ENC2*%
X150272750Y-59991625D02*
X150202900Y-59921775D01*
X150202900Y-59921775D02*
X150098125Y-59921775D01*
X174453550Y-65147825D02*
X174453550Y-63690500D01*
X170894375Y-59991625D02*
X150272750Y-59991625D01*
X170894375Y-60131325D02*
X170894375Y-59991625D01*
X149505750Y-59329400D02*
X149440000Y-59329400D01*
X150098125Y-59921775D02*
X149505750Y-59329400D01*
X174453550Y-63690500D02*
X170894375Y-60131325D01*
%TO.N,U3-40-PC9*%
X178285775Y-70564375D02*
X178285775Y-65213965D01*
X171701360Y-58629550D02*
X151771350Y-58629550D01*
X177155475Y-79609950D02*
X177470604Y-79609950D01*
X177470604Y-79609950D02*
X180101875Y-76978679D01*
X150133050Y-56991250D02*
X149428200Y-56991250D01*
X151771350Y-58629550D02*
X150133050Y-56991250D01*
X180238325Y-76812850D02*
X180238325Y-72501050D01*
X178285775Y-65213965D02*
X171701360Y-58629550D01*
X180238325Y-72501050D02*
X179905025Y-72167750D01*
X179905025Y-72167750D02*
X179889150Y-72167750D01*
X180101875Y-76978679D02*
X180101875Y-76949300D01*
X179889150Y-72167750D02*
X178285775Y-70564375D01*
X180101875Y-76949300D02*
X180238325Y-76812850D01*
%TO.N,JKA1-1*%
X163404550Y-73174225D02*
X161753550Y-73174225D01*
X167323304Y-69329300D02*
X163449000Y-73203604D01*
X163449000Y-73218675D02*
X163404550Y-73174225D01*
X169802175Y-69329300D02*
X167323304Y-69329300D01*
X150339425Y-84588350D02*
X150339425Y-84743925D01*
X163449000Y-73203604D02*
X163449000Y-73218675D01*
X161753550Y-73174225D02*
X150339425Y-84588350D01*
%TO.N,JKA1-2*%
X154971800Y-81857264D02*
X162749964Y-74079100D01*
X152123775Y-84750275D02*
X154971800Y-81902250D01*
X167022462Y-70286563D02*
X168251187Y-70286563D01*
X152120600Y-84750275D02*
X152123775Y-84750275D01*
X162749964Y-74079100D02*
X163229925Y-74079100D01*
X154971800Y-81902250D02*
X154971800Y-81857264D01*
X163229925Y-74079100D02*
X167022462Y-70286563D01*
%TO.N,WPROT_3V3*%
X167078025Y-68726050D02*
X165557200Y-68726050D01*
X164684075Y-68691125D02*
X149142450Y-84232750D01*
X148907500Y-84467700D02*
X149183725Y-84191475D01*
X148304250Y-85070950D02*
X148907500Y-84467700D01*
X142919450Y-85070950D02*
X148304250Y-85070950D01*
X141693900Y-86296500D02*
X142919450Y-85070950D01*
X165522275Y-68691125D02*
X164684075Y-68691125D01*
X165557200Y-68726050D02*
X165522275Y-68691125D01*
%TO.N,SEL*%
X182880000Y-76200000D02*
X175260000Y-83820000D01*
X144272000Y-88303100D02*
X144551400Y-88023700D01*
X159315150Y-83820000D02*
X158111825Y-82616675D01*
X128282700Y-97697925D02*
X114077750Y-97697925D01*
X134762875Y-97701100D02*
X144160875Y-88303100D01*
X144551400Y-88023700D02*
X156549725Y-88023700D01*
X196399150Y-61409500D02*
X195130500Y-61409500D01*
X157445075Y-83283425D02*
X158111825Y-82616675D01*
X128470025Y-97701100D02*
X134762875Y-97701100D01*
X112264825Y-95885000D02*
X112264825Y-94913450D01*
X157445075Y-87128350D02*
X157445075Y-83283425D01*
X128374775Y-97605850D02*
X128470025Y-97701100D01*
X182880000Y-73660000D02*
X182880000Y-76200000D01*
X175260000Y-83820000D02*
X159315150Y-83820000D01*
X114077750Y-97697925D02*
X112264825Y-95885000D01*
X156549725Y-88023700D02*
X157445075Y-87128350D01*
X144160875Y-88303100D02*
X144272000Y-88303100D01*
X128374775Y-97605850D02*
X128282700Y-97697925D01*
X195130500Y-61409500D02*
X182880000Y-73660000D01*
%TO.N,STEP*%
X156695775Y-85931375D02*
X156695775Y-85858350D01*
X144103725Y-87576025D02*
X155051125Y-87576025D01*
X155051125Y-87576025D02*
X156695775Y-85931375D01*
X136329738Y-95350012D02*
X144103725Y-87576025D01*
X114892137Y-95350012D02*
X136329738Y-95350012D01*
%TO.N,WGATE*%
X112537875Y-86874350D02*
X112537875Y-86915625D01*
X139979400Y-90093800D02*
X127993775Y-90093800D01*
X143414700Y-86658500D02*
X139979400Y-90093800D01*
X112537875Y-86915625D02*
X102079425Y-97374075D01*
X164228485Y-75774550D02*
X164109400Y-75774550D01*
X118465600Y-86874350D02*
X112537875Y-86874350D01*
X124282200Y-86382225D02*
X118957725Y-86382225D01*
X161880014Y-76546075D02*
X155922395Y-82503694D01*
X155922395Y-82503694D02*
X155922395Y-83967369D01*
X100666550Y-100630553D02*
X100666550Y-100634800D01*
X102079425Y-99217678D02*
X100666550Y-100630553D01*
X164109400Y-75774550D02*
X163337875Y-76546075D01*
X118957725Y-86382225D02*
X118465600Y-86874350D01*
X164731775Y-75271260D02*
X164228485Y-75774550D01*
X153231264Y-86658500D02*
X143414700Y-86658500D01*
X163337875Y-76546075D02*
X161880014Y-76546075D01*
X127993775Y-90093800D02*
X124282200Y-86382225D01*
X102079425Y-97374075D02*
X102079425Y-99217678D01*
X155922395Y-83967369D02*
X153231264Y-86658500D01*
%TO.N,INDEX*%
X116614575Y-82407125D02*
X122710575Y-82407125D01*
X122710575Y-82407125D02*
X122796300Y-82321400D01*
%TO.N,WPROT*%
X109855000Y-92748100D02*
X109680375Y-92748100D01*
X118576725Y-92329000D02*
X118576725Y-92468700D01*
X118576725Y-92468700D02*
X118471950Y-92573475D01*
X109680375Y-92748100D02*
X102422325Y-100006150D01*
X121834275Y-89071450D02*
X118576725Y-92329000D01*
X110029625Y-92573475D02*
X109855000Y-92748100D01*
X118471950Y-92573475D02*
X110029625Y-92573475D01*
X102422325Y-100006150D02*
X102422325Y-103959025D01*
X102422325Y-103959025D02*
X100666550Y-105714800D01*
X121834275Y-88871425D02*
X121834275Y-89071450D01*
%TO.N,RDATA*%
X128231900Y-93198950D02*
X128724025Y-92706825D01*
X100666550Y-108254800D02*
X102841425Y-106079925D01*
X102841425Y-106079925D02*
X102841425Y-100387150D01*
X110029625Y-93198950D02*
X128231900Y-93198950D01*
X102841425Y-100387150D02*
X110029625Y-93198950D01*
%TO.N,TRK0*%
X102022325Y-99840464D02*
X109771914Y-92090875D01*
X116617750Y-92090875D02*
X120094375Y-88614250D01*
X100666550Y-103174800D02*
X102022325Y-101819025D01*
X109771914Y-92090875D02*
X116617750Y-92090875D01*
X102022325Y-101819025D02*
X102022325Y-99840464D01*
X120094375Y-88614250D02*
X120094375Y-88550750D01*
%TO.N,SIDE1*%
X164182425Y-77358875D02*
X165331775Y-76209525D01*
X103260525Y-100841175D02*
X109788250Y-94313450D01*
X136407525Y-94351475D02*
X143700500Y-87058500D01*
X165331775Y-76209525D02*
X165331775Y-74498200D01*
X153396950Y-87058500D02*
X156222700Y-84232750D01*
X156362400Y-82629375D02*
X161632900Y-77358875D01*
X156222700Y-84232750D02*
X156362400Y-84232750D01*
X136369500Y-94313450D02*
X136407525Y-94351475D01*
X161632900Y-77358875D02*
X164182425Y-77358875D01*
X109788250Y-94313450D02*
X136369500Y-94313450D01*
X100666550Y-110794800D02*
X103260525Y-108200825D01*
X103260525Y-108200825D02*
X103260525Y-100841175D01*
X156362400Y-84232750D02*
X156362400Y-82629375D01*
X143700500Y-87058500D02*
X153396950Y-87058500D01*
%TO.N,WDATA*%
X164861875Y-73520300D02*
X163810950Y-74571225D01*
X169110025Y-75923775D02*
X168468675Y-75923775D01*
X152895200Y-86258500D02*
X143211450Y-86258500D01*
X155371800Y-82296000D02*
X155371800Y-83781900D01*
X155371800Y-83781900D02*
X152895200Y-86258500D01*
X166106475Y-73561575D02*
X164903150Y-73561575D01*
X118458714Y-86315550D02*
X112457296Y-86315550D01*
X139890500Y-89579450D02*
X128317625Y-89579450D01*
X169113200Y-75920600D02*
X169110025Y-75923775D01*
X164903150Y-73561575D02*
X164861875Y-73520300D01*
X163810950Y-74571225D02*
X163096575Y-74571225D01*
X112457296Y-86315550D02*
X100678046Y-98094800D01*
X168468675Y-75923775D02*
X166106475Y-73561575D01*
X118792039Y-85982225D02*
X118458714Y-86315550D01*
X124720400Y-85982225D02*
X118792039Y-85982225D01*
X143211450Y-86258500D02*
X139890500Y-89579450D01*
X163096575Y-74571225D02*
X155371800Y-82296000D01*
X128317625Y-89579450D02*
X124720400Y-85982225D01*
X100678046Y-98094800D02*
X100666550Y-98094800D01*
%TO.N,BUT_L*%
X202485625Y-65633600D02*
X202485625Y-68846700D01*
X202485625Y-68846700D02*
X200666369Y-68846700D01*
X174531458Y-92513050D02*
X166246075Y-92513050D01*
X181143275Y-90189050D02*
X176855458Y-90189050D01*
X198673125Y-70839944D02*
X198673125Y-72659200D01*
X198673125Y-72659200D02*
X181143275Y-90189050D01*
X200666369Y-68846700D02*
X198673125Y-70839944D01*
X176855458Y-90189050D02*
X174531458Y-92513050D01*
X166246075Y-92513050D02*
X160645475Y-86912450D01*
%TO.N,BUT_R*%
X174365772Y-92113050D02*
X176740622Y-89738200D01*
X197672175Y-72793375D02*
X197672175Y-69129425D01*
X163887150Y-88198861D02*
X167801339Y-92113050D01*
X201258425Y-63800244D02*
X201258425Y-59503300D01*
X163887150Y-86931500D02*
X163887150Y-88198861D01*
X201298125Y-65503475D02*
X201298125Y-63839944D01*
X201298125Y-63839944D02*
X201258425Y-63800244D01*
X176740622Y-89738200D02*
X180727350Y-89738200D01*
X201258425Y-59503300D02*
X202345925Y-58415800D01*
X167801339Y-92113050D02*
X174365772Y-92113050D01*
X197672175Y-69129425D02*
X201298125Y-65503475D01*
X180727350Y-89738200D02*
X197672175Y-72793375D01*
%TO.N,INDEX_3V3*%
X148386800Y-80333850D02*
X151085550Y-80333850D01*
X142071725Y-83404075D02*
X145386425Y-83404075D01*
X145386425Y-83404075D02*
X145386425Y-83334225D01*
X151085550Y-80333850D02*
X162931475Y-68487925D01*
X145386425Y-83334225D02*
X148386800Y-80333850D01*
X162931475Y-68487925D02*
X162931475Y-68338700D01*
%TO.N,TRK0_3V3*%
X161785300Y-68922900D02*
X161785300Y-67446525D01*
X161785300Y-67446525D02*
X163379150Y-65852675D01*
X163379150Y-65852675D02*
X166697025Y-65852675D01*
X151037925Y-79670275D02*
X161785300Y-68922900D01*
X166697025Y-65852675D02*
X167465375Y-66621025D01*
X144157700Y-81397400D02*
X146415200Y-81397400D01*
X148142325Y-79670275D02*
X151037925Y-79670275D01*
X146415200Y-81397400D02*
X148142325Y-79670275D01*
X167465375Y-66621025D02*
X167484425Y-66621025D01*
%TO.N,READY_3V3*%
X164932261Y-67875150D02*
X149803386Y-83004025D01*
X168446450Y-67875150D02*
X164932261Y-67875150D01*
X168481375Y-67840225D02*
X168446450Y-67875150D01*
X149803386Y-83004025D02*
X148878925Y-83004025D01*
%TO.N,CHNG*%
X122735975Y-78247875D02*
X130898900Y-86410800D01*
X122735975Y-76638025D02*
X122735975Y-78247875D01*
%TO.N,CHNG_3V3*%
X165094600Y-67147125D02*
X165094600Y-67008375D01*
X151269825Y-80971900D02*
X165094600Y-67147125D01*
X149202775Y-80971900D02*
X151269825Y-80971900D01*
%TD*%
%TA.AperFunction,Conductor*%
%TO.N,GND*%
G36*
X98585742Y-55900185D02*
G01*
X98631497Y-55952989D01*
X98641441Y-56022147D01*
X98612416Y-56085703D01*
X98553638Y-56123477D01*
X98539113Y-56126809D01*
X98527915Y-56128677D01*
X98308404Y-56204036D01*
X98308395Y-56204039D01*
X98104271Y-56314506D01*
X98104265Y-56314510D01*
X97921122Y-56457056D01*
X97921119Y-56457059D01*
X97921116Y-56457061D01*
X97921116Y-56457062D01*
X97900912Y-56479010D01*
X97763916Y-56627827D01*
X97636975Y-56822126D01*
X97543742Y-57034674D01*
X97486766Y-57259666D01*
X97486764Y-57259677D01*
X97467600Y-57490968D01*
X97467600Y-57490981D01*
X97486764Y-57722272D01*
X97486766Y-57722283D01*
X97543742Y-57947275D01*
X97636975Y-58159823D01*
X97763916Y-58354122D01*
X97763919Y-58354126D01*
X97763921Y-58354128D01*
X97921116Y-58524888D01*
X97921119Y-58524890D01*
X97921122Y-58524893D01*
X98073428Y-58643438D01*
X98114241Y-58700148D01*
X98117916Y-58769921D01*
X98083284Y-58830604D01*
X98074105Y-58838557D01*
X98074100Y-58838622D01*
X98661841Y-59426362D01*
X98641309Y-59431864D01*
X98504492Y-59510856D01*
X98392781Y-59622567D01*
X98313789Y-59759384D01*
X98308287Y-59779915D01*
X97721712Y-59193340D01*
X97637416Y-59322366D01*
X97637414Y-59322370D01*
X97544217Y-59534839D01*
X97487261Y-59759756D01*
X97468102Y-59990969D01*
X97468102Y-59990980D01*
X97487261Y-60222193D01*
X97544217Y-60447110D01*
X97637416Y-60659584D01*
X97721711Y-60788608D01*
X98308287Y-60202033D01*
X98313789Y-60222566D01*
X98392781Y-60359383D01*
X98504492Y-60471094D01*
X98641309Y-60550086D01*
X98661840Y-60555587D01*
X98074101Y-61143326D01*
X98074112Y-61143503D01*
X98114650Y-61199832D01*
X98118323Y-61269605D01*
X98083692Y-61330288D01*
X98074102Y-61338597D01*
X98074100Y-61338622D01*
X98661841Y-61926362D01*
X98641309Y-61931864D01*
X98504492Y-62010856D01*
X98392781Y-62122567D01*
X98313789Y-62259384D01*
X98308287Y-62279915D01*
X97721712Y-61693340D01*
X97637416Y-61822366D01*
X97637414Y-61822370D01*
X97544217Y-62034839D01*
X97487261Y-62259756D01*
X97468102Y-62490969D01*
X97468102Y-62490980D01*
X97487261Y-62722193D01*
X97544217Y-62947110D01*
X97637416Y-63159584D01*
X97721711Y-63288608D01*
X98308287Y-62702033D01*
X98313789Y-62722566D01*
X98392781Y-62859383D01*
X98504492Y-62971094D01*
X98641309Y-63050086D01*
X98661840Y-63055587D01*
X98163270Y-63554156D01*
X98101947Y-63587641D01*
X98075590Y-63590475D01*
X97925030Y-63590475D01*
X97925023Y-63590476D01*
X97865416Y-63596883D01*
X97730571Y-63647177D01*
X97730564Y-63647181D01*
X97615355Y-63733427D01*
X97615352Y-63733430D01*
X97529106Y-63848639D01*
X97529102Y-63848646D01*
X97478808Y-63983492D01*
X97472401Y-64043091D01*
X97472401Y-64043098D01*
X97472400Y-64043110D01*
X97472400Y-65938845D01*
X97472401Y-65938851D01*
X97478808Y-65998458D01*
X97529102Y-66133303D01*
X97529106Y-66133310D01*
X97615352Y-66248519D01*
X97615355Y-66248522D01*
X97730564Y-66334768D01*
X97730571Y-66334772D01*
X97865417Y-66385066D01*
X97865416Y-66385066D01*
X97872344Y-66385810D01*
X97925027Y-66391475D01*
X99820772Y-66391474D01*
X99880383Y-66385066D01*
X100015231Y-66334771D01*
X100130446Y-66248521D01*
X100216696Y-66133306D01*
X100266991Y-65998458D01*
X100273400Y-65938848D01*
X100273399Y-64043103D01*
X100266991Y-63983492D01*
X100261552Y-63968910D01*
X100216697Y-63848646D01*
X100216693Y-63848639D01*
X100130447Y-63733430D01*
X100130444Y-63733427D01*
X100015235Y-63647181D01*
X100015228Y-63647177D01*
X99880382Y-63596883D01*
X99880383Y-63596883D01*
X99820783Y-63590476D01*
X99820781Y-63590475D01*
X99820773Y-63590475D01*
X99820765Y-63590475D01*
X99670208Y-63590475D01*
X99603169Y-63570790D01*
X99582527Y-63554156D01*
X99083959Y-63055587D01*
X99104491Y-63050086D01*
X99241308Y-62971094D01*
X99353019Y-62859383D01*
X99432011Y-62722566D01*
X99437512Y-62702034D01*
X100024086Y-63288609D01*
X100108384Y-63159581D01*
X100201582Y-62947110D01*
X100258538Y-62722193D01*
X100277698Y-62490980D01*
X100277698Y-62490969D01*
X100258538Y-62259756D01*
X100201582Y-62034839D01*
X100108383Y-61822365D01*
X100024086Y-61693339D01*
X99437512Y-62279914D01*
X99432011Y-62259384D01*
X99353019Y-62122567D01*
X99241308Y-62010856D01*
X99104491Y-61931864D01*
X99083958Y-61926362D01*
X99671697Y-61338622D01*
X99671686Y-61338444D01*
X99631149Y-61282116D01*
X99627476Y-61212343D01*
X99662107Y-61151660D01*
X99671696Y-61143351D01*
X99671698Y-61143325D01*
X99083960Y-60555587D01*
X99104491Y-60550086D01*
X99241308Y-60471094D01*
X99353019Y-60359383D01*
X99432011Y-60222566D01*
X99437512Y-60202034D01*
X100024086Y-60788609D01*
X100108384Y-60659581D01*
X100201582Y-60447110D01*
X100258538Y-60222193D01*
X100277698Y-59990980D01*
X100277698Y-59990969D01*
X100258538Y-59759756D01*
X100201582Y-59534839D01*
X100108383Y-59322365D01*
X100024086Y-59193339D01*
X99437512Y-59779914D01*
X99432011Y-59759384D01*
X99353019Y-59622567D01*
X99241308Y-59510856D01*
X99104491Y-59431864D01*
X99083958Y-59426362D01*
X99671697Y-58838622D01*
X99671669Y-58838172D01*
X99631556Y-58782434D01*
X99627882Y-58712661D01*
X99662514Y-58651978D01*
X99672355Y-58643449D01*
X99824684Y-58524888D01*
X99981879Y-58354128D01*
X100108824Y-58159824D01*
X100202057Y-57947275D01*
X100259034Y-57722280D01*
X100259035Y-57722272D01*
X100278200Y-57490981D01*
X100278200Y-57490968D01*
X100259035Y-57259677D01*
X100259033Y-57259666D01*
X100202057Y-57034674D01*
X100108824Y-56822126D01*
X99981883Y-56627827D01*
X99981880Y-56627824D01*
X99981879Y-56627822D01*
X99824684Y-56457062D01*
X99824679Y-56457058D01*
X99824677Y-56457056D01*
X99641534Y-56314510D01*
X99641528Y-56314506D01*
X99437404Y-56204039D01*
X99437395Y-56204036D01*
X99217884Y-56128677D01*
X99206687Y-56126809D01*
X99143802Y-56096358D01*
X99107362Y-56036743D01*
X99108938Y-55966892D01*
X99148028Y-55908980D01*
X99212222Y-55881395D01*
X99227097Y-55880500D01*
X103902127Y-55880500D01*
X103969166Y-55900185D01*
X104014921Y-55952989D01*
X104024865Y-56022147D01*
X103995840Y-56085703D01*
X103989808Y-56092181D01*
X102237081Y-57844907D01*
X102237079Y-57844910D01*
X102217112Y-57879495D01*
X102197144Y-57914081D01*
X102182824Y-57938883D01*
X102158022Y-57981840D01*
X102158021Y-57981843D01*
X102135425Y-58066171D01*
X102123038Y-58096076D01*
X102088174Y-58156461D01*
X102088173Y-58156465D01*
X102047249Y-58309193D01*
X102047249Y-58309195D01*
X102047249Y-58477296D01*
X102047250Y-58477309D01*
X102047250Y-61612630D01*
X102047249Y-61612648D01*
X102047249Y-61778354D01*
X102047248Y-61778354D01*
X102088174Y-61931089D01*
X102088175Y-61931090D01*
X102109451Y-61967940D01*
X102109452Y-61967942D01*
X102167225Y-62068009D01*
X102167231Y-62068017D01*
X102286099Y-62186885D01*
X102286105Y-62186890D01*
X103169183Y-63069968D01*
X103202668Y-63131291D01*
X103201277Y-63189741D01*
X103166889Y-63318083D01*
X103166886Y-63318096D01*
X103146291Y-63553499D01*
X103146291Y-63553500D01*
X103166886Y-63788903D01*
X103166888Y-63788913D01*
X103228044Y-64017155D01*
X103228046Y-64017159D01*
X103228047Y-64017163D01*
X103297357Y-64165799D01*
X103327915Y-64231330D01*
X103327917Y-64231334D01*
X103408209Y-64346002D01*
X103459081Y-64418655D01*
X103463451Y-64424895D01*
X103463456Y-64424902D01*
X103630547Y-64591993D01*
X103630553Y-64591998D01*
X103816108Y-64721925D01*
X103859733Y-64776502D01*
X103866927Y-64846000D01*
X103835404Y-64908355D01*
X103816108Y-64925075D01*
X103630547Y-65055005D01*
X103463455Y-65222097D01*
X103327915Y-65415669D01*
X103327914Y-65415671D01*
X103228048Y-65629835D01*
X103228044Y-65629844D01*
X103166888Y-65858086D01*
X103166886Y-65858096D01*
X103146291Y-66093499D01*
X103146291Y-66093500D01*
X103166886Y-66328903D01*
X103166888Y-66328913D01*
X103228044Y-66557155D01*
X103228046Y-66557159D01*
X103228047Y-66557163D01*
X103309723Y-66732318D01*
X103327915Y-66771330D01*
X103327917Y-66771334D01*
X103383023Y-66850033D01*
X103463451Y-66964896D01*
X103463456Y-66964902D01*
X103585768Y-67087214D01*
X103619253Y-67148537D01*
X103614269Y-67218229D01*
X103572397Y-67274162D01*
X103541421Y-67291077D01*
X103409862Y-67340146D01*
X103409856Y-67340149D01*
X103294762Y-67426309D01*
X103294759Y-67426312D01*
X103208599Y-67541406D01*
X103208595Y-67541413D01*
X103158353Y-67676120D01*
X103158351Y-67676127D01*
X103151950Y-67735655D01*
X103151950Y-68383500D01*
X104068938Y-68383500D01*
X104036025Y-68440507D01*
X104001950Y-68567674D01*
X104001950Y-68699326D01*
X104036025Y-68826493D01*
X104068938Y-68883500D01*
X103151950Y-68883500D01*
X103151950Y-69531344D01*
X103158351Y-69590872D01*
X103158353Y-69590879D01*
X103208595Y-69725586D01*
X103208599Y-69725593D01*
X103294759Y-69840687D01*
X103294762Y-69840690D01*
X103409856Y-69926850D01*
X103409863Y-69926854D01*
X103544570Y-69977096D01*
X103544577Y-69977098D01*
X103604105Y-69983499D01*
X103604122Y-69983500D01*
X104251950Y-69983500D01*
X104251950Y-69066512D01*
X104308957Y-69099425D01*
X104436124Y-69133500D01*
X104567776Y-69133500D01*
X104694943Y-69099425D01*
X104751950Y-69066512D01*
X104751950Y-69983500D01*
X105399778Y-69983500D01*
X105399794Y-69983499D01*
X105459322Y-69977098D01*
X105459329Y-69977096D01*
X105594036Y-69926854D01*
X105594043Y-69926850D01*
X105709137Y-69840690D01*
X105709140Y-69840687D01*
X105795300Y-69725593D01*
X105795304Y-69725586D01*
X105845546Y-69590879D01*
X105845548Y-69590872D01*
X105851949Y-69531344D01*
X105851950Y-69531327D01*
X105851950Y-69264856D01*
X105871635Y-69197817D01*
X105924439Y-69152062D01*
X105993597Y-69142118D01*
X106057153Y-69171143D01*
X106088332Y-69212451D01*
X106088721Y-69213286D01*
X106088722Y-69213288D01*
X106150716Y-69346235D01*
X106188590Y-69427455D01*
X106188592Y-69427459D01*
X106283946Y-69563637D01*
X106324130Y-69621026D01*
X106491224Y-69788120D01*
X106566302Y-69840690D01*
X106684790Y-69923657D01*
X106684792Y-69923658D01*
X106684795Y-69923660D01*
X106898962Y-70023528D01*
X107127217Y-70084688D01*
X107309568Y-70100642D01*
X107362624Y-70105284D01*
X107362625Y-70105284D01*
X107362626Y-70105284D01*
X107415682Y-70100642D01*
X107598033Y-70084688D01*
X107826288Y-70023528D01*
X108040455Y-69923660D01*
X108234026Y-69788120D01*
X108401120Y-69621026D01*
X108536660Y-69427455D01*
X108539332Y-69421722D01*
X108585503Y-69369283D01*
X108651716Y-69350125D01*
X112052981Y-69350125D01*
X112052997Y-69350126D01*
X112060593Y-69350126D01*
X112218704Y-69350126D01*
X112218707Y-69350126D01*
X112371435Y-69309202D01*
X112447418Y-69265333D01*
X112508366Y-69230145D01*
X112620170Y-69118341D01*
X112620170Y-69118339D01*
X112630374Y-69108136D01*
X112630378Y-69108131D01*
X112703388Y-69035121D01*
X112703391Y-69035120D01*
X112815195Y-68923316D01*
X112820044Y-68914915D01*
X112839748Y-68889235D01*
X116480917Y-65248069D01*
X116542240Y-65214584D01*
X116568598Y-65211750D01*
X138529953Y-65211750D01*
X138596992Y-65231435D01*
X138617634Y-65248069D01*
X139719834Y-66350269D01*
X139753319Y-66411592D01*
X139748335Y-66481284D01*
X139706463Y-66537217D01*
X139640999Y-66561634D01*
X139632153Y-66561950D01*
X138015204Y-66561950D01*
X138015198Y-66561951D01*
X137955591Y-66568358D01*
X137820746Y-66618652D01*
X137820739Y-66618656D01*
X137705530Y-66704902D01*
X137705527Y-66704905D01*
X137619281Y-66820114D01*
X137619277Y-66820121D01*
X137568983Y-66954967D01*
X137562576Y-67014566D01*
X137562397Y-67017902D01*
X137560922Y-67017822D01*
X137542890Y-67079234D01*
X137490086Y-67124989D01*
X137446597Y-67132479D01*
X136763075Y-67816003D01*
X136763075Y-67809789D01*
X136735816Y-67708056D01*
X136683155Y-67616844D01*
X136608681Y-67542370D01*
X136517469Y-67489709D01*
X136415736Y-67462450D01*
X136409520Y-67462450D01*
X137088547Y-66783424D01*
X137015553Y-66732313D01*
X136809406Y-66636185D01*
X136809392Y-66636180D01*
X136589685Y-66577310D01*
X136589674Y-66577308D01*
X136363077Y-66557484D01*
X136363073Y-66557484D01*
X136136475Y-66577308D01*
X136136464Y-66577310D01*
X135916757Y-66636180D01*
X135916748Y-66636184D01*
X135710591Y-66732316D01*
X135710587Y-66732318D01*
X135637601Y-66783423D01*
X135637601Y-66783424D01*
X136316628Y-67462450D01*
X136310414Y-67462450D01*
X136208681Y-67489709D01*
X136117469Y-67542370D01*
X136042995Y-67616844D01*
X135990334Y-67708056D01*
X135963075Y-67809789D01*
X135963075Y-67816002D01*
X135284049Y-67136976D01*
X135284048Y-67136976D01*
X135232943Y-67209962D01*
X135232941Y-67209966D01*
X135136809Y-67416123D01*
X135136805Y-67416132D01*
X135077935Y-67635839D01*
X135077933Y-67635850D01*
X135058109Y-67862447D01*
X135058109Y-67862452D01*
X135077933Y-68089049D01*
X135077935Y-68089060D01*
X135136805Y-68308767D01*
X135136810Y-68308781D01*
X135232938Y-68514928D01*
X135284049Y-68587922D01*
X135963075Y-67908896D01*
X135963075Y-67915111D01*
X135990334Y-68016844D01*
X136042995Y-68108056D01*
X136117469Y-68182530D01*
X136208681Y-68235191D01*
X136310414Y-68262450D01*
X136316628Y-68262450D01*
X135637601Y-68941475D01*
X135710588Y-68992582D01*
X135710596Y-68992586D01*
X135916743Y-69088714D01*
X135916757Y-69088719D01*
X136113645Y-69141475D01*
X136173306Y-69177840D01*
X136203835Y-69240687D01*
X136195540Y-69310063D01*
X136151055Y-69363940D01*
X136084503Y-69385215D01*
X136081552Y-69385250D01*
X123730029Y-69385250D01*
X123662990Y-69365565D01*
X123642348Y-69348931D01*
X123481101Y-69187684D01*
X123447616Y-69126361D01*
X123452600Y-69056669D01*
X123494472Y-69000736D01*
X123557977Y-68976475D01*
X123598086Y-68972966D01*
X123598098Y-68972964D01*
X123817805Y-68914094D01*
X123817819Y-68914089D01*
X124023966Y-68817961D01*
X124096959Y-68766849D01*
X123417934Y-68087825D01*
X123424149Y-68087825D01*
X123525882Y-68060566D01*
X123617094Y-68007905D01*
X123691568Y-67933431D01*
X123744229Y-67842219D01*
X123771488Y-67740486D01*
X123771488Y-67734272D01*
X124455685Y-68418469D01*
X124504680Y-68428316D01*
X124554863Y-68476931D01*
X124569537Y-68532457D01*
X124570587Y-68532401D01*
X124570634Y-68532396D01*
X124570634Y-68532398D01*
X124570812Y-68532389D01*
X124570989Y-68535701D01*
X124577396Y-68595308D01*
X124627690Y-68730153D01*
X124627694Y-68730160D01*
X124713940Y-68845369D01*
X124713943Y-68845372D01*
X124829152Y-68931618D01*
X124829159Y-68931622D01*
X124964005Y-68981916D01*
X124964004Y-68981916D01*
X124970932Y-68982660D01*
X125023615Y-68988325D01*
X126719360Y-68988324D01*
X126778971Y-68981916D01*
X126913819Y-68931621D01*
X127029034Y-68845371D01*
X127115284Y-68730156D01*
X127165579Y-68595308D01*
X127171988Y-68535698D01*
X127171987Y-66839953D01*
X127165579Y-66780342D01*
X127162219Y-66771334D01*
X127115285Y-66645496D01*
X127115281Y-66645489D01*
X127029035Y-66530280D01*
X127029032Y-66530277D01*
X126913823Y-66444031D01*
X126913816Y-66444027D01*
X126778970Y-66393733D01*
X126778971Y-66393733D01*
X126719371Y-66387326D01*
X126719369Y-66387325D01*
X126719361Y-66387325D01*
X126719352Y-66387325D01*
X125023617Y-66387325D01*
X125023611Y-66387326D01*
X124964004Y-66393733D01*
X124829159Y-66444027D01*
X124829152Y-66444031D01*
X124713943Y-66530277D01*
X124713940Y-66530280D01*
X124627694Y-66645489D01*
X124627690Y-66645496D01*
X124577396Y-66780342D01*
X124572152Y-66829125D01*
X124570989Y-66839948D01*
X124570810Y-66843277D01*
X124569335Y-66843197D01*
X124551303Y-66904609D01*
X124498499Y-66950364D01*
X124455010Y-66957854D01*
X123771488Y-67641376D01*
X123771488Y-67635164D01*
X123744229Y-67533431D01*
X123691568Y-67442219D01*
X123617094Y-67367745D01*
X123525882Y-67315084D01*
X123424149Y-67287825D01*
X123417933Y-67287825D01*
X124096960Y-66608799D01*
X124023966Y-66557688D01*
X123817819Y-66461560D01*
X123817805Y-66461555D01*
X123598098Y-66402685D01*
X123598087Y-66402683D01*
X123371490Y-66382859D01*
X123371486Y-66382859D01*
X123144888Y-66402683D01*
X123144877Y-66402685D01*
X122925170Y-66461555D01*
X122925161Y-66461559D01*
X122719004Y-66557691D01*
X122719000Y-66557693D01*
X122646014Y-66608798D01*
X122646014Y-66608799D01*
X123325041Y-67287825D01*
X123318827Y-67287825D01*
X123217094Y-67315084D01*
X123125882Y-67367745D01*
X123051408Y-67442219D01*
X122998747Y-67533431D01*
X122971488Y-67635164D01*
X122971488Y-67641378D01*
X122292462Y-66962351D01*
X122292461Y-66962351D01*
X122241356Y-67035337D01*
X122241354Y-67035341D01*
X122145222Y-67241498D01*
X122145218Y-67241507D01*
X122086348Y-67461214D01*
X122086346Y-67461224D01*
X122082837Y-67501337D01*
X122057384Y-67566406D01*
X122000793Y-67607384D01*
X121931031Y-67611262D01*
X121871628Y-67578210D01*
X121479507Y-67186089D01*
X121456852Y-67150016D01*
X121455012Y-67150903D01*
X121451992Y-67144633D01*
X121447181Y-67136976D01*
X121356016Y-66991888D01*
X121228462Y-66864334D01*
X121194823Y-66843197D01*
X121075723Y-66768361D01*
X120905454Y-66708781D01*
X120905449Y-66708780D01*
X120726204Y-66688585D01*
X120726196Y-66688585D01*
X120546950Y-66708780D01*
X120546945Y-66708781D01*
X120376676Y-66768361D01*
X120223937Y-66864334D01*
X120096384Y-66991887D01*
X120000411Y-67144626D01*
X119940831Y-67314895D01*
X119940830Y-67314900D01*
X119920635Y-67494146D01*
X119920635Y-67494153D01*
X119940830Y-67673399D01*
X119940832Y-67673407D01*
X119972309Y-67763363D01*
X119975870Y-67833142D01*
X119941141Y-67893769D01*
X119879148Y-67925996D01*
X119814313Y-67921359D01*
X119724357Y-67889882D01*
X119724349Y-67889880D01*
X119545104Y-67869685D01*
X119545096Y-67869685D01*
X119365850Y-67889880D01*
X119365845Y-67889881D01*
X119195576Y-67949461D01*
X119042837Y-68045434D01*
X118915284Y-68172987D01*
X118819311Y-68325726D01*
X118759731Y-68495995D01*
X118759730Y-68496000D01*
X118739535Y-68675246D01*
X118739535Y-68675253D01*
X118759730Y-68854499D01*
X118759731Y-68854504D01*
X118819313Y-69024779D01*
X118821782Y-69029905D01*
X118833136Y-69098846D01*
X118805414Y-69162981D01*
X118747419Y-69201947D01*
X118677564Y-69203373D01*
X118669109Y-69200750D01*
X118606757Y-69178932D01*
X118606749Y-69178930D01*
X118427504Y-69158735D01*
X118427496Y-69158735D01*
X118248250Y-69178930D01*
X118248245Y-69178931D01*
X118077976Y-69238511D01*
X117925237Y-69334484D01*
X117797684Y-69462037D01*
X117701711Y-69614776D01*
X117642131Y-69785045D01*
X117642130Y-69785050D01*
X117621935Y-69964296D01*
X117621935Y-69964303D01*
X117642130Y-70143549D01*
X117642131Y-70143554D01*
X117701711Y-70313823D01*
X117782431Y-70442287D01*
X117797684Y-70466562D01*
X117925238Y-70594116D01*
X118077978Y-70690089D01*
X118248245Y-70749668D01*
X118335169Y-70759461D01*
X118399580Y-70786526D01*
X118408965Y-70795000D01*
X118877459Y-71263494D01*
X118910944Y-71324817D01*
X118905960Y-71394509D01*
X118864088Y-71450442D01*
X118798624Y-71474859D01*
X118789778Y-71475175D01*
X117145744Y-71475175D01*
X117145728Y-71475174D01*
X117138132Y-71475174D01*
X116980018Y-71475174D01*
X116903654Y-71495636D01*
X116827287Y-71516098D01*
X116819206Y-71520765D01*
X116819204Y-71520766D01*
X116690362Y-71595152D01*
X116690357Y-71595156D01*
X112216106Y-76069407D01*
X112216104Y-76069410D01*
X112183117Y-76126547D01*
X112183116Y-76126548D01*
X112137048Y-76206339D01*
X112137047Y-76206342D01*
X112132063Y-76224941D01*
X112099971Y-76280524D01*
X112066811Y-76313684D01*
X111970836Y-76466426D01*
X111911256Y-76636695D01*
X111911255Y-76636700D01*
X111891060Y-76815946D01*
X111891060Y-76815953D01*
X111911255Y-76995199D01*
X111911256Y-76995204D01*
X111970836Y-77165473D01*
X112053598Y-77297187D01*
X112066809Y-77318212D01*
X112194363Y-77445766D01*
X112219819Y-77461761D01*
X112343367Y-77539392D01*
X112347103Y-77541739D01*
X112456447Y-77580000D01*
X112517370Y-77601318D01*
X112517375Y-77601319D01*
X112696621Y-77621515D01*
X112696625Y-77621515D01*
X112696629Y-77621515D01*
X112875871Y-77601319D01*
X112875870Y-77601319D01*
X112875880Y-77601318D01*
X112875888Y-77601314D01*
X112879773Y-77600429D01*
X112882366Y-77600587D01*
X112882800Y-77600539D01*
X112882808Y-77600614D01*
X112949512Y-77604699D01*
X113005871Y-77645995D01*
X113030958Y-77711206D01*
X113016806Y-77779628D01*
X113012366Y-77787290D01*
X112980486Y-77838027D01*
X112920906Y-78008295D01*
X112920905Y-78008300D01*
X112900710Y-78187546D01*
X112900710Y-78187553D01*
X112920905Y-78366799D01*
X112920906Y-78366804D01*
X112980486Y-78537073D01*
X113076459Y-78689812D01*
X113204013Y-78817366D01*
X113271852Y-78859992D01*
X113310316Y-78884161D01*
X113356753Y-78913339D01*
X113489945Y-78959945D01*
X113527020Y-78972918D01*
X113527025Y-78972919D01*
X113706271Y-78993115D01*
X113706275Y-78993115D01*
X113706278Y-78993115D01*
X113774341Y-78985446D01*
X113843163Y-78997500D01*
X113894543Y-79044849D01*
X113912225Y-79108666D01*
X113912225Y-79574362D01*
X113908000Y-79606455D01*
X113875711Y-79726959D01*
X113875711Y-79895062D01*
X113875712Y-79895075D01*
X113875712Y-80010199D01*
X113856027Y-80077238D01*
X113848662Y-80087508D01*
X113846398Y-80090346D01*
X113750423Y-80243088D01*
X113690843Y-80413357D01*
X113690842Y-80413362D01*
X113670647Y-80592608D01*
X113670647Y-80592615D01*
X113690842Y-80771861D01*
X113690843Y-80771866D01*
X113750423Y-80942135D01*
X113823084Y-81057773D01*
X113846396Y-81094874D01*
X113973950Y-81222428D01*
X114126690Y-81318401D01*
X114226420Y-81353298D01*
X114279604Y-81371908D01*
X114336380Y-81412630D01*
X114362127Y-81477583D01*
X114348671Y-81546145D01*
X114300283Y-81596547D01*
X114238649Y-81612950D01*
X112860198Y-81612950D01*
X112793159Y-81593265D01*
X112772517Y-81576631D01*
X111171269Y-79975383D01*
X111137784Y-79914060D01*
X111134950Y-79887702D01*
X111134950Y-73337797D01*
X111154635Y-73270758D01*
X111171269Y-73250116D01*
X112624430Y-71796955D01*
X114110221Y-70311163D01*
X114171542Y-70277680D01*
X114211784Y-70275626D01*
X114258723Y-70280915D01*
X114258725Y-70280915D01*
X114258729Y-70280915D01*
X114437974Y-70260719D01*
X114437977Y-70260718D01*
X114437980Y-70260718D01*
X114608247Y-70201139D01*
X114760987Y-70105166D01*
X114888541Y-69977612D01*
X114984514Y-69824872D01*
X115044093Y-69654605D01*
X115044094Y-69654599D01*
X115064290Y-69475353D01*
X115064290Y-69475346D01*
X115044094Y-69296100D01*
X115044093Y-69296095D01*
X115023943Y-69238511D01*
X114984514Y-69125828D01*
X114973674Y-69108577D01*
X114927518Y-69035120D01*
X114888541Y-68973088D01*
X114760987Y-68845534D01*
X114730798Y-68826565D01*
X114608248Y-68749561D01*
X114437979Y-68689981D01*
X114437974Y-68689980D01*
X114258729Y-68669785D01*
X114258721Y-68669785D01*
X114079475Y-68689980D01*
X114079470Y-68689981D01*
X113909201Y-68749561D01*
X113756462Y-68845534D01*
X113628909Y-68973087D01*
X113532937Y-69125825D01*
X113532936Y-69125826D01*
X113507753Y-69197794D01*
X113478393Y-69244519D01*
X110165736Y-72557178D01*
X110053931Y-72668982D01*
X110053929Y-72668985D01*
X110040160Y-72692834D01*
X110020246Y-72727327D01*
X109974873Y-72805915D01*
X109933949Y-72958643D01*
X109933949Y-72958645D01*
X109933949Y-73126746D01*
X109933950Y-73126759D01*
X109933950Y-80101130D01*
X109933949Y-80101148D01*
X109933949Y-80266854D01*
X109933948Y-80266854D01*
X109974873Y-80419586D01*
X109974874Y-80419587D01*
X110003771Y-80469638D01*
X110053930Y-80556516D01*
X110053932Y-80556518D01*
X110172799Y-80675385D01*
X110172804Y-80675389D01*
X112191384Y-82693970D01*
X112191386Y-82693971D01*
X112191390Y-82693974D01*
X112318320Y-82767256D01*
X112328316Y-82773027D01*
X112481043Y-82813951D01*
X112481045Y-82813951D01*
X112646754Y-82813951D01*
X112646770Y-82813950D01*
X114765770Y-82813950D01*
X114827769Y-82830562D01*
X114909590Y-82877802D01*
X115062318Y-82918726D01*
X115062321Y-82918726D01*
X115220429Y-82918726D01*
X115220432Y-82918726D01*
X115373160Y-82877802D01*
X115510091Y-82798744D01*
X115661994Y-82646840D01*
X115723314Y-82613358D01*
X115793005Y-82618342D01*
X115848939Y-82660213D01*
X115866714Y-82693569D01*
X115888786Y-82756647D01*
X115984759Y-82909387D01*
X116112313Y-83036941D01*
X116164632Y-83069815D01*
X116260701Y-83130180D01*
X116265053Y-83132914D01*
X116408708Y-83183181D01*
X116435320Y-83192493D01*
X116435325Y-83192494D01*
X116614571Y-83212690D01*
X116614575Y-83212690D01*
X116614579Y-83212690D01*
X116793824Y-83192494D01*
X116793827Y-83192493D01*
X116793830Y-83192493D01*
X116964097Y-83132914D01*
X117116837Y-83036941D01*
X117116842Y-83036935D01*
X117119672Y-83034680D01*
X117121850Y-83033790D01*
X117122733Y-83033236D01*
X117122830Y-83033390D01*
X117184358Y-83008270D01*
X117196987Y-83007625D01*
X122348088Y-83007625D01*
X122414060Y-83026631D01*
X122446777Y-83047189D01*
X122446781Y-83047190D01*
X122617037Y-83106766D01*
X122617043Y-83106767D01*
X122617045Y-83106768D01*
X122617046Y-83106768D01*
X122617050Y-83106769D01*
X122796296Y-83126965D01*
X122796300Y-83126965D01*
X122796304Y-83126965D01*
X122975549Y-83106769D01*
X122975552Y-83106768D01*
X122975555Y-83106768D01*
X123145822Y-83047189D01*
X123298562Y-82951216D01*
X123426116Y-82823662D01*
X123522089Y-82670922D01*
X123581668Y-82500655D01*
X123582819Y-82490438D01*
X123601865Y-82321403D01*
X123601865Y-82321396D01*
X123581669Y-82142150D01*
X123581668Y-82142145D01*
X123556559Y-82070389D01*
X123522089Y-81971878D01*
X123426116Y-81819138D01*
X123298562Y-81691584D01*
X123290272Y-81686375D01*
X123145823Y-81595611D01*
X122975554Y-81536031D01*
X122975549Y-81536030D01*
X122796304Y-81515835D01*
X122796296Y-81515835D01*
X122617050Y-81536030D01*
X122617045Y-81536031D01*
X122446776Y-81595611D01*
X122294037Y-81691584D01*
X122215316Y-81770306D01*
X122153993Y-81803791D01*
X122127635Y-81806625D01*
X117196987Y-81806625D01*
X117129948Y-81786940D01*
X117119672Y-81779570D01*
X117116838Y-81777310D01*
X117116837Y-81777309D01*
X116964097Y-81681336D01*
X116952063Y-81677125D01*
X116901019Y-81659264D01*
X116844243Y-81618542D01*
X116818496Y-81553589D01*
X116831952Y-81485027D01*
X116854290Y-81454544D01*
X121722052Y-76586782D01*
X121783373Y-76553299D01*
X121853065Y-76558283D01*
X121908998Y-76600155D01*
X121932951Y-76660582D01*
X121950605Y-76817274D01*
X121950606Y-76817279D01*
X122010186Y-76987548D01*
X122046056Y-77044634D01*
X122101592Y-77133019D01*
X122106160Y-77140288D01*
X122108420Y-77143122D01*
X122109309Y-77145300D01*
X122109864Y-77146183D01*
X122109709Y-77146280D01*
X122134830Y-77207808D01*
X122135475Y-77220437D01*
X122135475Y-78161205D01*
X122135474Y-78161223D01*
X122135474Y-78326929D01*
X122135473Y-78326929D01*
X122176399Y-78479664D01*
X122180301Y-78486422D01*
X122180305Y-78486427D01*
X122255452Y-78616587D01*
X122255456Y-78616592D01*
X122374324Y-78735460D01*
X122374330Y-78735465D01*
X130068198Y-86429333D01*
X130101683Y-86490656D01*
X130103737Y-86503130D01*
X130113530Y-86590049D01*
X130173110Y-86760321D01*
X130258552Y-86896301D01*
X130269084Y-86913062D01*
X130396638Y-87040616D01*
X130462290Y-87081868D01*
X130526164Y-87122003D01*
X130549378Y-87136589D01*
X130623596Y-87162559D01*
X130719645Y-87196168D01*
X130719650Y-87196169D01*
X130898896Y-87216365D01*
X130898900Y-87216365D01*
X130898904Y-87216365D01*
X131078149Y-87196169D01*
X131078152Y-87196168D01*
X131078155Y-87196168D01*
X131248422Y-87136589D01*
X131401162Y-87040616D01*
X131528716Y-86913062D01*
X131624689Y-86760322D01*
X131684268Y-86590055D01*
X131684269Y-86590049D01*
X131704465Y-86410803D01*
X131704465Y-86410796D01*
X131684269Y-86231550D01*
X131684268Y-86231545D01*
X131644274Y-86117250D01*
X131624689Y-86061278D01*
X131528716Y-85908538D01*
X131401162Y-85780984D01*
X131319945Y-85729952D01*
X131248421Y-85685010D01*
X131078149Y-85625430D01*
X130991230Y-85615637D01*
X130926816Y-85588570D01*
X130917433Y-85580098D01*
X123372794Y-78035459D01*
X123339309Y-77974136D01*
X123336475Y-77947778D01*
X123336475Y-77220437D01*
X123356160Y-77153398D01*
X123363530Y-77143122D01*
X123365785Y-77140292D01*
X123365791Y-77140287D01*
X123461764Y-76987547D01*
X123521343Y-76817280D01*
X123521493Y-76815950D01*
X123541540Y-76638028D01*
X123541540Y-76638021D01*
X123521344Y-76458775D01*
X123521343Y-76458770D01*
X123511902Y-76431790D01*
X123461764Y-76288503D01*
X123461548Y-76288160D01*
X123410139Y-76206342D01*
X123365791Y-76135763D01*
X123238237Y-76008209D01*
X123172561Y-75966942D01*
X123085498Y-75912236D01*
X122915229Y-75852656D01*
X122915224Y-75852655D01*
X122758532Y-75835001D01*
X122694118Y-75807935D01*
X122654562Y-75750340D01*
X122652425Y-75680503D01*
X122684732Y-75624102D01*
X123203237Y-75105597D01*
X123264558Y-75072114D01*
X123327734Y-75075987D01*
X123327813Y-75075645D01*
X123329894Y-75076120D01*
X123331876Y-75076241D01*
X123334595Y-75077193D01*
X123334599Y-75077193D01*
X123334601Y-75077194D01*
X123513846Y-75097390D01*
X123513850Y-75097390D01*
X123513854Y-75097390D01*
X123693099Y-75077194D01*
X123693102Y-75077193D01*
X123693105Y-75077193D01*
X123863372Y-75017614D01*
X124016112Y-74921641D01*
X124016117Y-74921635D01*
X124018947Y-74919380D01*
X124021125Y-74918490D01*
X124022008Y-74917936D01*
X124022105Y-74918090D01*
X124083633Y-74892970D01*
X124096262Y-74892325D01*
X141345369Y-74892325D01*
X141365416Y-74894964D01*
X141365486Y-74894439D01*
X141373542Y-74895499D01*
X141373543Y-74895500D01*
X141515156Y-74895500D01*
X141515172Y-74895501D01*
X141522768Y-74895501D01*
X141680879Y-74895501D01*
X141680882Y-74895501D01*
X141833610Y-74854577D01*
X141883729Y-74825639D01*
X141970541Y-74775520D01*
X142082345Y-74663716D01*
X142082345Y-74663714D01*
X142092553Y-74653507D01*
X142092554Y-74653504D01*
X145902572Y-70843489D01*
X145963895Y-70810004D01*
X145990253Y-70807170D01*
X149426186Y-70807170D01*
X149426202Y-70807171D01*
X149433798Y-70807171D01*
X149591909Y-70807171D01*
X149591912Y-70807171D01*
X149744640Y-70766247D01*
X149794759Y-70737309D01*
X149881571Y-70687190D01*
X149993375Y-70575386D01*
X149993375Y-70575384D01*
X150003583Y-70565177D01*
X150003584Y-70565174D01*
X152530754Y-68038005D01*
X152592076Y-68004521D01*
X152661768Y-68009505D01*
X152717701Y-68051377D01*
X152742118Y-68116841D01*
X152730816Y-68178092D01*
X152658701Y-68332743D01*
X152658697Y-68332752D01*
X152602068Y-68544095D01*
X152602068Y-68544099D01*
X152582998Y-68762072D01*
X152582998Y-68762077D01*
X152602068Y-68980050D01*
X152602068Y-68980054D01*
X152658697Y-69191397D01*
X152658699Y-69191401D01*
X152658700Y-69191405D01*
X152692951Y-69264856D01*
X152751172Y-69389713D01*
X152770350Y-69417102D01*
X152876677Y-69568952D01*
X153031398Y-69723673D01*
X153210636Y-69849177D01*
X153408945Y-69941650D01*
X153620298Y-69998282D01*
X153803201Y-70014283D01*
X153838273Y-70017352D01*
X153838275Y-70017352D01*
X153838277Y-70017352D01*
X153866529Y-70014880D01*
X154056252Y-69998282D01*
X154267605Y-69941650D01*
X154465914Y-69849177D01*
X154645152Y-69723673D01*
X154799873Y-69568952D01*
X154925377Y-69389714D01*
X155017850Y-69191405D01*
X155074482Y-68980052D01*
X155093552Y-68762075D01*
X155090584Y-68728155D01*
X155087245Y-68689981D01*
X155074482Y-68544098D01*
X155019590Y-68339237D01*
X155017852Y-68332752D01*
X155017851Y-68332751D01*
X155017850Y-68332745D01*
X154925377Y-68134437D01*
X154925375Y-68134434D01*
X154925374Y-68134432D01*
X154799874Y-67955199D01*
X154722899Y-67878224D01*
X154645152Y-67800477D01*
X154465914Y-67674973D01*
X154465915Y-67674973D01*
X154465913Y-67674972D01*
X154334434Y-67613663D01*
X154267605Y-67582500D01*
X154267601Y-67582499D01*
X154267597Y-67582497D01*
X154056252Y-67525868D01*
X153838277Y-67506798D01*
X153838273Y-67506798D01*
X153701431Y-67518770D01*
X153620298Y-67525868D01*
X153620295Y-67525868D01*
X153408952Y-67582497D01*
X153408943Y-67582501D01*
X153254292Y-67654616D01*
X153185214Y-67665108D01*
X153121430Y-67636588D01*
X153083191Y-67578112D01*
X153082636Y-67508244D01*
X153114204Y-67454554D01*
X153774466Y-66794294D01*
X153835789Y-66760809D01*
X153862147Y-66757975D01*
X160377049Y-66757975D01*
X160444088Y-66777660D01*
X160489843Y-66830464D01*
X160499787Y-66899622D01*
X160484436Y-66943974D01*
X160447887Y-67007280D01*
X160416098Y-67062340D01*
X160375174Y-67215068D01*
X160375174Y-67215070D01*
X160375174Y-67383171D01*
X160375175Y-67383184D01*
X160375175Y-68775202D01*
X160355490Y-68842241D01*
X160338856Y-68862883D01*
X155291682Y-73910056D01*
X155230359Y-73943541D01*
X155160667Y-73938557D01*
X155104734Y-73896685D01*
X155080317Y-73831221D01*
X155080473Y-73811568D01*
X155081171Y-73803597D01*
X155093552Y-73662075D01*
X155074482Y-73444098D01*
X155017850Y-73232745D01*
X154925377Y-73034437D01*
X154925375Y-73034434D01*
X154925374Y-73034432D01*
X154799874Y-72855199D01*
X154725827Y-72781152D01*
X154645152Y-72700477D01*
X154473296Y-72580142D01*
X154465913Y-72574972D01*
X154366759Y-72528736D01*
X154267605Y-72482500D01*
X154267601Y-72482499D01*
X154267597Y-72482497D01*
X154056252Y-72425868D01*
X153838277Y-72406798D01*
X153838273Y-72406798D01*
X153698447Y-72419031D01*
X153620298Y-72425868D01*
X153620295Y-72425868D01*
X153408952Y-72482497D01*
X153408943Y-72482501D01*
X153210636Y-72574973D01*
X153210632Y-72574975D01*
X153031396Y-72700477D01*
X152876677Y-72855196D01*
X152751175Y-73034432D01*
X152751173Y-73034436D01*
X152658701Y-73232743D01*
X152658697Y-73232752D01*
X152602068Y-73444095D01*
X152602068Y-73444099D01*
X152582998Y-73662072D01*
X152582998Y-73662077D01*
X152590607Y-73749046D01*
X152601121Y-73869232D01*
X152602068Y-73880050D01*
X152602068Y-73880054D01*
X152658697Y-74091397D01*
X152658699Y-74091401D01*
X152658700Y-74091405D01*
X152699991Y-74179954D01*
X152751172Y-74289713D01*
X152751173Y-74289714D01*
X152876677Y-74468952D01*
X153031398Y-74623673D01*
X153210636Y-74749177D01*
X153408945Y-74841650D01*
X153620298Y-74898282D01*
X153803201Y-74914283D01*
X153838273Y-74917352D01*
X153838275Y-74917352D01*
X153838277Y-74917352D01*
X153882885Y-74913449D01*
X153987769Y-74904273D01*
X154056268Y-74918040D01*
X154106451Y-74966655D01*
X154122384Y-75034683D01*
X154099009Y-75100527D01*
X154086256Y-75115482D01*
X150650884Y-78550856D01*
X150589561Y-78584341D01*
X150563203Y-78587175D01*
X148051194Y-78587175D01*
X148051178Y-78587174D01*
X148043582Y-78587174D01*
X147885468Y-78587174D01*
X147732740Y-78628098D01*
X147732739Y-78628098D01*
X147732737Y-78628099D01*
X147706856Y-78643042D01*
X147701396Y-78646195D01*
X147701387Y-78646200D01*
X147701384Y-78646201D01*
X147595815Y-78707150D01*
X147595807Y-78707156D01*
X147526753Y-78776211D01*
X147484005Y-78818959D01*
X147484003Y-78818961D01*
X146800962Y-79502003D01*
X146142384Y-80160581D01*
X146081061Y-80194066D01*
X146054703Y-80196900D01*
X142555269Y-80196900D01*
X142555253Y-80196899D01*
X142547657Y-80196899D01*
X142389543Y-80196899D01*
X142282187Y-80225665D01*
X142236810Y-80237824D01*
X142236809Y-80237825D01*
X142186696Y-80266759D01*
X142186695Y-80266760D01*
X142151001Y-80287368D01*
X142099885Y-80316879D01*
X142099882Y-80316881D01*
X139067079Y-83349684D01*
X139045832Y-83386486D01*
X139036851Y-83402043D01*
X138988023Y-83486615D01*
X138947099Y-83639343D01*
X138947099Y-83639345D01*
X138947099Y-83807446D01*
X138947100Y-83807459D01*
X138947100Y-85650327D01*
X138927415Y-85717366D01*
X138910781Y-85738008D01*
X136220509Y-88428281D01*
X136159186Y-88461766D01*
X136132828Y-88464600D01*
X128852673Y-88464600D01*
X128785634Y-88444915D01*
X128764992Y-88428281D01*
X125382565Y-85045855D01*
X125382563Y-85045852D01*
X125263692Y-84926981D01*
X125263684Y-84926975D01*
X125161911Y-84868217D01*
X125161909Y-84868216D01*
X125126765Y-84847925D01*
X125126764Y-84847924D01*
X125114238Y-84844567D01*
X124974032Y-84806999D01*
X124815918Y-84806999D01*
X124808322Y-84806999D01*
X124808306Y-84807000D01*
X117390662Y-84807000D01*
X117323623Y-84787315D01*
X117313347Y-84779945D01*
X117310513Y-84777685D01*
X117310512Y-84777684D01*
X117251003Y-84740292D01*
X117157773Y-84681711D01*
X116987504Y-84622131D01*
X116987499Y-84622130D01*
X116808254Y-84601935D01*
X116808246Y-84601935D01*
X116629000Y-84622130D01*
X116628987Y-84622133D01*
X116458731Y-84681709D01*
X116458727Y-84681710D01*
X116400745Y-84718144D01*
X116334773Y-84737150D01*
X112567394Y-84737150D01*
X112567378Y-84737149D01*
X112559782Y-84737149D01*
X112401668Y-84737149D01*
X112248940Y-84778073D01*
X112248938Y-84778073D01*
X112248938Y-84778074D01*
X112242535Y-84781771D01*
X112198839Y-84806999D01*
X112183585Y-84815806D01*
X112112010Y-84857129D01*
X112112007Y-84857131D01*
X112055822Y-84913317D01*
X112000205Y-84968934D01*
X112000203Y-84968936D01*
X110415546Y-86553594D01*
X108848834Y-88120306D01*
X108787511Y-88153791D01*
X108761153Y-88156625D01*
X108436139Y-88156625D01*
X108369100Y-88136940D01*
X108323345Y-88084136D01*
X108313401Y-88014978D01*
X108316364Y-88000532D01*
X108335915Y-87927565D01*
X108373838Y-87786033D01*
X108394434Y-87550625D01*
X108394306Y-87549167D01*
X108389889Y-87498680D01*
X108373838Y-87315217D01*
X108312678Y-87086962D01*
X108212810Y-86872796D01*
X108185560Y-86833878D01*
X108077269Y-86679222D01*
X107910177Y-86512131D01*
X107910170Y-86512126D01*
X107897322Y-86503130D01*
X107833293Y-86458296D01*
X107716609Y-86376592D01*
X107716601Y-86376588D01*
X107714358Y-86375542D01*
X107713537Y-86374819D01*
X107711919Y-86373885D01*
X107712106Y-86373559D01*
X107661920Y-86329367D01*
X107642771Y-86262173D01*
X107662990Y-86195293D01*
X107712096Y-86152746D01*
X107711919Y-86152440D01*
X107713511Y-86151520D01*
X107714369Y-86150777D01*
X107716605Y-86149735D01*
X107910176Y-86014195D01*
X108077270Y-85847101D01*
X108212810Y-85653530D01*
X108312678Y-85439363D01*
X108373838Y-85211108D01*
X108394434Y-84975700D01*
X108393778Y-84968207D01*
X108383255Y-84847923D01*
X108373838Y-84740292D01*
X108315810Y-84523726D01*
X108312680Y-84512044D01*
X108312679Y-84512043D01*
X108312678Y-84512037D01*
X108212810Y-84297871D01*
X108162749Y-84226375D01*
X108077269Y-84104297D01*
X107910177Y-83937206D01*
X107910170Y-83937201D01*
X107901051Y-83930816D01*
X107866092Y-83906337D01*
X107716609Y-83801667D01*
X107716603Y-83801664D01*
X107709451Y-83798329D01*
X107657013Y-83752156D01*
X107637862Y-83684962D01*
X107658079Y-83618081D01*
X107709460Y-83573563D01*
X107714528Y-83571199D01*
X107908032Y-83435705D01*
X108075055Y-83268682D01*
X108210550Y-83075178D01*
X108310379Y-82861092D01*
X108310382Y-82861086D01*
X108367586Y-82647600D01*
X107469962Y-82647600D01*
X107502875Y-82590593D01*
X107536950Y-82463426D01*
X107536950Y-82331774D01*
X107502875Y-82204607D01*
X107469962Y-82147600D01*
X108367586Y-82147600D01*
X108367585Y-82147599D01*
X108310382Y-81934113D01*
X108310379Y-81934107D01*
X108210550Y-81720022D01*
X108210549Y-81720020D01*
X108075063Y-81526526D01*
X108075058Y-81526520D01*
X107908032Y-81359494D01*
X107714528Y-81223999D01*
X107505210Y-81126393D01*
X107452771Y-81080221D01*
X107433619Y-81013027D01*
X107453835Y-80946146D01*
X107505210Y-80901629D01*
X107717578Y-80802600D01*
X107911082Y-80667105D01*
X108078105Y-80500082D01*
X108213600Y-80306578D01*
X108313429Y-80092492D01*
X108313432Y-80092486D01*
X108370636Y-79879000D01*
X107473012Y-79879000D01*
X107505925Y-79821993D01*
X107540000Y-79694826D01*
X107540000Y-79563174D01*
X107505925Y-79436007D01*
X107473012Y-79379000D01*
X108370636Y-79379000D01*
X108370635Y-79378999D01*
X108313432Y-79165513D01*
X108313429Y-79165507D01*
X108213600Y-78951422D01*
X108213599Y-78951420D01*
X108078113Y-78757926D01*
X108078108Y-78757920D01*
X107911082Y-78590894D01*
X107718542Y-78456075D01*
X107674917Y-78401498D01*
X107667725Y-78331999D01*
X107699247Y-78269645D01*
X107718542Y-78252925D01*
X107911082Y-78118105D01*
X108078105Y-77951082D01*
X108213600Y-77757578D01*
X108313429Y-77543492D01*
X108313432Y-77543486D01*
X108370636Y-77330000D01*
X107473012Y-77330000D01*
X107505925Y-77272993D01*
X107540000Y-77145826D01*
X107540000Y-77014174D01*
X107505925Y-76887007D01*
X107473012Y-76830000D01*
X108370636Y-76830000D01*
X108370635Y-76829999D01*
X108313432Y-76616513D01*
X108313429Y-76616507D01*
X108213600Y-76402422D01*
X108213599Y-76402420D01*
X108078113Y-76208926D01*
X108078108Y-76208920D01*
X107911082Y-76041894D01*
X107717578Y-75906400D01*
X107601736Y-75852382D01*
X107549297Y-75806210D01*
X107530145Y-75739016D01*
X107550361Y-75672135D01*
X107601736Y-75627618D01*
X107717578Y-75573599D01*
X107911082Y-75438105D01*
X108078105Y-75271082D01*
X108213600Y-75077578D01*
X108313429Y-74863492D01*
X108313432Y-74863486D01*
X108370636Y-74650000D01*
X107473012Y-74650000D01*
X107505925Y-74592993D01*
X107540000Y-74465826D01*
X107540000Y-74334174D01*
X107505925Y-74207007D01*
X107473012Y-74150000D01*
X108370636Y-74150000D01*
X108370635Y-74149999D01*
X108313432Y-73936513D01*
X108313429Y-73936507D01*
X108213600Y-73722422D01*
X108213599Y-73722420D01*
X108078113Y-73528926D01*
X108078108Y-73528920D01*
X107911082Y-73361894D01*
X107717578Y-73226399D01*
X107503492Y-73126570D01*
X107503486Y-73126567D01*
X107290000Y-73069364D01*
X107290000Y-73966988D01*
X107232993Y-73934075D01*
X107105826Y-73900000D01*
X106974174Y-73900000D01*
X106847007Y-73934075D01*
X106790000Y-73966988D01*
X106790000Y-73069364D01*
X106789999Y-73069364D01*
X106576513Y-73126567D01*
X106576507Y-73126570D01*
X106362422Y-73226399D01*
X106362420Y-73226400D01*
X106168926Y-73361886D01*
X106046865Y-73483947D01*
X105985542Y-73517431D01*
X105915850Y-73512447D01*
X105859917Y-73470575D01*
X105843002Y-73439598D01*
X105838756Y-73428215D01*
X105805033Y-73337797D01*
X105793797Y-73307671D01*
X105793793Y-73307664D01*
X105707547Y-73192455D01*
X105707544Y-73192452D01*
X105592335Y-73106206D01*
X105592328Y-73106202D01*
X105457482Y-73055908D01*
X105457483Y-73055908D01*
X105397883Y-73049501D01*
X105397881Y-73049500D01*
X105397873Y-73049500D01*
X105397864Y-73049500D01*
X103602129Y-73049500D01*
X103602123Y-73049501D01*
X103542516Y-73055908D01*
X103407671Y-73106202D01*
X103407664Y-73106206D01*
X103292455Y-73192452D01*
X103292452Y-73192455D01*
X103206206Y-73307664D01*
X103206202Y-73307671D01*
X103155908Y-73442517D01*
X103149501Y-73502116D01*
X103149500Y-73502135D01*
X103149500Y-75297870D01*
X103149501Y-75297876D01*
X103155908Y-75357483D01*
X103206202Y-75492328D01*
X103206206Y-75492335D01*
X103292452Y-75607544D01*
X103292453Y-75607544D01*
X103292454Y-75607546D01*
X103314567Y-75624100D01*
X103336787Y-75640734D01*
X103378657Y-75696668D01*
X103383641Y-75766360D01*
X103350155Y-75827683D01*
X103336787Y-75839266D01*
X103292452Y-75872455D01*
X103206206Y-75987664D01*
X103206202Y-75987671D01*
X103155908Y-76122517D01*
X103149501Y-76182116D01*
X103149500Y-76182135D01*
X103149500Y-77977870D01*
X103149501Y-77977876D01*
X103155908Y-78037483D01*
X103206202Y-78172328D01*
X103206206Y-78172335D01*
X103286946Y-78280189D01*
X103311364Y-78345653D01*
X103296513Y-78413926D01*
X103286946Y-78428811D01*
X103206206Y-78536664D01*
X103206202Y-78536671D01*
X103155908Y-78671517D01*
X103149501Y-78731116D01*
X103149500Y-78731135D01*
X103149500Y-80526870D01*
X103149501Y-80526876D01*
X103155908Y-80586483D01*
X103206202Y-80721328D01*
X103206206Y-80721335D01*
X103292452Y-80836544D01*
X103292455Y-80836547D01*
X103394438Y-80912892D01*
X103436309Y-80968825D01*
X103441293Y-81038517D01*
X103407807Y-81099840D01*
X103394439Y-81111424D01*
X103289402Y-81190055D01*
X103203156Y-81305264D01*
X103203152Y-81305271D01*
X103152858Y-81440117D01*
X103146451Y-81499716D01*
X103146450Y-81499735D01*
X103146450Y-83295470D01*
X103146451Y-83295476D01*
X103152858Y-83355083D01*
X103203152Y-83489928D01*
X103203156Y-83489935D01*
X103294718Y-83612245D01*
X103292038Y-83614250D01*
X103317742Y-83661322D01*
X103312758Y-83731014D01*
X103295843Y-83761991D01*
X103291229Y-83768153D01*
X103291229Y-83768154D01*
X103272533Y-83793129D01*
X103204978Y-83883369D01*
X103204977Y-83883371D01*
X103154683Y-84018217D01*
X103148277Y-84077803D01*
X103148275Y-84077835D01*
X103148275Y-85873570D01*
X103148276Y-85873576D01*
X103154683Y-85933183D01*
X103204977Y-86068028D01*
X103204978Y-86068030D01*
X103231229Y-86103097D01*
X103290453Y-86182210D01*
X103295425Y-86188851D01*
X103319842Y-86254315D01*
X103304991Y-86322588D01*
X103295425Y-86337473D01*
X103204979Y-86458293D01*
X103204977Y-86458296D01*
X103154683Y-86593142D01*
X103148276Y-86652741D01*
X103148275Y-86652760D01*
X103148275Y-88448495D01*
X103148276Y-88448501D01*
X103154683Y-88508108D01*
X103204977Y-88642953D01*
X103204978Y-88642955D01*
X103288907Y-88755069D01*
X103313324Y-88820533D01*
X103298473Y-88888806D01*
X103288907Y-88903691D01*
X103206204Y-89014168D01*
X103206202Y-89014171D01*
X103155908Y-89149017D01*
X103149501Y-89208616D01*
X103149500Y-89208635D01*
X103149500Y-91004370D01*
X103149501Y-91004376D01*
X103155908Y-91063983D01*
X103206202Y-91198828D01*
X103206206Y-91198835D01*
X103292452Y-91314044D01*
X103292455Y-91314047D01*
X103407664Y-91400293D01*
X103407671Y-91400297D01*
X103542517Y-91450591D01*
X103542516Y-91450591D01*
X103549444Y-91451335D01*
X103602127Y-91457000D01*
X105397872Y-91456999D01*
X105457483Y-91450591D01*
X105592331Y-91400296D01*
X105707546Y-91314046D01*
X105793796Y-91198831D01*
X105842810Y-91067416D01*
X105884681Y-91011484D01*
X105950145Y-90987066D01*
X106018418Y-91001917D01*
X106046673Y-91023069D01*
X106168599Y-91144995D01*
X106265384Y-91212765D01*
X106362165Y-91280532D01*
X106362167Y-91280533D01*
X106362170Y-91280535D01*
X106393244Y-91295025D01*
X106445684Y-91341197D01*
X106464836Y-91408390D01*
X106444621Y-91475271D01*
X106428521Y-91495088D01*
X102229879Y-95693730D01*
X102168556Y-95727215D01*
X102098864Y-95722231D01*
X102042931Y-95680359D01*
X102018514Y-95614895D01*
X102018669Y-95595251D01*
X102022209Y-95554800D01*
X102001613Y-95319392D01*
X101940453Y-95091137D01*
X101840585Y-94876971D01*
X101835281Y-94869395D01*
X101705044Y-94683397D01*
X101537952Y-94516306D01*
X101537946Y-94516301D01*
X101352392Y-94386375D01*
X101308767Y-94331798D01*
X101301573Y-94262300D01*
X101333096Y-94199945D01*
X101352392Y-94183225D01*
X101442949Y-94119816D01*
X101537951Y-94053295D01*
X101705045Y-93886201D01*
X101840585Y-93692630D01*
X101940453Y-93478463D01*
X102001613Y-93250208D01*
X102022209Y-93014800D01*
X102020999Y-93000975D01*
X102010570Y-92881766D01*
X102001613Y-92779392D01*
X101940453Y-92551137D01*
X101840585Y-92336971D01*
X101835281Y-92329395D01*
X101705044Y-92143397D01*
X101537952Y-91976306D01*
X101537946Y-91976301D01*
X101352392Y-91846375D01*
X101308767Y-91791798D01*
X101301573Y-91722300D01*
X101333096Y-91659945D01*
X101352392Y-91643225D01*
X101391573Y-91615790D01*
X101537951Y-91513295D01*
X101705045Y-91346201D01*
X101840585Y-91152630D01*
X101940453Y-90938463D01*
X102001613Y-90710208D01*
X102022209Y-90474800D01*
X102001613Y-90239392D01*
X101940453Y-90011137D01*
X101840585Y-89796971D01*
X101835281Y-89789395D01*
X101705044Y-89603397D01*
X101537952Y-89436306D01*
X101537946Y-89436301D01*
X101352392Y-89306375D01*
X101308767Y-89251798D01*
X101301573Y-89182300D01*
X101333096Y-89119945D01*
X101352392Y-89103225D01*
X101479574Y-89014171D01*
X101537951Y-88973295D01*
X101705045Y-88806201D01*
X101840585Y-88612630D01*
X101940453Y-88398463D01*
X102001613Y-88170208D01*
X102022209Y-87934800D01*
X102001613Y-87699392D01*
X101950823Y-87509840D01*
X101940455Y-87471144D01*
X101940454Y-87471143D01*
X101940453Y-87471137D01*
X101840585Y-87256971D01*
X101835281Y-87249395D01*
X101705044Y-87063397D01*
X101537952Y-86896306D01*
X101537946Y-86896301D01*
X101352392Y-86766375D01*
X101308767Y-86711798D01*
X101301573Y-86642300D01*
X101333096Y-86579945D01*
X101352392Y-86563225D01*
X101387072Y-86538942D01*
X101537951Y-86433295D01*
X101705045Y-86266201D01*
X101840585Y-86072630D01*
X101940453Y-85858463D01*
X102001613Y-85630208D01*
X102022209Y-85394800D01*
X102001613Y-85159392D01*
X101950386Y-84968207D01*
X101940455Y-84931144D01*
X101940454Y-84931143D01*
X101940453Y-84931137D01*
X101840585Y-84716971D01*
X101835281Y-84709395D01*
X101705044Y-84523397D01*
X101537952Y-84356306D01*
X101537946Y-84356301D01*
X101352392Y-84226375D01*
X101308767Y-84171798D01*
X101301573Y-84102300D01*
X101333096Y-84039945D01*
X101352392Y-84023225D01*
X101403869Y-83987180D01*
X101537951Y-83893295D01*
X101705045Y-83726201D01*
X101840585Y-83532630D01*
X101940453Y-83318463D01*
X102001613Y-83090208D01*
X102022209Y-82854800D01*
X102020088Y-82830563D01*
X102015360Y-82776520D01*
X102001613Y-82619392D01*
X101940453Y-82391137D01*
X101840585Y-82176971D01*
X101835281Y-82169395D01*
X101705044Y-81983397D01*
X101537952Y-81816306D01*
X101537946Y-81816301D01*
X101352392Y-81686375D01*
X101308767Y-81631798D01*
X101301573Y-81562300D01*
X101333096Y-81499945D01*
X101352392Y-81483225D01*
X101418125Y-81437198D01*
X101537951Y-81353295D01*
X101705045Y-81186201D01*
X101840585Y-80992630D01*
X101940453Y-80778463D01*
X102001613Y-80550208D01*
X102022209Y-80314800D01*
X102001613Y-80079392D01*
X101947919Y-79879000D01*
X101940455Y-79851144D01*
X101940454Y-79851143D01*
X101940453Y-79851137D01*
X101840585Y-79636971D01*
X101835281Y-79629395D01*
X101705044Y-79443397D01*
X101537952Y-79276306D01*
X101537946Y-79276301D01*
X101352392Y-79146375D01*
X101308767Y-79091798D01*
X101301573Y-79022300D01*
X101333096Y-78959945D01*
X101352392Y-78943225D01*
X101453849Y-78872184D01*
X101537951Y-78813295D01*
X101705045Y-78646201D01*
X101840585Y-78452630D01*
X101940453Y-78238463D01*
X102001613Y-78010208D01*
X102022209Y-77774800D01*
X102001613Y-77539392D01*
X101949535Y-77345031D01*
X101940455Y-77311144D01*
X101940454Y-77311143D01*
X101940453Y-77311137D01*
X101840585Y-77096971D01*
X101839742Y-77095766D01*
X101705044Y-76903397D01*
X101537952Y-76736306D01*
X101537946Y-76736301D01*
X101352392Y-76606375D01*
X101308767Y-76551798D01*
X101301573Y-76482300D01*
X101333096Y-76419945D01*
X101352392Y-76403225D01*
X101383360Y-76381541D01*
X101537951Y-76273295D01*
X101705045Y-76106201D01*
X101840585Y-75912630D01*
X101940453Y-75698463D01*
X102001613Y-75470208D01*
X102022209Y-75234800D01*
X102001613Y-74999392D01*
X101955057Y-74825639D01*
X101940455Y-74771144D01*
X101940454Y-74771143D01*
X101940453Y-74771137D01*
X101840585Y-74556971D01*
X101835281Y-74549395D01*
X101705044Y-74363397D01*
X101537952Y-74196306D01*
X101537946Y-74196301D01*
X101352392Y-74066375D01*
X101308767Y-74011798D01*
X101301573Y-73942300D01*
X101333096Y-73879945D01*
X101352392Y-73863225D01*
X101398098Y-73831221D01*
X101537951Y-73733295D01*
X101705045Y-73566201D01*
X101840585Y-73372630D01*
X101940453Y-73158463D01*
X102001613Y-72930208D01*
X102022209Y-72694800D01*
X102001613Y-72459392D01*
X101940453Y-72231137D01*
X101840585Y-72016971D01*
X101840045Y-72016199D01*
X101705044Y-71823397D01*
X101537952Y-71656306D01*
X101537945Y-71656301D01*
X101526171Y-71648057D01*
X101499071Y-71629081D01*
X101344384Y-71520767D01*
X101344380Y-71520765D01*
X101246610Y-71475174D01*
X101130213Y-71420897D01*
X101130209Y-71420896D01*
X101130205Y-71420894D01*
X100901963Y-71359738D01*
X100901953Y-71359736D01*
X100666551Y-71339141D01*
X100666549Y-71339141D01*
X100431146Y-71359736D01*
X100431136Y-71359738D01*
X100202894Y-71420894D01*
X100202885Y-71420898D01*
X99988721Y-71520764D01*
X99988719Y-71520765D01*
X99795150Y-71656303D01*
X99672834Y-71778619D01*
X99611511Y-71812103D01*
X99541819Y-71807119D01*
X99485886Y-71765247D01*
X99468971Y-71734270D01*
X99419904Y-71602713D01*
X99419900Y-71602706D01*
X99333740Y-71487612D01*
X99333737Y-71487609D01*
X99218643Y-71401449D01*
X99218636Y-71401445D01*
X99083929Y-71351203D01*
X99083922Y-71351201D01*
X99024394Y-71344800D01*
X98376550Y-71344800D01*
X98376550Y-72261788D01*
X98319543Y-72228875D01*
X98192376Y-72194800D01*
X98060724Y-72194800D01*
X97933557Y-72228875D01*
X97876550Y-72261788D01*
X97876550Y-71344800D01*
X97228705Y-71344800D01*
X97169177Y-71351201D01*
X97169170Y-71351203D01*
X97034463Y-71401445D01*
X97034456Y-71401449D01*
X96919362Y-71487609D01*
X96919359Y-71487612D01*
X96833199Y-71602706D01*
X96833195Y-71602713D01*
X96782953Y-71737420D01*
X96782951Y-71737427D01*
X96776550Y-71796955D01*
X96776550Y-72444800D01*
X97693538Y-72444800D01*
X97660625Y-72501807D01*
X97626550Y-72628974D01*
X97626550Y-72760626D01*
X97660625Y-72887793D01*
X97693538Y-72944800D01*
X96776550Y-72944800D01*
X96776550Y-73592644D01*
X96782951Y-73652172D01*
X96782953Y-73652179D01*
X96833195Y-73786886D01*
X96833199Y-73786893D01*
X96919359Y-73901987D01*
X96919362Y-73901990D01*
X97034456Y-73988150D01*
X97034463Y-73988154D01*
X97166536Y-74037414D01*
X97222470Y-74079285D01*
X97246887Y-74144749D01*
X97232036Y-74213022D01*
X97210885Y-74241277D01*
X97088436Y-74363726D01*
X96952950Y-74557220D01*
X96952949Y-74557222D01*
X96853120Y-74771307D01*
X96853117Y-74771313D01*
X96795914Y-74984799D01*
X96795914Y-74984800D01*
X97693538Y-74984800D01*
X97660625Y-75041807D01*
X97626550Y-75168974D01*
X97626550Y-75300626D01*
X97660625Y-75427793D01*
X97693538Y-75484800D01*
X96795914Y-75484800D01*
X96853117Y-75698286D01*
X96853120Y-75698292D01*
X96952949Y-75912378D01*
X97088444Y-76105882D01*
X97255467Y-76272905D01*
X97441581Y-76403225D01*
X97485206Y-76457803D01*
X97492398Y-76527301D01*
X97460876Y-76589656D01*
X97441581Y-76606375D01*
X97255472Y-76736690D01*
X97255470Y-76736691D01*
X97088441Y-76903720D01*
X97088436Y-76903726D01*
X96952950Y-77097220D01*
X96952949Y-77097222D01*
X96853120Y-77311307D01*
X96853117Y-77311313D01*
X96795914Y-77524799D01*
X96795914Y-77524800D01*
X97693538Y-77524800D01*
X97660625Y-77581807D01*
X97626550Y-77708974D01*
X97626550Y-77840626D01*
X97660625Y-77967793D01*
X97693538Y-78024800D01*
X96795914Y-78024800D01*
X96853117Y-78238286D01*
X96853120Y-78238292D01*
X96952949Y-78452378D01*
X97088444Y-78645882D01*
X97255467Y-78812905D01*
X97441581Y-78943225D01*
X97485206Y-78997803D01*
X97492398Y-79067301D01*
X97460876Y-79129656D01*
X97441581Y-79146375D01*
X97255472Y-79276690D01*
X97255470Y-79276691D01*
X97088441Y-79443720D01*
X97088436Y-79443726D01*
X96952950Y-79637220D01*
X96952949Y-79637222D01*
X96853120Y-79851307D01*
X96853117Y-79851313D01*
X96795914Y-80064799D01*
X96795914Y-80064800D01*
X97693538Y-80064800D01*
X97660625Y-80121807D01*
X97626550Y-80248974D01*
X97626550Y-80380626D01*
X97660625Y-80507793D01*
X97693538Y-80564800D01*
X96795914Y-80564800D01*
X96853117Y-80778286D01*
X96853120Y-80778292D01*
X96952949Y-80992378D01*
X97088444Y-81185882D01*
X97255467Y-81352905D01*
X97441581Y-81483225D01*
X97485206Y-81537803D01*
X97492398Y-81607301D01*
X97460876Y-81669656D01*
X97441581Y-81686375D01*
X97255472Y-81816690D01*
X97255470Y-81816691D01*
X97088441Y-81983720D01*
X97088436Y-81983726D01*
X96952950Y-82177220D01*
X96952949Y-82177222D01*
X96853120Y-82391307D01*
X96853117Y-82391313D01*
X96795914Y-82604799D01*
X96795914Y-82604800D01*
X97693538Y-82604800D01*
X97660625Y-82661807D01*
X97626550Y-82788974D01*
X97626550Y-82920626D01*
X97660625Y-83047793D01*
X97693538Y-83104800D01*
X96795914Y-83104800D01*
X96853117Y-83318286D01*
X96853120Y-83318292D01*
X96952949Y-83532378D01*
X97088444Y-83725882D01*
X97255467Y-83892905D01*
X97441581Y-84023225D01*
X97485206Y-84077803D01*
X97492398Y-84147301D01*
X97460876Y-84209656D01*
X97441581Y-84226375D01*
X97255472Y-84356690D01*
X97255470Y-84356691D01*
X97088441Y-84523720D01*
X97088436Y-84523726D01*
X96952950Y-84717220D01*
X96952949Y-84717222D01*
X96853120Y-84931307D01*
X96853117Y-84931313D01*
X96795914Y-85144799D01*
X96795914Y-85144800D01*
X97693538Y-85144800D01*
X97660625Y-85201807D01*
X97626550Y-85328974D01*
X97626550Y-85460626D01*
X97660625Y-85587793D01*
X97693538Y-85644800D01*
X96795914Y-85644800D01*
X96853117Y-85858286D01*
X96853120Y-85858292D01*
X96952949Y-86072378D01*
X97088444Y-86265882D01*
X97255467Y-86432905D01*
X97441581Y-86563225D01*
X97485206Y-86617803D01*
X97492398Y-86687301D01*
X97460876Y-86749656D01*
X97441581Y-86766375D01*
X97255472Y-86896690D01*
X97255470Y-86896691D01*
X97088441Y-87063720D01*
X97088436Y-87063726D01*
X96952950Y-87257220D01*
X96952949Y-87257222D01*
X96853120Y-87471307D01*
X96853117Y-87471313D01*
X96795914Y-87684799D01*
X96795914Y-87684800D01*
X97693538Y-87684800D01*
X97660625Y-87741807D01*
X97626550Y-87868974D01*
X97626550Y-88000626D01*
X97660625Y-88127793D01*
X97693538Y-88184800D01*
X96795914Y-88184800D01*
X96853117Y-88398286D01*
X96853120Y-88398292D01*
X96952949Y-88612378D01*
X97088444Y-88805882D01*
X97255467Y-88972905D01*
X97441581Y-89103225D01*
X97485206Y-89157803D01*
X97492398Y-89227301D01*
X97460876Y-89289656D01*
X97441581Y-89306375D01*
X97255472Y-89436690D01*
X97255470Y-89436691D01*
X97088441Y-89603720D01*
X97088436Y-89603726D01*
X96952950Y-89797220D01*
X96952949Y-89797222D01*
X96853120Y-90011307D01*
X96853117Y-90011313D01*
X96795914Y-90224799D01*
X96795914Y-90224800D01*
X97693538Y-90224800D01*
X97660625Y-90281807D01*
X97626550Y-90408974D01*
X97626550Y-90540626D01*
X97660625Y-90667793D01*
X97693538Y-90724800D01*
X96795914Y-90724800D01*
X96853117Y-90938286D01*
X96853120Y-90938292D01*
X96952949Y-91152378D01*
X97088444Y-91345882D01*
X97255467Y-91512905D01*
X97441581Y-91643225D01*
X97485206Y-91697803D01*
X97492398Y-91767301D01*
X97460876Y-91829656D01*
X97441581Y-91846375D01*
X97255472Y-91976690D01*
X97255470Y-91976691D01*
X97088441Y-92143720D01*
X97088436Y-92143726D01*
X96952950Y-92337220D01*
X96952949Y-92337222D01*
X96853120Y-92551307D01*
X96853117Y-92551313D01*
X96795914Y-92764799D01*
X96795914Y-92764800D01*
X97693538Y-92764800D01*
X97660625Y-92821807D01*
X97626550Y-92948974D01*
X97626550Y-93080626D01*
X97660625Y-93207793D01*
X97693538Y-93264800D01*
X96795914Y-93264800D01*
X96853117Y-93478286D01*
X96853120Y-93478292D01*
X96952949Y-93692378D01*
X97088444Y-93885882D01*
X97255467Y-94052905D01*
X97441581Y-94183225D01*
X97485206Y-94237803D01*
X97492398Y-94307301D01*
X97460876Y-94369656D01*
X97441581Y-94386375D01*
X97255472Y-94516690D01*
X97255470Y-94516691D01*
X97088441Y-94683720D01*
X97088436Y-94683726D01*
X96952950Y-94877220D01*
X96952949Y-94877222D01*
X96853120Y-95091307D01*
X96853117Y-95091313D01*
X96795914Y-95304799D01*
X96795914Y-95304800D01*
X97693538Y-95304800D01*
X97660625Y-95361807D01*
X97626550Y-95488974D01*
X97626550Y-95620626D01*
X97660625Y-95747793D01*
X97693538Y-95804800D01*
X96795914Y-95804800D01*
X96853117Y-96018286D01*
X96853120Y-96018292D01*
X96952949Y-96232378D01*
X97088444Y-96425882D01*
X97255467Y-96592905D01*
X97441581Y-96723225D01*
X97485206Y-96777803D01*
X97492398Y-96847301D01*
X97460876Y-96909656D01*
X97441581Y-96926375D01*
X97255472Y-97056690D01*
X97255470Y-97056691D01*
X97088441Y-97223720D01*
X97088436Y-97223726D01*
X96952950Y-97417220D01*
X96952949Y-97417222D01*
X96853120Y-97631307D01*
X96853117Y-97631313D01*
X96795914Y-97844799D01*
X96795914Y-97844800D01*
X97693538Y-97844800D01*
X97660625Y-97901807D01*
X97626550Y-98028974D01*
X97626550Y-98160626D01*
X97660625Y-98287793D01*
X97693538Y-98344800D01*
X96795914Y-98344800D01*
X96853117Y-98558286D01*
X96853120Y-98558292D01*
X96952949Y-98772378D01*
X97088444Y-98965882D01*
X97255467Y-99132905D01*
X97441581Y-99263225D01*
X97485206Y-99317803D01*
X97492398Y-99387301D01*
X97460876Y-99449656D01*
X97441581Y-99466375D01*
X97255472Y-99596690D01*
X97255470Y-99596691D01*
X97088441Y-99763720D01*
X97088436Y-99763726D01*
X96952950Y-99957220D01*
X96952949Y-99957222D01*
X96853120Y-100171307D01*
X96853117Y-100171313D01*
X96795914Y-100384799D01*
X96795914Y-100384800D01*
X97693538Y-100384800D01*
X97660625Y-100441807D01*
X97626550Y-100568974D01*
X97626550Y-100700626D01*
X97660625Y-100827793D01*
X97693538Y-100884800D01*
X96795914Y-100884800D01*
X96853117Y-101098286D01*
X96853120Y-101098292D01*
X96952949Y-101312378D01*
X97088444Y-101505882D01*
X97255467Y-101672905D01*
X97441581Y-101803225D01*
X97485206Y-101857803D01*
X97492398Y-101927301D01*
X97460876Y-101989656D01*
X97441581Y-102006375D01*
X97255472Y-102136690D01*
X97255470Y-102136691D01*
X97088441Y-102303720D01*
X97088436Y-102303726D01*
X96952950Y-102497220D01*
X96952949Y-102497222D01*
X96853120Y-102711307D01*
X96853117Y-102711313D01*
X96795914Y-102924799D01*
X96795914Y-102924800D01*
X97693538Y-102924800D01*
X97660625Y-102981807D01*
X97626550Y-103108974D01*
X97626550Y-103240626D01*
X97660625Y-103367793D01*
X97693538Y-103424800D01*
X96795914Y-103424800D01*
X96853117Y-103638286D01*
X96853120Y-103638292D01*
X96952949Y-103852378D01*
X97088444Y-104045882D01*
X97255467Y-104212905D01*
X97441581Y-104343225D01*
X97485206Y-104397803D01*
X97492398Y-104467301D01*
X97460876Y-104529656D01*
X97441581Y-104546375D01*
X97255472Y-104676690D01*
X97255470Y-104676691D01*
X97088441Y-104843720D01*
X97088436Y-104843726D01*
X96952950Y-105037220D01*
X96952949Y-105037222D01*
X96853120Y-105251307D01*
X96853117Y-105251313D01*
X96795914Y-105464799D01*
X96795914Y-105464800D01*
X97693538Y-105464800D01*
X97660625Y-105521807D01*
X97626550Y-105648974D01*
X97626550Y-105780626D01*
X97660625Y-105907793D01*
X97693538Y-105964800D01*
X96795914Y-105964800D01*
X96853117Y-106178286D01*
X96853120Y-106178292D01*
X96952949Y-106392378D01*
X97088444Y-106585882D01*
X97255467Y-106752905D01*
X97441581Y-106883225D01*
X97485206Y-106937803D01*
X97492398Y-107007301D01*
X97460876Y-107069656D01*
X97441581Y-107086375D01*
X97255472Y-107216690D01*
X97255470Y-107216691D01*
X97088441Y-107383720D01*
X97088436Y-107383726D01*
X96952950Y-107577220D01*
X96952949Y-107577222D01*
X96853120Y-107791307D01*
X96853117Y-107791313D01*
X96795914Y-108004799D01*
X96795914Y-108004800D01*
X97693538Y-108004800D01*
X97660625Y-108061807D01*
X97626550Y-108188974D01*
X97626550Y-108320626D01*
X97660625Y-108447793D01*
X97693538Y-108504800D01*
X96795914Y-108504800D01*
X96853117Y-108718286D01*
X96853120Y-108718292D01*
X96952949Y-108932378D01*
X97088444Y-109125882D01*
X97255467Y-109292905D01*
X97441581Y-109423225D01*
X97485206Y-109477803D01*
X97492398Y-109547301D01*
X97460876Y-109609656D01*
X97441581Y-109626375D01*
X97255472Y-109756690D01*
X97255470Y-109756691D01*
X97088441Y-109923720D01*
X97088436Y-109923726D01*
X96952950Y-110117220D01*
X96952949Y-110117222D01*
X96853120Y-110331307D01*
X96853117Y-110331313D01*
X96795914Y-110544799D01*
X96795914Y-110544800D01*
X97693538Y-110544800D01*
X97660625Y-110601807D01*
X97626550Y-110728974D01*
X97626550Y-110860626D01*
X97660625Y-110987793D01*
X97693538Y-111044800D01*
X96795914Y-111044800D01*
X96853117Y-111258286D01*
X96853120Y-111258292D01*
X96952949Y-111472378D01*
X97088444Y-111665882D01*
X97255467Y-111832905D01*
X97441581Y-111963225D01*
X97485206Y-112017803D01*
X97492398Y-112087301D01*
X97460876Y-112149656D01*
X97441581Y-112166375D01*
X97255472Y-112296690D01*
X97255470Y-112296691D01*
X97088441Y-112463720D01*
X97088436Y-112463726D01*
X96952950Y-112657220D01*
X96952949Y-112657222D01*
X96853120Y-112871307D01*
X96853117Y-112871313D01*
X96795914Y-113084799D01*
X96795914Y-113084800D01*
X97693538Y-113084800D01*
X97660625Y-113141807D01*
X97626550Y-113268974D01*
X97626550Y-113400626D01*
X97660625Y-113527793D01*
X97693538Y-113584800D01*
X96795914Y-113584800D01*
X96853117Y-113798286D01*
X96853120Y-113798292D01*
X96952950Y-114012379D01*
X96952954Y-114012385D01*
X97022969Y-114112376D01*
X97045297Y-114178582D01*
X97028287Y-114246349D01*
X96977340Y-114294163D01*
X96921395Y-114307500D01*
X96526093Y-114307500D01*
X96513939Y-114306903D01*
X96382033Y-114293911D01*
X96358192Y-114289169D01*
X96237209Y-114252469D01*
X96214751Y-114243166D01*
X96103261Y-114183573D01*
X96083050Y-114170069D01*
X95985322Y-114089867D01*
X95968132Y-114072677D01*
X95887930Y-113974949D01*
X95874426Y-113954738D01*
X95814833Y-113843248D01*
X95805530Y-113820790D01*
X95768828Y-113699801D01*
X95764089Y-113675973D01*
X95751097Y-113544061D01*
X95750500Y-113531907D01*
X95750500Y-56715784D01*
X95750811Y-56710860D01*
X95750787Y-56705665D01*
X95750789Y-56705661D01*
X95750522Y-56645919D01*
X95751075Y-56633664D01*
X95763473Y-56503092D01*
X95768200Y-56479010D01*
X95768801Y-56477019D01*
X95804284Y-56359372D01*
X95813657Y-56336701D01*
X95872604Y-56226504D01*
X95886259Y-56206125D01*
X95965752Y-56109702D01*
X95983152Y-56092412D01*
X96080083Y-56013532D01*
X96100552Y-56000005D01*
X96211114Y-55941765D01*
X96233848Y-55932534D01*
X96353718Y-55897212D01*
X96377825Y-55892640D01*
X96509074Y-55881019D01*
X96521339Y-55880544D01*
X96580471Y-55881184D01*
X96580471Y-55881183D01*
X96581951Y-55881200D01*
X96593596Y-55880500D01*
X98518703Y-55880500D01*
X98585742Y-55900185D01*
G37*
%TD.AperFunction*%
%TA.AperFunction,Conductor*%
G36*
X205586061Y-55881097D02*
G01*
X205587107Y-55881200D01*
X205717973Y-55894089D01*
X205741801Y-55898828D01*
X205862793Y-55935531D01*
X205885245Y-55944832D01*
X205926517Y-55966892D01*
X205996738Y-56004426D01*
X206016949Y-56017930D01*
X206036247Y-56033767D01*
X206108892Y-56093385D01*
X206114677Y-56098132D01*
X206131867Y-56115322D01*
X206212069Y-56213050D01*
X206225573Y-56233261D01*
X206285166Y-56344751D01*
X206294469Y-56367209D01*
X206331169Y-56488192D01*
X206335911Y-56512032D01*
X206348903Y-56643937D01*
X206349500Y-56656092D01*
X206349500Y-93473907D01*
X206348903Y-93486062D01*
X206335911Y-93617967D01*
X206331169Y-93641807D01*
X206294469Y-93762790D01*
X206285166Y-93785248D01*
X206225573Y-93896738D01*
X206212069Y-93916949D01*
X206131867Y-94014677D01*
X206114677Y-94031867D01*
X206016949Y-94112069D01*
X205996738Y-94125573D01*
X205885248Y-94185166D01*
X205862790Y-94194469D01*
X205741807Y-94231169D01*
X205717967Y-94235911D01*
X205622896Y-94245275D01*
X205586060Y-94248903D01*
X205573907Y-94249500D01*
X151623073Y-94249500D01*
X151590981Y-94245275D01*
X151576893Y-94241500D01*
X151576892Y-94241500D01*
X151511000Y-94241500D01*
X151384371Y-94241500D01*
X151320993Y-94250612D01*
X151133696Y-94277541D01*
X151133686Y-94277543D01*
X150890687Y-94348894D01*
X150660333Y-94454093D01*
X150660310Y-94454106D01*
X150447274Y-94591016D01*
X150447268Y-94591020D01*
X150255868Y-94756868D01*
X150090020Y-94948268D01*
X150090016Y-94948274D01*
X149953106Y-95161310D01*
X149953093Y-95161333D01*
X149847894Y-95391687D01*
X149776543Y-95634686D01*
X149776541Y-95634696D01*
X149740500Y-95885372D01*
X149740500Y-113531907D01*
X149739903Y-113544062D01*
X149726911Y-113675967D01*
X149722169Y-113699807D01*
X149685469Y-113820790D01*
X149676166Y-113843248D01*
X149616573Y-113954738D01*
X149603069Y-113974949D01*
X149522867Y-114072677D01*
X149505677Y-114089867D01*
X149407949Y-114170069D01*
X149387738Y-114183573D01*
X149276248Y-114243166D01*
X149253790Y-114252469D01*
X149132807Y-114289169D01*
X149108967Y-114293911D01*
X149011698Y-114303491D01*
X148977060Y-114306903D01*
X148964907Y-114307500D01*
X101872317Y-114307500D01*
X101805278Y-114287815D01*
X101759523Y-114235011D01*
X101749579Y-114165853D01*
X101770742Y-114112377D01*
X101840582Y-114012634D01*
X101840581Y-114012634D01*
X101840585Y-114012630D01*
X101940453Y-113798463D01*
X102001613Y-113570208D01*
X102022209Y-113334800D01*
X102001613Y-113099392D01*
X101940453Y-112871137D01*
X101840585Y-112656971D01*
X101835281Y-112649395D01*
X101705044Y-112463397D01*
X101537952Y-112296306D01*
X101537946Y-112296301D01*
X101352392Y-112166375D01*
X101308767Y-112111798D01*
X101301573Y-112042300D01*
X101333096Y-111979945D01*
X101352392Y-111963225D01*
X101374576Y-111947691D01*
X101537951Y-111833295D01*
X101705045Y-111666201D01*
X101840585Y-111472630D01*
X101940453Y-111258463D01*
X102001613Y-111030208D01*
X102022209Y-110794800D01*
X102001613Y-110559392D01*
X101967221Y-110431039D01*
X101968884Y-110361193D01*
X101999313Y-110311270D01*
X103741045Y-108569541D01*
X103820102Y-108432609D01*
X103861026Y-108279882D01*
X103861026Y-108121767D01*
X103861026Y-108114172D01*
X103861025Y-108114154D01*
X103861025Y-101141271D01*
X103880710Y-101074232D01*
X103897339Y-101053595D01*
X109424179Y-95526754D01*
X109485500Y-95493271D01*
X109555192Y-95498255D01*
X109611125Y-95540127D01*
X109628900Y-95573483D01*
X109665785Y-95678896D01*
X109761757Y-95831634D01*
X109764016Y-95834466D01*
X109764905Y-95836643D01*
X109765464Y-95837533D01*
X109765308Y-95837630D01*
X109790429Y-95899151D01*
X109791074Y-95911785D01*
X109791074Y-96065654D01*
X109791073Y-96065654D01*
X109831998Y-96218385D01*
X109851999Y-96253026D01*
X109852000Y-96253030D01*
X109911050Y-96355309D01*
X109911056Y-96355317D01*
X110029924Y-96474185D01*
X110029930Y-96474190D01*
X112827714Y-99271974D01*
X112827724Y-99271985D01*
X112832054Y-99276315D01*
X112832055Y-99276316D01*
X112943859Y-99388120D01*
X113016161Y-99429863D01*
X113080790Y-99467177D01*
X113233518Y-99508101D01*
X113233521Y-99508101D01*
X113399228Y-99508101D01*
X113399244Y-99508100D01*
X134860356Y-99508100D01*
X134860372Y-99508101D01*
X134867968Y-99508101D01*
X135026079Y-99508101D01*
X135026082Y-99508101D01*
X135178810Y-99467177D01*
X135243439Y-99429863D01*
X135315741Y-99388120D01*
X135427545Y-99276316D01*
X135427545Y-99276314D01*
X135437749Y-99266111D01*
X135437752Y-99266106D01*
X138310199Y-96393660D01*
X143010400Y-96393660D01*
X143010400Y-98189395D01*
X143010401Y-98189401D01*
X143016808Y-98249008D01*
X143067102Y-98383853D01*
X143067106Y-98383860D01*
X143153352Y-98499069D01*
X143153355Y-98499072D01*
X143268564Y-98585318D01*
X143268571Y-98585322D01*
X143330777Y-98608523D01*
X143400498Y-98634527D01*
X143456431Y-98676398D01*
X143480849Y-98741862D01*
X143465998Y-98810135D01*
X143444847Y-98838390D01*
X143322786Y-98960451D01*
X143187300Y-99153945D01*
X143187299Y-99153947D01*
X143087470Y-99368032D01*
X143087467Y-99368038D01*
X143030264Y-99581524D01*
X143030264Y-99581525D01*
X143927888Y-99581525D01*
X143894975Y-99638532D01*
X143860900Y-99765699D01*
X143860900Y-99897351D01*
X143894975Y-100024518D01*
X143927888Y-100081525D01*
X143030264Y-100081525D01*
X143087467Y-100295011D01*
X143087470Y-100295017D01*
X143187299Y-100509103D01*
X143322794Y-100702607D01*
X143489817Y-100869630D01*
X143683321Y-101005125D01*
X143897407Y-101104954D01*
X143897416Y-101104958D01*
X144110900Y-101162159D01*
X144110900Y-100264537D01*
X144167907Y-100297450D01*
X144295074Y-100331525D01*
X144426726Y-100331525D01*
X144553893Y-100297450D01*
X144610900Y-100264537D01*
X144610900Y-101162158D01*
X144824383Y-101104958D01*
X144824392Y-101104954D01*
X145038478Y-101005125D01*
X145231982Y-100869630D01*
X145399005Y-100702607D01*
X145529019Y-100516930D01*
X145583596Y-100473306D01*
X145653095Y-100466113D01*
X145715449Y-100497635D01*
X145732169Y-100516930D01*
X145862405Y-100702926D01*
X146029499Y-100870020D01*
X146126284Y-100937790D01*
X146223065Y-101005557D01*
X146223067Y-101005558D01*
X146223070Y-101005560D01*
X146437237Y-101105428D01*
X146665492Y-101166588D01*
X146853818Y-101183064D01*
X146900899Y-101187184D01*
X146900900Y-101187184D01*
X146900901Y-101187184D01*
X146940134Y-101183751D01*
X147136308Y-101166588D01*
X147364563Y-101105428D01*
X147578730Y-101005560D01*
X147772301Y-100870020D01*
X147939395Y-100702926D01*
X148074935Y-100509355D01*
X148174803Y-100295188D01*
X148235963Y-100066933D01*
X148256559Y-99831525D01*
X148235963Y-99596117D01*
X148174803Y-99367862D01*
X148074935Y-99153696D01*
X148069631Y-99146120D01*
X147939394Y-98960122D01*
X147772302Y-98793031D01*
X147772296Y-98793026D01*
X147586742Y-98663100D01*
X147543117Y-98608523D01*
X147535923Y-98539025D01*
X147567446Y-98476670D01*
X147586742Y-98459950D01*
X147608926Y-98444416D01*
X147772301Y-98330020D01*
X147939395Y-98162926D01*
X148074935Y-97969355D01*
X148174803Y-97755188D01*
X148235963Y-97526933D01*
X148256559Y-97291525D01*
X148235963Y-97056117D01*
X148174803Y-96827862D01*
X148074935Y-96613696D01*
X148060653Y-96593298D01*
X147939394Y-96420122D01*
X147772301Y-96253030D01*
X147772295Y-96253026D01*
X147578734Y-96117492D01*
X147578730Y-96117490D01*
X147577218Y-96116785D01*
X147364563Y-96017622D01*
X147364559Y-96017621D01*
X147364555Y-96017619D01*
X147136313Y-95956463D01*
X147136303Y-95956461D01*
X147055505Y-95949392D01*
X146990437Y-95923939D01*
X146949459Y-95867348D01*
X146948932Y-95857868D01*
X146921539Y-95906196D01*
X146859692Y-95938704D01*
X146846068Y-95940663D01*
X146665496Y-95956461D01*
X146665486Y-95956463D01*
X146437244Y-96017619D01*
X146437237Y-96017621D01*
X146437237Y-96017622D01*
X146430583Y-96020725D01*
X146223071Y-96117489D01*
X146223069Y-96117490D01*
X146029500Y-96253028D01*
X145907573Y-96374955D01*
X145846250Y-96408439D01*
X145776558Y-96403455D01*
X145720625Y-96361583D01*
X145703710Y-96330606D01*
X145654697Y-96199196D01*
X145654693Y-96199189D01*
X145568447Y-96083980D01*
X145568444Y-96083977D01*
X145453235Y-95997731D01*
X145453228Y-95997727D01*
X145318388Y-95947435D01*
X145315071Y-95946652D01*
X145312762Y-95945337D01*
X145311115Y-95944723D01*
X145311214Y-95944456D01*
X145254354Y-95912080D01*
X145221967Y-95850170D01*
X145228191Y-95780578D01*
X145271052Y-95725399D01*
X145336941Y-95702152D01*
X145343582Y-95701974D01*
X145358547Y-95701974D01*
X145418158Y-95695566D01*
X145553006Y-95645271D01*
X145668221Y-95559021D01*
X145754471Y-95443806D01*
X145803485Y-95312391D01*
X145845356Y-95256459D01*
X145910820Y-95232041D01*
X145979093Y-95246892D01*
X146007348Y-95268044D01*
X146129274Y-95389970D01*
X146207905Y-95445028D01*
X146322840Y-95525507D01*
X146322842Y-95525508D01*
X146322845Y-95525510D01*
X146537012Y-95625378D01*
X146765267Y-95686538D01*
X146846067Y-95693607D01*
X146911136Y-95719059D01*
X146952115Y-95775650D01*
X146952642Y-95785130D01*
X146980036Y-95736802D01*
X147041883Y-95704295D01*
X147055494Y-95702337D01*
X147236083Y-95686538D01*
X147464338Y-95625378D01*
X147678505Y-95525510D01*
X147872076Y-95389970D01*
X148039170Y-95222876D01*
X148174710Y-95029305D01*
X148274578Y-94815138D01*
X148335738Y-94586883D01*
X148356334Y-94351475D01*
X148354514Y-94330678D01*
X148346223Y-94235911D01*
X148335738Y-94116067D01*
X148274578Y-93887812D01*
X148174710Y-93673646D01*
X148157725Y-93649388D01*
X148039169Y-93480072D01*
X147872077Y-93312981D01*
X147872070Y-93312976D01*
X147678509Y-93177442D01*
X147678505Y-93177440D01*
X147678503Y-93177439D01*
X147464338Y-93077572D01*
X147464334Y-93077571D01*
X147464330Y-93077569D01*
X147236088Y-93016413D01*
X147236078Y-93016411D01*
X147000676Y-92995816D01*
X147000674Y-92995816D01*
X146765271Y-93016411D01*
X146765261Y-93016413D01*
X146537019Y-93077569D01*
X146537010Y-93077573D01*
X146322846Y-93177439D01*
X146322844Y-93177440D01*
X146129275Y-93312978D01*
X146007348Y-93434905D01*
X145946025Y-93468389D01*
X145876333Y-93463405D01*
X145820400Y-93421533D01*
X145803485Y-93390556D01*
X145754472Y-93259146D01*
X145754468Y-93259139D01*
X145668222Y-93143930D01*
X145668219Y-93143927D01*
X145553010Y-93057681D01*
X145553003Y-93057677D01*
X145418157Y-93007383D01*
X145418158Y-93007383D01*
X145358558Y-93000976D01*
X145358556Y-93000975D01*
X145358548Y-93000975D01*
X145358539Y-93000975D01*
X143562804Y-93000975D01*
X143562798Y-93000976D01*
X143503191Y-93007383D01*
X143368346Y-93057677D01*
X143368339Y-93057681D01*
X143253130Y-93143927D01*
X143253127Y-93143930D01*
X143166881Y-93259139D01*
X143166877Y-93259146D01*
X143116583Y-93393992D01*
X143110176Y-93453591D01*
X143110175Y-93453610D01*
X143110175Y-95249345D01*
X143110176Y-95249351D01*
X143116583Y-95308958D01*
X143166877Y-95443803D01*
X143166881Y-95443810D01*
X143253127Y-95559019D01*
X143253130Y-95559022D01*
X143368339Y-95645268D01*
X143368346Y-95645272D01*
X143498269Y-95693730D01*
X143503192Y-95695566D01*
X143503202Y-95695567D01*
X143506495Y-95696345D01*
X143508803Y-95697659D01*
X143510460Y-95698277D01*
X143510359Y-95698545D01*
X143567214Y-95730913D01*
X143599606Y-95792821D01*
X143593386Y-95862413D01*
X143550529Y-95917595D01*
X143484641Y-95940847D01*
X143477998Y-95941025D01*
X143463033Y-95941025D01*
X143463023Y-95941026D01*
X143403416Y-95947433D01*
X143268571Y-95997727D01*
X143268564Y-95997731D01*
X143153355Y-96083977D01*
X143153352Y-96083980D01*
X143067106Y-96199189D01*
X143067102Y-96199196D01*
X143016808Y-96334042D01*
X143010401Y-96393641D01*
X143010400Y-96393660D01*
X138310199Y-96393660D01*
X143011217Y-91692644D01*
X143072540Y-91659159D01*
X143098898Y-91656325D01*
X151969988Y-91656325D01*
X152037027Y-91676010D01*
X152047303Y-91683380D01*
X152050136Y-91685639D01*
X152050138Y-91685641D01*
X152144289Y-91744800D01*
X152180848Y-91767772D01*
X152202878Y-91781614D01*
X152371922Y-91840765D01*
X152373145Y-91841193D01*
X152373150Y-91841194D01*
X152552396Y-91861390D01*
X152552400Y-91861390D01*
X152552404Y-91861390D01*
X152731649Y-91841194D01*
X152731652Y-91841193D01*
X152731655Y-91841193D01*
X152901922Y-91781614D01*
X153054662Y-91685641D01*
X153182216Y-91558087D01*
X153278189Y-91405347D01*
X153337768Y-91235080D01*
X153341852Y-91198835D01*
X153357965Y-91055828D01*
X153357965Y-91055821D01*
X153337769Y-90876575D01*
X153337768Y-90876570D01*
X153312122Y-90803279D01*
X153278189Y-90706303D01*
X153270264Y-90693691D01*
X153195261Y-90574324D01*
X153182216Y-90553563D01*
X153054662Y-90426009D01*
X152976108Y-90376650D01*
X152901923Y-90330036D01*
X152731654Y-90270456D01*
X152731649Y-90270455D01*
X152552404Y-90250260D01*
X152552396Y-90250260D01*
X152373150Y-90270455D01*
X152373145Y-90270456D01*
X152202876Y-90330036D01*
X152050136Y-90426010D01*
X152047303Y-90428270D01*
X152045124Y-90429159D01*
X152044242Y-90429714D01*
X152044144Y-90429559D01*
X151982617Y-90454680D01*
X151969988Y-90455325D01*
X143157247Y-90455325D01*
X143090208Y-90435640D01*
X143044453Y-90382836D01*
X143034509Y-90313678D01*
X143063534Y-90250122D01*
X143069566Y-90243644D01*
X143366678Y-89946532D01*
X144407547Y-88905661D01*
X144463130Y-88873570D01*
X144503785Y-88862677D01*
X144555885Y-88832597D01*
X144555886Y-88832597D01*
X144640709Y-88783624D01*
X144640708Y-88783624D01*
X144640716Y-88783620D01*
X144752520Y-88671816D01*
X144752520Y-88671815D01*
X144762729Y-88661607D01*
X144762736Y-88661614D01*
X144762766Y-88661567D01*
X144763857Y-88660476D01*
X144825194Y-88627022D01*
X144851496Y-88624200D01*
X147228830Y-88624200D01*
X147295869Y-88643885D01*
X147341624Y-88696689D01*
X147351568Y-88765847D01*
X147345871Y-88789156D01*
X147344257Y-88793765D01*
X147344255Y-88793775D01*
X147324060Y-88973021D01*
X147324060Y-88973028D01*
X147344255Y-89152274D01*
X147344256Y-89152279D01*
X147403836Y-89322548D01*
X147475559Y-89436694D01*
X147499809Y-89475287D01*
X147627363Y-89602841D01*
X147780103Y-89698814D01*
X147915124Y-89746060D01*
X147950370Y-89758393D01*
X147950375Y-89758394D01*
X148129621Y-89778590D01*
X148129625Y-89778590D01*
X148129629Y-89778590D01*
X148308874Y-89758394D01*
X148308877Y-89758393D01*
X148308880Y-89758393D01*
X148388642Y-89730482D01*
X148429597Y-89723525D01*
X153707905Y-89723525D01*
X153773877Y-89742531D01*
X153869528Y-89802633D01*
X153876103Y-89806764D01*
X153967245Y-89838656D01*
X154046370Y-89866343D01*
X154046375Y-89866344D01*
X154225621Y-89886540D01*
X154225625Y-89886540D01*
X154225629Y-89886540D01*
X154404874Y-89866344D01*
X154404877Y-89866343D01*
X154404880Y-89866343D01*
X154484642Y-89838432D01*
X154525597Y-89831475D01*
X156404570Y-89831475D01*
X156519113Y-89808690D01*
X156549563Y-89802633D01*
X156686145Y-89746059D01*
X156745411Y-89706459D01*
X156745411Y-89706458D01*
X156745413Y-89706458D01*
X156777238Y-89685193D01*
X156809066Y-89663927D01*
X159561123Y-86911868D01*
X159622446Y-86878384D01*
X159648804Y-86875550D01*
X159724939Y-86875550D01*
X159791978Y-86895235D01*
X159837733Y-86948039D01*
X159848159Y-86985667D01*
X159860105Y-87091699D01*
X159860106Y-87091704D01*
X159919686Y-87261973D01*
X160015409Y-87414314D01*
X160015659Y-87414712D01*
X160143213Y-87542266D01*
X160295953Y-87638239D01*
X160466220Y-87697818D01*
X160553144Y-87707611D01*
X160617555Y-87734676D01*
X160626940Y-87743150D01*
X165761214Y-92877424D01*
X165761224Y-92877435D01*
X165765554Y-92881765D01*
X165765555Y-92881766D01*
X165877359Y-92993570D01*
X165877361Y-92993571D01*
X165877365Y-92993574D01*
X166014284Y-93072623D01*
X166014291Y-93072627D01*
X166126094Y-93102584D01*
X166167017Y-93113550D01*
X166167018Y-93113550D01*
X174444789Y-93113550D01*
X174444805Y-93113551D01*
X174452401Y-93113551D01*
X174610512Y-93113551D01*
X174610515Y-93113551D01*
X174763243Y-93072627D01*
X174840059Y-93028277D01*
X174900174Y-92993570D01*
X175011978Y-92881766D01*
X175011978Y-92881764D01*
X175022182Y-92871561D01*
X175022186Y-92871556D01*
X175580620Y-92313122D01*
X183782172Y-92313122D01*
X183782172Y-92313127D01*
X183801996Y-92539724D01*
X183801998Y-92539735D01*
X183860868Y-92759442D01*
X183860873Y-92759456D01*
X183957001Y-92965603D01*
X184008112Y-93038597D01*
X184687138Y-92359571D01*
X184687138Y-92365786D01*
X184714397Y-92467519D01*
X184767058Y-92558731D01*
X184841532Y-92633205D01*
X184932744Y-92685866D01*
X185034477Y-92713125D01*
X185040691Y-92713125D01*
X184361664Y-93392150D01*
X184434651Y-93443257D01*
X184434659Y-93443261D01*
X184640806Y-93539389D01*
X184640820Y-93539394D01*
X184860527Y-93598264D01*
X184860538Y-93598266D01*
X185087136Y-93618091D01*
X185087140Y-93618091D01*
X185313737Y-93598266D01*
X185313748Y-93598264D01*
X185533455Y-93539394D01*
X185533469Y-93539389D01*
X185739616Y-93443261D01*
X185812609Y-93392149D01*
X185133585Y-92713125D01*
X185139799Y-92713125D01*
X185241532Y-92685866D01*
X185332744Y-92633205D01*
X185407218Y-92558731D01*
X185459879Y-92467519D01*
X185487138Y-92365786D01*
X185487138Y-92359572D01*
X186171335Y-93043769D01*
X186220330Y-93053616D01*
X186270513Y-93102231D01*
X186285187Y-93157757D01*
X186286237Y-93157701D01*
X186286284Y-93157696D01*
X186286284Y-93157698D01*
X186286462Y-93157689D01*
X186286639Y-93161001D01*
X186293046Y-93220608D01*
X186343340Y-93355453D01*
X186343344Y-93355460D01*
X186429590Y-93470669D01*
X186429593Y-93470672D01*
X186544802Y-93556918D01*
X186544809Y-93556922D01*
X186679655Y-93607216D01*
X186679654Y-93607216D01*
X186686582Y-93607960D01*
X186739265Y-93613625D01*
X188435010Y-93613624D01*
X188494621Y-93607216D01*
X188629469Y-93556921D01*
X188744684Y-93470671D01*
X188830934Y-93355456D01*
X188881229Y-93220608D01*
X188887638Y-93160998D01*
X188887637Y-91526648D01*
X197411416Y-91526648D01*
X197411416Y-91526651D01*
X197431825Y-91812012D01*
X197492634Y-92091545D01*
X197592616Y-92359608D01*
X197729716Y-92610688D01*
X197729721Y-92610696D01*
X197836407Y-92753212D01*
X197836408Y-92753213D01*
X198444438Y-92145183D01*
X198539354Y-92275825D01*
X198667350Y-92403821D01*
X198797990Y-92498736D01*
X198189960Y-93106765D01*
X198189961Y-93106766D01*
X198332478Y-93213453D01*
X198332486Y-93213458D01*
X198583567Y-93350558D01*
X198583566Y-93350558D01*
X198851629Y-93450540D01*
X199131162Y-93511349D01*
X199416524Y-93531759D01*
X199416526Y-93531759D01*
X199701887Y-93511349D01*
X199981420Y-93450540D01*
X200249483Y-93350558D01*
X200500563Y-93213458D01*
X200500564Y-93213457D01*
X200643088Y-93106765D01*
X200035059Y-92498736D01*
X200165700Y-92403821D01*
X200293696Y-92275825D01*
X200388611Y-92145184D01*
X200996640Y-92753213D01*
X201103332Y-92610689D01*
X201103333Y-92610688D01*
X201240433Y-92359608D01*
X201340415Y-92091545D01*
X201401224Y-91812012D01*
X201421634Y-91526651D01*
X201421634Y-91526648D01*
X201401224Y-91241287D01*
X201340415Y-90961754D01*
X201240433Y-90693691D01*
X201103333Y-90442611D01*
X201103328Y-90442603D01*
X200996641Y-90300086D01*
X200996640Y-90300085D01*
X200388610Y-90908115D01*
X200293696Y-90777475D01*
X200165700Y-90649479D01*
X200035058Y-90554562D01*
X200643088Y-89946533D01*
X200643087Y-89946532D01*
X200500571Y-89839846D01*
X200500563Y-89839841D01*
X200249482Y-89702741D01*
X200249483Y-89702741D01*
X199981420Y-89602759D01*
X199701887Y-89541950D01*
X199416526Y-89521541D01*
X199416524Y-89521541D01*
X199131162Y-89541950D01*
X198851629Y-89602759D01*
X198583566Y-89702741D01*
X198332486Y-89839841D01*
X198332478Y-89839846D01*
X198189960Y-89946532D01*
X198797991Y-90554563D01*
X198667350Y-90649479D01*
X198539354Y-90777475D01*
X198444438Y-90908116D01*
X197836407Y-90300085D01*
X197729721Y-90442603D01*
X197729716Y-90442611D01*
X197592616Y-90693691D01*
X197492634Y-90961754D01*
X197431825Y-91241287D01*
X197411416Y-91526648D01*
X188887637Y-91526648D01*
X188887637Y-91465253D01*
X188881229Y-91405642D01*
X188881119Y-91405348D01*
X188830935Y-91270796D01*
X188830931Y-91270789D01*
X188744685Y-91155580D01*
X188744682Y-91155577D01*
X188629473Y-91069331D01*
X188629466Y-91069327D01*
X188494620Y-91019033D01*
X188494621Y-91019033D01*
X188435021Y-91012626D01*
X188435019Y-91012625D01*
X188435011Y-91012625D01*
X188435002Y-91012625D01*
X186739267Y-91012625D01*
X186739261Y-91012626D01*
X186679654Y-91019033D01*
X186544809Y-91069327D01*
X186544802Y-91069331D01*
X186429593Y-91155577D01*
X186429590Y-91155580D01*
X186343344Y-91270789D01*
X186343340Y-91270796D01*
X186293046Y-91405642D01*
X186287525Y-91456998D01*
X186286639Y-91465248D01*
X186286460Y-91468577D01*
X186284985Y-91468497D01*
X186266953Y-91529909D01*
X186214149Y-91575664D01*
X186170660Y-91583154D01*
X185487138Y-92266676D01*
X185487138Y-92260464D01*
X185459879Y-92158731D01*
X185407218Y-92067519D01*
X185332744Y-91993045D01*
X185241532Y-91940384D01*
X185139799Y-91913125D01*
X185133583Y-91913125D01*
X185812610Y-91234099D01*
X185739616Y-91182988D01*
X185533469Y-91086860D01*
X185533455Y-91086855D01*
X185313748Y-91027985D01*
X185313737Y-91027983D01*
X185087140Y-91008159D01*
X185087136Y-91008159D01*
X184860538Y-91027983D01*
X184860527Y-91027985D01*
X184640820Y-91086855D01*
X184640811Y-91086859D01*
X184434654Y-91182991D01*
X184434650Y-91182993D01*
X184361664Y-91234098D01*
X184361664Y-91234099D01*
X185040691Y-91913125D01*
X185034477Y-91913125D01*
X184932744Y-91940384D01*
X184841532Y-91993045D01*
X184767058Y-92067519D01*
X184714397Y-92158731D01*
X184687138Y-92260464D01*
X184687138Y-92266677D01*
X184008112Y-91587651D01*
X184008111Y-91587651D01*
X183957006Y-91660637D01*
X183957004Y-91660641D01*
X183860872Y-91866798D01*
X183860868Y-91866807D01*
X183801998Y-92086514D01*
X183801996Y-92086525D01*
X183782172Y-92313122D01*
X175580620Y-92313122D01*
X176311226Y-91582516D01*
X176372549Y-91549031D01*
X176442241Y-91554015D01*
X176486588Y-91582516D01*
X176519863Y-91615791D01*
X176588883Y-91659159D01*
X176650382Y-91697802D01*
X176672603Y-91711764D01*
X176814152Y-91761294D01*
X176842870Y-91771343D01*
X176842875Y-91771344D01*
X177022121Y-91791540D01*
X177022125Y-91791540D01*
X177022129Y-91791540D01*
X177201374Y-91771344D01*
X177201377Y-91771343D01*
X177201380Y-91771343D01*
X177371647Y-91711764D01*
X177524387Y-91615791D01*
X177524392Y-91615785D01*
X177527222Y-91613530D01*
X177529400Y-91612640D01*
X177530283Y-91612086D01*
X177530380Y-91612240D01*
X177591908Y-91587120D01*
X177604537Y-91586475D01*
X182355181Y-91586475D01*
X182355197Y-91586476D01*
X182362793Y-91586476D01*
X182520904Y-91586476D01*
X182520907Y-91586476D01*
X182673635Y-91545552D01*
X182730796Y-91512550D01*
X182810566Y-91466495D01*
X182822334Y-91454726D01*
X182883655Y-91421241D01*
X182896116Y-91419187D01*
X182983055Y-91409393D01*
X183153322Y-91349814D01*
X183306062Y-91253841D01*
X183433616Y-91126287D01*
X183529589Y-90973547D01*
X183589168Y-90803280D01*
X183591303Y-90784330D01*
X183609365Y-90624028D01*
X183609365Y-90624021D01*
X183589169Y-90444775D01*
X183589168Y-90444770D01*
X183563304Y-90370854D01*
X183529589Y-90274503D01*
X183527045Y-90270455D01*
X183490382Y-90212105D01*
X183433616Y-90121763D01*
X183306062Y-89994209D01*
X183275173Y-89974800D01*
X183153323Y-89898236D01*
X182983054Y-89838656D01*
X182983049Y-89838655D01*
X182803804Y-89818460D01*
X182803796Y-89818460D01*
X182659282Y-89834742D01*
X182590460Y-89822687D01*
X182539081Y-89775338D01*
X182521457Y-89707728D01*
X182543184Y-89641322D01*
X182557712Y-89623847D01*
X188224912Y-83956648D01*
X195401057Y-83956648D01*
X195401057Y-83956651D01*
X195420889Y-84183336D01*
X195420891Y-84183347D01*
X195479783Y-84403138D01*
X195479786Y-84403147D01*
X195575956Y-84609382D01*
X195575957Y-84609384D01*
X195706479Y-84795791D01*
X195779657Y-84868969D01*
X195813142Y-84930292D01*
X195808158Y-84999984D01*
X195779657Y-85044331D01*
X195706479Y-85117508D01*
X195575957Y-85303915D01*
X195575956Y-85303917D01*
X195479786Y-85510152D01*
X195479783Y-85510161D01*
X195420891Y-85729952D01*
X195420889Y-85729963D01*
X195401057Y-85956648D01*
X195401057Y-85956651D01*
X195420889Y-86183336D01*
X195420891Y-86183347D01*
X195479783Y-86403138D01*
X195479786Y-86403147D01*
X195575956Y-86609382D01*
X195575957Y-86609384D01*
X195706479Y-86795791D01*
X195867381Y-86956693D01*
X195868542Y-86957667D01*
X195868914Y-86958226D01*
X195871214Y-86960526D01*
X195870752Y-86960987D01*
X195907251Y-87015834D01*
X195908367Y-87085695D01*
X195871536Y-87145069D01*
X195832181Y-87168847D01*
X195714194Y-87212853D01*
X195714189Y-87212856D01*
X195598980Y-87299102D01*
X195598977Y-87299105D01*
X195512731Y-87414314D01*
X195512727Y-87414321D01*
X195462433Y-87549167D01*
X195456651Y-87602952D01*
X195456026Y-87608773D01*
X195456025Y-87608785D01*
X195456025Y-89304520D01*
X195456026Y-89304526D01*
X195462433Y-89364133D01*
X195512727Y-89498978D01*
X195512731Y-89498985D01*
X195598977Y-89614194D01*
X195598980Y-89614197D01*
X195714189Y-89700443D01*
X195714196Y-89700447D01*
X195849042Y-89750741D01*
X195849041Y-89750741D01*
X195855969Y-89751485D01*
X195908652Y-89757150D01*
X197504397Y-89757149D01*
X197564008Y-89750741D01*
X197698856Y-89700446D01*
X197814071Y-89614196D01*
X197900321Y-89498981D01*
X197950616Y-89364133D01*
X197957025Y-89304523D01*
X197957024Y-87608778D01*
X197950616Y-87549167D01*
X197932756Y-87501283D01*
X197900322Y-87414321D01*
X197900318Y-87414314D01*
X197814072Y-87299105D01*
X197814069Y-87299102D01*
X197698860Y-87212856D01*
X197698853Y-87212852D01*
X197580869Y-87168847D01*
X197524935Y-87126976D01*
X197500518Y-87061511D01*
X197515370Y-86993238D01*
X197542018Y-86960708D01*
X197541836Y-86960526D01*
X197543667Y-86958694D01*
X197544515Y-86957660D01*
X197545652Y-86956705D01*
X197545664Y-86956697D01*
X197706572Y-86795789D01*
X197837093Y-86609384D01*
X197933264Y-86403146D01*
X197992160Y-86183342D01*
X198011993Y-85956650D01*
X198009908Y-85932824D01*
X198003387Y-85858286D01*
X197992160Y-85729958D01*
X197933264Y-85510154D01*
X197837093Y-85303916D01*
X197765596Y-85201807D01*
X197706573Y-85117512D01*
X197676854Y-85087793D01*
X197633390Y-85044329D01*
X197599907Y-84983009D01*
X197604891Y-84913317D01*
X197633390Y-84868970D01*
X197706572Y-84795789D01*
X197837093Y-84609384D01*
X197933264Y-84403146D01*
X197992160Y-84183342D01*
X198011380Y-83963652D01*
X198011993Y-83956651D01*
X198011993Y-83956648D01*
X197998939Y-83807446D01*
X197992160Y-83729958D01*
X197939430Y-83533165D01*
X197933266Y-83510161D01*
X197933263Y-83510152D01*
X197923831Y-83489926D01*
X197837093Y-83303916D01*
X197717357Y-83132914D01*
X197706570Y-83117508D01*
X197545666Y-82956604D01*
X197359259Y-82826082D01*
X197359255Y-82826080D01*
X197343547Y-82818755D01*
X197291108Y-82772581D01*
X197271958Y-82705387D01*
X197292175Y-82638507D01*
X197343553Y-82593990D01*
X197359006Y-82586784D01*
X197431996Y-82535674D01*
X196815522Y-81919200D01*
X196889868Y-81899280D01*
X196998182Y-81836745D01*
X197086620Y-81748307D01*
X197149155Y-81639993D01*
X197169075Y-81565647D01*
X197785549Y-82182121D01*
X197836661Y-82109128D01*
X197932789Y-81902981D01*
X197932794Y-81902967D01*
X197991664Y-81683260D01*
X197991666Y-81683249D01*
X198011491Y-81456652D01*
X198011491Y-81456647D01*
X197991666Y-81230050D01*
X197991664Y-81230039D01*
X197932794Y-81010332D01*
X197932789Y-81010318D01*
X197836661Y-80804171D01*
X197836657Y-80804163D01*
X197785550Y-80731176D01*
X197169075Y-81347651D01*
X197149155Y-81273307D01*
X197086620Y-81164993D01*
X196998182Y-81076555D01*
X196889868Y-81014020D01*
X196815521Y-80994099D01*
X197431997Y-80377624D01*
X197359003Y-80326513D01*
X197152856Y-80230385D01*
X197152842Y-80230380D01*
X196933135Y-80171510D01*
X196933124Y-80171508D01*
X196706527Y-80151684D01*
X196706523Y-80151684D01*
X196479925Y-80171508D01*
X196479914Y-80171510D01*
X196260207Y-80230380D01*
X196260198Y-80230384D01*
X196054041Y-80326516D01*
X196054037Y-80326518D01*
X195981051Y-80377623D01*
X195981051Y-80377624D01*
X196597527Y-80994099D01*
X196523182Y-81014020D01*
X196414868Y-81076555D01*
X196326430Y-81164993D01*
X196263895Y-81273307D01*
X196243974Y-81347652D01*
X195627499Y-80731176D01*
X195627498Y-80731176D01*
X195576393Y-80804162D01*
X195576391Y-80804166D01*
X195480259Y-81010323D01*
X195480255Y-81010332D01*
X195421385Y-81230039D01*
X195421383Y-81230050D01*
X195401559Y-81456647D01*
X195401559Y-81456652D01*
X195421383Y-81683249D01*
X195421385Y-81683260D01*
X195480255Y-81902967D01*
X195480260Y-81902981D01*
X195576388Y-82109128D01*
X195627499Y-82182122D01*
X196243974Y-81565647D01*
X196263895Y-81639993D01*
X196326430Y-81748307D01*
X196414868Y-81836745D01*
X196523182Y-81899280D01*
X196597527Y-81919200D01*
X195981051Y-82535675D01*
X196054038Y-82586782D01*
X196054040Y-82586783D01*
X196069498Y-82593991D01*
X196121938Y-82640163D01*
X196141091Y-82707356D01*
X196120876Y-82774237D01*
X196069504Y-82818754D01*
X196053795Y-82826079D01*
X196053790Y-82826082D01*
X195867383Y-82956604D01*
X195706479Y-83117508D01*
X195575957Y-83303915D01*
X195575956Y-83303917D01*
X195479786Y-83510152D01*
X195479783Y-83510161D01*
X195420891Y-83729952D01*
X195420889Y-83729963D01*
X195401057Y-83956648D01*
X188224912Y-83956648D01*
X193794913Y-78386648D01*
X197411416Y-78386648D01*
X197411416Y-78386651D01*
X197431825Y-78672012D01*
X197492634Y-78951545D01*
X197592616Y-79219608D01*
X197729716Y-79470688D01*
X197729721Y-79470696D01*
X197836407Y-79613212D01*
X197836408Y-79613213D01*
X198444438Y-79005183D01*
X198539354Y-79135825D01*
X198667350Y-79263821D01*
X198797990Y-79358736D01*
X198189960Y-79966765D01*
X198189961Y-79966766D01*
X198332478Y-80073453D01*
X198332486Y-80073458D01*
X198583567Y-80210558D01*
X198583566Y-80210558D01*
X198851629Y-80310540D01*
X199131162Y-80371349D01*
X199416524Y-80391759D01*
X199416526Y-80391759D01*
X199701887Y-80371349D01*
X199981420Y-80310540D01*
X200249483Y-80210558D01*
X200500563Y-80073458D01*
X200500564Y-80073457D01*
X200643088Y-79966765D01*
X200035059Y-79358736D01*
X200165700Y-79263821D01*
X200293696Y-79135825D01*
X200388611Y-79005184D01*
X200996640Y-79613213D01*
X201103332Y-79470689D01*
X201103333Y-79470688D01*
X201240433Y-79219608D01*
X201340415Y-78951545D01*
X201401224Y-78672012D01*
X201421634Y-78386651D01*
X201421634Y-78386648D01*
X201401224Y-78101287D01*
X201340415Y-77821754D01*
X201240433Y-77553691D01*
X201103333Y-77302611D01*
X201103328Y-77302603D01*
X200996641Y-77160086D01*
X200996640Y-77160085D01*
X200388610Y-77768115D01*
X200293696Y-77637475D01*
X200165700Y-77509479D01*
X200035058Y-77414562D01*
X200643088Y-76806533D01*
X200643087Y-76806532D01*
X200500571Y-76699846D01*
X200500563Y-76699841D01*
X200249482Y-76562741D01*
X200249483Y-76562741D01*
X199981420Y-76462759D01*
X199701887Y-76401950D01*
X199416526Y-76381541D01*
X199416524Y-76381541D01*
X199131162Y-76401950D01*
X198851629Y-76462759D01*
X198583566Y-76562741D01*
X198332486Y-76699841D01*
X198332478Y-76699846D01*
X198189960Y-76806532D01*
X198797991Y-77414563D01*
X198667350Y-77509479D01*
X198539354Y-77637475D01*
X198444438Y-77768116D01*
X197836407Y-77160085D01*
X197729721Y-77302603D01*
X197729716Y-77302611D01*
X197592616Y-77553691D01*
X197492634Y-77821754D01*
X197431825Y-78101287D01*
X197411416Y-78386648D01*
X193794913Y-78386648D01*
X199153645Y-73027916D01*
X199232702Y-72890984D01*
X199240035Y-72863616D01*
X199276396Y-72803961D01*
X199339242Y-72773430D01*
X199407261Y-72781152D01*
X199516793Y-72826521D01*
X199748282Y-72882097D01*
X199985625Y-72900776D01*
X200222967Y-72882097D01*
X200454458Y-72826521D01*
X200454459Y-72826521D01*
X200674405Y-72735417D01*
X200674408Y-72735415D01*
X200866295Y-72617825D01*
X200866296Y-72617824D01*
X200252247Y-72003775D01*
X200305357Y-71981777D01*
X200415912Y-71907907D01*
X200509932Y-71813887D01*
X200583802Y-71703332D01*
X200605800Y-71650222D01*
X201219849Y-72264271D01*
X201219850Y-72264270D01*
X201337440Y-72072383D01*
X201337442Y-72072380D01*
X201428546Y-71852434D01*
X201428546Y-71852433D01*
X201484122Y-71620942D01*
X201502801Y-71383600D01*
X201492908Y-71257904D01*
X201507272Y-71189527D01*
X201556323Y-71139769D01*
X201624488Y-71124430D01*
X201687649Y-71146599D01*
X201839411Y-71252864D01*
X201839415Y-71252866D01*
X202043590Y-71348074D01*
X202043599Y-71348078D01*
X202261193Y-71406381D01*
X202261203Y-71406383D01*
X202485624Y-71426018D01*
X202485626Y-71426018D01*
X202710046Y-71406383D01*
X202710056Y-71406381D01*
X202927650Y-71348078D01*
X202927659Y-71348074D01*
X203131831Y-71252868D01*
X203202120Y-71203649D01*
X202635446Y-70636975D01*
X202688267Y-70622822D01*
X202807982Y-70553704D01*
X202905729Y-70455957D01*
X202974847Y-70336242D01*
X202989000Y-70283421D01*
X203555674Y-70850095D01*
X203604893Y-70779806D01*
X203700099Y-70575634D01*
X203700103Y-70575625D01*
X203758406Y-70358031D01*
X203758408Y-70358021D01*
X203778043Y-70133600D01*
X203778043Y-70133599D01*
X203758408Y-69909178D01*
X203758406Y-69909168D01*
X203700103Y-69691574D01*
X203700099Y-69691565D01*
X203604892Y-69487391D01*
X203604890Y-69487387D01*
X203555675Y-69417102D01*
X202989000Y-69983777D01*
X202974847Y-69930958D01*
X202905729Y-69811243D01*
X202807982Y-69713496D01*
X202688267Y-69644378D01*
X202635446Y-69630224D01*
X203202121Y-69063549D01*
X203202121Y-69063548D01*
X203139001Y-69019350D01*
X203095376Y-68964773D01*
X203086125Y-68917776D01*
X203086125Y-66850033D01*
X203105810Y-66782994D01*
X203138997Y-66748462D01*
X203316698Y-66624034D01*
X203476059Y-66464673D01*
X203605327Y-66280060D01*
X203700572Y-66075805D01*
X203758903Y-65858113D01*
X203775281Y-65670909D01*
X203778545Y-65633602D01*
X203778545Y-65633597D01*
X203770337Y-65539784D01*
X203758903Y-65409087D01*
X203700572Y-65191395D01*
X203696227Y-65182078D01*
X203657892Y-65099867D01*
X203605327Y-64987140D01*
X203476059Y-64802527D01*
X203316698Y-64643166D01*
X203260349Y-64603710D01*
X203132091Y-64513902D01*
X203132088Y-64513900D01*
X203132085Y-64513898D01*
X203132081Y-64513896D01*
X202927836Y-64418655D01*
X202927825Y-64418651D01*
X202827218Y-64391694D01*
X202766779Y-64375499D01*
X202707121Y-64339135D01*
X202676592Y-64276288D01*
X202684887Y-64206912D01*
X202729372Y-64153035D01*
X202766783Y-64135950D01*
X202787948Y-64130279D01*
X202787959Y-64130274D01*
X202992131Y-64035068D01*
X203062420Y-63985849D01*
X202495746Y-63419175D01*
X202548567Y-63405022D01*
X202668282Y-63335904D01*
X202766029Y-63238157D01*
X202835147Y-63118442D01*
X202849300Y-63065621D01*
X203415974Y-63632295D01*
X203465193Y-63562006D01*
X203560399Y-63357834D01*
X203560403Y-63357825D01*
X203618706Y-63140231D01*
X203618708Y-63140221D01*
X203638343Y-62915800D01*
X203638343Y-62915799D01*
X203618708Y-62691378D01*
X203618706Y-62691368D01*
X203560403Y-62473774D01*
X203560399Y-62473765D01*
X203465192Y-62269591D01*
X203465190Y-62269587D01*
X203415975Y-62199302D01*
X202849300Y-62765977D01*
X202835147Y-62713158D01*
X202766029Y-62593443D01*
X202668282Y-62495696D01*
X202548567Y-62426578D01*
X202495746Y-62412424D01*
X203062421Y-61845749D01*
X202992131Y-61796531D01*
X202787959Y-61701325D01*
X202787950Y-61701321D01*
X202570356Y-61643018D01*
X202570346Y-61643016D01*
X202345926Y-61623382D01*
X202345924Y-61623382D01*
X202121503Y-61643016D01*
X202121493Y-61643018D01*
X202015018Y-61671548D01*
X201945168Y-61669885D01*
X201887306Y-61630722D01*
X201859802Y-61566494D01*
X201858925Y-61551773D01*
X201858925Y-59803397D01*
X201878610Y-59736358D01*
X201895244Y-59715716D01*
X201913425Y-59697535D01*
X201974748Y-59664050D01*
X202033197Y-59665440D01*
X202121412Y-59689078D01*
X202281778Y-59703108D01*
X202345923Y-59708720D01*
X202345925Y-59708720D01*
X202345927Y-59708720D01*
X202402053Y-59703809D01*
X202570438Y-59689078D01*
X202788130Y-59630747D01*
X202992385Y-59535502D01*
X203176998Y-59406234D01*
X203336359Y-59246873D01*
X203465627Y-59062260D01*
X203560872Y-58858005D01*
X203619203Y-58640313D01*
X203634339Y-58467307D01*
X203638845Y-58415802D01*
X203638845Y-58415797D01*
X203625880Y-58267609D01*
X203619203Y-58191287D01*
X203560872Y-57973595D01*
X203545754Y-57941175D01*
X203504868Y-57853494D01*
X203465627Y-57769340D01*
X203336359Y-57584727D01*
X203176998Y-57425366D01*
X202992385Y-57296098D01*
X202981131Y-57290850D01*
X202788136Y-57200855D01*
X202788125Y-57200851D01*
X202570439Y-57142522D01*
X202570432Y-57142521D01*
X202345927Y-57122880D01*
X202345923Y-57122880D01*
X202121417Y-57142521D01*
X202121410Y-57142522D01*
X201903724Y-57200851D01*
X201903713Y-57200855D01*
X201699468Y-57296096D01*
X201699466Y-57296097D01*
X201548001Y-57402155D01*
X201481795Y-57424482D01*
X201414027Y-57407472D01*
X201366214Y-57356524D01*
X201353259Y-57290850D01*
X201363101Y-57165799D01*
X201344422Y-56928457D01*
X201288846Y-56696966D01*
X201288846Y-56696965D01*
X201197742Y-56477019D01*
X201197740Y-56477016D01*
X201080149Y-56285127D01*
X200466100Y-56899176D01*
X200444102Y-56846068D01*
X200370232Y-56735513D01*
X200276212Y-56641493D01*
X200165657Y-56567623D01*
X200112547Y-56545624D01*
X200741352Y-55916819D01*
X200802675Y-55883334D01*
X200829033Y-55880500D01*
X205514108Y-55880500D01*
X205573907Y-55880500D01*
X205586061Y-55881097D01*
G37*
%TD.AperFunction*%
%TA.AperFunction,Conductor*%
G36*
X98376550Y-112901788D02*
G01*
X98319543Y-112868875D01*
X98192376Y-112834800D01*
X98060724Y-112834800D01*
X97933557Y-112868875D01*
X97876550Y-112901788D01*
X97876550Y-111227812D01*
X97933557Y-111260725D01*
X98060724Y-111294800D01*
X98192376Y-111294800D01*
X98319543Y-111260725D01*
X98376550Y-111227812D01*
X98376550Y-112901788D01*
G37*
%TD.AperFunction*%
%TA.AperFunction,Conductor*%
G36*
X98376550Y-110361788D02*
G01*
X98319543Y-110328875D01*
X98192376Y-110294800D01*
X98060724Y-110294800D01*
X97933557Y-110328875D01*
X97876550Y-110361788D01*
X97876550Y-108687812D01*
X97933557Y-108720725D01*
X98060724Y-108754800D01*
X98192376Y-108754800D01*
X98319543Y-108720725D01*
X98376550Y-108687812D01*
X98376550Y-110361788D01*
G37*
%TD.AperFunction*%
%TA.AperFunction,Conductor*%
G36*
X98376550Y-107821788D02*
G01*
X98319543Y-107788875D01*
X98192376Y-107754800D01*
X98060724Y-107754800D01*
X97933557Y-107788875D01*
X97876550Y-107821788D01*
X97876550Y-106147812D01*
X97933557Y-106180725D01*
X98060724Y-106214800D01*
X98192376Y-106214800D01*
X98319543Y-106180725D01*
X98376550Y-106147812D01*
X98376550Y-107821788D01*
G37*
%TD.AperFunction*%
%TA.AperFunction,Conductor*%
G36*
X98376550Y-105281788D02*
G01*
X98319543Y-105248875D01*
X98192376Y-105214800D01*
X98060724Y-105214800D01*
X97933557Y-105248875D01*
X97876550Y-105281788D01*
X97876550Y-103607812D01*
X97933557Y-103640725D01*
X98060724Y-103674800D01*
X98192376Y-103674800D01*
X98319543Y-103640725D01*
X98376550Y-103607812D01*
X98376550Y-105281788D01*
G37*
%TD.AperFunction*%
%TA.AperFunction,Conductor*%
G36*
X98376550Y-102741788D02*
G01*
X98319543Y-102708875D01*
X98192376Y-102674800D01*
X98060724Y-102674800D01*
X97933557Y-102708875D01*
X97876550Y-102741788D01*
X97876550Y-101067812D01*
X97933557Y-101100725D01*
X98060724Y-101134800D01*
X98192376Y-101134800D01*
X98319543Y-101100725D01*
X98376550Y-101067812D01*
X98376550Y-102741788D01*
G37*
%TD.AperFunction*%
%TA.AperFunction,Conductor*%
G36*
X98376550Y-100201788D02*
G01*
X98319543Y-100168875D01*
X98192376Y-100134800D01*
X98060724Y-100134800D01*
X97933557Y-100168875D01*
X97876550Y-100201788D01*
X97876550Y-98527812D01*
X97933557Y-98560725D01*
X98060724Y-98594800D01*
X98192376Y-98594800D01*
X98319543Y-98560725D01*
X98376550Y-98527812D01*
X98376550Y-100201788D01*
G37*
%TD.AperFunction*%
%TA.AperFunction,Conductor*%
G36*
X124049142Y-87002410D02*
G01*
X124069783Y-87019043D01*
X127625059Y-90574320D01*
X127625061Y-90574321D01*
X127625065Y-90574324D01*
X127755239Y-90649479D01*
X127761991Y-90653377D01*
X127914718Y-90694301D01*
X127914720Y-90694301D01*
X128080429Y-90694301D01*
X128080445Y-90694300D01*
X138916103Y-90694300D01*
X138983142Y-90713985D01*
X139028897Y-90766789D01*
X139038841Y-90835947D01*
X139009816Y-90899503D01*
X139003784Y-90905981D01*
X136233134Y-93676631D01*
X136171811Y-93710116D01*
X136145453Y-93712950D01*
X129002206Y-93712950D01*
X128935167Y-93693265D01*
X128889412Y-93640461D01*
X128879468Y-93571303D01*
X128908493Y-93507747D01*
X128961251Y-93471908D01*
X128985551Y-93463405D01*
X129073547Y-93432614D01*
X129226287Y-93336641D01*
X129353841Y-93209087D01*
X129449814Y-93056347D01*
X129509393Y-92886080D01*
X129509879Y-92881766D01*
X129529590Y-92706828D01*
X129529590Y-92706821D01*
X129509394Y-92527575D01*
X129509393Y-92527570D01*
X129488380Y-92467519D01*
X129449814Y-92357303D01*
X129422054Y-92313124D01*
X129353840Y-92204562D01*
X129226287Y-92077009D01*
X129073548Y-91981036D01*
X128903279Y-91921456D01*
X128903274Y-91921455D01*
X128724029Y-91901260D01*
X128724021Y-91901260D01*
X128544775Y-91921455D01*
X128544770Y-91921456D01*
X128374501Y-91981036D01*
X128221762Y-92077009D01*
X128094209Y-92204562D01*
X127998235Y-92357303D01*
X127942914Y-92515404D01*
X127902192Y-92572181D01*
X127837239Y-92597928D01*
X127825872Y-92598450D01*
X119455871Y-92598450D01*
X119388832Y-92578765D01*
X119343077Y-92525961D01*
X119333133Y-92456803D01*
X119362158Y-92393247D01*
X119368190Y-92386769D01*
X120743475Y-91011484D01*
X122123711Y-89631247D01*
X122170438Y-89601888D01*
X122183797Y-89597214D01*
X122336537Y-89501241D01*
X122464091Y-89373687D01*
X122560064Y-89220947D01*
X122619643Y-89050680D01*
X122625798Y-88996053D01*
X122639840Y-88871428D01*
X122639840Y-88871421D01*
X122619644Y-88692175D01*
X122619643Y-88692170D01*
X122608951Y-88661614D01*
X122560064Y-88521903D01*
X122551554Y-88508360D01*
X122505455Y-88434993D01*
X122464091Y-88369163D01*
X122336537Y-88241609D01*
X122288732Y-88211571D01*
X122183798Y-88145636D01*
X122013529Y-88086056D01*
X122013524Y-88086055D01*
X121834279Y-88065860D01*
X121834271Y-88065860D01*
X121655025Y-88086055D01*
X121655020Y-88086056D01*
X121484751Y-88145636D01*
X121332012Y-88241609D01*
X121204457Y-88369164D01*
X121111363Y-88517322D01*
X121059029Y-88563612D01*
X120989975Y-88574260D01*
X120926127Y-88545885D01*
X120887755Y-88487495D01*
X120883150Y-88465238D01*
X120879743Y-88434995D01*
X120820164Y-88264728D01*
X120805637Y-88241609D01*
X120752238Y-88156625D01*
X120724191Y-88111988D01*
X120596637Y-87984434D01*
X120443898Y-87888461D01*
X120273629Y-87828881D01*
X120273624Y-87828880D01*
X120094379Y-87808685D01*
X120094371Y-87808685D01*
X119915125Y-87828880D01*
X119915120Y-87828881D01*
X119744851Y-87888461D01*
X119592112Y-87984434D01*
X119464559Y-88111987D01*
X119368585Y-88264728D01*
X119309005Y-88435000D01*
X119299212Y-88521918D01*
X119272145Y-88586332D01*
X119263673Y-88595715D01*
X116405334Y-91454056D01*
X116344011Y-91487541D01*
X116317653Y-91490375D01*
X109858583Y-91490375D01*
X109858567Y-91490374D01*
X109850971Y-91490374D01*
X109692857Y-91490374D01*
X109540129Y-91531298D01*
X109540128Y-91531298D01*
X109540126Y-91531299D01*
X109515442Y-91545551D01*
X109515441Y-91545552D01*
X109500783Y-91554015D01*
X109403199Y-91610354D01*
X109403196Y-91610356D01*
X102891606Y-98121947D01*
X102830283Y-98155432D01*
X102760591Y-98150448D01*
X102704658Y-98108576D01*
X102680241Y-98043112D01*
X102679925Y-98034266D01*
X102679925Y-97674172D01*
X102699610Y-97607133D01*
X102716244Y-97586491D01*
X112791566Y-87511169D01*
X112852889Y-87477684D01*
X112879247Y-87474850D01*
X118378931Y-87474850D01*
X118378947Y-87474851D01*
X118386543Y-87474851D01*
X118544654Y-87474851D01*
X118544657Y-87474851D01*
X118697385Y-87433927D01*
X118770957Y-87391450D01*
X118834316Y-87354870D01*
X118946120Y-87243066D01*
X118946120Y-87243064D01*
X118956321Y-87232864D01*
X118956324Y-87232859D01*
X119170142Y-87019041D01*
X119231464Y-86985559D01*
X119257822Y-86982725D01*
X123982103Y-86982725D01*
X124049142Y-87002410D01*
G37*
%TD.AperFunction*%
%TA.AperFunction,Conductor*%
G36*
X98376550Y-97661788D02*
G01*
X98319543Y-97628875D01*
X98192376Y-97594800D01*
X98060724Y-97594800D01*
X97933557Y-97628875D01*
X97876550Y-97661788D01*
X97876550Y-95987812D01*
X97933557Y-96020725D01*
X98060724Y-96054800D01*
X98192376Y-96054800D01*
X98319543Y-96020725D01*
X98376550Y-95987812D01*
X98376550Y-97661788D01*
G37*
%TD.AperFunction*%
%TA.AperFunction,Conductor*%
G36*
X98376550Y-95121788D02*
G01*
X98319543Y-95088875D01*
X98192376Y-95054800D01*
X98060724Y-95054800D01*
X97933557Y-95088875D01*
X97876550Y-95121788D01*
X97876550Y-93447812D01*
X97933557Y-93480725D01*
X98060724Y-93514800D01*
X98192376Y-93514800D01*
X98319543Y-93480725D01*
X98376550Y-93447812D01*
X98376550Y-95121788D01*
G37*
%TD.AperFunction*%
%TA.AperFunction,Conductor*%
G36*
X98376550Y-92581788D02*
G01*
X98319543Y-92548875D01*
X98192376Y-92514800D01*
X98060724Y-92514800D01*
X97933557Y-92548875D01*
X97876550Y-92581788D01*
X97876550Y-90907812D01*
X97933557Y-90940725D01*
X98060724Y-90974800D01*
X98192376Y-90974800D01*
X98319543Y-90940725D01*
X98376550Y-90907812D01*
X98376550Y-92581788D01*
G37*
%TD.AperFunction*%
%TA.AperFunction,Conductor*%
G36*
X98376550Y-90041788D02*
G01*
X98319543Y-90008875D01*
X98192376Y-89974800D01*
X98060724Y-89974800D01*
X97933557Y-90008875D01*
X97876550Y-90041788D01*
X97876550Y-88367812D01*
X97933557Y-88400725D01*
X98060724Y-88434800D01*
X98192376Y-88434800D01*
X98319543Y-88400725D01*
X98376550Y-88367812D01*
X98376550Y-90041788D01*
G37*
%TD.AperFunction*%
%TA.AperFunction,Conductor*%
G36*
X194992263Y-62499484D02*
G01*
X195048196Y-62541356D01*
X195052346Y-62547814D01*
X195141602Y-62667044D01*
X195141603Y-62667044D01*
X195141604Y-62667046D01*
X195152521Y-62675218D01*
X195194392Y-62731150D01*
X195199378Y-62800842D01*
X195177478Y-62848796D01*
X195141079Y-62897418D01*
X195141077Y-62897421D01*
X195090783Y-63032267D01*
X195084472Y-63090975D01*
X195084376Y-63091873D01*
X195084375Y-63091885D01*
X195084375Y-63348526D01*
X195064690Y-63415565D01*
X195011886Y-63461320D01*
X194992471Y-63468300D01*
X194948166Y-63480172D01*
X194948165Y-63480172D01*
X194909385Y-63502563D01*
X194909384Y-63502563D01*
X194811237Y-63559227D01*
X194811232Y-63559231D01*
X194699428Y-63671036D01*
X185060809Y-73309656D01*
X184949008Y-73421456D01*
X184949006Y-73421459D01*
X184869948Y-73558389D01*
X184858961Y-73599395D01*
X184829024Y-73711118D01*
X184829024Y-73869232D01*
X184842039Y-73917802D01*
X184843775Y-73924282D01*
X184848000Y-73956376D01*
X184848000Y-76102827D01*
X184828315Y-76169866D01*
X184775511Y-76215621D01*
X184737884Y-76226047D01*
X184669250Y-76233780D01*
X184498978Y-76293360D01*
X184346239Y-76389333D01*
X184216567Y-76519005D01*
X184190887Y-76538710D01*
X184130534Y-76573555D01*
X184130531Y-76573557D01*
X175995504Y-84708584D01*
X175977196Y-84740296D01*
X175955386Y-84778073D01*
X175916448Y-84845515D01*
X175875524Y-84998243D01*
X175875524Y-84998245D01*
X175875524Y-85166346D01*
X175875525Y-85166359D01*
X175875525Y-87602952D01*
X175855840Y-87669991D01*
X175839206Y-87690633D01*
X174691983Y-88837856D01*
X174630660Y-88871341D01*
X174604302Y-88874175D01*
X166028748Y-88874175D01*
X165961709Y-88854490D01*
X165941067Y-88837856D01*
X165740210Y-88636999D01*
X165706725Y-88575676D01*
X165710850Y-88508364D01*
X165726618Y-88463305D01*
X165726792Y-88461766D01*
X165746815Y-88284053D01*
X165746815Y-88284046D01*
X165726619Y-88104800D01*
X165726618Y-88104795D01*
X165667039Y-87934528D01*
X165641017Y-87893115D01*
X165612537Y-87847789D01*
X165571066Y-87781788D01*
X165443512Y-87654234D01*
X165418056Y-87638239D01*
X165290773Y-87558261D01*
X165120504Y-87498681D01*
X165120499Y-87498680D01*
X164941254Y-87478485D01*
X164941246Y-87478485D01*
X164762000Y-87498680D01*
X164761993Y-87498682D01*
X164730104Y-87509840D01*
X164660325Y-87513400D01*
X164599698Y-87478669D01*
X164567473Y-87416675D01*
X164573879Y-87347100D01*
X164584153Y-87326833D01*
X164612939Y-87281022D01*
X164672518Y-87110755D01*
X164674283Y-87095095D01*
X164686612Y-86985667D01*
X164713678Y-86921253D01*
X164771273Y-86881698D01*
X164809832Y-86875550D01*
X170219122Y-86875550D01*
X170286161Y-86895235D01*
X170331916Y-86948039D01*
X170342342Y-87013433D01*
X170330110Y-87121996D01*
X170330110Y-87122003D01*
X170350305Y-87301249D01*
X170350306Y-87301254D01*
X170409886Y-87471523D01*
X170464388Y-87558261D01*
X170505859Y-87624262D01*
X170633413Y-87751816D01*
X170663615Y-87770793D01*
X170756059Y-87828880D01*
X170786153Y-87847789D01*
X170902387Y-87888461D01*
X170956420Y-87907368D01*
X170956425Y-87907369D01*
X171135671Y-87927565D01*
X171135675Y-87927565D01*
X171135679Y-87927565D01*
X171314921Y-87907369D01*
X171314920Y-87907369D01*
X171314930Y-87907368D01*
X171336488Y-87899824D01*
X171342466Y-87897733D01*
X171383419Y-87890775D01*
X171480806Y-87890775D01*
X171480822Y-87890776D01*
X171488418Y-87890776D01*
X171646529Y-87890776D01*
X171646532Y-87890776D01*
X171799260Y-87849852D01*
X171870563Y-87808685D01*
X171936191Y-87770795D01*
X172047995Y-87658991D01*
X172047995Y-87658989D01*
X172058199Y-87648786D01*
X172058203Y-87648781D01*
X173122710Y-86584273D01*
X173184031Y-86550790D01*
X173196486Y-86548738D01*
X173283430Y-86538943D01*
X173453697Y-86479364D01*
X173606437Y-86383391D01*
X173733991Y-86255837D01*
X173829964Y-86103097D01*
X173889543Y-85932830D01*
X173889544Y-85932824D01*
X173909740Y-85753578D01*
X173909740Y-85753571D01*
X173889544Y-85574325D01*
X173889543Y-85574320D01*
X173869259Y-85516353D01*
X173829964Y-85404053D01*
X173829549Y-85403393D01*
X173767043Y-85303915D01*
X173733991Y-85251313D01*
X173606437Y-85123759D01*
X173566895Y-85098913D01*
X173453698Y-85027786D01*
X173283429Y-84968206D01*
X173283424Y-84968205D01*
X173104179Y-84948010D01*
X173104171Y-84948010D01*
X172924925Y-84968205D01*
X172924920Y-84968206D01*
X172754651Y-85027786D01*
X172601912Y-85123759D01*
X172474359Y-85251312D01*
X172378385Y-85404053D01*
X172318805Y-85574325D01*
X172309012Y-85661243D01*
X172281945Y-85725657D01*
X172273473Y-85735040D01*
X172268603Y-85739910D01*
X172207280Y-85773395D01*
X172137588Y-85768411D01*
X172081655Y-85726539D01*
X172057238Y-85661075D01*
X172057702Y-85638345D01*
X172061890Y-85601177D01*
X172061890Y-85601171D01*
X172041694Y-85421925D01*
X172041693Y-85421920D01*
X172027056Y-85380090D01*
X171982114Y-85251653D01*
X171981900Y-85251313D01*
X171924145Y-85159396D01*
X171886141Y-85098913D01*
X171758587Y-84971359D01*
X171735178Y-84956650D01*
X171605848Y-84875386D01*
X171435579Y-84815806D01*
X171435574Y-84815805D01*
X171256329Y-84795610D01*
X171256321Y-84795610D01*
X171077075Y-84815805D01*
X171077070Y-84815806D01*
X170906801Y-84875386D01*
X170754062Y-84971359D01*
X170626509Y-85098912D01*
X170530537Y-85251650D01*
X170527516Y-85257925D01*
X170525691Y-85257046D01*
X170503021Y-85293108D01*
X170457902Y-85338229D01*
X170396580Y-85371716D01*
X170370219Y-85374550D01*
X159212655Y-85374550D01*
X159067667Y-85403390D01*
X159067657Y-85403393D01*
X158931086Y-85459962D01*
X158931073Y-85459969D01*
X158808159Y-85542098D01*
X158808155Y-85542101D01*
X158257256Y-86093001D01*
X158195933Y-86126486D01*
X158126241Y-86121502D01*
X158070308Y-86079630D01*
X158045891Y-86014166D01*
X158045575Y-86005320D01*
X158045575Y-83699023D01*
X158065260Y-83631984D01*
X158118064Y-83586229D01*
X158187222Y-83576285D01*
X158250778Y-83605310D01*
X158257256Y-83611342D01*
X158946434Y-84300520D01*
X158946436Y-84300521D01*
X158946440Y-84300524D01*
X159033574Y-84350830D01*
X159083366Y-84379577D01*
X159236093Y-84420501D01*
X159236095Y-84420501D01*
X159401804Y-84420501D01*
X159401820Y-84420500D01*
X175173331Y-84420500D01*
X175173347Y-84420501D01*
X175180943Y-84420501D01*
X175339054Y-84420501D01*
X175339057Y-84420501D01*
X175491785Y-84379577D01*
X175541904Y-84350639D01*
X175628716Y-84300520D01*
X175740520Y-84188716D01*
X175740520Y-84188714D01*
X175750728Y-84178507D01*
X175750730Y-84178504D01*
X183238506Y-76690728D01*
X183238511Y-76690724D01*
X183248714Y-76680520D01*
X183248716Y-76680520D01*
X183360520Y-76568716D01*
X183439577Y-76431784D01*
X183476667Y-76293361D01*
X183476668Y-76293360D01*
X183480500Y-76279058D01*
X183480500Y-73960096D01*
X183500185Y-73893057D01*
X183516814Y-73872420D01*
X194861250Y-62527983D01*
X194922571Y-62494500D01*
X194992263Y-62499484D01*
G37*
%TD.AperFunction*%
%TA.AperFunction,Conductor*%
G36*
X98376550Y-87501788D02*
G01*
X98319543Y-87468875D01*
X98192376Y-87434800D01*
X98060724Y-87434800D01*
X97933557Y-87468875D01*
X97876550Y-87501788D01*
X97876550Y-85827812D01*
X97933557Y-85860725D01*
X98060724Y-85894800D01*
X98192376Y-85894800D01*
X98319543Y-85860725D01*
X98376550Y-85827812D01*
X98376550Y-87501788D01*
G37*
%TD.AperFunction*%
%TA.AperFunction,Conductor*%
G36*
X98376550Y-84961788D02*
G01*
X98319543Y-84928875D01*
X98192376Y-84894800D01*
X98060724Y-84894800D01*
X97933557Y-84928875D01*
X97876550Y-84961788D01*
X97876550Y-83287812D01*
X97933557Y-83320725D01*
X98060724Y-83354800D01*
X98192376Y-83354800D01*
X98319543Y-83320725D01*
X98376550Y-83287812D01*
X98376550Y-84961788D01*
G37*
%TD.AperFunction*%
%TA.AperFunction,Conductor*%
G36*
X166292552Y-74605033D02*
G01*
X166323039Y-74627374D01*
X167983814Y-76288149D01*
X167983824Y-76288160D01*
X167988154Y-76292490D01*
X167988155Y-76292491D01*
X168099959Y-76404295D01*
X168099961Y-76404296D01*
X168099962Y-76404297D01*
X168116570Y-76413885D01*
X168168963Y-76444134D01*
X168236890Y-76483352D01*
X168389617Y-76524275D01*
X168389618Y-76524275D01*
X168534769Y-76524275D01*
X168601808Y-76543960D01*
X168609901Y-76549764D01*
X168610936Y-76550414D01*
X168610938Y-76550416D01*
X168647767Y-76573557D01*
X168763677Y-76646389D01*
X168768262Y-76647993D01*
X168783125Y-76653193D01*
X168839901Y-76693913D01*
X168865651Y-76758865D01*
X168852196Y-76827427D01*
X168803811Y-76877832D01*
X168783128Y-76887278D01*
X168611277Y-76947411D01*
X168458537Y-77043384D01*
X168330984Y-77170937D01*
X168235011Y-77323676D01*
X168175431Y-77493945D01*
X168175430Y-77493950D01*
X168155235Y-77673196D01*
X168155235Y-77673203D01*
X168175430Y-77852449D01*
X168175431Y-77852454D01*
X168235011Y-78022723D01*
X168304908Y-78133962D01*
X168330984Y-78175462D01*
X168458538Y-78303016D01*
X168591639Y-78386649D01*
X168611278Y-78398989D01*
X168728486Y-78440002D01*
X168785263Y-78480724D01*
X168811010Y-78545677D01*
X168797554Y-78614238D01*
X168775213Y-78644725D01*
X168183284Y-79236656D01*
X168121961Y-79270141D01*
X168095603Y-79272975D01*
X164660535Y-79272975D01*
X164593496Y-79253290D01*
X164547741Y-79200486D01*
X164543501Y-79189951D01*
X164530389Y-79152478D01*
X164434416Y-78999738D01*
X164306862Y-78872184D01*
X164236474Y-78827956D01*
X164154123Y-78776211D01*
X163983854Y-78716631D01*
X163983849Y-78716630D01*
X163804604Y-78696435D01*
X163804596Y-78696435D01*
X163625350Y-78716630D01*
X163625345Y-78716631D01*
X163455076Y-78776211D01*
X163302337Y-78872184D01*
X163174784Y-78999737D01*
X163078811Y-79152476D01*
X163019231Y-79322745D01*
X163019230Y-79322750D01*
X162999035Y-79501996D01*
X162999035Y-79502003D01*
X163019230Y-79681249D01*
X163019231Y-79681254D01*
X163078811Y-79851523D01*
X163146641Y-79959473D01*
X163174784Y-80004262D01*
X163302338Y-80131816D01*
X163455078Y-80227789D01*
X163625345Y-80287368D01*
X163712268Y-80297161D01*
X163776679Y-80324226D01*
X163786064Y-80332700D01*
X163807359Y-80353995D01*
X163878933Y-80395318D01*
X163944290Y-80433052D01*
X164097018Y-80473976D01*
X164097021Y-80473976D01*
X164262728Y-80473976D01*
X164262744Y-80473975D01*
X165855061Y-80473975D01*
X165922100Y-80493660D01*
X165967855Y-80546464D01*
X165978281Y-80584092D01*
X165991030Y-80697249D01*
X165991031Y-80697254D01*
X166050611Y-80867523D01*
X166121857Y-80980910D01*
X166146584Y-81020262D01*
X166274138Y-81147816D01*
X166364480Y-81204582D01*
X166405012Y-81230050D01*
X166426878Y-81243789D01*
X166597145Y-81303368D01*
X166597150Y-81303369D01*
X166776396Y-81323565D01*
X166776400Y-81323565D01*
X166776404Y-81323565D01*
X166955649Y-81303369D01*
X166955652Y-81303368D01*
X166955655Y-81303368D01*
X167125922Y-81243789D01*
X167278662Y-81147816D01*
X167278667Y-81147810D01*
X167281497Y-81145555D01*
X167283675Y-81144665D01*
X167284558Y-81144111D01*
X167284655Y-81144265D01*
X167346183Y-81119145D01*
X167358812Y-81118500D01*
X167405378Y-81118500D01*
X167472417Y-81138185D01*
X167518172Y-81190989D01*
X167528116Y-81260147D01*
X167499091Y-81323703D01*
X167493059Y-81330181D01*
X167160884Y-81662356D01*
X167099561Y-81695841D01*
X167073203Y-81698675D01*
X165267015Y-81698675D01*
X165199976Y-81678990D01*
X165179334Y-81662356D01*
X165151412Y-81634434D01*
X164998673Y-81538461D01*
X164828404Y-81478881D01*
X164828399Y-81478880D01*
X164649154Y-81458685D01*
X164649146Y-81458685D01*
X164469900Y-81478880D01*
X164469895Y-81478881D01*
X164299626Y-81538461D01*
X164146887Y-81634434D01*
X164019334Y-81761987D01*
X163923361Y-81914726D01*
X163863781Y-82084995D01*
X163863780Y-82085000D01*
X163843585Y-82264246D01*
X163843585Y-82264253D01*
X163863780Y-82443499D01*
X163863781Y-82443504D01*
X163923361Y-82613773D01*
X163982164Y-82707356D01*
X164019334Y-82766512D01*
X164146888Y-82894066D01*
X164246415Y-82956603D01*
X164300371Y-82990506D01*
X164346662Y-83042841D01*
X164357310Y-83111895D01*
X164328935Y-83175743D01*
X164270545Y-83214115D01*
X164234399Y-83219500D01*
X159615248Y-83219500D01*
X159548209Y-83199815D01*
X159527567Y-83183181D01*
X158942525Y-82598140D01*
X158909040Y-82536817D01*
X158906988Y-82524361D01*
X158897193Y-82437420D01*
X158837614Y-82267153D01*
X158741641Y-82114413D01*
X158614087Y-81986859D01*
X158608577Y-81983397D01*
X158461348Y-81890886D01*
X158291079Y-81831306D01*
X158284293Y-81829758D01*
X158284754Y-81827734D01*
X158229635Y-81804563D01*
X158190089Y-81746962D01*
X158187963Y-81677125D01*
X158220265Y-81620743D01*
X161845317Y-77995694D01*
X161906640Y-77962209D01*
X161932998Y-77959375D01*
X164095756Y-77959375D01*
X164095772Y-77959376D01*
X164103368Y-77959376D01*
X164261479Y-77959376D01*
X164261482Y-77959376D01*
X164414210Y-77918452D01*
X164492344Y-77873341D01*
X164528531Y-77852449D01*
X164551134Y-77839399D01*
X164551133Y-77839399D01*
X164551141Y-77839395D01*
X164662945Y-77727591D01*
X164662945Y-77727589D01*
X164673149Y-77717386D01*
X164673153Y-77717381D01*
X165690281Y-76700253D01*
X165690286Y-76700249D01*
X165700489Y-76690045D01*
X165700491Y-76690045D01*
X165812295Y-76578241D01*
X165891352Y-76441309D01*
X165928449Y-76302861D01*
X165932275Y-76288583D01*
X165932275Y-76130468D01*
X165932275Y-75080612D01*
X165951960Y-75013573D01*
X165959330Y-75003297D01*
X165961585Y-75000467D01*
X165961591Y-75000462D01*
X166057564Y-74847722D01*
X166117143Y-74677455D01*
X166117143Y-74677452D01*
X166118316Y-74674101D01*
X166159038Y-74617325D01*
X166223990Y-74591577D01*
X166292552Y-74605033D01*
G37*
%TD.AperFunction*%
%TA.AperFunction,Conductor*%
G36*
X172957378Y-68216620D02*
G01*
X172963856Y-68222652D01*
X175181981Y-70440777D01*
X175215466Y-70502100D01*
X175218300Y-70528458D01*
X175218300Y-76640380D01*
X175218299Y-76640398D01*
X175218299Y-76806104D01*
X175218298Y-76806104D01*
X175259224Y-76958839D01*
X175259225Y-76958840D01*
X175281662Y-76997701D01*
X175281663Y-76997703D01*
X175338275Y-77095759D01*
X175338281Y-77095767D01*
X175457149Y-77214635D01*
X175457155Y-77214640D01*
X175616748Y-77374233D01*
X175650233Y-77435556D01*
X175652287Y-77448030D01*
X175662080Y-77534949D01*
X175662081Y-77534954D01*
X175662082Y-77534955D01*
X175664456Y-77541739D01*
X175721660Y-77705221D01*
X175773228Y-77787290D01*
X175817634Y-77857962D01*
X175945188Y-77985516D01*
X176097928Y-78081489D01*
X176200436Y-78117358D01*
X176268195Y-78141068D01*
X176268200Y-78141069D01*
X176447446Y-78161265D01*
X176447450Y-78161265D01*
X176447454Y-78161265D01*
X176626696Y-78141069D01*
X176626698Y-78141069D01*
X176626698Y-78141068D01*
X176626705Y-78141068D01*
X176636825Y-78137526D01*
X176706599Y-78133962D01*
X176767228Y-78168688D01*
X176785165Y-78192564D01*
X176805838Y-78228371D01*
X176812970Y-78240725D01*
X176821005Y-78254641D01*
X176843230Y-78276866D01*
X176955034Y-78388670D01*
X177028732Y-78431219D01*
X177091965Y-78467727D01*
X177244693Y-78508651D01*
X177325355Y-78508651D01*
X177392394Y-78528336D01*
X177430349Y-78566679D01*
X177468145Y-78626831D01*
X177487145Y-78694068D01*
X177466777Y-78760903D01*
X177450832Y-78780484D01*
X177441669Y-78789647D01*
X177380346Y-78823132D01*
X177340105Y-78825186D01*
X177155479Y-78804385D01*
X177155471Y-78804385D01*
X176976225Y-78824580D01*
X176976220Y-78824581D01*
X176805951Y-78884161D01*
X176653212Y-78980134D01*
X176525659Y-79107687D01*
X176429686Y-79260426D01*
X176370106Y-79430695D01*
X176370105Y-79430700D01*
X176349910Y-79609946D01*
X176349910Y-79609953D01*
X176370105Y-79789199D01*
X176370106Y-79789204D01*
X176429686Y-79959473D01*
X176513264Y-80092486D01*
X176525659Y-80112212D01*
X176653213Y-80239766D01*
X176728971Y-80287368D01*
X176791274Y-80326516D01*
X176805953Y-80335739D01*
X176934233Y-80380626D01*
X176976220Y-80395318D01*
X176976225Y-80395319D01*
X177155471Y-80415515D01*
X177155475Y-80415515D01*
X177155479Y-80415515D01*
X177334724Y-80395319D01*
X177334727Y-80395318D01*
X177334730Y-80395318D01*
X177504997Y-80335739D01*
X177519676Y-80326516D01*
X177566395Y-80297160D01*
X177622581Y-80261855D01*
X177689817Y-80242855D01*
X177756652Y-80263222D01*
X177801867Y-80316490D01*
X177811105Y-80385746D01*
X177781433Y-80449003D01*
X177776234Y-80454530D01*
X175047584Y-83183181D01*
X174986261Y-83216666D01*
X174959903Y-83219500D01*
X165063901Y-83219500D01*
X164996862Y-83199815D01*
X164951107Y-83147011D01*
X164941163Y-83077853D01*
X164970188Y-83014297D01*
X164997929Y-82990506D01*
X165109142Y-82920626D01*
X165112237Y-82918680D01*
X165178209Y-82899675D01*
X167286631Y-82899675D01*
X167286647Y-82899676D01*
X167294243Y-82899676D01*
X167452354Y-82899676D01*
X167452357Y-82899676D01*
X167605085Y-82858752D01*
X167655204Y-82829814D01*
X167742016Y-82779695D01*
X167853820Y-82667891D01*
X167853820Y-82667889D01*
X167864028Y-82657682D01*
X167864029Y-82657679D01*
X172632195Y-77889516D01*
X172711252Y-77752584D01*
X172752176Y-77599857D01*
X172752176Y-77441742D01*
X172752176Y-77434147D01*
X172752175Y-77434129D01*
X172752175Y-68310333D01*
X172771860Y-68243294D01*
X172824664Y-68197539D01*
X172893822Y-68187595D01*
X172957378Y-68216620D01*
G37*
%TD.AperFunction*%
%TA.AperFunction,Conductor*%
G36*
X98376550Y-82421788D02*
G01*
X98319543Y-82388875D01*
X98192376Y-82354800D01*
X98060724Y-82354800D01*
X97933557Y-82388875D01*
X97876550Y-82421788D01*
X97876550Y-80747812D01*
X97933557Y-80780725D01*
X98060724Y-80814800D01*
X98192376Y-80814800D01*
X98319543Y-80780725D01*
X98376550Y-80747812D01*
X98376550Y-82421788D01*
G37*
%TD.AperFunction*%
%TA.AperFunction,Conductor*%
G36*
X107290000Y-81054588D02*
G01*
X107286950Y-81064975D01*
X107286950Y-81964588D01*
X107229943Y-81931675D01*
X107102776Y-81897600D01*
X106971124Y-81897600D01*
X106843957Y-81931675D01*
X106786950Y-81964588D01*
X106786950Y-80972012D01*
X106790000Y-80961624D01*
X106790000Y-80062012D01*
X106847007Y-80094925D01*
X106974174Y-80129000D01*
X107105826Y-80129000D01*
X107232993Y-80094925D01*
X107290000Y-80062012D01*
X107290000Y-81054588D01*
G37*
%TD.AperFunction*%
%TA.AperFunction,Conductor*%
G36*
X98376550Y-79881788D02*
G01*
X98319543Y-79848875D01*
X98192376Y-79814800D01*
X98060724Y-79814800D01*
X97933557Y-79848875D01*
X97876550Y-79881788D01*
X97876550Y-78207812D01*
X97933557Y-78240725D01*
X98060724Y-78274800D01*
X98192376Y-78274800D01*
X98319543Y-78240725D01*
X98376550Y-78207812D01*
X98376550Y-79881788D01*
G37*
%TD.AperFunction*%
%TA.AperFunction,Conductor*%
G36*
X107290000Y-79195988D02*
G01*
X107232993Y-79163075D01*
X107105826Y-79129000D01*
X106974174Y-79129000D01*
X106847007Y-79163075D01*
X106790000Y-79195988D01*
X106790000Y-77513012D01*
X106847007Y-77545925D01*
X106974174Y-77580000D01*
X107105826Y-77580000D01*
X107232993Y-77545925D01*
X107290000Y-77513012D01*
X107290000Y-79195988D01*
G37*
%TD.AperFunction*%
%TA.AperFunction,Conductor*%
G36*
X98376550Y-77341788D02*
G01*
X98319543Y-77308875D01*
X98192376Y-77274800D01*
X98060724Y-77274800D01*
X97933557Y-77308875D01*
X97876550Y-77341788D01*
X97876550Y-75667812D01*
X97933557Y-75700725D01*
X98060724Y-75734800D01*
X98192376Y-75734800D01*
X98319543Y-75700725D01*
X98376550Y-75667812D01*
X98376550Y-77341788D01*
G37*
%TD.AperFunction*%
%TA.AperFunction,Conductor*%
G36*
X198929855Y-55900185D02*
G01*
X198950497Y-55916819D01*
X199579302Y-56545624D01*
X199526193Y-56567623D01*
X199415638Y-56641493D01*
X199321618Y-56735513D01*
X199247748Y-56846068D01*
X199225749Y-56899177D01*
X198611699Y-56285127D01*
X198494109Y-56477016D01*
X198494107Y-56477019D01*
X198403003Y-56696965D01*
X198403003Y-56696966D01*
X198347427Y-56928457D01*
X198328748Y-57165800D01*
X198347427Y-57403142D01*
X198403003Y-57634633D01*
X198403003Y-57634634D01*
X198494107Y-57854580D01*
X198494109Y-57854583D01*
X198611699Y-58046471D01*
X199225748Y-57432421D01*
X199247748Y-57485532D01*
X199321618Y-57596087D01*
X199415638Y-57690107D01*
X199526193Y-57763977D01*
X199579302Y-57785975D01*
X198965252Y-58400024D01*
X198965252Y-58400025D01*
X199157141Y-58517615D01*
X199157144Y-58517617D01*
X199377091Y-58608721D01*
X199608582Y-58664297D01*
X199845925Y-58682976D01*
X200083267Y-58664297D01*
X200314758Y-58608721D01*
X200314759Y-58608721D01*
X200534705Y-58517617D01*
X200534708Y-58517615D01*
X200726595Y-58400025D01*
X200726596Y-58400024D01*
X200112547Y-57785975D01*
X200165657Y-57763977D01*
X200276212Y-57690107D01*
X200370232Y-57596087D01*
X200444102Y-57485532D01*
X200466100Y-57432422D01*
X201054212Y-58020534D01*
X201087697Y-58081857D01*
X201086306Y-58140307D01*
X201072649Y-58191278D01*
X201072646Y-58191292D01*
X201053232Y-58413200D01*
X201053005Y-58415800D01*
X201072646Y-58640307D01*
X201072647Y-58640311D01*
X201072647Y-58640315D01*
X201096283Y-58728525D01*
X201094620Y-58798375D01*
X201064189Y-58848299D01*
X200889711Y-59022778D01*
X200777906Y-59134582D01*
X200777902Y-59134587D01*
X200756455Y-59171737D01*
X200756454Y-59171739D01*
X200698848Y-59271515D01*
X200657924Y-59424243D01*
X200657924Y-59424245D01*
X200657924Y-59592346D01*
X200657925Y-59592359D01*
X200657925Y-62679443D01*
X200638240Y-62746482D01*
X200585436Y-62792237D01*
X200516278Y-62802181D01*
X200486473Y-62794004D01*
X200314758Y-62722878D01*
X200083267Y-62667302D01*
X199845925Y-62648623D01*
X199608582Y-62667302D01*
X199377091Y-62722878D01*
X199377090Y-62722878D01*
X199157144Y-62813982D01*
X199157141Y-62813984D01*
X198965252Y-62931574D01*
X199579302Y-63545624D01*
X199526193Y-63567623D01*
X199415638Y-63641493D01*
X199321618Y-63735513D01*
X199247748Y-63846068D01*
X199225749Y-63899177D01*
X198611699Y-63285127D01*
X198494109Y-63477016D01*
X198494107Y-63477019D01*
X198403003Y-63696965D01*
X198403003Y-63696966D01*
X198347427Y-63928457D01*
X198328748Y-64165800D01*
X198347427Y-64403142D01*
X198403003Y-64634633D01*
X198403003Y-64634634D01*
X198494107Y-64854580D01*
X198494109Y-64854583D01*
X198611699Y-65046471D01*
X199225748Y-64432421D01*
X199247748Y-64485532D01*
X199321618Y-64596087D01*
X199358162Y-64632631D01*
X199387448Y-64703332D01*
X199461318Y-64813887D01*
X199555338Y-64907907D01*
X199665893Y-64981777D01*
X199719001Y-65003775D01*
X199104952Y-65617824D01*
X199104952Y-65617825D01*
X199296841Y-65735415D01*
X199296844Y-65735417D01*
X199516791Y-65826521D01*
X199748282Y-65882096D01*
X199778626Y-65884485D01*
X199843914Y-65909369D01*
X199885385Y-65965600D01*
X199889872Y-66035325D01*
X199856578Y-66095784D01*
X197985218Y-67967145D01*
X197923895Y-68000630D01*
X197854203Y-67995646D01*
X197798272Y-67953776D01*
X197729721Y-67862204D01*
X197729719Y-67862202D01*
X197729718Y-67862201D01*
X197614510Y-67775956D01*
X197614503Y-67775952D01*
X197543723Y-67749553D01*
X197487789Y-67707682D01*
X197463372Y-67642217D01*
X197478224Y-67573944D01*
X197495818Y-67549398D01*
X197593854Y-67442903D01*
X197720799Y-67248599D01*
X197814032Y-67036050D01*
X197871009Y-66811055D01*
X197871902Y-66800277D01*
X197890175Y-66579756D01*
X197890175Y-66579743D01*
X197871010Y-66348452D01*
X197871008Y-66348441D01*
X197814032Y-66123449D01*
X197720799Y-65910901D01*
X197593858Y-65716602D01*
X197593855Y-65716599D01*
X197593854Y-65716597D01*
X197499070Y-65613634D01*
X197468150Y-65550982D01*
X197476010Y-65481556D01*
X197520158Y-65427401D01*
X197546970Y-65413472D01*
X197558714Y-65409092D01*
X197627206Y-65383546D01*
X197742421Y-65297296D01*
X197828671Y-65182081D01*
X197878966Y-65047233D01*
X197885375Y-64987623D01*
X197885374Y-63091878D01*
X197878966Y-63032267D01*
X197871010Y-63010937D01*
X197828672Y-62897421D01*
X197828668Y-62897414D01*
X197742422Y-62782205D01*
X197742420Y-62782203D01*
X197731501Y-62774029D01*
X197689631Y-62718095D01*
X197684648Y-62648403D01*
X197706548Y-62600452D01*
X197711795Y-62593443D01*
X197742946Y-62551831D01*
X197793241Y-62416983D01*
X197799650Y-62357373D01*
X197799649Y-60461628D01*
X197793241Y-60402017D01*
X197783581Y-60376118D01*
X197742947Y-60267171D01*
X197742943Y-60267164D01*
X197656697Y-60151955D01*
X197656694Y-60151952D01*
X197541485Y-60065706D01*
X197541478Y-60065702D01*
X197461244Y-60035777D01*
X197405310Y-59993906D01*
X197380893Y-59928441D01*
X197395745Y-59860168D01*
X197413340Y-59835621D01*
X197508129Y-59732653D01*
X197635074Y-59538349D01*
X197728307Y-59325800D01*
X197785284Y-59100805D01*
X197785285Y-59100797D01*
X197804450Y-58869506D01*
X197804450Y-58869493D01*
X197785285Y-58638202D01*
X197785283Y-58638191D01*
X197728307Y-58413199D01*
X197635074Y-58200651D01*
X197508133Y-58006352D01*
X197508130Y-58006349D01*
X197508129Y-58006347D01*
X197350934Y-57835587D01*
X197350929Y-57835583D01*
X197350927Y-57835581D01*
X197167784Y-57693035D01*
X197167778Y-57693031D01*
X196963654Y-57582564D01*
X196963645Y-57582561D01*
X196744134Y-57507202D01*
X196572432Y-57478550D01*
X196515199Y-57469000D01*
X196283101Y-57469000D01*
X196237314Y-57476640D01*
X196054165Y-57507202D01*
X195834654Y-57582561D01*
X195834645Y-57582564D01*
X195630521Y-57693031D01*
X195630515Y-57693035D01*
X195447372Y-57835581D01*
X195447369Y-57835584D01*
X195447366Y-57835586D01*
X195447366Y-57835587D01*
X195438785Y-57844909D01*
X195290166Y-58006352D01*
X195163225Y-58200651D01*
X195069992Y-58413199D01*
X195013016Y-58638191D01*
X195013014Y-58638202D01*
X194993850Y-58869493D01*
X194993850Y-58869506D01*
X195013014Y-59100797D01*
X195013016Y-59100808D01*
X195069992Y-59325800D01*
X195163225Y-59538348D01*
X195290166Y-59732647D01*
X195290169Y-59732651D01*
X195290171Y-59732653D01*
X195384953Y-59835614D01*
X195415874Y-59898267D01*
X195408014Y-59967693D01*
X195363866Y-60021848D01*
X195337056Y-60035777D01*
X195256819Y-60065703D01*
X195256814Y-60065706D01*
X195141605Y-60151952D01*
X195141602Y-60151955D01*
X195055356Y-60267164D01*
X195055352Y-60267171D01*
X195005058Y-60402017D01*
X194998651Y-60461616D01*
X194998651Y-60461623D01*
X194998650Y-60461635D01*
X194998650Y-60727996D01*
X194978965Y-60795035D01*
X194926161Y-60840790D01*
X194906750Y-60847769D01*
X194898718Y-60849921D01*
X194898709Y-60849925D01*
X194848596Y-60878859D01*
X194848595Y-60878860D01*
X194805189Y-60903920D01*
X194761785Y-60928979D01*
X194761782Y-60928981D01*
X182399481Y-73291282D01*
X182399477Y-73291287D01*
X182367819Y-73346122D01*
X182352515Y-73372630D01*
X182320423Y-73428215D01*
X182279499Y-73580943D01*
X182279499Y-73580945D01*
X182279499Y-73749046D01*
X182279500Y-73749059D01*
X182279500Y-75899903D01*
X182259815Y-75966942D01*
X182243181Y-75987584D01*
X180933577Y-77297187D01*
X180872254Y-77330672D01*
X180802562Y-77325688D01*
X180746629Y-77283816D01*
X180722212Y-77218352D01*
X180737064Y-77150079D01*
X180738509Y-77147506D01*
X180741040Y-77143122D01*
X180797902Y-77044634D01*
X180836758Y-76899622D01*
X180838825Y-76891908D01*
X180838825Y-76733793D01*
X180838825Y-72421993D01*
X180838034Y-72419042D01*
X180818363Y-72345629D01*
X180797902Y-72269266D01*
X180797900Y-72269262D01*
X180797899Y-72269259D01*
X180718849Y-72132340D01*
X180718846Y-72132336D01*
X180718845Y-72132334D01*
X180607041Y-72020530D01*
X180607040Y-72020529D01*
X180602710Y-72016199D01*
X180602699Y-72016189D01*
X180392615Y-71806105D01*
X180392613Y-71806102D01*
X180273743Y-71687232D01*
X180273737Y-71687227D01*
X180250317Y-71673706D01*
X180224636Y-71654000D01*
X178922594Y-70351958D01*
X178889109Y-70290635D01*
X178886275Y-70264277D01*
X178886275Y-65303024D01*
X178886276Y-65303011D01*
X178886276Y-65134910D01*
X178886276Y-65134908D01*
X178845352Y-64982180D01*
X178803193Y-64909159D01*
X178766295Y-64845249D01*
X178654491Y-64733445D01*
X178654490Y-64733444D01*
X178650160Y-64729114D01*
X178650149Y-64729104D01*
X172188950Y-58267905D01*
X172188948Y-58267902D01*
X172070077Y-58149031D01*
X172070076Y-58149030D01*
X171956715Y-58083581D01*
X171956715Y-58083580D01*
X171956710Y-58083579D01*
X171948487Y-58078831D01*
X171933146Y-58069973D01*
X171894963Y-58059742D01*
X171780417Y-58029049D01*
X171622303Y-58029049D01*
X171614707Y-58029049D01*
X171614691Y-58029050D01*
X152071447Y-58029050D01*
X152004408Y-58009365D01*
X151983766Y-57992731D01*
X150792755Y-56801720D01*
X150760661Y-56746132D01*
X150752529Y-56715784D01*
X150717248Y-56584108D01*
X150702105Y-56527594D01*
X150702104Y-56527593D01*
X150702103Y-56527587D01*
X150602235Y-56313421D01*
X150582424Y-56285127D01*
X150466694Y-56119847D01*
X150439028Y-56092181D01*
X150405543Y-56030858D01*
X150410527Y-55961166D01*
X150452399Y-55905233D01*
X150517863Y-55880816D01*
X150526709Y-55880500D01*
X198862816Y-55880500D01*
X198929855Y-55900185D01*
G37*
%TD.AperFunction*%
%TA.AperFunction,Conductor*%
G36*
X107290000Y-76646988D02*
G01*
X107232993Y-76614075D01*
X107105826Y-76580000D01*
X106974174Y-76580000D01*
X106847007Y-76614075D01*
X106790000Y-76646988D01*
X106790000Y-74833012D01*
X106847007Y-74865925D01*
X106974174Y-74900000D01*
X107105826Y-74900000D01*
X107232993Y-74865925D01*
X107290000Y-74833012D01*
X107290000Y-76646988D01*
G37*
%TD.AperFunction*%
%TA.AperFunction,Conductor*%
G36*
X98376550Y-74801788D02*
G01*
X98319543Y-74768875D01*
X98192376Y-74734800D01*
X98060724Y-74734800D01*
X97933557Y-74768875D01*
X97876550Y-74801788D01*
X97876550Y-73127812D01*
X97933557Y-73160725D01*
X98060724Y-73194800D01*
X98192376Y-73194800D01*
X98319543Y-73160725D01*
X98376550Y-73127812D01*
X98376550Y-74801788D01*
G37*
%TD.AperFunction*%
%TA.AperFunction,Conductor*%
G36*
X201257497Y-69466885D02*
G01*
X201303252Y-69519689D01*
X201313196Y-69588847D01*
X201302840Y-69623604D01*
X201271151Y-69691560D01*
X201271146Y-69691574D01*
X201212843Y-69909168D01*
X201212841Y-69909178D01*
X201193207Y-70133599D01*
X201193207Y-70133602D01*
X201206124Y-70281253D01*
X201206124Y-70281254D01*
X201236142Y-70311272D01*
X201269627Y-70372595D01*
X201264643Y-70442287D01*
X201236142Y-70486634D01*
X200605800Y-71116976D01*
X200583802Y-71063868D01*
X200509932Y-70953313D01*
X200415912Y-70859293D01*
X200305357Y-70785423D01*
X200252246Y-70763423D01*
X200866296Y-70149374D01*
X200674408Y-70031784D01*
X200674409Y-70031784D01*
X200602694Y-70002079D01*
X200548291Y-69958238D01*
X200526226Y-69891943D01*
X200543505Y-69824244D01*
X200562456Y-69799848D01*
X200878788Y-69483516D01*
X200940109Y-69450034D01*
X200966467Y-69447200D01*
X201190458Y-69447200D01*
X201257497Y-69466885D01*
G37*
%TD.AperFunction*%
%TA.AperFunction,Conductor*%
G36*
X140368777Y-66999658D02*
G01*
X140375255Y-67005690D01*
X141069781Y-67700216D01*
X141103266Y-67761539D01*
X141106100Y-67787897D01*
X141106100Y-69108577D01*
X141086415Y-69175616D01*
X141069780Y-69196259D01*
X141030839Y-69235199D01*
X140969516Y-69268684D01*
X140957043Y-69270737D01*
X140870125Y-69280530D01*
X140699853Y-69340110D01*
X140547112Y-69436084D01*
X140419559Y-69563637D01*
X140323586Y-69716376D01*
X140264006Y-69886645D01*
X140264005Y-69886650D01*
X140243810Y-70065896D01*
X140243810Y-70065903D01*
X140264005Y-70245149D01*
X140264007Y-70245157D01*
X140287841Y-70313271D01*
X140291402Y-70383050D01*
X140256673Y-70443677D01*
X140194679Y-70475904D01*
X140170799Y-70478225D01*
X137608030Y-70478225D01*
X137540991Y-70458540D01*
X137495236Y-70405736D01*
X137485292Y-70336578D01*
X137514317Y-70273022D01*
X137520349Y-70266544D01*
X138587624Y-69199268D01*
X138648947Y-69165783D01*
X138675305Y-69162949D01*
X139710946Y-69162949D01*
X139710947Y-69162949D01*
X139770558Y-69156541D01*
X139905406Y-69106246D01*
X140020621Y-69019996D01*
X140106871Y-68904781D01*
X140157166Y-68769933D01*
X140163575Y-68710323D01*
X140163574Y-67093370D01*
X140183259Y-67026332D01*
X140236062Y-66980577D01*
X140305221Y-66970633D01*
X140368777Y-66999658D01*
G37*
%TD.AperFunction*%
%TA.AperFunction,Conductor*%
G36*
X142178392Y-64593260D02*
G01*
X142199033Y-64609893D01*
X143246059Y-65656920D01*
X143246061Y-65656921D01*
X143246065Y-65656924D01*
X143349427Y-65716599D01*
X143382991Y-65735977D01*
X143535718Y-65776901D01*
X143633298Y-65776901D01*
X143665391Y-65781126D01*
X143676719Y-65784161D01*
X143732568Y-65799126D01*
X143732570Y-65799126D01*
X143898278Y-65799126D01*
X143898294Y-65799125D01*
X145062902Y-65799125D01*
X145129941Y-65818810D01*
X145175696Y-65871614D01*
X145185640Y-65940772D01*
X145156615Y-66004328D01*
X145150583Y-66010806D01*
X142518781Y-68642608D01*
X142457458Y-68676093D01*
X142387766Y-68671109D01*
X142331833Y-68629237D01*
X142307416Y-68563773D01*
X142307100Y-68554927D01*
X142307100Y-67576859D01*
X142307101Y-67576846D01*
X142307101Y-67408745D01*
X142307101Y-67408743D01*
X142266177Y-67256015D01*
X142237148Y-67205736D01*
X142187120Y-67119084D01*
X142075316Y-67007280D01*
X142075315Y-67007279D01*
X142070985Y-67002949D01*
X142070974Y-67002939D01*
X139853291Y-64785256D01*
X139819806Y-64723933D01*
X139824790Y-64654241D01*
X139866662Y-64598308D01*
X139932126Y-64573891D01*
X139940972Y-64573575D01*
X142111353Y-64573575D01*
X142178392Y-64593260D01*
G37*
%TD.AperFunction*%
%TA.AperFunction,Conductor*%
G36*
X108478877Y-59756838D02*
G01*
X108478878Y-59756839D01*
X111786756Y-63064716D01*
X111820241Y-63126039D01*
X111823075Y-63152397D01*
X111823075Y-66047610D01*
X111803390Y-66114649D01*
X111786756Y-66135291D01*
X111784234Y-66137812D01*
X111688261Y-66290551D01*
X111628681Y-66460820D01*
X111628680Y-66460825D01*
X111608485Y-66640071D01*
X111608485Y-66640078D01*
X111628680Y-66819324D01*
X111628681Y-66819329D01*
X111688261Y-66989598D01*
X111776009Y-67129247D01*
X111784234Y-67142337D01*
X111911788Y-67269891D01*
X111983419Y-67314900D01*
X112009454Y-67331259D01*
X112064528Y-67365864D01*
X112234795Y-67425443D01*
X112234800Y-67425444D01*
X112311705Y-67434109D01*
X112376119Y-67461175D01*
X112415674Y-67518770D01*
X112417812Y-67588607D01*
X112385503Y-67645010D01*
X111965961Y-68064553D01*
X111917708Y-68112806D01*
X111856385Y-68146291D01*
X111830027Y-68149125D01*
X108651716Y-68149125D01*
X108584677Y-68129440D01*
X108539336Y-68077534D01*
X108536662Y-68071800D01*
X108536659Y-68071795D01*
X108536658Y-68071794D01*
X108454021Y-67953775D01*
X108401121Y-67878225D01*
X108356038Y-67833142D01*
X108279192Y-67756296D01*
X108245709Y-67694976D01*
X108250693Y-67625284D01*
X108292564Y-67569350D01*
X108323540Y-67552435D01*
X108454956Y-67503421D01*
X108570171Y-67417171D01*
X108656421Y-67301956D01*
X108706716Y-67167108D01*
X108713125Y-67107498D01*
X108713124Y-65311753D01*
X108706995Y-65254739D01*
X108706716Y-65252141D01*
X108656422Y-65117296D01*
X108656418Y-65117289D01*
X108570172Y-65002080D01*
X108570169Y-65002077D01*
X108454960Y-64915831D01*
X108454953Y-64915827D01*
X108320107Y-64865533D01*
X108320108Y-64865533D01*
X108260508Y-64859126D01*
X108260506Y-64859125D01*
X108260498Y-64859125D01*
X108260490Y-64859125D01*
X108133121Y-64859125D01*
X108066082Y-64839440D01*
X108020327Y-64786636D01*
X108010383Y-64717478D01*
X108039408Y-64653922D01*
X108061995Y-64633551D01*
X108234026Y-64513095D01*
X108401120Y-64346001D01*
X108536660Y-64152430D01*
X108636528Y-63938263D01*
X108697688Y-63710008D01*
X108718284Y-63474600D01*
X108697688Y-63239192D01*
X108636528Y-63010937D01*
X108536660Y-62796771D01*
X108533486Y-62792237D01*
X108401119Y-62603197D01*
X108234027Y-62436106D01*
X108234021Y-62436101D01*
X108048467Y-62306175D01*
X108004842Y-62251598D01*
X107997648Y-62182100D01*
X108029171Y-62119745D01*
X108048467Y-62103025D01*
X108121348Y-62051993D01*
X108234026Y-61973095D01*
X108401120Y-61806001D01*
X108536660Y-61612430D01*
X108636528Y-61398263D01*
X108697688Y-61170008D01*
X108718284Y-60934600D01*
X108697688Y-60699192D01*
X108636528Y-60470937D01*
X108536660Y-60256771D01*
X108516007Y-60227276D01*
X108401121Y-60063200D01*
X108346921Y-60009000D01*
X108279192Y-59941271D01*
X108245709Y-59879951D01*
X108250693Y-59810259D01*
X108292564Y-59754325D01*
X108323540Y-59737411D01*
X108327921Y-59735776D01*
X108347863Y-59728338D01*
X108417554Y-59723353D01*
X108478877Y-59756838D01*
G37*
%TD.AperFunction*%
%TA.AperFunction,Conductor*%
G36*
X145490649Y-55900185D02*
G01*
X145536404Y-55952989D01*
X145546348Y-56022147D01*
X145544287Y-56033015D01*
X145544108Y-56033771D01*
X145537701Y-56093366D01*
X145537700Y-56093385D01*
X145537700Y-57889120D01*
X145537701Y-57889126D01*
X145544108Y-57948733D01*
X145594402Y-58083578D01*
X145594403Y-58083579D01*
X145594404Y-58083581D01*
X145601728Y-58093365D01*
X145602125Y-58093895D01*
X145626542Y-58159360D01*
X145611690Y-58227633D01*
X145609465Y-58231097D01*
X145606202Y-58237071D01*
X145555908Y-58371917D01*
X145549501Y-58431516D01*
X145549500Y-58431535D01*
X145549500Y-60227270D01*
X145549501Y-60227276D01*
X145555908Y-60286883D01*
X145606202Y-60421728D01*
X145606206Y-60421735D01*
X145692452Y-60536944D01*
X145692455Y-60536947D01*
X145807664Y-60623193D01*
X145807671Y-60623197D01*
X145869902Y-60646407D01*
X145939598Y-60672402D01*
X145995531Y-60714273D01*
X146019949Y-60779737D01*
X146005098Y-60848010D01*
X145983947Y-60876265D01*
X145861886Y-60998326D01*
X145726400Y-61191820D01*
X145726399Y-61191822D01*
X145626570Y-61405907D01*
X145626567Y-61405913D01*
X145569364Y-61619399D01*
X145569364Y-61619400D01*
X146466988Y-61619400D01*
X146434075Y-61676407D01*
X146400000Y-61803574D01*
X146400000Y-61935226D01*
X146434075Y-62062393D01*
X146466988Y-62119400D01*
X145569364Y-62119400D01*
X145626567Y-62332886D01*
X145626570Y-62332892D01*
X145726399Y-62546978D01*
X145861894Y-62740482D01*
X146028917Y-62907505D01*
X146222421Y-63043000D01*
X146436507Y-63142829D01*
X146436516Y-63142833D01*
X146650000Y-63200034D01*
X146650000Y-62302412D01*
X146707007Y-62335325D01*
X146834174Y-62369400D01*
X146965826Y-62369400D01*
X147092993Y-62335325D01*
X147150000Y-62302412D01*
X147150000Y-63200033D01*
X147363483Y-63142833D01*
X147363492Y-63142829D01*
X147577578Y-63043000D01*
X147771082Y-62907505D01*
X147938105Y-62740482D01*
X148068119Y-62554805D01*
X148122696Y-62511181D01*
X148192195Y-62503988D01*
X148254549Y-62535510D01*
X148271269Y-62554805D01*
X148401505Y-62740801D01*
X148568599Y-62907895D01*
X148615571Y-62940785D01*
X148762165Y-63043432D01*
X148762167Y-63043433D01*
X148762170Y-63043435D01*
X148976337Y-63143303D01*
X149204592Y-63204463D01*
X149392918Y-63220939D01*
X149439999Y-63225059D01*
X149440000Y-63225059D01*
X149440001Y-63225059D01*
X149479234Y-63221626D01*
X149675408Y-63204463D01*
X149903663Y-63143303D01*
X150117830Y-63043435D01*
X150311401Y-62907895D01*
X150478495Y-62740801D01*
X150614035Y-62547230D01*
X150713903Y-62333063D01*
X150775063Y-62104808D01*
X150795659Y-61869400D01*
X150775063Y-61633992D01*
X150713903Y-61405737D01*
X150644220Y-61256304D01*
X150633729Y-61187228D01*
X150662249Y-61123444D01*
X150720725Y-61085204D01*
X150756603Y-61079900D01*
X152328478Y-61079900D01*
X152395517Y-61099585D01*
X152441272Y-61152389D01*
X152451216Y-61221547D01*
X152422191Y-61285103D01*
X152416159Y-61291581D01*
X149819034Y-63888706D01*
X149757711Y-63922191D01*
X149731353Y-63925025D01*
X144095848Y-63925025D01*
X144028809Y-63905340D01*
X144008167Y-63888706D01*
X143229240Y-63109780D01*
X143229238Y-63109777D01*
X143110367Y-62990906D01*
X143110366Y-62990905D01*
X143023554Y-62940785D01*
X143023554Y-62940784D01*
X143023550Y-62940783D01*
X142973435Y-62911848D01*
X142820707Y-62870924D01*
X142662593Y-62870924D01*
X142654997Y-62870924D01*
X142654981Y-62870925D01*
X115708172Y-62870925D01*
X115641133Y-62851240D01*
X115620491Y-62834606D01*
X115590865Y-62804980D01*
X115590863Y-62804977D01*
X115471992Y-62686106D01*
X115471991Y-62686105D01*
X115381745Y-62634002D01*
X115335060Y-62607048D01*
X115335059Y-62607047D01*
X115328021Y-62602984D01*
X115328535Y-62602093D01*
X115297172Y-62581137D01*
X112914344Y-60198309D01*
X112880859Y-60136986D01*
X112878025Y-60110628D01*
X112878025Y-59382185D01*
X112878026Y-59382172D01*
X112878026Y-59214069D01*
X112872472Y-59193340D01*
X112837102Y-59061341D01*
X112814838Y-59022778D01*
X112758049Y-58924415D01*
X112758043Y-58924407D01*
X111352990Y-57519354D01*
X109925815Y-56092180D01*
X109892331Y-56030858D01*
X109897315Y-55961166D01*
X109939187Y-55905233D01*
X110004651Y-55880816D01*
X110013497Y-55880500D01*
X145423610Y-55880500D01*
X145490649Y-55900185D01*
G37*
%TD.AperFunction*%
%TD*%
M02*
