%TF.GenerationSoftware,KiCad,Pcbnew,8.0.8*%
%TF.CreationDate,2025-02-19T22:11:45+00:00*%
%TF.ProjectId,Gotek,476f7465-6b2e-46b6-9963-61645f706362,rev?*%
%TF.SameCoordinates,Original*%
%TF.FileFunction,Soldermask,Bot*%
%TF.FilePolarity,Negative*%
%FSLAX46Y46*%
G04 Gerber Fmt 4.6, Leading zero omitted, Abs format (unit mm)*
G04 Created by KiCad (PCBNEW 8.0.8) date 2025-02-19 22:11:45*
%MOMM*%
%LPD*%
G01*
G04 APERTURE LIST*
%ADD10C,5.000000*%
%ADD11R,1.700000X1.700000*%
%ADD12O,1.700000X1.700000*%
%ADD13R,1.600000X1.600000*%
%ADD14C,1.600000*%
%ADD15C,1.575000*%
%ADD16C,2.025000*%
%ADD17R,1.800000X1.800000*%
%ADD18C,1.800000*%
%ADD19R,1.500000X1.600000*%
%ADD20C,3.000000*%
%ADD21C,1.500000*%
G04 APERTURE END LIST*
D10*
%TO.C,H1*%
X118491000Y-60642500D03*
%TD*%
%TO.C,H2*%
X139573000Y-60642500D03*
%TD*%
%TO.C,H3*%
X118491000Y-110363000D03*
%TD*%
%TO.C,H4*%
X139573000Y-110363000D03*
%TD*%
%TO.C,H5*%
X189357000Y-60642500D03*
%TD*%
D11*
%TO.C,J10*%
X104501950Y-68633500D03*
D12*
X104501950Y-66093500D03*
X104501950Y-63553500D03*
X104501950Y-61013500D03*
%TD*%
D11*
%TO.C,J7*%
X144360900Y-97291525D03*
D12*
X146900900Y-97291525D03*
X144360900Y-99831525D03*
X146900900Y-99831525D03*
%TD*%
D13*
%TO.C,C1*%
X187587138Y-92313125D03*
D14*
X185087138Y-92313125D03*
%TD*%
D11*
%TO.C,JK1*%
X146888200Y-56991250D03*
D12*
X149428200Y-56991250D03*
%TD*%
D11*
%TO.C,S0*%
X104498775Y-84975700D03*
D12*
X107038775Y-84975700D03*
%TD*%
D11*
%TO.C,JA1*%
X104500000Y-77080000D03*
D12*
X107040000Y-77080000D03*
%TD*%
D15*
%TO.C,S4*%
X202485625Y-70133600D03*
X202485625Y-65633600D03*
D16*
X199985625Y-71383600D03*
X199985625Y-64383600D03*
%TD*%
D17*
%TO.C,L5*%
X196472175Y-69119750D03*
D18*
X196472175Y-66579750D03*
%TD*%
D11*
%TO.C,MOR1*%
X104500000Y-90106500D03*
D12*
X107040000Y-90106500D03*
%TD*%
D13*
%TO.C,C17*%
X138863075Y-67862450D03*
D14*
X136363075Y-67862450D03*
%TD*%
D15*
%TO.C,S3*%
X202345925Y-62915800D03*
X202345925Y-58415800D03*
D16*
X199845925Y-64165800D03*
X199845925Y-57165800D03*
%TD*%
D11*
%TO.C,P1*%
X98126550Y-72694800D03*
D12*
X100666550Y-72694800D03*
X98126550Y-75234800D03*
X100666550Y-75234800D03*
X98126550Y-77774800D03*
X100666550Y-77774800D03*
X98126550Y-80314800D03*
X100666550Y-80314800D03*
X98126550Y-82854800D03*
X100666550Y-82854800D03*
X98126550Y-85394800D03*
X100666550Y-85394800D03*
X98126550Y-87934800D03*
X100666550Y-87934800D03*
X98126550Y-90474800D03*
X100666550Y-90474800D03*
X98126550Y-93014800D03*
X100666550Y-93014800D03*
X98126550Y-95554800D03*
X100666550Y-95554800D03*
X98126550Y-98094800D03*
X100666550Y-98094800D03*
X98126550Y-100634800D03*
X100666550Y-100634800D03*
X98126550Y-103174800D03*
X100666550Y-103174800D03*
X98126550Y-105714800D03*
X100666550Y-105714800D03*
X98126550Y-108254800D03*
X100666550Y-108254800D03*
X98126550Y-110794800D03*
X100666550Y-110794800D03*
X98126550Y-113334800D03*
X100666550Y-113334800D03*
%TD*%
D11*
%TO.C,J5*%
X104500000Y-74400000D03*
D12*
X107040000Y-74400000D03*
%TD*%
D11*
%TO.C,JKA1*%
X144460675Y-94351475D03*
D12*
X147000675Y-94351475D03*
%TD*%
D11*
%TO.C,J3*%
X107362625Y-58394600D03*
D12*
X107362625Y-60934600D03*
X107362625Y-63474600D03*
%TD*%
D11*
%TO.C,J8*%
X146900000Y-59329400D03*
D12*
X149440000Y-59329400D03*
X146900000Y-61869400D03*
X149440000Y-61869400D03*
%TD*%
D19*
%TO.C,P3*%
X196706525Y-88456650D03*
D14*
X196706525Y-85956650D03*
X196706525Y-83956650D03*
X196706525Y-81456650D03*
D20*
X199416525Y-91526650D03*
X199416525Y-78386650D03*
%TD*%
D17*
%TO.C,L3*%
X196484875Y-64039750D03*
D18*
X196484875Y-66579750D03*
%TD*%
D11*
%TO.C,S1*%
X104498775Y-87550625D03*
D12*
X107038775Y-87550625D03*
%TD*%
D11*
%TO.C,JC1*%
X104500000Y-79629000D03*
D12*
X107040000Y-79629000D03*
%TD*%
D11*
%TO.C,JB1*%
X104496950Y-82397600D03*
D12*
X107036950Y-82397600D03*
%TD*%
D21*
%TO.C,Y1*%
X153838275Y-73662075D03*
X153838275Y-68762075D03*
%TD*%
D11*
%TO.C,J4*%
X107362625Y-66209625D03*
D12*
X107362625Y-68749625D03*
%TD*%
D17*
%TO.C,P2*%
X98872900Y-64990975D03*
D18*
X98872900Y-62490975D03*
X98872900Y-59990975D03*
X98872900Y-57490975D03*
%TD*%
D17*
%TO.C,L4*%
X196399150Y-61409500D03*
D18*
X196399150Y-58869500D03*
%TD*%
D13*
%TO.C,C19*%
X125871488Y-67687825D03*
D14*
X123371488Y-67687825D03*
%TD*%
M02*
